G04 #@! TF.GenerationSoftware,KiCad,Pcbnew,(5.1.5-0-10_14)*
G04 #@! TF.CreationDate,2020-11-09T09:24:24+01:00*
G04 #@! TF.ProjectId,HB-RF-MOD,48422d52-462d-44d4-9f44-2e6b69636164,rev?*
G04 #@! TF.SameCoordinates,Original*
G04 #@! TF.FileFunction,Copper,L2,Bot*
G04 #@! TF.FilePolarity,Positive*
%FSLAX46Y46*%
G04 Gerber Fmt 4.6, Leading zero omitted, Abs format (unit mm)*
G04 Created by KiCad (PCBNEW (5.1.5-0-10_14)) date 2020-11-09 09:24:24*
%MOMM*%
%LPD*%
G04 APERTURE LIST*
%ADD10C,2.400000*%
%ADD11R,2.400000X2.400000*%
%ADD12C,1.800000*%
%ADD13R,1.800000X1.800000*%
%ADD14R,1.600000X3.500000*%
%ADD15O,1.700000X1.700000*%
%ADD16R,1.700000X1.700000*%
%ADD17C,0.800000*%
%ADD18C,0.250000*%
%ADD19C,0.400000*%
%ADD20C,0.254000*%
G04 APERTURE END LIST*
D10*
X43800000Y-61500000D03*
D11*
X38800000Y-61500000D03*
D12*
X26950000Y-75937000D03*
X26950000Y-73778000D03*
X26950000Y-71619000D03*
D13*
X26950000Y-69460000D03*
D14*
X47100000Y-43400000D03*
X47100000Y-37800000D03*
D15*
X56070000Y-72040000D03*
X53530000Y-72040000D03*
X56070000Y-69500000D03*
X53530000Y-69500000D03*
X56070000Y-66960000D03*
X53530000Y-66960000D03*
X56070000Y-64420000D03*
X53530000Y-64420000D03*
X56070000Y-61880000D03*
X53530000Y-61880000D03*
X56070000Y-59340000D03*
X53530000Y-59340000D03*
X56070000Y-56800000D03*
X53530000Y-56800000D03*
X56070000Y-54260000D03*
X53530000Y-54260000D03*
X56070000Y-51720000D03*
X53530000Y-51720000D03*
X56070000Y-49180000D03*
X53530000Y-49180000D03*
X56070000Y-46640000D03*
X53530000Y-46640000D03*
X56070000Y-44100000D03*
X53530000Y-44100000D03*
X56070000Y-41560000D03*
X53530000Y-41560000D03*
X56070000Y-39020000D03*
X53530000Y-39020000D03*
X56070000Y-36480000D03*
X53530000Y-36480000D03*
X56070000Y-33940000D03*
X53530000Y-33940000D03*
X56070000Y-31400000D03*
X53530000Y-31400000D03*
X56070000Y-28860000D03*
X53530000Y-28860000D03*
X56070000Y-26320000D03*
X53530000Y-26320000D03*
X56070000Y-23780000D03*
D16*
X53530000Y-23780000D03*
D17*
X49050000Y-62250000D03*
X34800000Y-47200000D03*
X24100000Y-43900000D03*
X51500000Y-46100000D03*
X35500000Y-74500000D03*
X35600000Y-69900000D03*
X35700000Y-78700000D03*
X48000000Y-78700000D03*
X47500000Y-55900000D03*
X42850000Y-48500000D03*
X34750000Y-50650000D03*
X40950000Y-57750000D03*
X27250000Y-62550000D03*
X27250000Y-64550000D03*
X27200000Y-66450000D03*
X27300000Y-60450000D03*
X47850000Y-69900000D03*
X47950000Y-74400000D03*
X41000000Y-75550000D03*
X41100000Y-70250000D03*
X41000000Y-66400000D03*
X56600000Y-74200000D03*
X52600000Y-78600000D03*
X56800000Y-17200000D03*
X52000000Y-21000000D03*
X42000000Y-21200000D03*
X45200000Y-23600000D03*
X25200000Y-18000000D03*
X25200000Y-23400000D03*
X46200000Y-51800000D03*
X28591600Y-43799000D03*
X34535800Y-20604700D03*
X42318900Y-27681100D03*
X32712200Y-44401700D03*
X37291600Y-44438200D03*
X50998400Y-43494700D03*
X51066400Y-33772300D03*
X26480000Y-53967000D03*
X28868900Y-47229700D03*
X27855400Y-48395900D03*
D18*
X47100000Y-43400000D02*
X48225300Y-43400000D01*
X56070000Y-39020000D02*
X54894700Y-39020000D01*
X54894700Y-39020000D02*
X54894700Y-39387400D01*
X54894700Y-39387400D02*
X54086800Y-40195300D01*
X54086800Y-40195300D02*
X51430000Y-40195300D01*
X51430000Y-40195300D02*
X48225300Y-43400000D01*
X56070000Y-59340000D02*
X56070000Y-58164700D01*
X53530000Y-54260000D02*
X53530000Y-55435300D01*
X53530000Y-55435300D02*
X53897400Y-55435300D01*
X53897400Y-55435300D02*
X54894700Y-56432600D01*
X54894700Y-56432600D02*
X54894700Y-57356800D01*
X54894700Y-57356800D02*
X55702600Y-58164700D01*
X55702600Y-58164700D02*
X56070000Y-58164700D01*
X56070000Y-64420000D02*
X56070000Y-63244700D01*
X56070000Y-59340000D02*
X56070000Y-60515300D01*
X56070000Y-60515300D02*
X55702700Y-60515300D01*
X55702700Y-60515300D02*
X54894700Y-61323300D01*
X54894700Y-61323300D02*
X54894700Y-62436800D01*
X54894700Y-62436800D02*
X55702600Y-63244700D01*
X55702600Y-63244700D02*
X56070000Y-63244700D01*
X56070000Y-64420000D02*
X56070000Y-65595300D01*
X53530000Y-72040000D02*
X53530000Y-70864700D01*
X53530000Y-70864700D02*
X53897400Y-70864700D01*
X53897400Y-70864700D02*
X54894700Y-69867400D01*
X54894700Y-69867400D02*
X54894700Y-66403200D01*
X54894700Y-66403200D02*
X55702600Y-65595300D01*
X55702600Y-65595300D02*
X56070000Y-65595300D01*
X42318900Y-29727400D02*
X41378000Y-30668300D01*
X41378000Y-30668300D02*
X41378000Y-41287300D01*
X41378000Y-41287300D02*
X40009900Y-42655400D01*
X40009900Y-42655400D02*
X29735200Y-42655400D01*
X29735200Y-42655400D02*
X28591600Y-43799000D01*
X42318900Y-29727400D02*
X42318900Y-27681100D01*
X42318900Y-27671200D02*
X35252400Y-20604700D01*
X35252400Y-20604700D02*
X34535800Y-20604700D01*
X42318900Y-27681100D02*
X42318900Y-27671200D01*
X56070000Y-35115300D02*
X55702600Y-35115300D01*
X55702600Y-35115300D02*
X54894700Y-35923200D01*
X54894700Y-35923200D02*
X54894700Y-36816300D01*
X54894700Y-36816300D02*
X53961000Y-37750000D01*
X53961000Y-37750000D02*
X52354600Y-37750000D01*
X52354600Y-37750000D02*
X49103100Y-41001500D01*
X49103100Y-41001500D02*
X46392000Y-41001500D01*
X46392000Y-41001500D02*
X42193000Y-45200500D01*
X42193000Y-45200500D02*
X33511000Y-45200500D01*
X33511000Y-45200500D02*
X32712200Y-44401700D01*
X56070000Y-33940000D02*
X56070000Y-35115300D01*
X56070000Y-31400000D02*
X54894700Y-31400000D01*
X54894700Y-31400000D02*
X54894700Y-31767400D01*
X54894700Y-31767400D02*
X54086800Y-32575300D01*
X54086800Y-32575300D02*
X53202500Y-32575300D01*
X53202500Y-32575300D02*
X52232600Y-33545200D01*
X52232600Y-33545200D02*
X52232600Y-35698500D01*
X52232600Y-35698500D02*
X47877200Y-40053900D01*
X47877200Y-40053900D02*
X45837700Y-40053900D01*
X45837700Y-40053900D02*
X41453400Y-44438200D01*
X41453400Y-44438200D02*
X37291600Y-44438200D01*
D19*
X50217800Y-32923700D02*
X51066400Y-33772300D01*
X47100000Y-35649700D02*
X49826000Y-32923700D01*
X49826000Y-32923700D02*
X50217800Y-32923700D01*
X56070000Y-27570300D02*
X55522900Y-27570300D01*
X55522900Y-27570300D02*
X54819700Y-28273500D01*
X54819700Y-28273500D02*
X54819700Y-29406500D01*
X54819700Y-29406500D02*
X54096200Y-30130000D01*
X54096200Y-30130000D02*
X53011500Y-30130000D01*
X53011500Y-30130000D02*
X50217800Y-32923700D01*
X26950000Y-75937000D02*
X30920300Y-71966700D01*
X30920300Y-71966700D02*
X30920300Y-63572800D01*
X30920300Y-63572800D02*
X50998400Y-43494700D01*
X47100000Y-37800000D02*
X47100000Y-35649700D01*
X56070000Y-26320000D02*
X56070000Y-27570300D01*
D18*
X54894700Y-41560000D02*
X54894700Y-41927400D01*
X54894700Y-41927400D02*
X54086800Y-42735300D01*
X54086800Y-42735300D02*
X50710200Y-42735300D01*
X50710200Y-42735300D02*
X48409400Y-45036100D01*
X48409400Y-45036100D02*
X48409400Y-45160400D01*
X48409400Y-45160400D02*
X39602800Y-53967000D01*
X39602800Y-53967000D02*
X26480000Y-53967000D01*
X56070000Y-41560000D02*
X54894700Y-41560000D01*
X52354700Y-28860000D02*
X43637000Y-37577700D01*
X43637000Y-37577700D02*
X43637000Y-40358600D01*
X43637000Y-40358600D02*
X40365900Y-43629700D01*
X40365900Y-43629700D02*
X32403300Y-43629700D01*
X32403300Y-43629700D02*
X28868900Y-47164100D01*
X28868900Y-47164100D02*
X28868900Y-47229700D01*
X53530000Y-28860000D02*
X52354700Y-28860000D01*
X27855400Y-48395900D02*
X27855400Y-47203700D01*
X27855400Y-47203700D02*
X31953400Y-43105700D01*
X31953400Y-43105700D02*
X40196500Y-43105700D01*
X40196500Y-43105700D02*
X41828300Y-41473900D01*
X41828300Y-41473900D02*
X41828300Y-38682800D01*
X41828300Y-38682800D02*
X53015800Y-27495300D01*
X53015800Y-27495300D02*
X53530000Y-27495300D01*
X53530000Y-26320000D02*
X53530000Y-27495300D01*
D20*
G36*
X57248174Y-16464995D02*
G01*
X57344056Y-16473908D01*
X57402382Y-16491196D01*
X57456236Y-16519483D01*
X57503574Y-16557695D01*
X57542590Y-16604375D01*
X57571797Y-16657746D01*
X57590079Y-16715765D01*
X57600049Y-16806231D01*
X57594990Y-78943139D01*
X57586079Y-79039005D01*
X57568791Y-79097331D01*
X57540504Y-79151185D01*
X57502292Y-79198523D01*
X57455611Y-79237540D01*
X57402242Y-79266746D01*
X57344222Y-79285028D01*
X57253740Y-79295000D01*
X23711774Y-79295000D01*
X23615944Y-79286092D01*
X23557618Y-79268804D01*
X23503764Y-79240517D01*
X23456426Y-79202305D01*
X23417409Y-79155624D01*
X23388203Y-79102255D01*
X23369921Y-79044235D01*
X23359951Y-78953770D01*
X23360794Y-68560000D01*
X25411928Y-68560000D01*
X25411928Y-70360000D01*
X25424188Y-70484482D01*
X25460498Y-70604180D01*
X25519463Y-70714494D01*
X25598815Y-70811185D01*
X25627763Y-70834942D01*
X25589701Y-70891905D01*
X25473989Y-71171257D01*
X25415000Y-71467816D01*
X25415000Y-71770184D01*
X25473989Y-72066743D01*
X25589701Y-72346095D01*
X25757688Y-72597505D01*
X25858683Y-72698500D01*
X25757688Y-72799495D01*
X25589701Y-73050905D01*
X25473989Y-73330257D01*
X25415000Y-73626816D01*
X25415000Y-73929184D01*
X25473989Y-74225743D01*
X25589701Y-74505095D01*
X25757688Y-74756505D01*
X25858683Y-74857500D01*
X25757688Y-74958495D01*
X25589701Y-75209905D01*
X25473989Y-75489257D01*
X25415000Y-75785816D01*
X25415000Y-76088184D01*
X25473989Y-76384743D01*
X25589701Y-76664095D01*
X25757688Y-76915505D01*
X25971495Y-77129312D01*
X26222905Y-77297299D01*
X26502257Y-77413011D01*
X26798816Y-77472000D01*
X27101184Y-77472000D01*
X27397743Y-77413011D01*
X27677095Y-77297299D01*
X27928505Y-77129312D01*
X28142312Y-76915505D01*
X28310299Y-76664095D01*
X28426011Y-76384743D01*
X28445951Y-76284495D01*
X52795000Y-76284495D01*
X52795000Y-76675505D01*
X52871282Y-77059003D01*
X53020915Y-77420250D01*
X53238149Y-77745364D01*
X53514636Y-78021851D01*
X53839750Y-78239085D01*
X54200997Y-78388718D01*
X54584495Y-78465000D01*
X54975505Y-78465000D01*
X55359003Y-78388718D01*
X55720250Y-78239085D01*
X56045364Y-78021851D01*
X56321851Y-77745364D01*
X56539085Y-77420250D01*
X56688718Y-77059003D01*
X56765000Y-76675505D01*
X56765000Y-76284495D01*
X56688718Y-75900997D01*
X56539085Y-75539750D01*
X56321851Y-75214636D01*
X56045364Y-74938149D01*
X55720250Y-74720915D01*
X55359003Y-74571282D01*
X54975505Y-74495000D01*
X54584495Y-74495000D01*
X54200997Y-74571282D01*
X53839750Y-74720915D01*
X53514636Y-74938149D01*
X53238149Y-75214636D01*
X53020915Y-75539750D01*
X52871282Y-75900997D01*
X52795000Y-76284495D01*
X28445951Y-76284495D01*
X28485000Y-76088184D01*
X28485000Y-75785816D01*
X28451329Y-75616538D01*
X31481728Y-72586140D01*
X31513591Y-72559991D01*
X31617936Y-72432846D01*
X31637154Y-72396890D01*
X52088524Y-72396890D01*
X52133175Y-72544099D01*
X52258359Y-72806920D01*
X52432412Y-73040269D01*
X52648645Y-73235178D01*
X52898748Y-73384157D01*
X53173109Y-73481481D01*
X53403000Y-73360814D01*
X53403000Y-72167000D01*
X52209845Y-72167000D01*
X52088524Y-72396890D01*
X31637154Y-72396890D01*
X31695472Y-72287787D01*
X31743218Y-72130389D01*
X31755300Y-72007719D01*
X31755300Y-72007718D01*
X31759340Y-71966701D01*
X31755300Y-71925682D01*
X31755300Y-63918667D01*
X35373967Y-60300000D01*
X36961928Y-60300000D01*
X36961928Y-62700000D01*
X36974188Y-62824482D01*
X37010498Y-62944180D01*
X37069463Y-63054494D01*
X37148815Y-63151185D01*
X37245506Y-63230537D01*
X37355820Y-63289502D01*
X37475518Y-63325812D01*
X37600000Y-63338072D01*
X40000000Y-63338072D01*
X40124482Y-63325812D01*
X40244180Y-63289502D01*
X40354494Y-63230537D01*
X40451185Y-63151185D01*
X40530537Y-63054494D01*
X40589502Y-62944180D01*
X40625812Y-62824482D01*
X40630391Y-62777980D01*
X42701626Y-62777980D01*
X42821514Y-63062836D01*
X43145210Y-63223699D01*
X43494069Y-63318322D01*
X43854684Y-63343067D01*
X44213198Y-63296985D01*
X44555833Y-63181846D01*
X44778486Y-63062836D01*
X44898374Y-62777980D01*
X43800000Y-61679605D01*
X42701626Y-62777980D01*
X40630391Y-62777980D01*
X40638072Y-62700000D01*
X40638072Y-61554684D01*
X41956933Y-61554684D01*
X42003015Y-61913198D01*
X42118154Y-62255833D01*
X42237164Y-62478486D01*
X42522020Y-62598374D01*
X43620395Y-61500000D01*
X43979605Y-61500000D01*
X45077980Y-62598374D01*
X45362836Y-62478486D01*
X45523699Y-62154790D01*
X45618322Y-61805931D01*
X45643067Y-61445316D01*
X45596985Y-61086802D01*
X45481846Y-60744167D01*
X45362836Y-60521514D01*
X45077980Y-60401626D01*
X43979605Y-61500000D01*
X43620395Y-61500000D01*
X42522020Y-60401626D01*
X42237164Y-60521514D01*
X42076301Y-60845210D01*
X41981678Y-61194069D01*
X41956933Y-61554684D01*
X40638072Y-61554684D01*
X40638072Y-60300000D01*
X40630392Y-60222020D01*
X42701626Y-60222020D01*
X43800000Y-61320395D01*
X44898374Y-60222020D01*
X44778486Y-59937164D01*
X44454790Y-59776301D01*
X44105931Y-59681678D01*
X43745316Y-59656933D01*
X43386802Y-59703015D01*
X43044167Y-59818154D01*
X42821514Y-59937164D01*
X42701626Y-60222020D01*
X40630392Y-60222020D01*
X40625812Y-60175518D01*
X40589502Y-60055820D01*
X40530537Y-59945506D01*
X40451185Y-59848815D01*
X40354494Y-59769463D01*
X40244180Y-59710498D01*
X40124482Y-59674188D01*
X40000000Y-59661928D01*
X37600000Y-59661928D01*
X37475518Y-59674188D01*
X37355820Y-59710498D01*
X37245506Y-59769463D01*
X37148815Y-59848815D01*
X37069463Y-59945506D01*
X37010498Y-60055820D01*
X36974188Y-60175518D01*
X36961928Y-60300000D01*
X35373967Y-60300000D01*
X51155176Y-44518792D01*
X51300298Y-44489926D01*
X51488656Y-44411905D01*
X51658174Y-44298637D01*
X51802337Y-44154474D01*
X51915605Y-43984956D01*
X51993626Y-43796598D01*
X52033400Y-43596639D01*
X52033400Y-43495300D01*
X52173123Y-43495300D01*
X52102068Y-43666842D01*
X52045000Y-43953740D01*
X52045000Y-44246260D01*
X52102068Y-44533158D01*
X52214010Y-44803411D01*
X52376525Y-45046632D01*
X52583368Y-45253475D01*
X52757760Y-45370000D01*
X52583368Y-45486525D01*
X52376525Y-45693368D01*
X52214010Y-45936589D01*
X52102068Y-46206842D01*
X52045000Y-46493740D01*
X52045000Y-46786260D01*
X52102068Y-47073158D01*
X52214010Y-47343411D01*
X52376525Y-47586632D01*
X52583368Y-47793475D01*
X52757760Y-47910000D01*
X52583368Y-48026525D01*
X52376525Y-48233368D01*
X52214010Y-48476589D01*
X52102068Y-48746842D01*
X52045000Y-49033740D01*
X52045000Y-49326260D01*
X52102068Y-49613158D01*
X52214010Y-49883411D01*
X52376525Y-50126632D01*
X52583368Y-50333475D01*
X52757760Y-50450000D01*
X52583368Y-50566525D01*
X52376525Y-50773368D01*
X52214010Y-51016589D01*
X52102068Y-51286842D01*
X52045000Y-51573740D01*
X52045000Y-51866260D01*
X52102068Y-52153158D01*
X52214010Y-52423411D01*
X52376525Y-52666632D01*
X52583368Y-52873475D01*
X52765534Y-52995195D01*
X52648645Y-53064822D01*
X52432412Y-53259731D01*
X52258359Y-53493080D01*
X52133175Y-53755901D01*
X52088524Y-53903110D01*
X52209845Y-54133000D01*
X53403000Y-54133000D01*
X53403000Y-54113000D01*
X53657000Y-54113000D01*
X53657000Y-54133000D01*
X53677000Y-54133000D01*
X53677000Y-54387000D01*
X53657000Y-54387000D01*
X53657000Y-54407000D01*
X53403000Y-54407000D01*
X53403000Y-54387000D01*
X52209845Y-54387000D01*
X52088524Y-54616890D01*
X52133175Y-54764099D01*
X52258359Y-55026920D01*
X52432412Y-55260269D01*
X52648645Y-55455178D01*
X52765534Y-55524805D01*
X52583368Y-55646525D01*
X52376525Y-55853368D01*
X52214010Y-56096589D01*
X52102068Y-56366842D01*
X52045000Y-56653740D01*
X52045000Y-56946260D01*
X52102068Y-57233158D01*
X52214010Y-57503411D01*
X52376525Y-57746632D01*
X52583368Y-57953475D01*
X52757760Y-58070000D01*
X52583368Y-58186525D01*
X52376525Y-58393368D01*
X52214010Y-58636589D01*
X52102068Y-58906842D01*
X52045000Y-59193740D01*
X52045000Y-59486260D01*
X52102068Y-59773158D01*
X52214010Y-60043411D01*
X52376525Y-60286632D01*
X52583368Y-60493475D01*
X52757760Y-60610000D01*
X52583368Y-60726525D01*
X52376525Y-60933368D01*
X52214010Y-61176589D01*
X52102068Y-61446842D01*
X52045000Y-61733740D01*
X52045000Y-62026260D01*
X52102068Y-62313158D01*
X52214010Y-62583411D01*
X52376525Y-62826632D01*
X52583368Y-63033475D01*
X52757760Y-63150000D01*
X52583368Y-63266525D01*
X52376525Y-63473368D01*
X52214010Y-63716589D01*
X52102068Y-63986842D01*
X52045000Y-64273740D01*
X52045000Y-64566260D01*
X52102068Y-64853158D01*
X52214010Y-65123411D01*
X52376525Y-65366632D01*
X52583368Y-65573475D01*
X52757760Y-65690000D01*
X52583368Y-65806525D01*
X52376525Y-66013368D01*
X52214010Y-66256589D01*
X52102068Y-66526842D01*
X52045000Y-66813740D01*
X52045000Y-67106260D01*
X52102068Y-67393158D01*
X52214010Y-67663411D01*
X52376525Y-67906632D01*
X52583368Y-68113475D01*
X52757760Y-68230000D01*
X52583368Y-68346525D01*
X52376525Y-68553368D01*
X52214010Y-68796589D01*
X52102068Y-69066842D01*
X52045000Y-69353740D01*
X52045000Y-69646260D01*
X52102068Y-69933158D01*
X52214010Y-70203411D01*
X52376525Y-70446632D01*
X52583368Y-70653475D01*
X52765534Y-70775195D01*
X52648645Y-70844822D01*
X52432412Y-71039731D01*
X52258359Y-71273080D01*
X52133175Y-71535901D01*
X52088524Y-71683110D01*
X52209845Y-71913000D01*
X53403000Y-71913000D01*
X53403000Y-71893000D01*
X53657000Y-71893000D01*
X53657000Y-71913000D01*
X53677000Y-71913000D01*
X53677000Y-72167000D01*
X53657000Y-72167000D01*
X53657000Y-73360814D01*
X53886891Y-73481481D01*
X54161252Y-73384157D01*
X54411355Y-73235178D01*
X54627588Y-73040269D01*
X54798900Y-72810594D01*
X54916525Y-72986632D01*
X55123368Y-73193475D01*
X55366589Y-73355990D01*
X55636842Y-73467932D01*
X55923740Y-73525000D01*
X56216260Y-73525000D01*
X56503158Y-73467932D01*
X56773411Y-73355990D01*
X57016632Y-73193475D01*
X57223475Y-72986632D01*
X57385990Y-72743411D01*
X57497932Y-72473158D01*
X57555000Y-72186260D01*
X57555000Y-71893740D01*
X57497932Y-71606842D01*
X57385990Y-71336589D01*
X57223475Y-71093368D01*
X57016632Y-70886525D01*
X56842240Y-70770000D01*
X57016632Y-70653475D01*
X57223475Y-70446632D01*
X57385990Y-70203411D01*
X57497932Y-69933158D01*
X57555000Y-69646260D01*
X57555000Y-69353740D01*
X57497932Y-69066842D01*
X57385990Y-68796589D01*
X57223475Y-68553368D01*
X57016632Y-68346525D01*
X56842240Y-68230000D01*
X57016632Y-68113475D01*
X57223475Y-67906632D01*
X57385990Y-67663411D01*
X57497932Y-67393158D01*
X57555000Y-67106260D01*
X57555000Y-66813740D01*
X57497932Y-66526842D01*
X57385990Y-66256589D01*
X57223475Y-66013368D01*
X57016632Y-65806525D01*
X56834466Y-65684805D01*
X56951355Y-65615178D01*
X57167588Y-65420269D01*
X57341641Y-65186920D01*
X57466825Y-64924099D01*
X57511476Y-64776890D01*
X57390155Y-64547000D01*
X56197000Y-64547000D01*
X56197000Y-64567000D01*
X55943000Y-64567000D01*
X55943000Y-64547000D01*
X55923000Y-64547000D01*
X55923000Y-64293000D01*
X55943000Y-64293000D01*
X55943000Y-64273000D01*
X56197000Y-64273000D01*
X56197000Y-64293000D01*
X57390155Y-64293000D01*
X57511476Y-64063110D01*
X57466825Y-63915901D01*
X57341641Y-63653080D01*
X57167588Y-63419731D01*
X56951355Y-63224822D01*
X56834466Y-63155195D01*
X57016632Y-63033475D01*
X57223475Y-62826632D01*
X57385990Y-62583411D01*
X57497932Y-62313158D01*
X57555000Y-62026260D01*
X57555000Y-61733740D01*
X57497932Y-61446842D01*
X57385990Y-61176589D01*
X57223475Y-60933368D01*
X57016632Y-60726525D01*
X56834466Y-60604805D01*
X56951355Y-60535178D01*
X57167588Y-60340269D01*
X57341641Y-60106920D01*
X57466825Y-59844099D01*
X57511476Y-59696890D01*
X57390155Y-59467000D01*
X56197000Y-59467000D01*
X56197000Y-59487000D01*
X55943000Y-59487000D01*
X55943000Y-59467000D01*
X55923000Y-59467000D01*
X55923000Y-59213000D01*
X55943000Y-59213000D01*
X55943000Y-59193000D01*
X56197000Y-59193000D01*
X56197000Y-59213000D01*
X57390155Y-59213000D01*
X57511476Y-58983110D01*
X57466825Y-58835901D01*
X57341641Y-58573080D01*
X57167588Y-58339731D01*
X56951355Y-58144822D01*
X56834466Y-58075195D01*
X57016632Y-57953475D01*
X57223475Y-57746632D01*
X57385990Y-57503411D01*
X57497932Y-57233158D01*
X57555000Y-56946260D01*
X57555000Y-56653740D01*
X57497932Y-56366842D01*
X57385990Y-56096589D01*
X57223475Y-55853368D01*
X57016632Y-55646525D01*
X56842240Y-55530000D01*
X57016632Y-55413475D01*
X57223475Y-55206632D01*
X57385990Y-54963411D01*
X57497932Y-54693158D01*
X57555000Y-54406260D01*
X57555000Y-54113740D01*
X57497932Y-53826842D01*
X57385990Y-53556589D01*
X57223475Y-53313368D01*
X57016632Y-53106525D01*
X56842240Y-52990000D01*
X57016632Y-52873475D01*
X57223475Y-52666632D01*
X57385990Y-52423411D01*
X57497932Y-52153158D01*
X57555000Y-51866260D01*
X57555000Y-51573740D01*
X57497932Y-51286842D01*
X57385990Y-51016589D01*
X57223475Y-50773368D01*
X57016632Y-50566525D01*
X56842240Y-50450000D01*
X57016632Y-50333475D01*
X57223475Y-50126632D01*
X57385990Y-49883411D01*
X57497932Y-49613158D01*
X57555000Y-49326260D01*
X57555000Y-49033740D01*
X57497932Y-48746842D01*
X57385990Y-48476589D01*
X57223475Y-48233368D01*
X57016632Y-48026525D01*
X56834466Y-47904805D01*
X56951355Y-47835178D01*
X57167588Y-47640269D01*
X57341641Y-47406920D01*
X57466825Y-47144099D01*
X57511476Y-46996890D01*
X57390155Y-46767000D01*
X56197000Y-46767000D01*
X56197000Y-46787000D01*
X55943000Y-46787000D01*
X55943000Y-46767000D01*
X55923000Y-46767000D01*
X55923000Y-46513000D01*
X55943000Y-46513000D01*
X55943000Y-46493000D01*
X56197000Y-46493000D01*
X56197000Y-46513000D01*
X57390155Y-46513000D01*
X57511476Y-46283110D01*
X57466825Y-46135901D01*
X57341641Y-45873080D01*
X57167588Y-45639731D01*
X56951355Y-45444822D01*
X56834466Y-45375195D01*
X57016632Y-45253475D01*
X57223475Y-45046632D01*
X57385990Y-44803411D01*
X57497932Y-44533158D01*
X57555000Y-44246260D01*
X57555000Y-43953740D01*
X57497932Y-43666842D01*
X57385990Y-43396589D01*
X57223475Y-43153368D01*
X57016632Y-42946525D01*
X56842240Y-42830000D01*
X57016632Y-42713475D01*
X57223475Y-42506632D01*
X57385990Y-42263411D01*
X57497932Y-41993158D01*
X57555000Y-41706260D01*
X57555000Y-41413740D01*
X57497932Y-41126842D01*
X57385990Y-40856589D01*
X57223475Y-40613368D01*
X57016632Y-40406525D01*
X56834466Y-40284805D01*
X56951355Y-40215178D01*
X57167588Y-40020269D01*
X57341641Y-39786920D01*
X57466825Y-39524099D01*
X57511476Y-39376890D01*
X57390155Y-39147000D01*
X56197000Y-39147000D01*
X56197000Y-39167000D01*
X55943000Y-39167000D01*
X55943000Y-39147000D01*
X55923000Y-39147000D01*
X55923000Y-38893000D01*
X55943000Y-38893000D01*
X55943000Y-38873000D01*
X56197000Y-38873000D01*
X56197000Y-38893000D01*
X57390155Y-38893000D01*
X57511476Y-38663110D01*
X57466825Y-38515901D01*
X57341641Y-38253080D01*
X57167588Y-38019731D01*
X56951355Y-37824822D01*
X56834466Y-37755195D01*
X57016632Y-37633475D01*
X57223475Y-37426632D01*
X57385990Y-37183411D01*
X57497932Y-36913158D01*
X57555000Y-36626260D01*
X57555000Y-36333740D01*
X57497932Y-36046842D01*
X57385990Y-35776589D01*
X57223475Y-35533368D01*
X57016632Y-35326525D01*
X56842240Y-35210000D01*
X57016632Y-35093475D01*
X57223475Y-34886632D01*
X57385990Y-34643411D01*
X57497932Y-34373158D01*
X57555000Y-34086260D01*
X57555000Y-33793740D01*
X57497932Y-33506842D01*
X57385990Y-33236589D01*
X57223475Y-32993368D01*
X57016632Y-32786525D01*
X56842240Y-32670000D01*
X57016632Y-32553475D01*
X57223475Y-32346632D01*
X57385990Y-32103411D01*
X57497932Y-31833158D01*
X57555000Y-31546260D01*
X57555000Y-31253740D01*
X57497932Y-30966842D01*
X57385990Y-30696589D01*
X57223475Y-30453368D01*
X57016632Y-30246525D01*
X56834466Y-30124805D01*
X56951355Y-30055178D01*
X57167588Y-29860269D01*
X57341641Y-29626920D01*
X57466825Y-29364099D01*
X57511476Y-29216890D01*
X57390155Y-28987000D01*
X56197000Y-28987000D01*
X56197000Y-29007000D01*
X55943000Y-29007000D01*
X55943000Y-28987000D01*
X55923000Y-28987000D01*
X55923000Y-28733000D01*
X55943000Y-28733000D01*
X55943000Y-28713000D01*
X56197000Y-28713000D01*
X56197000Y-28733000D01*
X57390155Y-28733000D01*
X57511476Y-28503110D01*
X57466825Y-28355901D01*
X57341641Y-28093080D01*
X57167588Y-27859731D01*
X56951355Y-27664822D01*
X56902591Y-27635775D01*
X56905000Y-27611319D01*
X56909040Y-27570300D01*
X56906736Y-27546905D01*
X57016632Y-27473475D01*
X57223475Y-27266632D01*
X57385990Y-27023411D01*
X57497932Y-26753158D01*
X57555000Y-26466260D01*
X57555000Y-26173740D01*
X57497932Y-25886842D01*
X57385990Y-25616589D01*
X57223475Y-25373368D01*
X57016632Y-25166525D01*
X56842240Y-25050000D01*
X57016632Y-24933475D01*
X57223475Y-24726632D01*
X57385990Y-24483411D01*
X57497932Y-24213158D01*
X57555000Y-23926260D01*
X57555000Y-23633740D01*
X57497932Y-23346842D01*
X57385990Y-23076589D01*
X57223475Y-22833368D01*
X57016632Y-22626525D01*
X56773411Y-22464010D01*
X56503158Y-22352068D01*
X56216260Y-22295000D01*
X55923740Y-22295000D01*
X55636842Y-22352068D01*
X55366589Y-22464010D01*
X55123368Y-22626525D01*
X54991513Y-22758380D01*
X54969502Y-22685820D01*
X54910537Y-22575506D01*
X54831185Y-22478815D01*
X54734494Y-22399463D01*
X54624180Y-22340498D01*
X54504482Y-22304188D01*
X54380000Y-22291928D01*
X52680000Y-22291928D01*
X52555518Y-22304188D01*
X52435820Y-22340498D01*
X52325506Y-22399463D01*
X52228815Y-22478815D01*
X52149463Y-22575506D01*
X52090498Y-22685820D01*
X52054188Y-22805518D01*
X52041928Y-22930000D01*
X52041928Y-24630000D01*
X52054188Y-24754482D01*
X52090498Y-24874180D01*
X52149463Y-24984494D01*
X52228815Y-25081185D01*
X52325506Y-25160537D01*
X52435820Y-25219502D01*
X52508380Y-25241513D01*
X52376525Y-25373368D01*
X52214010Y-25616589D01*
X52102068Y-25886842D01*
X52045000Y-26173740D01*
X52045000Y-26466260D01*
X52102068Y-26753158D01*
X52214010Y-27023411D01*
X52293669Y-27142629D01*
X42138000Y-37298299D01*
X42138000Y-30983101D01*
X42829904Y-30291198D01*
X42858901Y-30267401D01*
X42953874Y-30151676D01*
X43024446Y-30019647D01*
X43067903Y-29876386D01*
X43078900Y-29764733D01*
X43078900Y-29764732D01*
X43082577Y-29727400D01*
X43078900Y-29690067D01*
X43078900Y-28384811D01*
X43122837Y-28340874D01*
X43236105Y-28171356D01*
X43314126Y-27982998D01*
X43353900Y-27783039D01*
X43353900Y-27579161D01*
X43314126Y-27379202D01*
X43236105Y-27190844D01*
X43122837Y-27021326D01*
X42978674Y-26877163D01*
X42809156Y-26763895D01*
X42620798Y-26685874D01*
X42420839Y-26646100D01*
X42368602Y-26646100D01*
X35816204Y-20093703D01*
X35792401Y-20064699D01*
X35676676Y-19969726D01*
X35544647Y-19899154D01*
X35401386Y-19855697D01*
X35289733Y-19844700D01*
X35289722Y-19844700D01*
X35252400Y-19841024D01*
X35237320Y-19842509D01*
X35195574Y-19800763D01*
X35026056Y-19687495D01*
X34837698Y-19609474D01*
X34637739Y-19569700D01*
X34433861Y-19569700D01*
X34233902Y-19609474D01*
X34045544Y-19687495D01*
X33876026Y-19800763D01*
X33731863Y-19944926D01*
X33618595Y-20114444D01*
X33540574Y-20302802D01*
X33500800Y-20502761D01*
X33500800Y-20706639D01*
X33540574Y-20906598D01*
X33618595Y-21094956D01*
X33731863Y-21264474D01*
X33876026Y-21408637D01*
X34045544Y-21521905D01*
X34233902Y-21599926D01*
X34433861Y-21639700D01*
X34637739Y-21639700D01*
X34837698Y-21599926D01*
X35026056Y-21521905D01*
X35067267Y-21494368D01*
X41283900Y-27711002D01*
X41283900Y-27783039D01*
X41323674Y-27982998D01*
X41401695Y-28171356D01*
X41514963Y-28340874D01*
X41558901Y-28384812D01*
X41558900Y-29412598D01*
X40867002Y-30104496D01*
X40837999Y-30128299D01*
X40782871Y-30195474D01*
X40743026Y-30244024D01*
X40689053Y-30345000D01*
X40672454Y-30376054D01*
X40628997Y-30519315D01*
X40618000Y-30630968D01*
X40618000Y-30630978D01*
X40614324Y-30668300D01*
X40618000Y-30705622D01*
X40618001Y-40972497D01*
X39695099Y-41895400D01*
X29772525Y-41895400D01*
X29735200Y-41891724D01*
X29697875Y-41895400D01*
X29697867Y-41895400D01*
X29586214Y-41906397D01*
X29442953Y-41949854D01*
X29310924Y-42020426D01*
X29195199Y-42115399D01*
X29171401Y-42144397D01*
X28551799Y-42764000D01*
X28489661Y-42764000D01*
X28289702Y-42803774D01*
X28101344Y-42881795D01*
X27931826Y-42995063D01*
X27787663Y-43139226D01*
X27674395Y-43308744D01*
X27596374Y-43497102D01*
X27556600Y-43697061D01*
X27556600Y-43900939D01*
X27596374Y-44100898D01*
X27674395Y-44289256D01*
X27787663Y-44458774D01*
X27931826Y-44602937D01*
X28101344Y-44716205D01*
X28289702Y-44794226D01*
X28489661Y-44834000D01*
X28693539Y-44834000D01*
X28893498Y-44794226D01*
X29081856Y-44716205D01*
X29251374Y-44602937D01*
X29395537Y-44458774D01*
X29508805Y-44289256D01*
X29586826Y-44100898D01*
X29626600Y-43900939D01*
X29626600Y-43838801D01*
X30050002Y-43415400D01*
X30568898Y-43415400D01*
X27344398Y-46639901D01*
X27315400Y-46663699D01*
X27291602Y-46692697D01*
X27291601Y-46692698D01*
X27220426Y-46779424D01*
X27149854Y-46911454D01*
X27106398Y-47054715D01*
X27091724Y-47203700D01*
X27095401Y-47241032D01*
X27095401Y-47692188D01*
X27051463Y-47736126D01*
X26938195Y-47905644D01*
X26860174Y-48094002D01*
X26820400Y-48293961D01*
X26820400Y-48497839D01*
X26860174Y-48697798D01*
X26938195Y-48886156D01*
X27051463Y-49055674D01*
X27195626Y-49199837D01*
X27365144Y-49313105D01*
X27553502Y-49391126D01*
X27753461Y-49430900D01*
X27957339Y-49430900D01*
X28157298Y-49391126D01*
X28345656Y-49313105D01*
X28515174Y-49199837D01*
X28659337Y-49055674D01*
X28772605Y-48886156D01*
X28850626Y-48697798D01*
X28890400Y-48497839D01*
X28890400Y-48293961D01*
X28884580Y-48264700D01*
X28970839Y-48264700D01*
X29170798Y-48224926D01*
X29359156Y-48146905D01*
X29528674Y-48033637D01*
X29672837Y-47889474D01*
X29786105Y-47719956D01*
X29864126Y-47531598D01*
X29903900Y-47331639D01*
X29903900Y-47203901D01*
X31977296Y-45130507D01*
X32052426Y-45205637D01*
X32221944Y-45318905D01*
X32410302Y-45396926D01*
X32610261Y-45436700D01*
X32672398Y-45436700D01*
X32947201Y-45711502D01*
X32970999Y-45740501D01*
X33086724Y-45835474D01*
X33218753Y-45906046D01*
X33362014Y-45949503D01*
X33473667Y-45960500D01*
X33473675Y-45960500D01*
X33511000Y-45964176D01*
X33548325Y-45960500D01*
X42155678Y-45960500D01*
X42193000Y-45964176D01*
X42230322Y-45960500D01*
X42230333Y-45960500D01*
X42341986Y-45949503D01*
X42485247Y-45906046D01*
X42617276Y-45835474D01*
X42733001Y-45740501D01*
X42756804Y-45711497D01*
X45664349Y-42803953D01*
X45665000Y-43114250D01*
X45823750Y-43273000D01*
X46973000Y-43273000D01*
X46973000Y-43253000D01*
X47227000Y-43253000D01*
X47227000Y-43273000D01*
X48376250Y-43273000D01*
X48535000Y-43114250D01*
X48537838Y-41761500D01*
X49065778Y-41761500D01*
X49103100Y-41765176D01*
X49140422Y-41761500D01*
X49140433Y-41761500D01*
X49252086Y-41750503D01*
X49395347Y-41707046D01*
X49527376Y-41636474D01*
X49643101Y-41541501D01*
X49666904Y-41512497D01*
X52045000Y-39134402D01*
X52045000Y-39166260D01*
X52102068Y-39453158D01*
X52214010Y-39723411D01*
X52376525Y-39966632D01*
X52583368Y-40173475D01*
X52757760Y-40290000D01*
X52583368Y-40406525D01*
X52376525Y-40613368D01*
X52214010Y-40856589D01*
X52102068Y-41126842D01*
X52045000Y-41413740D01*
X52045000Y-41706260D01*
X52098516Y-41975300D01*
X50747533Y-41975300D01*
X50710200Y-41971623D01*
X50672867Y-41975300D01*
X50561214Y-41986297D01*
X50417953Y-42029754D01*
X50285924Y-42100326D01*
X50170199Y-42195299D01*
X50146401Y-42224297D01*
X48535314Y-43835385D01*
X48535000Y-43685750D01*
X48376250Y-43527000D01*
X47227000Y-43527000D01*
X47227000Y-43547000D01*
X46973000Y-43547000D01*
X46973000Y-43527000D01*
X45823750Y-43527000D01*
X45665000Y-43685750D01*
X45661928Y-45150000D01*
X45674188Y-45274482D01*
X45710498Y-45394180D01*
X45769463Y-45504494D01*
X45848815Y-45601185D01*
X45945506Y-45680537D01*
X46055820Y-45739502D01*
X46175518Y-45775812D01*
X46300000Y-45788072D01*
X46709372Y-45785627D01*
X39287999Y-53207000D01*
X27183711Y-53207000D01*
X27139774Y-53163063D01*
X26970256Y-53049795D01*
X26781898Y-52971774D01*
X26581939Y-52932000D01*
X26378061Y-52932000D01*
X26178102Y-52971774D01*
X25989744Y-53049795D01*
X25820226Y-53163063D01*
X25676063Y-53307226D01*
X25562795Y-53476744D01*
X25484774Y-53665102D01*
X25445000Y-53865061D01*
X25445000Y-54068939D01*
X25484774Y-54268898D01*
X25562795Y-54457256D01*
X25676063Y-54626774D01*
X25820226Y-54770937D01*
X25989744Y-54884205D01*
X26178102Y-54962226D01*
X26378061Y-55002000D01*
X26581939Y-55002000D01*
X26781898Y-54962226D01*
X26970256Y-54884205D01*
X27139774Y-54770937D01*
X27183711Y-54727000D01*
X38585233Y-54727000D01*
X30358874Y-62953359D01*
X30327010Y-62979509D01*
X30247951Y-63075843D01*
X30222664Y-63106655D01*
X30145128Y-63251714D01*
X30097382Y-63409112D01*
X30081260Y-63572800D01*
X30085301Y-63613829D01*
X30085300Y-71620832D01*
X28411327Y-73294806D01*
X28310299Y-73050905D01*
X28142312Y-72799495D01*
X28041317Y-72698500D01*
X28142312Y-72597505D01*
X28310299Y-72346095D01*
X28426011Y-72066743D01*
X28485000Y-71770184D01*
X28485000Y-71467816D01*
X28426011Y-71171257D01*
X28310299Y-70891905D01*
X28272237Y-70834942D01*
X28301185Y-70811185D01*
X28380537Y-70714494D01*
X28439502Y-70604180D01*
X28475812Y-70484482D01*
X28488072Y-70360000D01*
X28488072Y-68560000D01*
X28475812Y-68435518D01*
X28439502Y-68315820D01*
X28380537Y-68205506D01*
X28301185Y-68108815D01*
X28204494Y-68029463D01*
X28094180Y-67970498D01*
X27974482Y-67934188D01*
X27850000Y-67921928D01*
X26050000Y-67921928D01*
X25925518Y-67934188D01*
X25805820Y-67970498D01*
X25695506Y-68029463D01*
X25598815Y-68108815D01*
X25519463Y-68205506D01*
X25460498Y-68315820D01*
X25424188Y-68435518D01*
X25411928Y-68560000D01*
X23360794Y-68560000D01*
X23364812Y-19084495D01*
X52795000Y-19084495D01*
X52795000Y-19475505D01*
X52871282Y-19859003D01*
X53020915Y-20220250D01*
X53238149Y-20545364D01*
X53514636Y-20821851D01*
X53839750Y-21039085D01*
X54200997Y-21188718D01*
X54584495Y-21265000D01*
X54975505Y-21265000D01*
X55359003Y-21188718D01*
X55720250Y-21039085D01*
X56045364Y-20821851D01*
X56321851Y-20545364D01*
X56539085Y-20220250D01*
X56688718Y-19859003D01*
X56765000Y-19475505D01*
X56765000Y-19084495D01*
X56688718Y-18700997D01*
X56539085Y-18339750D01*
X56321851Y-18014636D01*
X56045364Y-17738149D01*
X55720250Y-17520915D01*
X55359003Y-17371282D01*
X54975505Y-17295000D01*
X54584495Y-17295000D01*
X54200997Y-17371282D01*
X53839750Y-17520915D01*
X53514636Y-17738149D01*
X53238149Y-18014636D01*
X53020915Y-18339750D01*
X52871282Y-18700997D01*
X52795000Y-19084495D01*
X23364812Y-19084495D01*
X23364997Y-16811810D01*
X23373908Y-16715944D01*
X23391196Y-16657618D01*
X23419483Y-16603764D01*
X23457695Y-16556426D01*
X23504375Y-16517410D01*
X23557746Y-16488203D01*
X23615765Y-16469921D01*
X23706221Y-16459952D01*
X57248174Y-16464995D01*
G37*
X57248174Y-16464995D02*
X57344056Y-16473908D01*
X57402382Y-16491196D01*
X57456236Y-16519483D01*
X57503574Y-16557695D01*
X57542590Y-16604375D01*
X57571797Y-16657746D01*
X57590079Y-16715765D01*
X57600049Y-16806231D01*
X57594990Y-78943139D01*
X57586079Y-79039005D01*
X57568791Y-79097331D01*
X57540504Y-79151185D01*
X57502292Y-79198523D01*
X57455611Y-79237540D01*
X57402242Y-79266746D01*
X57344222Y-79285028D01*
X57253740Y-79295000D01*
X23711774Y-79295000D01*
X23615944Y-79286092D01*
X23557618Y-79268804D01*
X23503764Y-79240517D01*
X23456426Y-79202305D01*
X23417409Y-79155624D01*
X23388203Y-79102255D01*
X23369921Y-79044235D01*
X23359951Y-78953770D01*
X23360794Y-68560000D01*
X25411928Y-68560000D01*
X25411928Y-70360000D01*
X25424188Y-70484482D01*
X25460498Y-70604180D01*
X25519463Y-70714494D01*
X25598815Y-70811185D01*
X25627763Y-70834942D01*
X25589701Y-70891905D01*
X25473989Y-71171257D01*
X25415000Y-71467816D01*
X25415000Y-71770184D01*
X25473989Y-72066743D01*
X25589701Y-72346095D01*
X25757688Y-72597505D01*
X25858683Y-72698500D01*
X25757688Y-72799495D01*
X25589701Y-73050905D01*
X25473989Y-73330257D01*
X25415000Y-73626816D01*
X25415000Y-73929184D01*
X25473989Y-74225743D01*
X25589701Y-74505095D01*
X25757688Y-74756505D01*
X25858683Y-74857500D01*
X25757688Y-74958495D01*
X25589701Y-75209905D01*
X25473989Y-75489257D01*
X25415000Y-75785816D01*
X25415000Y-76088184D01*
X25473989Y-76384743D01*
X25589701Y-76664095D01*
X25757688Y-76915505D01*
X25971495Y-77129312D01*
X26222905Y-77297299D01*
X26502257Y-77413011D01*
X26798816Y-77472000D01*
X27101184Y-77472000D01*
X27397743Y-77413011D01*
X27677095Y-77297299D01*
X27928505Y-77129312D01*
X28142312Y-76915505D01*
X28310299Y-76664095D01*
X28426011Y-76384743D01*
X28445951Y-76284495D01*
X52795000Y-76284495D01*
X52795000Y-76675505D01*
X52871282Y-77059003D01*
X53020915Y-77420250D01*
X53238149Y-77745364D01*
X53514636Y-78021851D01*
X53839750Y-78239085D01*
X54200997Y-78388718D01*
X54584495Y-78465000D01*
X54975505Y-78465000D01*
X55359003Y-78388718D01*
X55720250Y-78239085D01*
X56045364Y-78021851D01*
X56321851Y-77745364D01*
X56539085Y-77420250D01*
X56688718Y-77059003D01*
X56765000Y-76675505D01*
X56765000Y-76284495D01*
X56688718Y-75900997D01*
X56539085Y-75539750D01*
X56321851Y-75214636D01*
X56045364Y-74938149D01*
X55720250Y-74720915D01*
X55359003Y-74571282D01*
X54975505Y-74495000D01*
X54584495Y-74495000D01*
X54200997Y-74571282D01*
X53839750Y-74720915D01*
X53514636Y-74938149D01*
X53238149Y-75214636D01*
X53020915Y-75539750D01*
X52871282Y-75900997D01*
X52795000Y-76284495D01*
X28445951Y-76284495D01*
X28485000Y-76088184D01*
X28485000Y-75785816D01*
X28451329Y-75616538D01*
X31481728Y-72586140D01*
X31513591Y-72559991D01*
X31617936Y-72432846D01*
X31637154Y-72396890D01*
X52088524Y-72396890D01*
X52133175Y-72544099D01*
X52258359Y-72806920D01*
X52432412Y-73040269D01*
X52648645Y-73235178D01*
X52898748Y-73384157D01*
X53173109Y-73481481D01*
X53403000Y-73360814D01*
X53403000Y-72167000D01*
X52209845Y-72167000D01*
X52088524Y-72396890D01*
X31637154Y-72396890D01*
X31695472Y-72287787D01*
X31743218Y-72130389D01*
X31755300Y-72007719D01*
X31755300Y-72007718D01*
X31759340Y-71966701D01*
X31755300Y-71925682D01*
X31755300Y-63918667D01*
X35373967Y-60300000D01*
X36961928Y-60300000D01*
X36961928Y-62700000D01*
X36974188Y-62824482D01*
X37010498Y-62944180D01*
X37069463Y-63054494D01*
X37148815Y-63151185D01*
X37245506Y-63230537D01*
X37355820Y-63289502D01*
X37475518Y-63325812D01*
X37600000Y-63338072D01*
X40000000Y-63338072D01*
X40124482Y-63325812D01*
X40244180Y-63289502D01*
X40354494Y-63230537D01*
X40451185Y-63151185D01*
X40530537Y-63054494D01*
X40589502Y-62944180D01*
X40625812Y-62824482D01*
X40630391Y-62777980D01*
X42701626Y-62777980D01*
X42821514Y-63062836D01*
X43145210Y-63223699D01*
X43494069Y-63318322D01*
X43854684Y-63343067D01*
X44213198Y-63296985D01*
X44555833Y-63181846D01*
X44778486Y-63062836D01*
X44898374Y-62777980D01*
X43800000Y-61679605D01*
X42701626Y-62777980D01*
X40630391Y-62777980D01*
X40638072Y-62700000D01*
X40638072Y-61554684D01*
X41956933Y-61554684D01*
X42003015Y-61913198D01*
X42118154Y-62255833D01*
X42237164Y-62478486D01*
X42522020Y-62598374D01*
X43620395Y-61500000D01*
X43979605Y-61500000D01*
X45077980Y-62598374D01*
X45362836Y-62478486D01*
X45523699Y-62154790D01*
X45618322Y-61805931D01*
X45643067Y-61445316D01*
X45596985Y-61086802D01*
X45481846Y-60744167D01*
X45362836Y-60521514D01*
X45077980Y-60401626D01*
X43979605Y-61500000D01*
X43620395Y-61500000D01*
X42522020Y-60401626D01*
X42237164Y-60521514D01*
X42076301Y-60845210D01*
X41981678Y-61194069D01*
X41956933Y-61554684D01*
X40638072Y-61554684D01*
X40638072Y-60300000D01*
X40630392Y-60222020D01*
X42701626Y-60222020D01*
X43800000Y-61320395D01*
X44898374Y-60222020D01*
X44778486Y-59937164D01*
X44454790Y-59776301D01*
X44105931Y-59681678D01*
X43745316Y-59656933D01*
X43386802Y-59703015D01*
X43044167Y-59818154D01*
X42821514Y-59937164D01*
X42701626Y-60222020D01*
X40630392Y-60222020D01*
X40625812Y-60175518D01*
X40589502Y-60055820D01*
X40530537Y-59945506D01*
X40451185Y-59848815D01*
X40354494Y-59769463D01*
X40244180Y-59710498D01*
X40124482Y-59674188D01*
X40000000Y-59661928D01*
X37600000Y-59661928D01*
X37475518Y-59674188D01*
X37355820Y-59710498D01*
X37245506Y-59769463D01*
X37148815Y-59848815D01*
X37069463Y-59945506D01*
X37010498Y-60055820D01*
X36974188Y-60175518D01*
X36961928Y-60300000D01*
X35373967Y-60300000D01*
X51155176Y-44518792D01*
X51300298Y-44489926D01*
X51488656Y-44411905D01*
X51658174Y-44298637D01*
X51802337Y-44154474D01*
X51915605Y-43984956D01*
X51993626Y-43796598D01*
X52033400Y-43596639D01*
X52033400Y-43495300D01*
X52173123Y-43495300D01*
X52102068Y-43666842D01*
X52045000Y-43953740D01*
X52045000Y-44246260D01*
X52102068Y-44533158D01*
X52214010Y-44803411D01*
X52376525Y-45046632D01*
X52583368Y-45253475D01*
X52757760Y-45370000D01*
X52583368Y-45486525D01*
X52376525Y-45693368D01*
X52214010Y-45936589D01*
X52102068Y-46206842D01*
X52045000Y-46493740D01*
X52045000Y-46786260D01*
X52102068Y-47073158D01*
X52214010Y-47343411D01*
X52376525Y-47586632D01*
X52583368Y-47793475D01*
X52757760Y-47910000D01*
X52583368Y-48026525D01*
X52376525Y-48233368D01*
X52214010Y-48476589D01*
X52102068Y-48746842D01*
X52045000Y-49033740D01*
X52045000Y-49326260D01*
X52102068Y-49613158D01*
X52214010Y-49883411D01*
X52376525Y-50126632D01*
X52583368Y-50333475D01*
X52757760Y-50450000D01*
X52583368Y-50566525D01*
X52376525Y-50773368D01*
X52214010Y-51016589D01*
X52102068Y-51286842D01*
X52045000Y-51573740D01*
X52045000Y-51866260D01*
X52102068Y-52153158D01*
X52214010Y-52423411D01*
X52376525Y-52666632D01*
X52583368Y-52873475D01*
X52765534Y-52995195D01*
X52648645Y-53064822D01*
X52432412Y-53259731D01*
X52258359Y-53493080D01*
X52133175Y-53755901D01*
X52088524Y-53903110D01*
X52209845Y-54133000D01*
X53403000Y-54133000D01*
X53403000Y-54113000D01*
X53657000Y-54113000D01*
X53657000Y-54133000D01*
X53677000Y-54133000D01*
X53677000Y-54387000D01*
X53657000Y-54387000D01*
X53657000Y-54407000D01*
X53403000Y-54407000D01*
X53403000Y-54387000D01*
X52209845Y-54387000D01*
X52088524Y-54616890D01*
X52133175Y-54764099D01*
X52258359Y-55026920D01*
X52432412Y-55260269D01*
X52648645Y-55455178D01*
X52765534Y-55524805D01*
X52583368Y-55646525D01*
X52376525Y-55853368D01*
X52214010Y-56096589D01*
X52102068Y-56366842D01*
X52045000Y-56653740D01*
X52045000Y-56946260D01*
X52102068Y-57233158D01*
X52214010Y-57503411D01*
X52376525Y-57746632D01*
X52583368Y-57953475D01*
X52757760Y-58070000D01*
X52583368Y-58186525D01*
X52376525Y-58393368D01*
X52214010Y-58636589D01*
X52102068Y-58906842D01*
X52045000Y-59193740D01*
X52045000Y-59486260D01*
X52102068Y-59773158D01*
X52214010Y-60043411D01*
X52376525Y-60286632D01*
X52583368Y-60493475D01*
X52757760Y-60610000D01*
X52583368Y-60726525D01*
X52376525Y-60933368D01*
X52214010Y-61176589D01*
X52102068Y-61446842D01*
X52045000Y-61733740D01*
X52045000Y-62026260D01*
X52102068Y-62313158D01*
X52214010Y-62583411D01*
X52376525Y-62826632D01*
X52583368Y-63033475D01*
X52757760Y-63150000D01*
X52583368Y-63266525D01*
X52376525Y-63473368D01*
X52214010Y-63716589D01*
X52102068Y-63986842D01*
X52045000Y-64273740D01*
X52045000Y-64566260D01*
X52102068Y-64853158D01*
X52214010Y-65123411D01*
X52376525Y-65366632D01*
X52583368Y-65573475D01*
X52757760Y-65690000D01*
X52583368Y-65806525D01*
X52376525Y-66013368D01*
X52214010Y-66256589D01*
X52102068Y-66526842D01*
X52045000Y-66813740D01*
X52045000Y-67106260D01*
X52102068Y-67393158D01*
X52214010Y-67663411D01*
X52376525Y-67906632D01*
X52583368Y-68113475D01*
X52757760Y-68230000D01*
X52583368Y-68346525D01*
X52376525Y-68553368D01*
X52214010Y-68796589D01*
X52102068Y-69066842D01*
X52045000Y-69353740D01*
X52045000Y-69646260D01*
X52102068Y-69933158D01*
X52214010Y-70203411D01*
X52376525Y-70446632D01*
X52583368Y-70653475D01*
X52765534Y-70775195D01*
X52648645Y-70844822D01*
X52432412Y-71039731D01*
X52258359Y-71273080D01*
X52133175Y-71535901D01*
X52088524Y-71683110D01*
X52209845Y-71913000D01*
X53403000Y-71913000D01*
X53403000Y-71893000D01*
X53657000Y-71893000D01*
X53657000Y-71913000D01*
X53677000Y-71913000D01*
X53677000Y-72167000D01*
X53657000Y-72167000D01*
X53657000Y-73360814D01*
X53886891Y-73481481D01*
X54161252Y-73384157D01*
X54411355Y-73235178D01*
X54627588Y-73040269D01*
X54798900Y-72810594D01*
X54916525Y-72986632D01*
X55123368Y-73193475D01*
X55366589Y-73355990D01*
X55636842Y-73467932D01*
X55923740Y-73525000D01*
X56216260Y-73525000D01*
X56503158Y-73467932D01*
X56773411Y-73355990D01*
X57016632Y-73193475D01*
X57223475Y-72986632D01*
X57385990Y-72743411D01*
X57497932Y-72473158D01*
X57555000Y-72186260D01*
X57555000Y-71893740D01*
X57497932Y-71606842D01*
X57385990Y-71336589D01*
X57223475Y-71093368D01*
X57016632Y-70886525D01*
X56842240Y-70770000D01*
X57016632Y-70653475D01*
X57223475Y-70446632D01*
X57385990Y-70203411D01*
X57497932Y-69933158D01*
X57555000Y-69646260D01*
X57555000Y-69353740D01*
X57497932Y-69066842D01*
X57385990Y-68796589D01*
X57223475Y-68553368D01*
X57016632Y-68346525D01*
X56842240Y-68230000D01*
X57016632Y-68113475D01*
X57223475Y-67906632D01*
X57385990Y-67663411D01*
X57497932Y-67393158D01*
X57555000Y-67106260D01*
X57555000Y-66813740D01*
X57497932Y-66526842D01*
X57385990Y-66256589D01*
X57223475Y-66013368D01*
X57016632Y-65806525D01*
X56834466Y-65684805D01*
X56951355Y-65615178D01*
X57167588Y-65420269D01*
X57341641Y-65186920D01*
X57466825Y-64924099D01*
X57511476Y-64776890D01*
X57390155Y-64547000D01*
X56197000Y-64547000D01*
X56197000Y-64567000D01*
X55943000Y-64567000D01*
X55943000Y-64547000D01*
X55923000Y-64547000D01*
X55923000Y-64293000D01*
X55943000Y-64293000D01*
X55943000Y-64273000D01*
X56197000Y-64273000D01*
X56197000Y-64293000D01*
X57390155Y-64293000D01*
X57511476Y-64063110D01*
X57466825Y-63915901D01*
X57341641Y-63653080D01*
X57167588Y-63419731D01*
X56951355Y-63224822D01*
X56834466Y-63155195D01*
X57016632Y-63033475D01*
X57223475Y-62826632D01*
X57385990Y-62583411D01*
X57497932Y-62313158D01*
X57555000Y-62026260D01*
X57555000Y-61733740D01*
X57497932Y-61446842D01*
X57385990Y-61176589D01*
X57223475Y-60933368D01*
X57016632Y-60726525D01*
X56834466Y-60604805D01*
X56951355Y-60535178D01*
X57167588Y-60340269D01*
X57341641Y-60106920D01*
X57466825Y-59844099D01*
X57511476Y-59696890D01*
X57390155Y-59467000D01*
X56197000Y-59467000D01*
X56197000Y-59487000D01*
X55943000Y-59487000D01*
X55943000Y-59467000D01*
X55923000Y-59467000D01*
X55923000Y-59213000D01*
X55943000Y-59213000D01*
X55943000Y-59193000D01*
X56197000Y-59193000D01*
X56197000Y-59213000D01*
X57390155Y-59213000D01*
X57511476Y-58983110D01*
X57466825Y-58835901D01*
X57341641Y-58573080D01*
X57167588Y-58339731D01*
X56951355Y-58144822D01*
X56834466Y-58075195D01*
X57016632Y-57953475D01*
X57223475Y-57746632D01*
X57385990Y-57503411D01*
X57497932Y-57233158D01*
X57555000Y-56946260D01*
X57555000Y-56653740D01*
X57497932Y-56366842D01*
X57385990Y-56096589D01*
X57223475Y-55853368D01*
X57016632Y-55646525D01*
X56842240Y-55530000D01*
X57016632Y-55413475D01*
X57223475Y-55206632D01*
X57385990Y-54963411D01*
X57497932Y-54693158D01*
X57555000Y-54406260D01*
X57555000Y-54113740D01*
X57497932Y-53826842D01*
X57385990Y-53556589D01*
X57223475Y-53313368D01*
X57016632Y-53106525D01*
X56842240Y-52990000D01*
X57016632Y-52873475D01*
X57223475Y-52666632D01*
X57385990Y-52423411D01*
X57497932Y-52153158D01*
X57555000Y-51866260D01*
X57555000Y-51573740D01*
X57497932Y-51286842D01*
X57385990Y-51016589D01*
X57223475Y-50773368D01*
X57016632Y-50566525D01*
X56842240Y-50450000D01*
X57016632Y-50333475D01*
X57223475Y-50126632D01*
X57385990Y-49883411D01*
X57497932Y-49613158D01*
X57555000Y-49326260D01*
X57555000Y-49033740D01*
X57497932Y-48746842D01*
X57385990Y-48476589D01*
X57223475Y-48233368D01*
X57016632Y-48026525D01*
X56834466Y-47904805D01*
X56951355Y-47835178D01*
X57167588Y-47640269D01*
X57341641Y-47406920D01*
X57466825Y-47144099D01*
X57511476Y-46996890D01*
X57390155Y-46767000D01*
X56197000Y-46767000D01*
X56197000Y-46787000D01*
X55943000Y-46787000D01*
X55943000Y-46767000D01*
X55923000Y-46767000D01*
X55923000Y-46513000D01*
X55943000Y-46513000D01*
X55943000Y-46493000D01*
X56197000Y-46493000D01*
X56197000Y-46513000D01*
X57390155Y-46513000D01*
X57511476Y-46283110D01*
X57466825Y-46135901D01*
X57341641Y-45873080D01*
X57167588Y-45639731D01*
X56951355Y-45444822D01*
X56834466Y-45375195D01*
X57016632Y-45253475D01*
X57223475Y-45046632D01*
X57385990Y-44803411D01*
X57497932Y-44533158D01*
X57555000Y-44246260D01*
X57555000Y-43953740D01*
X57497932Y-43666842D01*
X57385990Y-43396589D01*
X57223475Y-43153368D01*
X57016632Y-42946525D01*
X56842240Y-42830000D01*
X57016632Y-42713475D01*
X57223475Y-42506632D01*
X57385990Y-42263411D01*
X57497932Y-41993158D01*
X57555000Y-41706260D01*
X57555000Y-41413740D01*
X57497932Y-41126842D01*
X57385990Y-40856589D01*
X57223475Y-40613368D01*
X57016632Y-40406525D01*
X56834466Y-40284805D01*
X56951355Y-40215178D01*
X57167588Y-40020269D01*
X57341641Y-39786920D01*
X57466825Y-39524099D01*
X57511476Y-39376890D01*
X57390155Y-39147000D01*
X56197000Y-39147000D01*
X56197000Y-39167000D01*
X55943000Y-39167000D01*
X55943000Y-39147000D01*
X55923000Y-39147000D01*
X55923000Y-38893000D01*
X55943000Y-38893000D01*
X55943000Y-38873000D01*
X56197000Y-38873000D01*
X56197000Y-38893000D01*
X57390155Y-38893000D01*
X57511476Y-38663110D01*
X57466825Y-38515901D01*
X57341641Y-38253080D01*
X57167588Y-38019731D01*
X56951355Y-37824822D01*
X56834466Y-37755195D01*
X57016632Y-37633475D01*
X57223475Y-37426632D01*
X57385990Y-37183411D01*
X57497932Y-36913158D01*
X57555000Y-36626260D01*
X57555000Y-36333740D01*
X57497932Y-36046842D01*
X57385990Y-35776589D01*
X57223475Y-35533368D01*
X57016632Y-35326525D01*
X56842240Y-35210000D01*
X57016632Y-35093475D01*
X57223475Y-34886632D01*
X57385990Y-34643411D01*
X57497932Y-34373158D01*
X57555000Y-34086260D01*
X57555000Y-33793740D01*
X57497932Y-33506842D01*
X57385990Y-33236589D01*
X57223475Y-32993368D01*
X57016632Y-32786525D01*
X56842240Y-32670000D01*
X57016632Y-32553475D01*
X57223475Y-32346632D01*
X57385990Y-32103411D01*
X57497932Y-31833158D01*
X57555000Y-31546260D01*
X57555000Y-31253740D01*
X57497932Y-30966842D01*
X57385990Y-30696589D01*
X57223475Y-30453368D01*
X57016632Y-30246525D01*
X56834466Y-30124805D01*
X56951355Y-30055178D01*
X57167588Y-29860269D01*
X57341641Y-29626920D01*
X57466825Y-29364099D01*
X57511476Y-29216890D01*
X57390155Y-28987000D01*
X56197000Y-28987000D01*
X56197000Y-29007000D01*
X55943000Y-29007000D01*
X55943000Y-28987000D01*
X55923000Y-28987000D01*
X55923000Y-28733000D01*
X55943000Y-28733000D01*
X55943000Y-28713000D01*
X56197000Y-28713000D01*
X56197000Y-28733000D01*
X57390155Y-28733000D01*
X57511476Y-28503110D01*
X57466825Y-28355901D01*
X57341641Y-28093080D01*
X57167588Y-27859731D01*
X56951355Y-27664822D01*
X56902591Y-27635775D01*
X56905000Y-27611319D01*
X56909040Y-27570300D01*
X56906736Y-27546905D01*
X57016632Y-27473475D01*
X57223475Y-27266632D01*
X57385990Y-27023411D01*
X57497932Y-26753158D01*
X57555000Y-26466260D01*
X57555000Y-26173740D01*
X57497932Y-25886842D01*
X57385990Y-25616589D01*
X57223475Y-25373368D01*
X57016632Y-25166525D01*
X56842240Y-25050000D01*
X57016632Y-24933475D01*
X57223475Y-24726632D01*
X57385990Y-24483411D01*
X57497932Y-24213158D01*
X57555000Y-23926260D01*
X57555000Y-23633740D01*
X57497932Y-23346842D01*
X57385990Y-23076589D01*
X57223475Y-22833368D01*
X57016632Y-22626525D01*
X56773411Y-22464010D01*
X56503158Y-22352068D01*
X56216260Y-22295000D01*
X55923740Y-22295000D01*
X55636842Y-22352068D01*
X55366589Y-22464010D01*
X55123368Y-22626525D01*
X54991513Y-22758380D01*
X54969502Y-22685820D01*
X54910537Y-22575506D01*
X54831185Y-22478815D01*
X54734494Y-22399463D01*
X54624180Y-22340498D01*
X54504482Y-22304188D01*
X54380000Y-22291928D01*
X52680000Y-22291928D01*
X52555518Y-22304188D01*
X52435820Y-22340498D01*
X52325506Y-22399463D01*
X52228815Y-22478815D01*
X52149463Y-22575506D01*
X52090498Y-22685820D01*
X52054188Y-22805518D01*
X52041928Y-22930000D01*
X52041928Y-24630000D01*
X52054188Y-24754482D01*
X52090498Y-24874180D01*
X52149463Y-24984494D01*
X52228815Y-25081185D01*
X52325506Y-25160537D01*
X52435820Y-25219502D01*
X52508380Y-25241513D01*
X52376525Y-25373368D01*
X52214010Y-25616589D01*
X52102068Y-25886842D01*
X52045000Y-26173740D01*
X52045000Y-26466260D01*
X52102068Y-26753158D01*
X52214010Y-27023411D01*
X52293669Y-27142629D01*
X42138000Y-37298299D01*
X42138000Y-30983101D01*
X42829904Y-30291198D01*
X42858901Y-30267401D01*
X42953874Y-30151676D01*
X43024446Y-30019647D01*
X43067903Y-29876386D01*
X43078900Y-29764733D01*
X43078900Y-29764732D01*
X43082577Y-29727400D01*
X43078900Y-29690067D01*
X43078900Y-28384811D01*
X43122837Y-28340874D01*
X43236105Y-28171356D01*
X43314126Y-27982998D01*
X43353900Y-27783039D01*
X43353900Y-27579161D01*
X43314126Y-27379202D01*
X43236105Y-27190844D01*
X43122837Y-27021326D01*
X42978674Y-26877163D01*
X42809156Y-26763895D01*
X42620798Y-26685874D01*
X42420839Y-26646100D01*
X42368602Y-26646100D01*
X35816204Y-20093703D01*
X35792401Y-20064699D01*
X35676676Y-19969726D01*
X35544647Y-19899154D01*
X35401386Y-19855697D01*
X35289733Y-19844700D01*
X35289722Y-19844700D01*
X35252400Y-19841024D01*
X35237320Y-19842509D01*
X35195574Y-19800763D01*
X35026056Y-19687495D01*
X34837698Y-19609474D01*
X34637739Y-19569700D01*
X34433861Y-19569700D01*
X34233902Y-19609474D01*
X34045544Y-19687495D01*
X33876026Y-19800763D01*
X33731863Y-19944926D01*
X33618595Y-20114444D01*
X33540574Y-20302802D01*
X33500800Y-20502761D01*
X33500800Y-20706639D01*
X33540574Y-20906598D01*
X33618595Y-21094956D01*
X33731863Y-21264474D01*
X33876026Y-21408637D01*
X34045544Y-21521905D01*
X34233902Y-21599926D01*
X34433861Y-21639700D01*
X34637739Y-21639700D01*
X34837698Y-21599926D01*
X35026056Y-21521905D01*
X35067267Y-21494368D01*
X41283900Y-27711002D01*
X41283900Y-27783039D01*
X41323674Y-27982998D01*
X41401695Y-28171356D01*
X41514963Y-28340874D01*
X41558901Y-28384812D01*
X41558900Y-29412598D01*
X40867002Y-30104496D01*
X40837999Y-30128299D01*
X40782871Y-30195474D01*
X40743026Y-30244024D01*
X40689053Y-30345000D01*
X40672454Y-30376054D01*
X40628997Y-30519315D01*
X40618000Y-30630968D01*
X40618000Y-30630978D01*
X40614324Y-30668300D01*
X40618000Y-30705622D01*
X40618001Y-40972497D01*
X39695099Y-41895400D01*
X29772525Y-41895400D01*
X29735200Y-41891724D01*
X29697875Y-41895400D01*
X29697867Y-41895400D01*
X29586214Y-41906397D01*
X29442953Y-41949854D01*
X29310924Y-42020426D01*
X29195199Y-42115399D01*
X29171401Y-42144397D01*
X28551799Y-42764000D01*
X28489661Y-42764000D01*
X28289702Y-42803774D01*
X28101344Y-42881795D01*
X27931826Y-42995063D01*
X27787663Y-43139226D01*
X27674395Y-43308744D01*
X27596374Y-43497102D01*
X27556600Y-43697061D01*
X27556600Y-43900939D01*
X27596374Y-44100898D01*
X27674395Y-44289256D01*
X27787663Y-44458774D01*
X27931826Y-44602937D01*
X28101344Y-44716205D01*
X28289702Y-44794226D01*
X28489661Y-44834000D01*
X28693539Y-44834000D01*
X28893498Y-44794226D01*
X29081856Y-44716205D01*
X29251374Y-44602937D01*
X29395537Y-44458774D01*
X29508805Y-44289256D01*
X29586826Y-44100898D01*
X29626600Y-43900939D01*
X29626600Y-43838801D01*
X30050002Y-43415400D01*
X30568898Y-43415400D01*
X27344398Y-46639901D01*
X27315400Y-46663699D01*
X27291602Y-46692697D01*
X27291601Y-46692698D01*
X27220426Y-46779424D01*
X27149854Y-46911454D01*
X27106398Y-47054715D01*
X27091724Y-47203700D01*
X27095401Y-47241032D01*
X27095401Y-47692188D01*
X27051463Y-47736126D01*
X26938195Y-47905644D01*
X26860174Y-48094002D01*
X26820400Y-48293961D01*
X26820400Y-48497839D01*
X26860174Y-48697798D01*
X26938195Y-48886156D01*
X27051463Y-49055674D01*
X27195626Y-49199837D01*
X27365144Y-49313105D01*
X27553502Y-49391126D01*
X27753461Y-49430900D01*
X27957339Y-49430900D01*
X28157298Y-49391126D01*
X28345656Y-49313105D01*
X28515174Y-49199837D01*
X28659337Y-49055674D01*
X28772605Y-48886156D01*
X28850626Y-48697798D01*
X28890400Y-48497839D01*
X28890400Y-48293961D01*
X28884580Y-48264700D01*
X28970839Y-48264700D01*
X29170798Y-48224926D01*
X29359156Y-48146905D01*
X29528674Y-48033637D01*
X29672837Y-47889474D01*
X29786105Y-47719956D01*
X29864126Y-47531598D01*
X29903900Y-47331639D01*
X29903900Y-47203901D01*
X31977296Y-45130507D01*
X32052426Y-45205637D01*
X32221944Y-45318905D01*
X32410302Y-45396926D01*
X32610261Y-45436700D01*
X32672398Y-45436700D01*
X32947201Y-45711502D01*
X32970999Y-45740501D01*
X33086724Y-45835474D01*
X33218753Y-45906046D01*
X33362014Y-45949503D01*
X33473667Y-45960500D01*
X33473675Y-45960500D01*
X33511000Y-45964176D01*
X33548325Y-45960500D01*
X42155678Y-45960500D01*
X42193000Y-45964176D01*
X42230322Y-45960500D01*
X42230333Y-45960500D01*
X42341986Y-45949503D01*
X42485247Y-45906046D01*
X42617276Y-45835474D01*
X42733001Y-45740501D01*
X42756804Y-45711497D01*
X45664349Y-42803953D01*
X45665000Y-43114250D01*
X45823750Y-43273000D01*
X46973000Y-43273000D01*
X46973000Y-43253000D01*
X47227000Y-43253000D01*
X47227000Y-43273000D01*
X48376250Y-43273000D01*
X48535000Y-43114250D01*
X48537838Y-41761500D01*
X49065778Y-41761500D01*
X49103100Y-41765176D01*
X49140422Y-41761500D01*
X49140433Y-41761500D01*
X49252086Y-41750503D01*
X49395347Y-41707046D01*
X49527376Y-41636474D01*
X49643101Y-41541501D01*
X49666904Y-41512497D01*
X52045000Y-39134402D01*
X52045000Y-39166260D01*
X52102068Y-39453158D01*
X52214010Y-39723411D01*
X52376525Y-39966632D01*
X52583368Y-40173475D01*
X52757760Y-40290000D01*
X52583368Y-40406525D01*
X52376525Y-40613368D01*
X52214010Y-40856589D01*
X52102068Y-41126842D01*
X52045000Y-41413740D01*
X52045000Y-41706260D01*
X52098516Y-41975300D01*
X50747533Y-41975300D01*
X50710200Y-41971623D01*
X50672867Y-41975300D01*
X50561214Y-41986297D01*
X50417953Y-42029754D01*
X50285924Y-42100326D01*
X50170199Y-42195299D01*
X50146401Y-42224297D01*
X48535314Y-43835385D01*
X48535000Y-43685750D01*
X48376250Y-43527000D01*
X47227000Y-43527000D01*
X47227000Y-43547000D01*
X46973000Y-43547000D01*
X46973000Y-43527000D01*
X45823750Y-43527000D01*
X45665000Y-43685750D01*
X45661928Y-45150000D01*
X45674188Y-45274482D01*
X45710498Y-45394180D01*
X45769463Y-45504494D01*
X45848815Y-45601185D01*
X45945506Y-45680537D01*
X46055820Y-45739502D01*
X46175518Y-45775812D01*
X46300000Y-45788072D01*
X46709372Y-45785627D01*
X39287999Y-53207000D01*
X27183711Y-53207000D01*
X27139774Y-53163063D01*
X26970256Y-53049795D01*
X26781898Y-52971774D01*
X26581939Y-52932000D01*
X26378061Y-52932000D01*
X26178102Y-52971774D01*
X25989744Y-53049795D01*
X25820226Y-53163063D01*
X25676063Y-53307226D01*
X25562795Y-53476744D01*
X25484774Y-53665102D01*
X25445000Y-53865061D01*
X25445000Y-54068939D01*
X25484774Y-54268898D01*
X25562795Y-54457256D01*
X25676063Y-54626774D01*
X25820226Y-54770937D01*
X25989744Y-54884205D01*
X26178102Y-54962226D01*
X26378061Y-55002000D01*
X26581939Y-55002000D01*
X26781898Y-54962226D01*
X26970256Y-54884205D01*
X27139774Y-54770937D01*
X27183711Y-54727000D01*
X38585233Y-54727000D01*
X30358874Y-62953359D01*
X30327010Y-62979509D01*
X30247951Y-63075843D01*
X30222664Y-63106655D01*
X30145128Y-63251714D01*
X30097382Y-63409112D01*
X30081260Y-63572800D01*
X30085301Y-63613829D01*
X30085300Y-71620832D01*
X28411327Y-73294806D01*
X28310299Y-73050905D01*
X28142312Y-72799495D01*
X28041317Y-72698500D01*
X28142312Y-72597505D01*
X28310299Y-72346095D01*
X28426011Y-72066743D01*
X28485000Y-71770184D01*
X28485000Y-71467816D01*
X28426011Y-71171257D01*
X28310299Y-70891905D01*
X28272237Y-70834942D01*
X28301185Y-70811185D01*
X28380537Y-70714494D01*
X28439502Y-70604180D01*
X28475812Y-70484482D01*
X28488072Y-70360000D01*
X28488072Y-68560000D01*
X28475812Y-68435518D01*
X28439502Y-68315820D01*
X28380537Y-68205506D01*
X28301185Y-68108815D01*
X28204494Y-68029463D01*
X28094180Y-67970498D01*
X27974482Y-67934188D01*
X27850000Y-67921928D01*
X26050000Y-67921928D01*
X25925518Y-67934188D01*
X25805820Y-67970498D01*
X25695506Y-68029463D01*
X25598815Y-68108815D01*
X25519463Y-68205506D01*
X25460498Y-68315820D01*
X25424188Y-68435518D01*
X25411928Y-68560000D01*
X23360794Y-68560000D01*
X23364812Y-19084495D01*
X52795000Y-19084495D01*
X52795000Y-19475505D01*
X52871282Y-19859003D01*
X53020915Y-20220250D01*
X53238149Y-20545364D01*
X53514636Y-20821851D01*
X53839750Y-21039085D01*
X54200997Y-21188718D01*
X54584495Y-21265000D01*
X54975505Y-21265000D01*
X55359003Y-21188718D01*
X55720250Y-21039085D01*
X56045364Y-20821851D01*
X56321851Y-20545364D01*
X56539085Y-20220250D01*
X56688718Y-19859003D01*
X56765000Y-19475505D01*
X56765000Y-19084495D01*
X56688718Y-18700997D01*
X56539085Y-18339750D01*
X56321851Y-18014636D01*
X56045364Y-17738149D01*
X55720250Y-17520915D01*
X55359003Y-17371282D01*
X54975505Y-17295000D01*
X54584495Y-17295000D01*
X54200997Y-17371282D01*
X53839750Y-17520915D01*
X53514636Y-17738149D01*
X53238149Y-18014636D01*
X53020915Y-18339750D01*
X52871282Y-18700997D01*
X52795000Y-19084495D01*
X23364812Y-19084495D01*
X23364997Y-16811810D01*
X23373908Y-16715944D01*
X23391196Y-16657618D01*
X23419483Y-16603764D01*
X23457695Y-16556426D01*
X23504375Y-16517410D01*
X23557746Y-16488203D01*
X23615765Y-16469921D01*
X23706221Y-16459952D01*
X57248174Y-16464995D01*
G36*
X53657000Y-33813000D02*
G01*
X53677000Y-33813000D01*
X53677000Y-34067000D01*
X53657000Y-34067000D01*
X53657000Y-34087000D01*
X53403000Y-34087000D01*
X53403000Y-34067000D01*
X53383000Y-34067000D01*
X53383000Y-33813000D01*
X53403000Y-33813000D01*
X53403000Y-33793000D01*
X53657000Y-33793000D01*
X53657000Y-33813000D01*
G37*
X53657000Y-33813000D02*
X53677000Y-33813000D01*
X53677000Y-34067000D01*
X53657000Y-34067000D01*
X53657000Y-34087000D01*
X53403000Y-34087000D01*
X53403000Y-34067000D01*
X53383000Y-34067000D01*
X53383000Y-33813000D01*
X53403000Y-33813000D01*
X53403000Y-33793000D01*
X53657000Y-33793000D01*
X53657000Y-33813000D01*
M02*
