G04 #@! TF.GenerationSoftware,KiCad,Pcbnew,(5.1.5-0-10_14)*
G04 #@! TF.CreationDate,2020-11-09T09:27:31+01:00*
G04 #@! TF.ProjectId,HB-RF-MOD,48422d52-462d-44d4-9f44-2e6b69636164,rev?*
G04 #@! TF.SameCoordinates,Original*
G04 #@! TF.FileFunction,Legend,Top*
G04 #@! TF.FilePolarity,Positive*
%FSLAX46Y46*%
G04 Gerber Fmt 4.6, Leading zero omitted, Abs format (unit mm)*
G04 Created by KiCad (PCBNEW (5.1.5-0-10_14)) date 2020-11-09 09:27:31*
%MOMM*%
%LPD*%
G04 APERTURE LIST*
%ADD10C,0.150000*%
%ADD11C,0.100000*%
%ADD12C,0.120000*%
G04 APERTURE END LIST*
D10*
X45100000Y-23700000D02*
X47500000Y-26300000D01*
X42000000Y-16600000D02*
X42000000Y-23700000D01*
X48500000Y-16600000D02*
X42000000Y-16600000D01*
X48500000Y-23700000D02*
X48500000Y-16600000D01*
X42000000Y-23700000D02*
X48500000Y-23700000D01*
D11*
X43061904Y-22925476D02*
X43061904Y-23382619D01*
X43061904Y-23154047D02*
X42261904Y-23154047D01*
X42376190Y-23230238D01*
X42452380Y-23306428D01*
X42490476Y-23382619D01*
X42757142Y-21973095D02*
X42757142Y-21363571D01*
X43061904Y-19915952D02*
X42680952Y-20182619D01*
X43061904Y-20373095D02*
X42261904Y-20373095D01*
X42261904Y-20068333D01*
X42300000Y-19992142D01*
X42338095Y-19954047D01*
X42414285Y-19915952D01*
X42528571Y-19915952D01*
X42604761Y-19954047D01*
X42642857Y-19992142D01*
X42680952Y-20068333D01*
X42680952Y-20373095D01*
X42642857Y-19573095D02*
X42642857Y-19306428D01*
X43061904Y-19192142D02*
X43061904Y-19573095D01*
X42261904Y-19573095D01*
X42261904Y-19192142D01*
X43023809Y-18887380D02*
X43061904Y-18773095D01*
X43061904Y-18582619D01*
X43023809Y-18506428D01*
X42985714Y-18468333D01*
X42909523Y-18430238D01*
X42833333Y-18430238D01*
X42757142Y-18468333D01*
X42719047Y-18506428D01*
X42680952Y-18582619D01*
X42642857Y-18735000D01*
X42604761Y-18811190D01*
X42566666Y-18849285D01*
X42490476Y-18887380D01*
X42414285Y-18887380D01*
X42338095Y-18849285D01*
X42300000Y-18811190D01*
X42261904Y-18735000D01*
X42261904Y-18544523D01*
X42300000Y-18430238D01*
X42642857Y-18087380D02*
X42642857Y-17820714D01*
X43061904Y-17706428D02*
X43061904Y-18087380D01*
X42261904Y-18087380D01*
X42261904Y-17706428D01*
X42261904Y-17477857D02*
X42261904Y-17020714D01*
X43061904Y-17249285D02*
X42261904Y-17249285D01*
X43638095Y-23382619D02*
X43600000Y-23344523D01*
X43561904Y-23268333D01*
X43561904Y-23077857D01*
X43600000Y-23001666D01*
X43638095Y-22963571D01*
X43714285Y-22925476D01*
X43790476Y-22925476D01*
X43904761Y-22963571D01*
X44361904Y-23420714D01*
X44361904Y-22925476D01*
X44057142Y-21973095D02*
X44057142Y-21363571D01*
X43561904Y-20487380D02*
X43561904Y-20030238D01*
X44361904Y-20258809D02*
X43561904Y-20258809D01*
X44285714Y-19306428D02*
X44323809Y-19344523D01*
X44361904Y-19458809D01*
X44361904Y-19535000D01*
X44323809Y-19649285D01*
X44247619Y-19725476D01*
X44171428Y-19763571D01*
X44019047Y-19801666D01*
X43904761Y-19801666D01*
X43752380Y-19763571D01*
X43676190Y-19725476D01*
X43600000Y-19649285D01*
X43561904Y-19535000D01*
X43561904Y-19458809D01*
X43600000Y-19344523D01*
X43638095Y-19306428D01*
X44361904Y-18963571D02*
X43561904Y-18963571D01*
X44361904Y-18506428D02*
X43904761Y-18849285D01*
X43561904Y-18506428D02*
X44019047Y-18963571D01*
X44285714Y-17706428D02*
X44323809Y-17744523D01*
X44361904Y-17858809D01*
X44361904Y-17935000D01*
X44323809Y-18049285D01*
X44247619Y-18125476D01*
X44171428Y-18163571D01*
X44019047Y-18201666D01*
X43904761Y-18201666D01*
X43752380Y-18163571D01*
X43676190Y-18125476D01*
X43600000Y-18049285D01*
X43561904Y-17935000D01*
X43561904Y-17858809D01*
X43600000Y-17744523D01*
X43638095Y-17706428D01*
X44861904Y-23420714D02*
X44861904Y-22925476D01*
X45166666Y-23192142D01*
X45166666Y-23077857D01*
X45204761Y-23001666D01*
X45242857Y-22963571D01*
X45319047Y-22925476D01*
X45509523Y-22925476D01*
X45585714Y-22963571D01*
X45623809Y-23001666D01*
X45661904Y-23077857D01*
X45661904Y-23306428D01*
X45623809Y-23382619D01*
X45585714Y-23420714D01*
X45357142Y-21973095D02*
X45357142Y-21363571D01*
X44861904Y-20487380D02*
X44861904Y-20030238D01*
X45661904Y-20258809D02*
X44861904Y-20258809D01*
X45661904Y-19763571D02*
X44861904Y-19763571D01*
X45433333Y-19496904D01*
X44861904Y-19230238D01*
X45661904Y-19230238D01*
X45623809Y-18887380D02*
X45661904Y-18773095D01*
X45661904Y-18582619D01*
X45623809Y-18506428D01*
X45585714Y-18468333D01*
X45509523Y-18430238D01*
X45433333Y-18430238D01*
X45357142Y-18468333D01*
X45319047Y-18506428D01*
X45280952Y-18582619D01*
X45242857Y-18735000D01*
X45204761Y-18811190D01*
X45166666Y-18849285D01*
X45090476Y-18887380D01*
X45014285Y-18887380D01*
X44938095Y-18849285D01*
X44900000Y-18811190D01*
X44861904Y-18735000D01*
X44861904Y-18544523D01*
X44900000Y-18430238D01*
X45585714Y-17630238D02*
X45623809Y-17668333D01*
X45661904Y-17782619D01*
X45661904Y-17858809D01*
X45623809Y-17973095D01*
X45547619Y-18049285D01*
X45471428Y-18087380D01*
X45319047Y-18125476D01*
X45204761Y-18125476D01*
X45052380Y-18087380D01*
X44976190Y-18049285D01*
X44900000Y-17973095D01*
X44861904Y-17858809D01*
X44861904Y-17782619D01*
X44900000Y-17668333D01*
X44938095Y-17630238D01*
X46428571Y-23001666D02*
X46961904Y-23001666D01*
X46123809Y-23192142D02*
X46695238Y-23382619D01*
X46695238Y-22887380D01*
X46657142Y-21973095D02*
X46657142Y-21363571D01*
X46200000Y-19954047D02*
X46161904Y-20030238D01*
X46161904Y-20144523D01*
X46200000Y-20258809D01*
X46276190Y-20335000D01*
X46352380Y-20373095D01*
X46504761Y-20411190D01*
X46619047Y-20411190D01*
X46771428Y-20373095D01*
X46847619Y-20335000D01*
X46923809Y-20258809D01*
X46961904Y-20144523D01*
X46961904Y-20068333D01*
X46923809Y-19954047D01*
X46885714Y-19915952D01*
X46619047Y-19915952D01*
X46619047Y-20068333D01*
X46961904Y-19573095D02*
X46161904Y-19573095D01*
X46961904Y-19115952D01*
X46161904Y-19115952D01*
X46961904Y-18735000D02*
X46161904Y-18735000D01*
X46161904Y-18544523D01*
X46200000Y-18430238D01*
X46276190Y-18354047D01*
X46352380Y-18315952D01*
X46504761Y-18277857D01*
X46619047Y-18277857D01*
X46771428Y-18315952D01*
X46847619Y-18354047D01*
X46923809Y-18430238D01*
X46961904Y-18544523D01*
X46961904Y-18735000D01*
X47461904Y-22963571D02*
X47461904Y-23344523D01*
X47842857Y-23382619D01*
X47804761Y-23344523D01*
X47766666Y-23268333D01*
X47766666Y-23077857D01*
X47804761Y-23001666D01*
X47842857Y-22963571D01*
X47919047Y-22925476D01*
X48109523Y-22925476D01*
X48185714Y-22963571D01*
X48223809Y-23001666D01*
X48261904Y-23077857D01*
X48261904Y-23268333D01*
X48223809Y-23344523D01*
X48185714Y-23382619D01*
X47957142Y-21973095D02*
X47957142Y-21363571D01*
X47461904Y-20449285D02*
X47461904Y-19954047D01*
X47766666Y-20220714D01*
X47766666Y-20106428D01*
X47804761Y-20030238D01*
X47842857Y-19992142D01*
X47919047Y-19954047D01*
X48109523Y-19954047D01*
X48185714Y-19992142D01*
X48223809Y-20030238D01*
X48261904Y-20106428D01*
X48261904Y-20335000D01*
X48223809Y-20411190D01*
X48185714Y-20449285D01*
X48185714Y-19611190D02*
X48223809Y-19573095D01*
X48261904Y-19611190D01*
X48223809Y-19649285D01*
X48185714Y-19611190D01*
X48261904Y-19611190D01*
X47461904Y-19306428D02*
X47461904Y-18811190D01*
X47766666Y-19077857D01*
X47766666Y-18963571D01*
X47804761Y-18887380D01*
X47842857Y-18849285D01*
X47919047Y-18811190D01*
X48109523Y-18811190D01*
X48185714Y-18849285D01*
X48223809Y-18887380D01*
X48261904Y-18963571D01*
X48261904Y-19192142D01*
X48223809Y-19268333D01*
X48185714Y-19306428D01*
X47461904Y-18582619D02*
X48261904Y-18315952D01*
X47461904Y-18049285D01*
D10*
X47500000Y-38900000D02*
X51400000Y-38900000D01*
X47500000Y-26300000D02*
X47500000Y-38900000D01*
X51400000Y-26300000D02*
X47500000Y-26300000D01*
X51400000Y-38900000D02*
X51400000Y-26300000D01*
X48852380Y-37314285D02*
X48852380Y-37885714D01*
X48852380Y-37600000D02*
X47852380Y-37600000D01*
X47995238Y-37695238D01*
X48090476Y-37790476D01*
X48138095Y-37885714D01*
X47947619Y-35385714D02*
X47900000Y-35338095D01*
X47852380Y-35242857D01*
X47852380Y-35004761D01*
X47900000Y-34909523D01*
X47947619Y-34861904D01*
X48042857Y-34814285D01*
X48138095Y-34814285D01*
X48280952Y-34861904D01*
X48852380Y-35433333D01*
X48852380Y-34814285D01*
X47852380Y-32933333D02*
X47852380Y-32314285D01*
X48233333Y-32647619D01*
X48233333Y-32504761D01*
X48280952Y-32409523D01*
X48328571Y-32361904D01*
X48423809Y-32314285D01*
X48661904Y-32314285D01*
X48757142Y-32361904D01*
X48804761Y-32409523D01*
X48852380Y-32504761D01*
X48852380Y-32790476D01*
X48804761Y-32885714D01*
X48757142Y-32933333D01*
X48185714Y-29909523D02*
X48852380Y-29909523D01*
X47804761Y-30147619D02*
X48519047Y-30385714D01*
X48519047Y-29766666D01*
X47852380Y-27361904D02*
X47852380Y-27838095D01*
X48328571Y-27885714D01*
X48280952Y-27838095D01*
X48233333Y-27742857D01*
X48233333Y-27504761D01*
X48280952Y-27409523D01*
X48328571Y-27361904D01*
X48423809Y-27314285D01*
X48661904Y-27314285D01*
X48757142Y-27361904D01*
X48804761Y-27409523D01*
X48852380Y-27504761D01*
X48852380Y-27742857D01*
X48804761Y-27838095D01*
X48757142Y-27885714D01*
D12*
X51050000Y-32600000D02*
G75*
G03X51050000Y-32600000I-950000J0D01*
G01*
X51050000Y-35100000D02*
G75*
G03X51050000Y-35100000I-950000J0D01*
G01*
X51050000Y-37600000D02*
G75*
G03X51050000Y-37600000I-950000J0D01*
G01*
X51050000Y-30100000D02*
G75*
G03X51050000Y-30100000I-950000J0D01*
G01*
X51050000Y-27600000D02*
G75*
G03X51050000Y-27600000I-950000J0D01*
G01*
X32528748Y-77710000D02*
X33051252Y-77710000D01*
X32528748Y-76290000D02*
X33051252Y-76290000D01*
X32931252Y-71700000D02*
X32408748Y-71700000D01*
X32931252Y-73120000D02*
X32408748Y-73120000D01*
X32811252Y-67110000D02*
X32288748Y-67110000D01*
X32811252Y-68530000D02*
X32288748Y-68530000D01*
X43845000Y-76941252D02*
X43845000Y-76418748D01*
X42425000Y-76941252D02*
X42425000Y-76418748D01*
X48261252Y-75890000D02*
X47738748Y-75890000D01*
X48261252Y-77310000D02*
X47738748Y-77310000D01*
X43870000Y-72381252D02*
X43870000Y-71858748D01*
X42450000Y-72381252D02*
X42450000Y-71858748D01*
X48261252Y-71590000D02*
X47738748Y-71590000D01*
X48261252Y-73010000D02*
X47738748Y-73010000D01*
X42400000Y-67338748D02*
X42400000Y-67861252D01*
X43820000Y-67338748D02*
X43820000Y-67861252D01*
X48161252Y-66990000D02*
X47638748Y-66990000D01*
X48161252Y-68410000D02*
X47638748Y-68410000D01*
X37450000Y-75400000D02*
X38910000Y-75400000D01*
X37450000Y-78560000D02*
X39610000Y-78560000D01*
X37450000Y-78560000D02*
X37450000Y-77630000D01*
X37450000Y-75400000D02*
X37450000Y-76330000D01*
X37540000Y-70740000D02*
X39000000Y-70740000D01*
X37540000Y-73900000D02*
X39700000Y-73900000D01*
X37540000Y-73900000D02*
X37540000Y-72970000D01*
X37540000Y-70740000D02*
X37540000Y-71670000D01*
X37550000Y-66170000D02*
X39010000Y-66170000D01*
X37550000Y-69330000D02*
X39710000Y-69330000D01*
X37550000Y-69330000D02*
X37550000Y-68400000D01*
X37550000Y-66170000D02*
X37550000Y-67100000D01*
X25870000Y-70138500D02*
X25405000Y-70138500D01*
X28495000Y-70138500D02*
X28030000Y-70138500D01*
X25869571Y-74952979D02*
G75*
G02X25870000Y-70443816I1080429J2254479D01*
G01*
X28030429Y-74952979D02*
G75*
G03X28030000Y-70443816I-1080429J2254479D01*
G01*
X25869173Y-75486315D02*
G75*
G02X25405170Y-70138500I1080827J2787815D01*
G01*
X28030827Y-75486315D02*
G75*
G03X28494830Y-70138500I-1080827J2787815D01*
G01*
X15930000Y-24480000D02*
X15930000Y-43480000D01*
X15930000Y-43480000D02*
X26630000Y-43480000D01*
X15930000Y-24480000D02*
X26645000Y-24482000D01*
X40750000Y-43330000D02*
X39285000Y-43330000D01*
X26630000Y-24630000D02*
X30395000Y-24632000D01*
X26630000Y-43330000D02*
X30395000Y-43330000D01*
X40750000Y-24630000D02*
X40750000Y-27730000D01*
X39285000Y-24632000D02*
X40750000Y-24630000D01*
X40750000Y-43330000D02*
X40750000Y-40330000D01*
D10*
X30730000Y-49902000D02*
X30316000Y-49530000D01*
D12*
X30730000Y-53830000D02*
X25330000Y-53830000D01*
X25330000Y-53830000D02*
X25330000Y-49530000D01*
X30316000Y-49530000D02*
X25330000Y-49530000D01*
X30730000Y-53830000D02*
X30730000Y-49902000D01*
X23470000Y-51443748D02*
X23470000Y-51966252D01*
X24890000Y-51443748D02*
X24890000Y-51966252D01*
X29190000Y-56538748D02*
X29190000Y-57061252D01*
X30610000Y-56538748D02*
X30610000Y-57061252D01*
X29600000Y-18420000D02*
X30800000Y-18420000D01*
X29600000Y-22420000D02*
X29600000Y-18420000D01*
X34400000Y-18420000D02*
X34400000Y-21120000D01*
X33200000Y-18420000D02*
X34400000Y-18420000D01*
X48900000Y-47600000D02*
X44500000Y-47600000D01*
X44500000Y-47600000D02*
X44500000Y-47720000D01*
X44500000Y-48730000D02*
X44500000Y-49870000D01*
X44500000Y-50880000D02*
X44500000Y-51000000D01*
X44500000Y-51000000D02*
X48900000Y-51000000D01*
X48900000Y-51000000D02*
X48900000Y-50880000D01*
X48900000Y-49870000D02*
X48900000Y-48730000D01*
X48900000Y-47720000D02*
X48900000Y-47600000D01*
X48861252Y-52490000D02*
X48338748Y-52490000D01*
X48861252Y-53910000D02*
X48338748Y-53910000D01*
X25345000Y-56518748D02*
X25345000Y-57041252D01*
X26765000Y-56518748D02*
X26765000Y-57041252D01*
X26940000Y-47491252D02*
X26940000Y-46968748D01*
X25520000Y-47491252D02*
X25520000Y-46968748D01*
X30590000Y-47516252D02*
X30590000Y-46993748D01*
X29170000Y-47516252D02*
X29170000Y-46993748D01*
X43690000Y-53938748D02*
X43690000Y-54461252D01*
X45110000Y-53938748D02*
X45110000Y-54461252D01*
X27090000Y-20538748D02*
X27090000Y-21061252D01*
X28510000Y-20538748D02*
X28510000Y-21061252D01*
X35010000Y-54561252D02*
X35010000Y-54038748D01*
X33590000Y-54561252D02*
X33590000Y-54038748D01*
X40140000Y-49395552D02*
X40140000Y-48873048D01*
X38720000Y-49395552D02*
X38720000Y-48873048D01*
X38745000Y-52868748D02*
X38745000Y-53391252D01*
X40165000Y-52868748D02*
X40165000Y-53391252D01*
X44120000Y-39450000D02*
X45580000Y-39450000D01*
X44120000Y-42610000D02*
X46280000Y-42610000D01*
X44120000Y-42610000D02*
X44120000Y-41680000D01*
X44120000Y-39450000D02*
X44120000Y-40380000D01*
X45261252Y-44090000D02*
X44738748Y-44090000D01*
X45261252Y-45510000D02*
X44738748Y-45510000D01*
X43090000Y-30138748D02*
X43090000Y-30661252D01*
X44510000Y-30138748D02*
X44510000Y-30661252D01*
X45290000Y-30138748D02*
X45290000Y-30661252D01*
X46710000Y-30138748D02*
X46710000Y-30661252D01*
D10*
X35902380Y-77672857D02*
X35426190Y-78006190D01*
X35902380Y-78244285D02*
X34902380Y-78244285D01*
X34902380Y-77863333D01*
X34950000Y-77768095D01*
X34997619Y-77720476D01*
X35092857Y-77672857D01*
X35235714Y-77672857D01*
X35330952Y-77720476D01*
X35378571Y-77768095D01*
X35426190Y-77863333D01*
X35426190Y-78244285D01*
X35902380Y-76720476D02*
X35902380Y-77291904D01*
X35902380Y-77006190D02*
X34902380Y-77006190D01*
X35045238Y-77101428D01*
X35140476Y-77196666D01*
X35188095Y-77291904D01*
X35330952Y-76149047D02*
X35283333Y-76244285D01*
X35235714Y-76291904D01*
X35140476Y-76339523D01*
X35092857Y-76339523D01*
X34997619Y-76291904D01*
X34950000Y-76244285D01*
X34902380Y-76149047D01*
X34902380Y-75958571D01*
X34950000Y-75863333D01*
X34997619Y-75815714D01*
X35092857Y-75768095D01*
X35140476Y-75768095D01*
X35235714Y-75815714D01*
X35283333Y-75863333D01*
X35330952Y-75958571D01*
X35330952Y-76149047D01*
X35378571Y-76244285D01*
X35426190Y-76291904D01*
X35521428Y-76339523D01*
X35711904Y-76339523D01*
X35807142Y-76291904D01*
X35854761Y-76244285D01*
X35902380Y-76149047D01*
X35902380Y-75958571D01*
X35854761Y-75863333D01*
X35807142Y-75815714D01*
X35711904Y-75768095D01*
X35521428Y-75768095D01*
X35426190Y-75815714D01*
X35378571Y-75863333D01*
X35330952Y-75958571D01*
X35932380Y-73052857D02*
X35456190Y-73386190D01*
X35932380Y-73624285D02*
X34932380Y-73624285D01*
X34932380Y-73243333D01*
X34980000Y-73148095D01*
X35027619Y-73100476D01*
X35122857Y-73052857D01*
X35265714Y-73052857D01*
X35360952Y-73100476D01*
X35408571Y-73148095D01*
X35456190Y-73243333D01*
X35456190Y-73624285D01*
X35932380Y-72100476D02*
X35932380Y-72671904D01*
X35932380Y-72386190D02*
X34932380Y-72386190D01*
X35075238Y-72481428D01*
X35170476Y-72576666D01*
X35218095Y-72671904D01*
X34932380Y-71767142D02*
X34932380Y-71100476D01*
X35932380Y-71529047D01*
X35662380Y-68482857D02*
X35186190Y-68816190D01*
X35662380Y-69054285D02*
X34662380Y-69054285D01*
X34662380Y-68673333D01*
X34710000Y-68578095D01*
X34757619Y-68530476D01*
X34852857Y-68482857D01*
X34995714Y-68482857D01*
X35090952Y-68530476D01*
X35138571Y-68578095D01*
X35186190Y-68673333D01*
X35186190Y-69054285D01*
X35662380Y-67530476D02*
X35662380Y-68101904D01*
X35662380Y-67816190D02*
X34662380Y-67816190D01*
X34805238Y-67911428D01*
X34900476Y-68006666D01*
X34948095Y-68101904D01*
X34662380Y-66673333D02*
X34662380Y-66863809D01*
X34710000Y-66959047D01*
X34757619Y-67006666D01*
X34900476Y-67101904D01*
X35090952Y-67149523D01*
X35471904Y-67149523D01*
X35567142Y-67101904D01*
X35614761Y-67054285D01*
X35662380Y-66959047D01*
X35662380Y-66768571D01*
X35614761Y-66673333D01*
X35567142Y-66625714D01*
X35471904Y-66578095D01*
X35233809Y-66578095D01*
X35138571Y-66625714D01*
X35090952Y-66673333D01*
X35043333Y-66768571D01*
X35043333Y-66959047D01*
X35090952Y-67054285D01*
X35138571Y-67101904D01*
X35233809Y-67149523D01*
X45472380Y-77302857D02*
X44996190Y-77636190D01*
X45472380Y-77874285D02*
X44472380Y-77874285D01*
X44472380Y-77493333D01*
X44520000Y-77398095D01*
X44567619Y-77350476D01*
X44662857Y-77302857D01*
X44805714Y-77302857D01*
X44900952Y-77350476D01*
X44948571Y-77398095D01*
X44996190Y-77493333D01*
X44996190Y-77874285D01*
X45472380Y-76350476D02*
X45472380Y-76921904D01*
X45472380Y-76636190D02*
X44472380Y-76636190D01*
X44615238Y-76731428D01*
X44710476Y-76826666D01*
X44758095Y-76921904D01*
X44472380Y-75445714D02*
X44472380Y-75921904D01*
X44948571Y-75969523D01*
X44900952Y-75921904D01*
X44853333Y-75826666D01*
X44853333Y-75588571D01*
X44900952Y-75493333D01*
X44948571Y-75445714D01*
X45043809Y-75398095D01*
X45281904Y-75398095D01*
X45377142Y-75445714D01*
X45424761Y-75493333D01*
X45472380Y-75588571D01*
X45472380Y-75826666D01*
X45424761Y-75921904D01*
X45377142Y-75969523D01*
X50977380Y-77317857D02*
X50501190Y-77651190D01*
X50977380Y-77889285D02*
X49977380Y-77889285D01*
X49977380Y-77508333D01*
X50025000Y-77413095D01*
X50072619Y-77365476D01*
X50167857Y-77317857D01*
X50310714Y-77317857D01*
X50405952Y-77365476D01*
X50453571Y-77413095D01*
X50501190Y-77508333D01*
X50501190Y-77889285D01*
X50977380Y-76365476D02*
X50977380Y-76936904D01*
X50977380Y-76651190D02*
X49977380Y-76651190D01*
X50120238Y-76746428D01*
X50215476Y-76841666D01*
X50263095Y-76936904D01*
X50310714Y-75508333D02*
X50977380Y-75508333D01*
X49929761Y-75746428D02*
X50644047Y-75984523D01*
X50644047Y-75365476D01*
X45542380Y-72972857D02*
X45066190Y-73306190D01*
X45542380Y-73544285D02*
X44542380Y-73544285D01*
X44542380Y-73163333D01*
X44590000Y-73068095D01*
X44637619Y-73020476D01*
X44732857Y-72972857D01*
X44875714Y-72972857D01*
X44970952Y-73020476D01*
X45018571Y-73068095D01*
X45066190Y-73163333D01*
X45066190Y-73544285D01*
X45542380Y-72020476D02*
X45542380Y-72591904D01*
X45542380Y-72306190D02*
X44542380Y-72306190D01*
X44685238Y-72401428D01*
X44780476Y-72496666D01*
X44828095Y-72591904D01*
X44542380Y-71687142D02*
X44542380Y-71068095D01*
X44923333Y-71401428D01*
X44923333Y-71258571D01*
X44970952Y-71163333D01*
X45018571Y-71115714D01*
X45113809Y-71068095D01*
X45351904Y-71068095D01*
X45447142Y-71115714D01*
X45494761Y-71163333D01*
X45542380Y-71258571D01*
X45542380Y-71544285D01*
X45494761Y-71639523D01*
X45447142Y-71687142D01*
X51152380Y-72942857D02*
X50676190Y-73276190D01*
X51152380Y-73514285D02*
X50152380Y-73514285D01*
X50152380Y-73133333D01*
X50200000Y-73038095D01*
X50247619Y-72990476D01*
X50342857Y-72942857D01*
X50485714Y-72942857D01*
X50580952Y-72990476D01*
X50628571Y-73038095D01*
X50676190Y-73133333D01*
X50676190Y-73514285D01*
X51152380Y-71990476D02*
X51152380Y-72561904D01*
X51152380Y-72276190D02*
X50152380Y-72276190D01*
X50295238Y-72371428D01*
X50390476Y-72466666D01*
X50438095Y-72561904D01*
X50247619Y-71609523D02*
X50200000Y-71561904D01*
X50152380Y-71466666D01*
X50152380Y-71228571D01*
X50200000Y-71133333D01*
X50247619Y-71085714D01*
X50342857Y-71038095D01*
X50438095Y-71038095D01*
X50580952Y-71085714D01*
X51152380Y-71657142D01*
X51152380Y-71038095D01*
X45212380Y-68242857D02*
X44736190Y-68576190D01*
X45212380Y-68814285D02*
X44212380Y-68814285D01*
X44212380Y-68433333D01*
X44260000Y-68338095D01*
X44307619Y-68290476D01*
X44402857Y-68242857D01*
X44545714Y-68242857D01*
X44640952Y-68290476D01*
X44688571Y-68338095D01*
X44736190Y-68433333D01*
X44736190Y-68814285D01*
X45212380Y-67290476D02*
X45212380Y-67861904D01*
X45212380Y-67576190D02*
X44212380Y-67576190D01*
X44355238Y-67671428D01*
X44450476Y-67766666D01*
X44498095Y-67861904D01*
X45212380Y-66338095D02*
X45212380Y-66909523D01*
X45212380Y-66623809D02*
X44212380Y-66623809D01*
X44355238Y-66719047D01*
X44450476Y-66814285D01*
X44498095Y-66909523D01*
X51252380Y-68342857D02*
X50776190Y-68676190D01*
X51252380Y-68914285D02*
X50252380Y-68914285D01*
X50252380Y-68533333D01*
X50300000Y-68438095D01*
X50347619Y-68390476D01*
X50442857Y-68342857D01*
X50585714Y-68342857D01*
X50680952Y-68390476D01*
X50728571Y-68438095D01*
X50776190Y-68533333D01*
X50776190Y-68914285D01*
X51252380Y-67390476D02*
X51252380Y-67961904D01*
X51252380Y-67676190D02*
X50252380Y-67676190D01*
X50395238Y-67771428D01*
X50490476Y-67866666D01*
X50538095Y-67961904D01*
X50252380Y-66771428D02*
X50252380Y-66676190D01*
X50300000Y-66580952D01*
X50347619Y-66533333D01*
X50442857Y-66485714D01*
X50633333Y-66438095D01*
X50871428Y-66438095D01*
X51061904Y-66485714D01*
X51157142Y-66533333D01*
X51204761Y-66580952D01*
X51252380Y-66676190D01*
X51252380Y-66771428D01*
X51204761Y-66866666D01*
X51157142Y-66914285D01*
X51061904Y-66961904D01*
X50871428Y-67009523D01*
X50633333Y-67009523D01*
X50442857Y-66961904D01*
X50347619Y-66914285D01*
X50300000Y-66866666D01*
X50252380Y-66771428D01*
X41287619Y-76895238D02*
X41240000Y-76990476D01*
X41144761Y-77085714D01*
X41001904Y-77228571D01*
X40954285Y-77323809D01*
X40954285Y-77419047D01*
X41192380Y-77371428D02*
X41144761Y-77466666D01*
X41049523Y-77561904D01*
X40859047Y-77609523D01*
X40525714Y-77609523D01*
X40335238Y-77561904D01*
X40240000Y-77466666D01*
X40192380Y-77371428D01*
X40192380Y-77180952D01*
X40240000Y-77085714D01*
X40335238Y-76990476D01*
X40525714Y-76942857D01*
X40859047Y-76942857D01*
X41049523Y-76990476D01*
X41144761Y-77085714D01*
X41192380Y-77180952D01*
X41192380Y-77371428D01*
X40525714Y-76085714D02*
X41192380Y-76085714D01*
X40144761Y-76323809D02*
X40859047Y-76561904D01*
X40859047Y-75942857D01*
X41327619Y-72495238D02*
X41280000Y-72590476D01*
X41184761Y-72685714D01*
X41041904Y-72828571D01*
X40994285Y-72923809D01*
X40994285Y-73019047D01*
X41232380Y-72971428D02*
X41184761Y-73066666D01*
X41089523Y-73161904D01*
X40899047Y-73209523D01*
X40565714Y-73209523D01*
X40375238Y-73161904D01*
X40280000Y-73066666D01*
X40232380Y-72971428D01*
X40232380Y-72780952D01*
X40280000Y-72685714D01*
X40375238Y-72590476D01*
X40565714Y-72542857D01*
X40899047Y-72542857D01*
X41089523Y-72590476D01*
X41184761Y-72685714D01*
X41232380Y-72780952D01*
X41232380Y-72971428D01*
X40232380Y-72209523D02*
X40232380Y-71590476D01*
X40613333Y-71923809D01*
X40613333Y-71780952D01*
X40660952Y-71685714D01*
X40708571Y-71638095D01*
X40803809Y-71590476D01*
X41041904Y-71590476D01*
X41137142Y-71638095D01*
X41184761Y-71685714D01*
X41232380Y-71780952D01*
X41232380Y-72066666D01*
X41184761Y-72161904D01*
X41137142Y-72209523D01*
X41287618Y-67875238D02*
X41239999Y-67970476D01*
X41144760Y-68065714D01*
X41001903Y-68208571D01*
X40954284Y-68303809D01*
X40954284Y-68399047D01*
X41192379Y-68351428D02*
X41144760Y-68446666D01*
X41049522Y-68541904D01*
X40859046Y-68589523D01*
X40525713Y-68589523D01*
X40335237Y-68541904D01*
X40239999Y-68446666D01*
X40192379Y-68351428D01*
X40192379Y-68160952D01*
X40239999Y-68065714D01*
X40335237Y-67970476D01*
X40525713Y-67922857D01*
X40859046Y-67922857D01*
X41049522Y-67970476D01*
X41144760Y-68065714D01*
X41192379Y-68160952D01*
X41192379Y-68351428D01*
X40287618Y-67541904D02*
X40239999Y-67494285D01*
X40192379Y-67399047D01*
X40192379Y-67160952D01*
X40239999Y-67065714D01*
X40287618Y-67018095D01*
X40382856Y-66970476D01*
X40478094Y-66970476D01*
X40620951Y-67018095D01*
X41192379Y-67589523D01*
X41192379Y-66970476D01*
X27652380Y-78738095D02*
X26652380Y-78738095D01*
X26652380Y-78500000D01*
X26700000Y-78357142D01*
X26795238Y-78261904D01*
X26890476Y-78214285D01*
X27080952Y-78166666D01*
X27223809Y-78166666D01*
X27414285Y-78214285D01*
X27509523Y-78261904D01*
X27604761Y-78357142D01*
X27652380Y-78500000D01*
X27652380Y-78738095D01*
X27652380Y-77214285D02*
X27652380Y-77785714D01*
X27652380Y-77500000D02*
X26652380Y-77500000D01*
X26795238Y-77595238D01*
X26890476Y-77690476D01*
X26938095Y-77785714D01*
X41032380Y-42941904D02*
X41841904Y-42941904D01*
X41937142Y-42894285D01*
X41984761Y-42846666D01*
X42032380Y-42751428D01*
X42032380Y-42560952D01*
X41984761Y-42465714D01*
X41937142Y-42418095D01*
X41841904Y-42370476D01*
X41032380Y-42370476D01*
X42032380Y-41370476D02*
X42032380Y-41941904D01*
X42032380Y-41656190D02*
X41032380Y-41656190D01*
X41175238Y-41751428D01*
X41270476Y-41846666D01*
X41318095Y-41941904D01*
X31032380Y-52341904D02*
X31841904Y-52341904D01*
X31937142Y-52294285D01*
X31984761Y-52246666D01*
X32032380Y-52151428D01*
X32032380Y-51960952D01*
X31984761Y-51865714D01*
X31937142Y-51818095D01*
X31841904Y-51770476D01*
X31032380Y-51770476D01*
X31127619Y-51341904D02*
X31080000Y-51294285D01*
X31032380Y-51199047D01*
X31032380Y-50960952D01*
X31080000Y-50865714D01*
X31127619Y-50818095D01*
X31222857Y-50770476D01*
X31318095Y-50770476D01*
X31460952Y-50818095D01*
X32032380Y-51389523D01*
X32032380Y-50770476D01*
X24757380Y-54721666D02*
X24281190Y-55055000D01*
X24757380Y-55293095D02*
X23757380Y-55293095D01*
X23757380Y-54912142D01*
X23805000Y-54816904D01*
X23852619Y-54769285D01*
X23947857Y-54721666D01*
X24090714Y-54721666D01*
X24185952Y-54769285D01*
X24233571Y-54816904D01*
X24281190Y-54912142D01*
X24281190Y-55293095D01*
X24757380Y-54245476D02*
X24757380Y-54055000D01*
X24709761Y-53959761D01*
X24662142Y-53912142D01*
X24519285Y-53816904D01*
X24328809Y-53769285D01*
X23947857Y-53769285D01*
X23852619Y-53816904D01*
X23805000Y-53864523D01*
X23757380Y-53959761D01*
X23757380Y-54150238D01*
X23805000Y-54245476D01*
X23852619Y-54293095D01*
X23947857Y-54340714D01*
X24185952Y-54340714D01*
X24281190Y-54293095D01*
X24328809Y-54245476D01*
X24376428Y-54150238D01*
X24376428Y-53959761D01*
X24328809Y-53864523D01*
X24281190Y-53816904D01*
X24185952Y-53769285D01*
X31957142Y-57066666D02*
X32004761Y-57114285D01*
X32052380Y-57257142D01*
X32052380Y-57352380D01*
X32004761Y-57495238D01*
X31909523Y-57590476D01*
X31814285Y-57638095D01*
X31623809Y-57685714D01*
X31480952Y-57685714D01*
X31290476Y-57638095D01*
X31195238Y-57590476D01*
X31100000Y-57495238D01*
X31052380Y-57352380D01*
X31052380Y-57257142D01*
X31100000Y-57114285D01*
X31147619Y-57066666D01*
X31052380Y-56733333D02*
X31052380Y-56114285D01*
X31433333Y-56447619D01*
X31433333Y-56304761D01*
X31480952Y-56209523D01*
X31528571Y-56161904D01*
X31623809Y-56114285D01*
X31861904Y-56114285D01*
X31957142Y-56161904D01*
X32004761Y-56209523D01*
X32052380Y-56304761D01*
X32052380Y-56590476D01*
X32004761Y-56685714D01*
X31957142Y-56733333D01*
X34852380Y-22461904D02*
X35661904Y-22461904D01*
X35757142Y-22414285D01*
X35804761Y-22366666D01*
X35852380Y-22271428D01*
X35852380Y-22080952D01*
X35804761Y-21985714D01*
X35757142Y-21938095D01*
X35661904Y-21890476D01*
X34852380Y-21890476D01*
X34852380Y-21509523D02*
X34852380Y-20890476D01*
X35233333Y-21223809D01*
X35233333Y-21080952D01*
X35280952Y-20985714D01*
X35328571Y-20938095D01*
X35423809Y-20890476D01*
X35661904Y-20890476D01*
X35757142Y-20938095D01*
X35804761Y-20985714D01*
X35852380Y-21080952D01*
X35852380Y-21366666D01*
X35804761Y-21461904D01*
X35757142Y-21509523D01*
X50749761Y-50643333D02*
X50797380Y-50500476D01*
X50797380Y-50262380D01*
X50749761Y-50167142D01*
X50702142Y-50119523D01*
X50606904Y-50071904D01*
X50511666Y-50071904D01*
X50416428Y-50119523D01*
X50368809Y-50167142D01*
X50321190Y-50262380D01*
X50273571Y-50452857D01*
X50225952Y-50548095D01*
X50178333Y-50595714D01*
X50083095Y-50643333D01*
X49987857Y-50643333D01*
X49892619Y-50595714D01*
X49845000Y-50548095D01*
X49797380Y-50452857D01*
X49797380Y-50214761D01*
X49845000Y-50071904D01*
X49797380Y-49738571D02*
X50797380Y-49500476D01*
X50083095Y-49310000D01*
X50797380Y-49119523D01*
X49797380Y-48881428D01*
X50797380Y-47976666D02*
X50797380Y-48548095D01*
X50797380Y-48262380D02*
X49797380Y-48262380D01*
X49940238Y-48357619D01*
X50035476Y-48452857D01*
X50083095Y-48548095D01*
X51752380Y-53166666D02*
X51276190Y-53500000D01*
X51752380Y-53738095D02*
X50752380Y-53738095D01*
X50752380Y-53357142D01*
X50800000Y-53261904D01*
X50847619Y-53214285D01*
X50942857Y-53166666D01*
X51085714Y-53166666D01*
X51180952Y-53214285D01*
X51228571Y-53261904D01*
X51276190Y-53357142D01*
X51276190Y-53738095D01*
X51180952Y-52595238D02*
X51133333Y-52690476D01*
X51085714Y-52738095D01*
X50990476Y-52785714D01*
X50942857Y-52785714D01*
X50847619Y-52738095D01*
X50800000Y-52690476D01*
X50752380Y-52595238D01*
X50752380Y-52404761D01*
X50800000Y-52309523D01*
X50847619Y-52261904D01*
X50942857Y-52214285D01*
X50990476Y-52214285D01*
X51085714Y-52261904D01*
X51133333Y-52309523D01*
X51180952Y-52404761D01*
X51180952Y-52595238D01*
X51228571Y-52690476D01*
X51276190Y-52738095D01*
X51371428Y-52785714D01*
X51561904Y-52785714D01*
X51657142Y-52738095D01*
X51704761Y-52690476D01*
X51752380Y-52595238D01*
X51752380Y-52404761D01*
X51704761Y-52309523D01*
X51657142Y-52261904D01*
X51561904Y-52214285D01*
X51371428Y-52214285D01*
X51276190Y-52261904D01*
X51228571Y-52309523D01*
X51180952Y-52404761D01*
X28252380Y-56966666D02*
X27776190Y-57300000D01*
X28252380Y-57538095D02*
X27252380Y-57538095D01*
X27252380Y-57157142D01*
X27300000Y-57061904D01*
X27347619Y-57014285D01*
X27442857Y-56966666D01*
X27585714Y-56966666D01*
X27680952Y-57014285D01*
X27728571Y-57061904D01*
X27776190Y-57157142D01*
X27776190Y-57538095D01*
X27252380Y-56633333D02*
X27252380Y-55966666D01*
X28252380Y-56395238D01*
X25032380Y-47396666D02*
X24556190Y-47730000D01*
X25032380Y-47968095D02*
X24032380Y-47968095D01*
X24032380Y-47587142D01*
X24080000Y-47491904D01*
X24127619Y-47444285D01*
X24222857Y-47396666D01*
X24365714Y-47396666D01*
X24460952Y-47444285D01*
X24508571Y-47491904D01*
X24556190Y-47587142D01*
X24556190Y-47968095D01*
X24032380Y-46539523D02*
X24032380Y-46730000D01*
X24080000Y-46825238D01*
X24127619Y-46872857D01*
X24270476Y-46968095D01*
X24460952Y-47015714D01*
X24841904Y-47015714D01*
X24937142Y-46968095D01*
X24984761Y-46920476D01*
X25032380Y-46825238D01*
X25032380Y-46634761D01*
X24984761Y-46539523D01*
X24937142Y-46491904D01*
X24841904Y-46444285D01*
X24603809Y-46444285D01*
X24508571Y-46491904D01*
X24460952Y-46539523D01*
X24413333Y-46634761D01*
X24413333Y-46825238D01*
X24460952Y-46920476D01*
X24508571Y-46968095D01*
X24603809Y-47015714D01*
X32132380Y-47221666D02*
X31656190Y-47555000D01*
X32132380Y-47793095D02*
X31132380Y-47793095D01*
X31132380Y-47412142D01*
X31180000Y-47316904D01*
X31227619Y-47269285D01*
X31322857Y-47221666D01*
X31465714Y-47221666D01*
X31560952Y-47269285D01*
X31608571Y-47316904D01*
X31656190Y-47412142D01*
X31656190Y-47793095D01*
X31132380Y-46316904D02*
X31132380Y-46793095D01*
X31608571Y-46840714D01*
X31560952Y-46793095D01*
X31513333Y-46697857D01*
X31513333Y-46459761D01*
X31560952Y-46364523D01*
X31608571Y-46316904D01*
X31703809Y-46269285D01*
X31941904Y-46269285D01*
X32037142Y-46316904D01*
X32084761Y-46364523D01*
X32132380Y-46459761D01*
X32132380Y-46697857D01*
X32084761Y-46793095D01*
X32037142Y-46840714D01*
X46407142Y-54366666D02*
X46454761Y-54414285D01*
X46502380Y-54557142D01*
X46502380Y-54652380D01*
X46454761Y-54795238D01*
X46359523Y-54890476D01*
X46264285Y-54938095D01*
X46073809Y-54985714D01*
X45930952Y-54985714D01*
X45740476Y-54938095D01*
X45645238Y-54890476D01*
X45550000Y-54795238D01*
X45502380Y-54652380D01*
X45502380Y-54557142D01*
X45550000Y-54414285D01*
X45597619Y-54366666D01*
X45502380Y-53509523D02*
X45502380Y-53700000D01*
X45550000Y-53795238D01*
X45597619Y-53842857D01*
X45740476Y-53938095D01*
X45930952Y-53985714D01*
X46311904Y-53985714D01*
X46407142Y-53938095D01*
X46454761Y-53890476D01*
X46502380Y-53795238D01*
X46502380Y-53604761D01*
X46454761Y-53509523D01*
X46407142Y-53461904D01*
X46311904Y-53414285D01*
X46073809Y-53414285D01*
X45978571Y-53461904D01*
X45930952Y-53509523D01*
X45883333Y-53604761D01*
X45883333Y-53795238D01*
X45930952Y-53890476D01*
X45978571Y-53938095D01*
X46073809Y-53985714D01*
X26407142Y-20916666D02*
X26454761Y-20964285D01*
X26502380Y-21107142D01*
X26502380Y-21202380D01*
X26454761Y-21345238D01*
X26359523Y-21440476D01*
X26264285Y-21488095D01*
X26073809Y-21535714D01*
X25930952Y-21535714D01*
X25740476Y-21488095D01*
X25645238Y-21440476D01*
X25550000Y-21345238D01*
X25502380Y-21202380D01*
X25502380Y-21107142D01*
X25550000Y-20964285D01*
X25597619Y-20916666D01*
X25502380Y-20011904D02*
X25502380Y-20488095D01*
X25978571Y-20535714D01*
X25930952Y-20488095D01*
X25883333Y-20392857D01*
X25883333Y-20154761D01*
X25930952Y-20059523D01*
X25978571Y-20011904D01*
X26073809Y-19964285D01*
X26311904Y-19964285D01*
X26407142Y-20011904D01*
X26454761Y-20059523D01*
X26502380Y-20154761D01*
X26502380Y-20392857D01*
X26454761Y-20488095D01*
X26407142Y-20535714D01*
X36652380Y-54366666D02*
X36176190Y-54700000D01*
X36652380Y-54938095D02*
X35652380Y-54938095D01*
X35652380Y-54557142D01*
X35700000Y-54461904D01*
X35747619Y-54414285D01*
X35842857Y-54366666D01*
X35985714Y-54366666D01*
X36080952Y-54414285D01*
X36128571Y-54461904D01*
X36176190Y-54557142D01*
X36176190Y-54938095D01*
X35985714Y-53509523D02*
X36652380Y-53509523D01*
X35604761Y-53747619D02*
X36319047Y-53985714D01*
X36319047Y-53366666D01*
X41632380Y-48746666D02*
X41156190Y-49080000D01*
X41632380Y-49318095D02*
X40632380Y-49318095D01*
X40632380Y-48937142D01*
X40680000Y-48841904D01*
X40727619Y-48794285D01*
X40822857Y-48746666D01*
X40965714Y-48746666D01*
X41060952Y-48794285D01*
X41108571Y-48841904D01*
X41156190Y-48937142D01*
X41156190Y-49318095D01*
X40632380Y-48413333D02*
X40632380Y-47794285D01*
X41013333Y-48127619D01*
X41013333Y-47984761D01*
X41060952Y-47889523D01*
X41108571Y-47841904D01*
X41203809Y-47794285D01*
X41441904Y-47794285D01*
X41537142Y-47841904D01*
X41584761Y-47889523D01*
X41632380Y-47984761D01*
X41632380Y-48270476D01*
X41584761Y-48365714D01*
X41537142Y-48413333D01*
X41557380Y-53296666D02*
X41081190Y-53630000D01*
X41557380Y-53868095D02*
X40557380Y-53868095D01*
X40557380Y-53487142D01*
X40605000Y-53391904D01*
X40652619Y-53344285D01*
X40747857Y-53296666D01*
X40890714Y-53296666D01*
X40985952Y-53344285D01*
X41033571Y-53391904D01*
X41081190Y-53487142D01*
X41081190Y-53868095D01*
X40652619Y-52915714D02*
X40605000Y-52868095D01*
X40557380Y-52772857D01*
X40557380Y-52534761D01*
X40605000Y-52439523D01*
X40652619Y-52391904D01*
X40747857Y-52344285D01*
X40843095Y-52344285D01*
X40985952Y-52391904D01*
X41557380Y-52963333D01*
X41557380Y-52344285D01*
X47902619Y-41000238D02*
X47855000Y-41095476D01*
X47759761Y-41190714D01*
X47616904Y-41333571D01*
X47569285Y-41428809D01*
X47569285Y-41524047D01*
X47807380Y-41476428D02*
X47759761Y-41571666D01*
X47664523Y-41666904D01*
X47474047Y-41714523D01*
X47140714Y-41714523D01*
X46950238Y-41666904D01*
X46855000Y-41571666D01*
X46807380Y-41476428D01*
X46807380Y-41285952D01*
X46855000Y-41190714D01*
X46950238Y-41095476D01*
X47140714Y-41047857D01*
X47474047Y-41047857D01*
X47664523Y-41095476D01*
X47759761Y-41190714D01*
X47807380Y-41285952D01*
X47807380Y-41476428D01*
X47807380Y-40095476D02*
X47807380Y-40666904D01*
X47807380Y-40381190D02*
X46807380Y-40381190D01*
X46950238Y-40476428D01*
X47045476Y-40571666D01*
X47093095Y-40666904D01*
X48052380Y-44891666D02*
X47576190Y-45225000D01*
X48052380Y-45463095D02*
X47052380Y-45463095D01*
X47052380Y-45082142D01*
X47100000Y-44986904D01*
X47147619Y-44939285D01*
X47242857Y-44891666D01*
X47385714Y-44891666D01*
X47480952Y-44939285D01*
X47528571Y-44986904D01*
X47576190Y-45082142D01*
X47576190Y-45463095D01*
X48052380Y-43939285D02*
X48052380Y-44510714D01*
X48052380Y-44225000D02*
X47052380Y-44225000D01*
X47195238Y-44320238D01*
X47290476Y-44415476D01*
X47338095Y-44510714D01*
X44257142Y-27566666D02*
X44304761Y-27614285D01*
X44352380Y-27757142D01*
X44352380Y-27852380D01*
X44304761Y-27995238D01*
X44209523Y-28090476D01*
X44114285Y-28138095D01*
X43923809Y-28185714D01*
X43780952Y-28185714D01*
X43590476Y-28138095D01*
X43495238Y-28090476D01*
X43400000Y-27995238D01*
X43352380Y-27852380D01*
X43352380Y-27757142D01*
X43400000Y-27614285D01*
X43447619Y-27566666D01*
X43447619Y-27185714D02*
X43400000Y-27138095D01*
X43352380Y-27042857D01*
X43352380Y-26804761D01*
X43400000Y-26709523D01*
X43447619Y-26661904D01*
X43542857Y-26614285D01*
X43638095Y-26614285D01*
X43780952Y-26661904D01*
X44352380Y-27233333D01*
X44352380Y-26614285D01*
X46407142Y-27616666D02*
X46454761Y-27664285D01*
X46502380Y-27807142D01*
X46502380Y-27902380D01*
X46454761Y-28045238D01*
X46359523Y-28140476D01*
X46264285Y-28188095D01*
X46073809Y-28235714D01*
X45930952Y-28235714D01*
X45740476Y-28188095D01*
X45645238Y-28140476D01*
X45550000Y-28045238D01*
X45502380Y-27902380D01*
X45502380Y-27807142D01*
X45550000Y-27664285D01*
X45597619Y-27616666D01*
X46502380Y-26664285D02*
X46502380Y-27235714D01*
X46502380Y-26950000D02*
X45502380Y-26950000D01*
X45645238Y-27045238D01*
X45740476Y-27140476D01*
X45788095Y-27235714D01*
M02*
