G04 #@! TF.GenerationSoftware,KiCad,Pcbnew,(5.1.5-0-10_14)*
G04 #@! TF.CreationDate,2020-11-06T22:44:04+01:00*
G04 #@! TF.ProjectId,HB-RF-MOD,48422d52-462d-44d4-9f44-2e6b69636164,rev?*
G04 #@! TF.SameCoordinates,Original*
G04 #@! TF.FileFunction,Soldermask,Top*
G04 #@! TF.FilePolarity,Negative*
%FSLAX46Y46*%
G04 Gerber Fmt 4.6, Leading zero omitted, Abs format (unit mm)*
G04 Created by KiCad (PCBNEW (5.1.5-0-10_14)) date 2020-11-06 22:44:04*
%MOMM*%
%LPD*%
G04 APERTURE LIST*
%ADD10O,1.350000X1.350000*%
%ADD11R,1.350000X1.350000*%
%ADD12R,0.800000X1.200000*%
%ADD13R,1.200000X0.800000*%
%ADD14R,0.400000X1.100000*%
%ADD15R,0.700000X1.100000*%
%ADD16C,0.100000*%
%ADD17R,1.840000X2.200000*%
%ADD18R,1.500000X1.000000*%
%ADD19R,1.800000X1.000000*%
%ADD20R,1.050000X0.650000*%
%ADD21R,3.500000X1.600000*%
%ADD22C,2.700000*%
%ADD23R,0.900000X0.800000*%
%ADD24C,4.000000*%
%ADD25R,4.000000X4.000000*%
%ADD26O,1.700000X1.700000*%
%ADD27R,1.700000X1.700000*%
G04 APERTURE END LIST*
D10*
X187450000Y-105400000D03*
X187450000Y-107400000D03*
X187450000Y-109400000D03*
X187450000Y-111400000D03*
D11*
X187450000Y-113400000D03*
D12*
X169250000Y-66184800D03*
X170520000Y-66184800D03*
X171790000Y-66184800D03*
X173060000Y-66184800D03*
X174330000Y-66184800D03*
X175600000Y-66184800D03*
X176870000Y-66188500D03*
D13*
X179005000Y-69735000D03*
X179005000Y-71005000D03*
X179005000Y-72275000D03*
X179005000Y-73545000D03*
X179005000Y-74815000D03*
X179005000Y-76085000D03*
X179005000Y-77355000D03*
X179005000Y-78625000D03*
X179005000Y-79895000D03*
X179005000Y-81165000D03*
D12*
X176870000Y-84621000D03*
X175600000Y-84621000D03*
X174330000Y-84621000D03*
X173060000Y-84621000D03*
X171790000Y-84621000D03*
X170520000Y-84621000D03*
X169250000Y-84621000D03*
D14*
X166950000Y-94200000D03*
X166250000Y-94200000D03*
X165550000Y-94200000D03*
X165550000Y-92000000D03*
X166250000Y-92000000D03*
X166950000Y-92000000D03*
D15*
X167800000Y-94200000D03*
X164700000Y-94200000D03*
X164700000Y-92000000D03*
X167800000Y-92000000D03*
D16*
G36*
X162874505Y-93576204D02*
G01*
X162898773Y-93579804D01*
X162922572Y-93585765D01*
X162945671Y-93594030D01*
X162967850Y-93604520D01*
X162988893Y-93617132D01*
X163008599Y-93631747D01*
X163026777Y-93648223D01*
X163043253Y-93666401D01*
X163057868Y-93686107D01*
X163070480Y-93707150D01*
X163080970Y-93729329D01*
X163089235Y-93752428D01*
X163095196Y-93776227D01*
X163098796Y-93800495D01*
X163100000Y-93824999D01*
X163100000Y-94475001D01*
X163098796Y-94499505D01*
X163095196Y-94523773D01*
X163089235Y-94547572D01*
X163080970Y-94570671D01*
X163070480Y-94592850D01*
X163057868Y-94613893D01*
X163043253Y-94633599D01*
X163026777Y-94651777D01*
X163008599Y-94668253D01*
X162988893Y-94682868D01*
X162967850Y-94695480D01*
X162945671Y-94705970D01*
X162922572Y-94714235D01*
X162898773Y-94720196D01*
X162874505Y-94723796D01*
X162850001Y-94725000D01*
X161949999Y-94725000D01*
X161925495Y-94723796D01*
X161901227Y-94720196D01*
X161877428Y-94714235D01*
X161854329Y-94705970D01*
X161832150Y-94695480D01*
X161811107Y-94682868D01*
X161791401Y-94668253D01*
X161773223Y-94651777D01*
X161756747Y-94633599D01*
X161742132Y-94613893D01*
X161729520Y-94592850D01*
X161719030Y-94570671D01*
X161710765Y-94547572D01*
X161704804Y-94523773D01*
X161701204Y-94499505D01*
X161700000Y-94475001D01*
X161700000Y-93824999D01*
X161701204Y-93800495D01*
X161704804Y-93776227D01*
X161710765Y-93752428D01*
X161719030Y-93729329D01*
X161729520Y-93707150D01*
X161742132Y-93686107D01*
X161756747Y-93666401D01*
X161773223Y-93648223D01*
X161791401Y-93631747D01*
X161811107Y-93617132D01*
X161832150Y-93604520D01*
X161854329Y-93594030D01*
X161877428Y-93585765D01*
X161901227Y-93579804D01*
X161925495Y-93576204D01*
X161949999Y-93575000D01*
X162850001Y-93575000D01*
X162874505Y-93576204D01*
G37*
G36*
X162874505Y-91526204D02*
G01*
X162898773Y-91529804D01*
X162922572Y-91535765D01*
X162945671Y-91544030D01*
X162967850Y-91554520D01*
X162988893Y-91567132D01*
X163008599Y-91581747D01*
X163026777Y-91598223D01*
X163043253Y-91616401D01*
X163057868Y-91636107D01*
X163070480Y-91657150D01*
X163080970Y-91679329D01*
X163089235Y-91702428D01*
X163095196Y-91726227D01*
X163098796Y-91750495D01*
X163100000Y-91774999D01*
X163100000Y-92425001D01*
X163098796Y-92449505D01*
X163095196Y-92473773D01*
X163089235Y-92497572D01*
X163080970Y-92520671D01*
X163070480Y-92542850D01*
X163057868Y-92563893D01*
X163043253Y-92583599D01*
X163026777Y-92601777D01*
X163008599Y-92618253D01*
X162988893Y-92632868D01*
X162967850Y-92645480D01*
X162945671Y-92655970D01*
X162922572Y-92664235D01*
X162898773Y-92670196D01*
X162874505Y-92673796D01*
X162850001Y-92675000D01*
X161949999Y-92675000D01*
X161925495Y-92673796D01*
X161901227Y-92670196D01*
X161877428Y-92664235D01*
X161854329Y-92655970D01*
X161832150Y-92645480D01*
X161811107Y-92632868D01*
X161791401Y-92618253D01*
X161773223Y-92601777D01*
X161756747Y-92583599D01*
X161742132Y-92563893D01*
X161729520Y-92542850D01*
X161719030Y-92520671D01*
X161710765Y-92497572D01*
X161704804Y-92473773D01*
X161701204Y-92449505D01*
X161700000Y-92425001D01*
X161700000Y-91774999D01*
X161701204Y-91750495D01*
X161704804Y-91726227D01*
X161710765Y-91702428D01*
X161719030Y-91679329D01*
X161729520Y-91657150D01*
X161742132Y-91636107D01*
X161756747Y-91616401D01*
X161773223Y-91598223D01*
X161791401Y-91581747D01*
X161811107Y-91567132D01*
X161832150Y-91554520D01*
X161854329Y-91544030D01*
X161877428Y-91535765D01*
X161901227Y-91529804D01*
X161925495Y-91526204D01*
X161949999Y-91525000D01*
X162850001Y-91525000D01*
X162874505Y-91526204D01*
G37*
G36*
X167999505Y-98076204D02*
G01*
X168023773Y-98079804D01*
X168047572Y-98085765D01*
X168070671Y-98094030D01*
X168092850Y-98104520D01*
X168113893Y-98117132D01*
X168133599Y-98131747D01*
X168151777Y-98148223D01*
X168168253Y-98166401D01*
X168182868Y-98186107D01*
X168195480Y-98207150D01*
X168205970Y-98229329D01*
X168214235Y-98252428D01*
X168220196Y-98276227D01*
X168223796Y-98300495D01*
X168225000Y-98324999D01*
X168225000Y-98975001D01*
X168223796Y-98999505D01*
X168220196Y-99023773D01*
X168214235Y-99047572D01*
X168205970Y-99070671D01*
X168195480Y-99092850D01*
X168182868Y-99113893D01*
X168168253Y-99133599D01*
X168151777Y-99151777D01*
X168133599Y-99168253D01*
X168113893Y-99182868D01*
X168092850Y-99195480D01*
X168070671Y-99205970D01*
X168047572Y-99214235D01*
X168023773Y-99220196D01*
X167999505Y-99223796D01*
X167975001Y-99225000D01*
X167074999Y-99225000D01*
X167050495Y-99223796D01*
X167026227Y-99220196D01*
X167002428Y-99214235D01*
X166979329Y-99205970D01*
X166957150Y-99195480D01*
X166936107Y-99182868D01*
X166916401Y-99168253D01*
X166898223Y-99151777D01*
X166881747Y-99133599D01*
X166867132Y-99113893D01*
X166854520Y-99092850D01*
X166844030Y-99070671D01*
X166835765Y-99047572D01*
X166829804Y-99023773D01*
X166826204Y-98999505D01*
X166825000Y-98975001D01*
X166825000Y-98324999D01*
X166826204Y-98300495D01*
X166829804Y-98276227D01*
X166835765Y-98252428D01*
X166844030Y-98229329D01*
X166854520Y-98207150D01*
X166867132Y-98186107D01*
X166881747Y-98166401D01*
X166898223Y-98148223D01*
X166916401Y-98131747D01*
X166936107Y-98117132D01*
X166957150Y-98104520D01*
X166979329Y-98094030D01*
X167002428Y-98085765D01*
X167026227Y-98079804D01*
X167050495Y-98076204D01*
X167074999Y-98075000D01*
X167975001Y-98075000D01*
X167999505Y-98076204D01*
G37*
G36*
X167999505Y-96026204D02*
G01*
X168023773Y-96029804D01*
X168047572Y-96035765D01*
X168070671Y-96044030D01*
X168092850Y-96054520D01*
X168113893Y-96067132D01*
X168133599Y-96081747D01*
X168151777Y-96098223D01*
X168168253Y-96116401D01*
X168182868Y-96136107D01*
X168195480Y-96157150D01*
X168205970Y-96179329D01*
X168214235Y-96202428D01*
X168220196Y-96226227D01*
X168223796Y-96250495D01*
X168225000Y-96274999D01*
X168225000Y-96925001D01*
X168223796Y-96949505D01*
X168220196Y-96973773D01*
X168214235Y-96997572D01*
X168205970Y-97020671D01*
X168195480Y-97042850D01*
X168182868Y-97063893D01*
X168168253Y-97083599D01*
X168151777Y-97101777D01*
X168133599Y-97118253D01*
X168113893Y-97132868D01*
X168092850Y-97145480D01*
X168070671Y-97155970D01*
X168047572Y-97164235D01*
X168023773Y-97170196D01*
X167999505Y-97173796D01*
X167975001Y-97175000D01*
X167074999Y-97175000D01*
X167050495Y-97173796D01*
X167026227Y-97170196D01*
X167002428Y-97164235D01*
X166979329Y-97155970D01*
X166957150Y-97145480D01*
X166936107Y-97132868D01*
X166916401Y-97118253D01*
X166898223Y-97101777D01*
X166881747Y-97083599D01*
X166867132Y-97063893D01*
X166854520Y-97042850D01*
X166844030Y-97020671D01*
X166835765Y-96997572D01*
X166829804Y-96973773D01*
X166826204Y-96949505D01*
X166825000Y-96925001D01*
X166825000Y-96274999D01*
X166826204Y-96250495D01*
X166829804Y-96226227D01*
X166835765Y-96202428D01*
X166844030Y-96179329D01*
X166854520Y-96157150D01*
X166867132Y-96136107D01*
X166881747Y-96116401D01*
X166898223Y-96098223D01*
X166916401Y-96081747D01*
X166936107Y-96067132D01*
X166957150Y-96054520D01*
X166979329Y-96044030D01*
X167002428Y-96035765D01*
X167026227Y-96029804D01*
X167050495Y-96026204D01*
X167074999Y-96025000D01*
X167975001Y-96025000D01*
X167999505Y-96026204D01*
G37*
G36*
X185723800Y-62300000D02*
G01*
X184723800Y-61600000D01*
X184723800Y-60800000D01*
X185723800Y-60100000D01*
X185723800Y-62300000D01*
G37*
D17*
X186633500Y-61200000D03*
D18*
X183820000Y-62700000D03*
D19*
X183966500Y-61200000D03*
D18*
X183820000Y-59700000D03*
D16*
G36*
X187542000Y-60100000D02*
G01*
X188392000Y-60700000D01*
X188392000Y-61700000D01*
X187542000Y-62300000D01*
X187542000Y-60100000D01*
G37*
D20*
X185650000Y-91575000D03*
X181500000Y-91575000D03*
X185650000Y-89425000D03*
X181500000Y-89425000D03*
D16*
G36*
X187749505Y-96501204D02*
G01*
X187773773Y-96504804D01*
X187797572Y-96510765D01*
X187820671Y-96519030D01*
X187842850Y-96529520D01*
X187863893Y-96542132D01*
X187883599Y-96556747D01*
X187901777Y-96573223D01*
X187918253Y-96591401D01*
X187932868Y-96611107D01*
X187945480Y-96632150D01*
X187955970Y-96654329D01*
X187964235Y-96677428D01*
X187970196Y-96701227D01*
X187973796Y-96725495D01*
X187975000Y-96749999D01*
X187975000Y-97400001D01*
X187973796Y-97424505D01*
X187970196Y-97448773D01*
X187964235Y-97472572D01*
X187955970Y-97495671D01*
X187945480Y-97517850D01*
X187932868Y-97538893D01*
X187918253Y-97558599D01*
X187901777Y-97576777D01*
X187883599Y-97593253D01*
X187863893Y-97607868D01*
X187842850Y-97620480D01*
X187820671Y-97630970D01*
X187797572Y-97639235D01*
X187773773Y-97645196D01*
X187749505Y-97648796D01*
X187725001Y-97650000D01*
X186824999Y-97650000D01*
X186800495Y-97648796D01*
X186776227Y-97645196D01*
X186752428Y-97639235D01*
X186729329Y-97630970D01*
X186707150Y-97620480D01*
X186686107Y-97607868D01*
X186666401Y-97593253D01*
X186648223Y-97576777D01*
X186631747Y-97558599D01*
X186617132Y-97538893D01*
X186604520Y-97517850D01*
X186594030Y-97495671D01*
X186585765Y-97472572D01*
X186579804Y-97448773D01*
X186576204Y-97424505D01*
X186575000Y-97400001D01*
X186575000Y-96749999D01*
X186576204Y-96725495D01*
X186579804Y-96701227D01*
X186585765Y-96677428D01*
X186594030Y-96654329D01*
X186604520Y-96632150D01*
X186617132Y-96611107D01*
X186631747Y-96591401D01*
X186648223Y-96573223D01*
X186666401Y-96556747D01*
X186686107Y-96542132D01*
X186707150Y-96529520D01*
X186729329Y-96519030D01*
X186752428Y-96510765D01*
X186776227Y-96504804D01*
X186800495Y-96501204D01*
X186824999Y-96500000D01*
X187725001Y-96500000D01*
X187749505Y-96501204D01*
G37*
G36*
X187749505Y-94451204D02*
G01*
X187773773Y-94454804D01*
X187797572Y-94460765D01*
X187820671Y-94469030D01*
X187842850Y-94479520D01*
X187863893Y-94492132D01*
X187883599Y-94506747D01*
X187901777Y-94523223D01*
X187918253Y-94541401D01*
X187932868Y-94561107D01*
X187945480Y-94582150D01*
X187955970Y-94604329D01*
X187964235Y-94627428D01*
X187970196Y-94651227D01*
X187973796Y-94675495D01*
X187975000Y-94699999D01*
X187975000Y-95350001D01*
X187973796Y-95374505D01*
X187970196Y-95398773D01*
X187964235Y-95422572D01*
X187955970Y-95445671D01*
X187945480Y-95467850D01*
X187932868Y-95488893D01*
X187918253Y-95508599D01*
X187901777Y-95526777D01*
X187883599Y-95543253D01*
X187863893Y-95557868D01*
X187842850Y-95570480D01*
X187820671Y-95580970D01*
X187797572Y-95589235D01*
X187773773Y-95595196D01*
X187749505Y-95598796D01*
X187725001Y-95600000D01*
X186824999Y-95600000D01*
X186800495Y-95598796D01*
X186776227Y-95595196D01*
X186752428Y-95589235D01*
X186729329Y-95580970D01*
X186707150Y-95570480D01*
X186686107Y-95557868D01*
X186666401Y-95543253D01*
X186648223Y-95526777D01*
X186631747Y-95508599D01*
X186617132Y-95488893D01*
X186604520Y-95467850D01*
X186594030Y-95445671D01*
X186585765Y-95422572D01*
X186579804Y-95398773D01*
X186576204Y-95374505D01*
X186575000Y-95350001D01*
X186575000Y-94699999D01*
X186576204Y-94675495D01*
X186579804Y-94651227D01*
X186585765Y-94627428D01*
X186594030Y-94604329D01*
X186604520Y-94582150D01*
X186617132Y-94561107D01*
X186631747Y-94541401D01*
X186648223Y-94523223D01*
X186666401Y-94506747D01*
X186686107Y-94492132D01*
X186707150Y-94479520D01*
X186729329Y-94469030D01*
X186752428Y-94460765D01*
X186776227Y-94454804D01*
X186800495Y-94451204D01*
X186824999Y-94450000D01*
X187725001Y-94450000D01*
X187749505Y-94451204D01*
G37*
G36*
X164749505Y-98651204D02*
G01*
X164773773Y-98654804D01*
X164797572Y-98660765D01*
X164820671Y-98669030D01*
X164842850Y-98679520D01*
X164863893Y-98692132D01*
X164883599Y-98706747D01*
X164901777Y-98723223D01*
X164918253Y-98741401D01*
X164932868Y-98761107D01*
X164945480Y-98782150D01*
X164955970Y-98804329D01*
X164964235Y-98827428D01*
X164970196Y-98851227D01*
X164973796Y-98875495D01*
X164975000Y-98899999D01*
X164975000Y-99550001D01*
X164973796Y-99574505D01*
X164970196Y-99598773D01*
X164964235Y-99622572D01*
X164955970Y-99645671D01*
X164945480Y-99667850D01*
X164932868Y-99688893D01*
X164918253Y-99708599D01*
X164901777Y-99726777D01*
X164883599Y-99743253D01*
X164863893Y-99757868D01*
X164842850Y-99770480D01*
X164820671Y-99780970D01*
X164797572Y-99789235D01*
X164773773Y-99795196D01*
X164749505Y-99798796D01*
X164725001Y-99800000D01*
X163824999Y-99800000D01*
X163800495Y-99798796D01*
X163776227Y-99795196D01*
X163752428Y-99789235D01*
X163729329Y-99780970D01*
X163707150Y-99770480D01*
X163686107Y-99757868D01*
X163666401Y-99743253D01*
X163648223Y-99726777D01*
X163631747Y-99708599D01*
X163617132Y-99688893D01*
X163604520Y-99667850D01*
X163594030Y-99645671D01*
X163585765Y-99622572D01*
X163579804Y-99598773D01*
X163576204Y-99574505D01*
X163575000Y-99550001D01*
X163575000Y-98899999D01*
X163576204Y-98875495D01*
X163579804Y-98851227D01*
X163585765Y-98827428D01*
X163594030Y-98804329D01*
X163604520Y-98782150D01*
X163617132Y-98761107D01*
X163631747Y-98741401D01*
X163648223Y-98723223D01*
X163666401Y-98706747D01*
X163686107Y-98692132D01*
X163707150Y-98679520D01*
X163729329Y-98669030D01*
X163752428Y-98660765D01*
X163776227Y-98654804D01*
X163800495Y-98651204D01*
X163824999Y-98650000D01*
X164725001Y-98650000D01*
X164749505Y-98651204D01*
G37*
G36*
X164749505Y-96601204D02*
G01*
X164773773Y-96604804D01*
X164797572Y-96610765D01*
X164820671Y-96619030D01*
X164842850Y-96629520D01*
X164863893Y-96642132D01*
X164883599Y-96656747D01*
X164901777Y-96673223D01*
X164918253Y-96691401D01*
X164932868Y-96711107D01*
X164945480Y-96732150D01*
X164955970Y-96754329D01*
X164964235Y-96777428D01*
X164970196Y-96801227D01*
X164973796Y-96825495D01*
X164975000Y-96849999D01*
X164975000Y-97500001D01*
X164973796Y-97524505D01*
X164970196Y-97548773D01*
X164964235Y-97572572D01*
X164955970Y-97595671D01*
X164945480Y-97617850D01*
X164932868Y-97638893D01*
X164918253Y-97658599D01*
X164901777Y-97676777D01*
X164883599Y-97693253D01*
X164863893Y-97707868D01*
X164842850Y-97720480D01*
X164820671Y-97730970D01*
X164797572Y-97739235D01*
X164773773Y-97745196D01*
X164749505Y-97748796D01*
X164725001Y-97750000D01*
X163824999Y-97750000D01*
X163800495Y-97748796D01*
X163776227Y-97745196D01*
X163752428Y-97739235D01*
X163729329Y-97730970D01*
X163707150Y-97720480D01*
X163686107Y-97707868D01*
X163666401Y-97693253D01*
X163648223Y-97676777D01*
X163631747Y-97658599D01*
X163617132Y-97638893D01*
X163604520Y-97617850D01*
X163594030Y-97595671D01*
X163585765Y-97572572D01*
X163579804Y-97548773D01*
X163576204Y-97524505D01*
X163575000Y-97500001D01*
X163575000Y-96849999D01*
X163576204Y-96825495D01*
X163579804Y-96801227D01*
X163585765Y-96777428D01*
X163594030Y-96754329D01*
X163604520Y-96732150D01*
X163617132Y-96711107D01*
X163631747Y-96691401D01*
X163648223Y-96673223D01*
X163666401Y-96656747D01*
X163686107Y-96642132D01*
X163707150Y-96629520D01*
X163729329Y-96619030D01*
X163752428Y-96610765D01*
X163776227Y-96604804D01*
X163800495Y-96601204D01*
X163824999Y-96600000D01*
X164725001Y-96600000D01*
X164749505Y-96601204D01*
G37*
G36*
X164924505Y-87051204D02*
G01*
X164948773Y-87054804D01*
X164972572Y-87060765D01*
X164995671Y-87069030D01*
X165017850Y-87079520D01*
X165038893Y-87092132D01*
X165058599Y-87106747D01*
X165076777Y-87123223D01*
X165093253Y-87141401D01*
X165107868Y-87161107D01*
X165120480Y-87182150D01*
X165130970Y-87204329D01*
X165139235Y-87227428D01*
X165145196Y-87251227D01*
X165148796Y-87275495D01*
X165150000Y-87299999D01*
X165150000Y-87950001D01*
X165148796Y-87974505D01*
X165145196Y-87998773D01*
X165139235Y-88022572D01*
X165130970Y-88045671D01*
X165120480Y-88067850D01*
X165107868Y-88088893D01*
X165093253Y-88108599D01*
X165076777Y-88126777D01*
X165058599Y-88143253D01*
X165038893Y-88157868D01*
X165017850Y-88170480D01*
X164995671Y-88180970D01*
X164972572Y-88189235D01*
X164948773Y-88195196D01*
X164924505Y-88198796D01*
X164900001Y-88200000D01*
X163999999Y-88200000D01*
X163975495Y-88198796D01*
X163951227Y-88195196D01*
X163927428Y-88189235D01*
X163904329Y-88180970D01*
X163882150Y-88170480D01*
X163861107Y-88157868D01*
X163841401Y-88143253D01*
X163823223Y-88126777D01*
X163806747Y-88108599D01*
X163792132Y-88088893D01*
X163779520Y-88067850D01*
X163769030Y-88045671D01*
X163760765Y-88022572D01*
X163754804Y-87998773D01*
X163751204Y-87974505D01*
X163750000Y-87950001D01*
X163750000Y-87299999D01*
X163751204Y-87275495D01*
X163754804Y-87251227D01*
X163760765Y-87227428D01*
X163769030Y-87204329D01*
X163779520Y-87182150D01*
X163792132Y-87161107D01*
X163806747Y-87141401D01*
X163823223Y-87123223D01*
X163841401Y-87106747D01*
X163861107Y-87092132D01*
X163882150Y-87079520D01*
X163904329Y-87069030D01*
X163927428Y-87060765D01*
X163951227Y-87054804D01*
X163975495Y-87051204D01*
X163999999Y-87050000D01*
X164900001Y-87050000D01*
X164924505Y-87051204D01*
G37*
G36*
X164924505Y-89101204D02*
G01*
X164948773Y-89104804D01*
X164972572Y-89110765D01*
X164995671Y-89119030D01*
X165017850Y-89129520D01*
X165038893Y-89142132D01*
X165058599Y-89156747D01*
X165076777Y-89173223D01*
X165093253Y-89191401D01*
X165107868Y-89211107D01*
X165120480Y-89232150D01*
X165130970Y-89254329D01*
X165139235Y-89277428D01*
X165145196Y-89301227D01*
X165148796Y-89325495D01*
X165150000Y-89349999D01*
X165150000Y-90000001D01*
X165148796Y-90024505D01*
X165145196Y-90048773D01*
X165139235Y-90072572D01*
X165130970Y-90095671D01*
X165120480Y-90117850D01*
X165107868Y-90138893D01*
X165093253Y-90158599D01*
X165076777Y-90176777D01*
X165058599Y-90193253D01*
X165038893Y-90207868D01*
X165017850Y-90220480D01*
X164995671Y-90230970D01*
X164972572Y-90239235D01*
X164948773Y-90245196D01*
X164924505Y-90248796D01*
X164900001Y-90250000D01*
X163999999Y-90250000D01*
X163975495Y-90248796D01*
X163951227Y-90245196D01*
X163927428Y-90239235D01*
X163904329Y-90230970D01*
X163882150Y-90220480D01*
X163861107Y-90207868D01*
X163841401Y-90193253D01*
X163823223Y-90176777D01*
X163806747Y-90158599D01*
X163792132Y-90138893D01*
X163779520Y-90117850D01*
X163769030Y-90095671D01*
X163760765Y-90072572D01*
X163754804Y-90048773D01*
X163751204Y-90024505D01*
X163750000Y-90000001D01*
X163750000Y-89349999D01*
X163751204Y-89325495D01*
X163754804Y-89301227D01*
X163760765Y-89277428D01*
X163769030Y-89254329D01*
X163779520Y-89232150D01*
X163792132Y-89211107D01*
X163806747Y-89191401D01*
X163823223Y-89173223D01*
X163841401Y-89156747D01*
X163861107Y-89142132D01*
X163882150Y-89129520D01*
X163904329Y-89119030D01*
X163927428Y-89110765D01*
X163951227Y-89104804D01*
X163975495Y-89101204D01*
X163999999Y-89100000D01*
X164900001Y-89100000D01*
X164924505Y-89101204D01*
G37*
G36*
X168574505Y-87076204D02*
G01*
X168598773Y-87079804D01*
X168622572Y-87085765D01*
X168645671Y-87094030D01*
X168667850Y-87104520D01*
X168688893Y-87117132D01*
X168708599Y-87131747D01*
X168726777Y-87148223D01*
X168743253Y-87166401D01*
X168757868Y-87186107D01*
X168770480Y-87207150D01*
X168780970Y-87229329D01*
X168789235Y-87252428D01*
X168795196Y-87276227D01*
X168798796Y-87300495D01*
X168800000Y-87324999D01*
X168800000Y-87975001D01*
X168798796Y-87999505D01*
X168795196Y-88023773D01*
X168789235Y-88047572D01*
X168780970Y-88070671D01*
X168770480Y-88092850D01*
X168757868Y-88113893D01*
X168743253Y-88133599D01*
X168726777Y-88151777D01*
X168708599Y-88168253D01*
X168688893Y-88182868D01*
X168667850Y-88195480D01*
X168645671Y-88205970D01*
X168622572Y-88214235D01*
X168598773Y-88220196D01*
X168574505Y-88223796D01*
X168550001Y-88225000D01*
X167649999Y-88225000D01*
X167625495Y-88223796D01*
X167601227Y-88220196D01*
X167577428Y-88214235D01*
X167554329Y-88205970D01*
X167532150Y-88195480D01*
X167511107Y-88182868D01*
X167491401Y-88168253D01*
X167473223Y-88151777D01*
X167456747Y-88133599D01*
X167442132Y-88113893D01*
X167429520Y-88092850D01*
X167419030Y-88070671D01*
X167410765Y-88047572D01*
X167404804Y-88023773D01*
X167401204Y-87999505D01*
X167400000Y-87975001D01*
X167400000Y-87324999D01*
X167401204Y-87300495D01*
X167404804Y-87276227D01*
X167410765Y-87252428D01*
X167419030Y-87229329D01*
X167429520Y-87207150D01*
X167442132Y-87186107D01*
X167456747Y-87166401D01*
X167473223Y-87148223D01*
X167491401Y-87131747D01*
X167511107Y-87117132D01*
X167532150Y-87104520D01*
X167554329Y-87094030D01*
X167577428Y-87085765D01*
X167601227Y-87079804D01*
X167625495Y-87076204D01*
X167649999Y-87075000D01*
X168550001Y-87075000D01*
X168574505Y-87076204D01*
G37*
G36*
X168574505Y-89126204D02*
G01*
X168598773Y-89129804D01*
X168622572Y-89135765D01*
X168645671Y-89144030D01*
X168667850Y-89154520D01*
X168688893Y-89167132D01*
X168708599Y-89181747D01*
X168726777Y-89198223D01*
X168743253Y-89216401D01*
X168757868Y-89236107D01*
X168770480Y-89257150D01*
X168780970Y-89279329D01*
X168789235Y-89302428D01*
X168795196Y-89326227D01*
X168798796Y-89350495D01*
X168800000Y-89374999D01*
X168800000Y-90025001D01*
X168798796Y-90049505D01*
X168795196Y-90073773D01*
X168789235Y-90097572D01*
X168780970Y-90120671D01*
X168770480Y-90142850D01*
X168757868Y-90163893D01*
X168743253Y-90183599D01*
X168726777Y-90201777D01*
X168708599Y-90218253D01*
X168688893Y-90232868D01*
X168667850Y-90245480D01*
X168645671Y-90255970D01*
X168622572Y-90264235D01*
X168598773Y-90270196D01*
X168574505Y-90273796D01*
X168550001Y-90275000D01*
X167649999Y-90275000D01*
X167625495Y-90273796D01*
X167601227Y-90270196D01*
X167577428Y-90264235D01*
X167554329Y-90255970D01*
X167532150Y-90245480D01*
X167511107Y-90232868D01*
X167491401Y-90218253D01*
X167473223Y-90201777D01*
X167456747Y-90183599D01*
X167442132Y-90163893D01*
X167429520Y-90142850D01*
X167419030Y-90120671D01*
X167410765Y-90097572D01*
X167404804Y-90073773D01*
X167401204Y-90049505D01*
X167400000Y-90025001D01*
X167400000Y-89374999D01*
X167401204Y-89350495D01*
X167404804Y-89326227D01*
X167410765Y-89302428D01*
X167419030Y-89279329D01*
X167429520Y-89257150D01*
X167442132Y-89236107D01*
X167456747Y-89216401D01*
X167473223Y-89198223D01*
X167491401Y-89181747D01*
X167511107Y-89167132D01*
X167532150Y-89154520D01*
X167554329Y-89144030D01*
X167577428Y-89135765D01*
X167601227Y-89129804D01*
X167625495Y-89126204D01*
X167649999Y-89125000D01*
X168550001Y-89125000D01*
X168574505Y-89126204D01*
G37*
D21*
X170850000Y-61200000D03*
X176450000Y-61200000D03*
D16*
G36*
X184624505Y-94451204D02*
G01*
X184648773Y-94454804D01*
X184672572Y-94460765D01*
X184695671Y-94469030D01*
X184717850Y-94479520D01*
X184738893Y-94492132D01*
X184758599Y-94506747D01*
X184776777Y-94523223D01*
X184793253Y-94541401D01*
X184807868Y-94561107D01*
X184820480Y-94582150D01*
X184830970Y-94604329D01*
X184839235Y-94627428D01*
X184845196Y-94651227D01*
X184848796Y-94675495D01*
X184850000Y-94699999D01*
X184850000Y-95350001D01*
X184848796Y-95374505D01*
X184845196Y-95398773D01*
X184839235Y-95422572D01*
X184830970Y-95445671D01*
X184820480Y-95467850D01*
X184807868Y-95488893D01*
X184793253Y-95508599D01*
X184776777Y-95526777D01*
X184758599Y-95543253D01*
X184738893Y-95557868D01*
X184717850Y-95570480D01*
X184695671Y-95580970D01*
X184672572Y-95589235D01*
X184648773Y-95595196D01*
X184624505Y-95598796D01*
X184600001Y-95600000D01*
X183699999Y-95600000D01*
X183675495Y-95598796D01*
X183651227Y-95595196D01*
X183627428Y-95589235D01*
X183604329Y-95580970D01*
X183582150Y-95570480D01*
X183561107Y-95557868D01*
X183541401Y-95543253D01*
X183523223Y-95526777D01*
X183506747Y-95508599D01*
X183492132Y-95488893D01*
X183479520Y-95467850D01*
X183469030Y-95445671D01*
X183460765Y-95422572D01*
X183454804Y-95398773D01*
X183451204Y-95374505D01*
X183450000Y-95350001D01*
X183450000Y-94699999D01*
X183451204Y-94675495D01*
X183454804Y-94651227D01*
X183460765Y-94627428D01*
X183469030Y-94604329D01*
X183479520Y-94582150D01*
X183492132Y-94561107D01*
X183506747Y-94541401D01*
X183523223Y-94523223D01*
X183541401Y-94506747D01*
X183561107Y-94492132D01*
X183582150Y-94479520D01*
X183604329Y-94469030D01*
X183627428Y-94460765D01*
X183651227Y-94454804D01*
X183675495Y-94451204D01*
X183699999Y-94450000D01*
X184600001Y-94450000D01*
X184624505Y-94451204D01*
G37*
G36*
X184624505Y-96501204D02*
G01*
X184648773Y-96504804D01*
X184672572Y-96510765D01*
X184695671Y-96519030D01*
X184717850Y-96529520D01*
X184738893Y-96542132D01*
X184758599Y-96556747D01*
X184776777Y-96573223D01*
X184793253Y-96591401D01*
X184807868Y-96611107D01*
X184820480Y-96632150D01*
X184830970Y-96654329D01*
X184839235Y-96677428D01*
X184845196Y-96701227D01*
X184848796Y-96725495D01*
X184850000Y-96749999D01*
X184850000Y-97400001D01*
X184848796Y-97424505D01*
X184845196Y-97448773D01*
X184839235Y-97472572D01*
X184830970Y-97495671D01*
X184820480Y-97517850D01*
X184807868Y-97538893D01*
X184793253Y-97558599D01*
X184776777Y-97576777D01*
X184758599Y-97593253D01*
X184738893Y-97607868D01*
X184717850Y-97620480D01*
X184695671Y-97630970D01*
X184672572Y-97639235D01*
X184648773Y-97645196D01*
X184624505Y-97648796D01*
X184600001Y-97650000D01*
X183699999Y-97650000D01*
X183675495Y-97648796D01*
X183651227Y-97645196D01*
X183627428Y-97639235D01*
X183604329Y-97630970D01*
X183582150Y-97620480D01*
X183561107Y-97607868D01*
X183541401Y-97593253D01*
X183523223Y-97576777D01*
X183506747Y-97558599D01*
X183492132Y-97538893D01*
X183479520Y-97517850D01*
X183469030Y-97495671D01*
X183460765Y-97472572D01*
X183454804Y-97448773D01*
X183451204Y-97424505D01*
X183450000Y-97400001D01*
X183450000Y-96749999D01*
X183451204Y-96725495D01*
X183454804Y-96701227D01*
X183460765Y-96677428D01*
X183469030Y-96654329D01*
X183479520Y-96632150D01*
X183492132Y-96611107D01*
X183506747Y-96591401D01*
X183523223Y-96573223D01*
X183541401Y-96556747D01*
X183561107Y-96542132D01*
X183582150Y-96529520D01*
X183604329Y-96519030D01*
X183627428Y-96510765D01*
X183651227Y-96504804D01*
X183675495Y-96501204D01*
X183699999Y-96500000D01*
X184600001Y-96500000D01*
X184624505Y-96501204D01*
G37*
G36*
X180624505Y-58601204D02*
G01*
X180648773Y-58604804D01*
X180672572Y-58610765D01*
X180695671Y-58619030D01*
X180717850Y-58629520D01*
X180738893Y-58642132D01*
X180758599Y-58656747D01*
X180776777Y-58673223D01*
X180793253Y-58691401D01*
X180807868Y-58711107D01*
X180820480Y-58732150D01*
X180830970Y-58754329D01*
X180839235Y-58777428D01*
X180845196Y-58801227D01*
X180848796Y-58825495D01*
X180850000Y-58849999D01*
X180850000Y-59500001D01*
X180848796Y-59524505D01*
X180845196Y-59548773D01*
X180839235Y-59572572D01*
X180830970Y-59595671D01*
X180820480Y-59617850D01*
X180807868Y-59638893D01*
X180793253Y-59658599D01*
X180776777Y-59676777D01*
X180758599Y-59693253D01*
X180738893Y-59707868D01*
X180717850Y-59720480D01*
X180695671Y-59730970D01*
X180672572Y-59739235D01*
X180648773Y-59745196D01*
X180624505Y-59748796D01*
X180600001Y-59750000D01*
X179699999Y-59750000D01*
X179675495Y-59748796D01*
X179651227Y-59745196D01*
X179627428Y-59739235D01*
X179604329Y-59730970D01*
X179582150Y-59720480D01*
X179561107Y-59707868D01*
X179541401Y-59693253D01*
X179523223Y-59676777D01*
X179506747Y-59658599D01*
X179492132Y-59638893D01*
X179479520Y-59617850D01*
X179469030Y-59595671D01*
X179460765Y-59572572D01*
X179454804Y-59548773D01*
X179451204Y-59524505D01*
X179450000Y-59500001D01*
X179450000Y-58849999D01*
X179451204Y-58825495D01*
X179454804Y-58801227D01*
X179460765Y-58777428D01*
X179469030Y-58754329D01*
X179479520Y-58732150D01*
X179492132Y-58711107D01*
X179506747Y-58691401D01*
X179523223Y-58673223D01*
X179541401Y-58656747D01*
X179561107Y-58642132D01*
X179582150Y-58629520D01*
X179604329Y-58619030D01*
X179627428Y-58610765D01*
X179651227Y-58604804D01*
X179675495Y-58601204D01*
X179699999Y-58600000D01*
X180600001Y-58600000D01*
X180624505Y-58601204D01*
G37*
G36*
X180624505Y-60651204D02*
G01*
X180648773Y-60654804D01*
X180672572Y-60660765D01*
X180695671Y-60669030D01*
X180717850Y-60679520D01*
X180738893Y-60692132D01*
X180758599Y-60706747D01*
X180776777Y-60723223D01*
X180793253Y-60741401D01*
X180807868Y-60761107D01*
X180820480Y-60782150D01*
X180830970Y-60804329D01*
X180839235Y-60827428D01*
X180845196Y-60851227D01*
X180848796Y-60875495D01*
X180850000Y-60899999D01*
X180850000Y-61550001D01*
X180848796Y-61574505D01*
X180845196Y-61598773D01*
X180839235Y-61622572D01*
X180830970Y-61645671D01*
X180820480Y-61667850D01*
X180807868Y-61688893D01*
X180793253Y-61708599D01*
X180776777Y-61726777D01*
X180758599Y-61743253D01*
X180738893Y-61757868D01*
X180717850Y-61770480D01*
X180695671Y-61780970D01*
X180672572Y-61789235D01*
X180648773Y-61795196D01*
X180624505Y-61798796D01*
X180600001Y-61800000D01*
X179699999Y-61800000D01*
X179675495Y-61798796D01*
X179651227Y-61795196D01*
X179627428Y-61789235D01*
X179604329Y-61780970D01*
X179582150Y-61770480D01*
X179561107Y-61757868D01*
X179541401Y-61743253D01*
X179523223Y-61726777D01*
X179506747Y-61708599D01*
X179492132Y-61688893D01*
X179479520Y-61667850D01*
X179469030Y-61645671D01*
X179460765Y-61622572D01*
X179454804Y-61598773D01*
X179451204Y-61574505D01*
X179450000Y-61550001D01*
X179450000Y-60899999D01*
X179451204Y-60875495D01*
X179454804Y-60851227D01*
X179460765Y-60827428D01*
X179469030Y-60804329D01*
X179479520Y-60782150D01*
X179492132Y-60761107D01*
X179506747Y-60741401D01*
X179523223Y-60723223D01*
X179541401Y-60706747D01*
X179561107Y-60692132D01*
X179582150Y-60679520D01*
X179604329Y-60669030D01*
X179627428Y-60660765D01*
X179651227Y-60654804D01*
X179675495Y-60651204D01*
X179699999Y-60650000D01*
X180600001Y-60650000D01*
X180624505Y-60651204D01*
G37*
D22*
X193000000Y-60700000D03*
X193000000Y-117900000D03*
D16*
G36*
X172049505Y-94076204D02*
G01*
X172073773Y-94079804D01*
X172097572Y-94085765D01*
X172120671Y-94094030D01*
X172142850Y-94104520D01*
X172163893Y-94117132D01*
X172183599Y-94131747D01*
X172201777Y-94148223D01*
X172218253Y-94166401D01*
X172232868Y-94186107D01*
X172245480Y-94207150D01*
X172255970Y-94229329D01*
X172264235Y-94252428D01*
X172270196Y-94276227D01*
X172273796Y-94300495D01*
X172275000Y-94324999D01*
X172275000Y-94975001D01*
X172273796Y-94999505D01*
X172270196Y-95023773D01*
X172264235Y-95047572D01*
X172255970Y-95070671D01*
X172245480Y-95092850D01*
X172232868Y-95113893D01*
X172218253Y-95133599D01*
X172201777Y-95151777D01*
X172183599Y-95168253D01*
X172163893Y-95182868D01*
X172142850Y-95195480D01*
X172120671Y-95205970D01*
X172097572Y-95214235D01*
X172073773Y-95220196D01*
X172049505Y-95223796D01*
X172025001Y-95225000D01*
X171124999Y-95225000D01*
X171100495Y-95223796D01*
X171076227Y-95220196D01*
X171052428Y-95214235D01*
X171029329Y-95205970D01*
X171007150Y-95195480D01*
X170986107Y-95182868D01*
X170966401Y-95168253D01*
X170948223Y-95151777D01*
X170931747Y-95133599D01*
X170917132Y-95113893D01*
X170904520Y-95092850D01*
X170894030Y-95070671D01*
X170885765Y-95047572D01*
X170879804Y-95023773D01*
X170876204Y-94999505D01*
X170875000Y-94975001D01*
X170875000Y-94324999D01*
X170876204Y-94300495D01*
X170879804Y-94276227D01*
X170885765Y-94252428D01*
X170894030Y-94229329D01*
X170904520Y-94207150D01*
X170917132Y-94186107D01*
X170931747Y-94166401D01*
X170948223Y-94148223D01*
X170966401Y-94131747D01*
X170986107Y-94117132D01*
X171007150Y-94104520D01*
X171029329Y-94094030D01*
X171052428Y-94085765D01*
X171076227Y-94079804D01*
X171100495Y-94076204D01*
X171124999Y-94075000D01*
X172025001Y-94075000D01*
X172049505Y-94076204D01*
G37*
G36*
X172049505Y-96126204D02*
G01*
X172073773Y-96129804D01*
X172097572Y-96135765D01*
X172120671Y-96144030D01*
X172142850Y-96154520D01*
X172163893Y-96167132D01*
X172183599Y-96181747D01*
X172201777Y-96198223D01*
X172218253Y-96216401D01*
X172232868Y-96236107D01*
X172245480Y-96257150D01*
X172255970Y-96279329D01*
X172264235Y-96302428D01*
X172270196Y-96326227D01*
X172273796Y-96350495D01*
X172275000Y-96374999D01*
X172275000Y-97025001D01*
X172273796Y-97049505D01*
X172270196Y-97073773D01*
X172264235Y-97097572D01*
X172255970Y-97120671D01*
X172245480Y-97142850D01*
X172232868Y-97163893D01*
X172218253Y-97183599D01*
X172201777Y-97201777D01*
X172183599Y-97218253D01*
X172163893Y-97232868D01*
X172142850Y-97245480D01*
X172120671Y-97255970D01*
X172097572Y-97264235D01*
X172073773Y-97270196D01*
X172049505Y-97273796D01*
X172025001Y-97275000D01*
X171124999Y-97275000D01*
X171100495Y-97273796D01*
X171076227Y-97270196D01*
X171052428Y-97264235D01*
X171029329Y-97255970D01*
X171007150Y-97245480D01*
X170986107Y-97232868D01*
X170966401Y-97218253D01*
X170948223Y-97201777D01*
X170931747Y-97183599D01*
X170917132Y-97163893D01*
X170904520Y-97142850D01*
X170894030Y-97120671D01*
X170885765Y-97097572D01*
X170879804Y-97073773D01*
X170876204Y-97049505D01*
X170875000Y-97025001D01*
X170875000Y-96374999D01*
X170876204Y-96350495D01*
X170879804Y-96326227D01*
X170885765Y-96302428D01*
X170894030Y-96279329D01*
X170904520Y-96257150D01*
X170917132Y-96236107D01*
X170931747Y-96216401D01*
X170948223Y-96198223D01*
X170966401Y-96181747D01*
X170986107Y-96167132D01*
X171007150Y-96154520D01*
X171029329Y-96144030D01*
X171052428Y-96135765D01*
X171076227Y-96129804D01*
X171100495Y-96126204D01*
X171124999Y-96125000D01*
X172025001Y-96125000D01*
X172049505Y-96126204D01*
G37*
G36*
X178124505Y-88955504D02*
G01*
X178148773Y-88959104D01*
X178172572Y-88965065D01*
X178195671Y-88973330D01*
X178217850Y-88983820D01*
X178238893Y-88996432D01*
X178258599Y-89011047D01*
X178276777Y-89027523D01*
X178293253Y-89045701D01*
X178307868Y-89065407D01*
X178320480Y-89086450D01*
X178330970Y-89108629D01*
X178339235Y-89131728D01*
X178345196Y-89155527D01*
X178348796Y-89179795D01*
X178350000Y-89204299D01*
X178350000Y-89854301D01*
X178348796Y-89878805D01*
X178345196Y-89903073D01*
X178339235Y-89926872D01*
X178330970Y-89949971D01*
X178320480Y-89972150D01*
X178307868Y-89993193D01*
X178293253Y-90012899D01*
X178276777Y-90031077D01*
X178258599Y-90047553D01*
X178238893Y-90062168D01*
X178217850Y-90074780D01*
X178195671Y-90085270D01*
X178172572Y-90093535D01*
X178148773Y-90099496D01*
X178124505Y-90103096D01*
X178100001Y-90104300D01*
X177199999Y-90104300D01*
X177175495Y-90103096D01*
X177151227Y-90099496D01*
X177127428Y-90093535D01*
X177104329Y-90085270D01*
X177082150Y-90074780D01*
X177061107Y-90062168D01*
X177041401Y-90047553D01*
X177023223Y-90031077D01*
X177006747Y-90012899D01*
X176992132Y-89993193D01*
X176979520Y-89972150D01*
X176969030Y-89949971D01*
X176960765Y-89926872D01*
X176954804Y-89903073D01*
X176951204Y-89878805D01*
X176950000Y-89854301D01*
X176950000Y-89204299D01*
X176951204Y-89179795D01*
X176954804Y-89155527D01*
X176960765Y-89131728D01*
X176969030Y-89108629D01*
X176979520Y-89086450D01*
X176992132Y-89065407D01*
X177006747Y-89045701D01*
X177023223Y-89027523D01*
X177041401Y-89011047D01*
X177061107Y-88996432D01*
X177082150Y-88983820D01*
X177104329Y-88973330D01*
X177127428Y-88965065D01*
X177151227Y-88959104D01*
X177175495Y-88955504D01*
X177199999Y-88954300D01*
X178100001Y-88954300D01*
X178124505Y-88955504D01*
G37*
G36*
X178124505Y-91005504D02*
G01*
X178148773Y-91009104D01*
X178172572Y-91015065D01*
X178195671Y-91023330D01*
X178217850Y-91033820D01*
X178238893Y-91046432D01*
X178258599Y-91061047D01*
X178276777Y-91077523D01*
X178293253Y-91095701D01*
X178307868Y-91115407D01*
X178320480Y-91136450D01*
X178330970Y-91158629D01*
X178339235Y-91181728D01*
X178345196Y-91205527D01*
X178348796Y-91229795D01*
X178350000Y-91254299D01*
X178350000Y-91904301D01*
X178348796Y-91928805D01*
X178345196Y-91953073D01*
X178339235Y-91976872D01*
X178330970Y-91999971D01*
X178320480Y-92022150D01*
X178307868Y-92043193D01*
X178293253Y-92062899D01*
X178276777Y-92081077D01*
X178258599Y-92097553D01*
X178238893Y-92112168D01*
X178217850Y-92124780D01*
X178195671Y-92135270D01*
X178172572Y-92143535D01*
X178148773Y-92149496D01*
X178124505Y-92153096D01*
X178100001Y-92154300D01*
X177199999Y-92154300D01*
X177175495Y-92153096D01*
X177151227Y-92149496D01*
X177127428Y-92143535D01*
X177104329Y-92135270D01*
X177082150Y-92124780D01*
X177061107Y-92112168D01*
X177041401Y-92097553D01*
X177023223Y-92081077D01*
X177006747Y-92062899D01*
X176992132Y-92043193D01*
X176979520Y-92022150D01*
X176969030Y-91999971D01*
X176960765Y-91976872D01*
X176954804Y-91953073D01*
X176951204Y-91928805D01*
X176950000Y-91904301D01*
X176950000Y-91254299D01*
X176951204Y-91229795D01*
X176954804Y-91205527D01*
X176960765Y-91181728D01*
X176969030Y-91158629D01*
X176979520Y-91136450D01*
X176992132Y-91115407D01*
X177006747Y-91095701D01*
X177023223Y-91077523D01*
X177041401Y-91061047D01*
X177061107Y-91046432D01*
X177082150Y-91033820D01*
X177104329Y-91023330D01*
X177127428Y-91015065D01*
X177151227Y-91009104D01*
X177175495Y-91005504D01*
X177199999Y-91004300D01*
X178100001Y-91004300D01*
X178124505Y-91005504D01*
G37*
G36*
X178149505Y-95001204D02*
G01*
X178173773Y-95004804D01*
X178197572Y-95010765D01*
X178220671Y-95019030D01*
X178242850Y-95029520D01*
X178263893Y-95042132D01*
X178283599Y-95056747D01*
X178301777Y-95073223D01*
X178318253Y-95091401D01*
X178332868Y-95111107D01*
X178345480Y-95132150D01*
X178355970Y-95154329D01*
X178364235Y-95177428D01*
X178370196Y-95201227D01*
X178373796Y-95225495D01*
X178375000Y-95249999D01*
X178375000Y-95900001D01*
X178373796Y-95924505D01*
X178370196Y-95948773D01*
X178364235Y-95972572D01*
X178355970Y-95995671D01*
X178345480Y-96017850D01*
X178332868Y-96038893D01*
X178318253Y-96058599D01*
X178301777Y-96076777D01*
X178283599Y-96093253D01*
X178263893Y-96107868D01*
X178242850Y-96120480D01*
X178220671Y-96130970D01*
X178197572Y-96139235D01*
X178173773Y-96145196D01*
X178149505Y-96148796D01*
X178125001Y-96150000D01*
X177224999Y-96150000D01*
X177200495Y-96148796D01*
X177176227Y-96145196D01*
X177152428Y-96139235D01*
X177129329Y-96130970D01*
X177107150Y-96120480D01*
X177086107Y-96107868D01*
X177066401Y-96093253D01*
X177048223Y-96076777D01*
X177031747Y-96058599D01*
X177017132Y-96038893D01*
X177004520Y-96017850D01*
X176994030Y-95995671D01*
X176985765Y-95972572D01*
X176979804Y-95948773D01*
X176976204Y-95924505D01*
X176975000Y-95900001D01*
X176975000Y-95249999D01*
X176976204Y-95225495D01*
X176979804Y-95201227D01*
X176985765Y-95177428D01*
X176994030Y-95154329D01*
X177004520Y-95132150D01*
X177017132Y-95111107D01*
X177031747Y-95091401D01*
X177048223Y-95073223D01*
X177066401Y-95056747D01*
X177086107Y-95042132D01*
X177107150Y-95029520D01*
X177129329Y-95019030D01*
X177152428Y-95010765D01*
X177176227Y-95004804D01*
X177200495Y-95001204D01*
X177224999Y-95000000D01*
X178125001Y-95000000D01*
X178149505Y-95001204D01*
G37*
G36*
X178149505Y-92951204D02*
G01*
X178173773Y-92954804D01*
X178197572Y-92960765D01*
X178220671Y-92969030D01*
X178242850Y-92979520D01*
X178263893Y-92992132D01*
X178283599Y-93006747D01*
X178301777Y-93023223D01*
X178318253Y-93041401D01*
X178332868Y-93061107D01*
X178345480Y-93082150D01*
X178355970Y-93104329D01*
X178364235Y-93127428D01*
X178370196Y-93151227D01*
X178373796Y-93175495D01*
X178375000Y-93199999D01*
X178375000Y-93850001D01*
X178373796Y-93874505D01*
X178370196Y-93898773D01*
X178364235Y-93922572D01*
X178355970Y-93945671D01*
X178345480Y-93967850D01*
X178332868Y-93988893D01*
X178318253Y-94008599D01*
X178301777Y-94026777D01*
X178283599Y-94043253D01*
X178263893Y-94057868D01*
X178242850Y-94070480D01*
X178220671Y-94080970D01*
X178197572Y-94089235D01*
X178173773Y-94095196D01*
X178149505Y-94098796D01*
X178125001Y-94100000D01*
X177224999Y-94100000D01*
X177200495Y-94098796D01*
X177176227Y-94095196D01*
X177152428Y-94089235D01*
X177129329Y-94080970D01*
X177107150Y-94070480D01*
X177086107Y-94057868D01*
X177066401Y-94043253D01*
X177048223Y-94026777D01*
X177031747Y-94008599D01*
X177017132Y-93988893D01*
X177004520Y-93967850D01*
X176994030Y-93945671D01*
X176985765Y-93922572D01*
X176979804Y-93898773D01*
X176976204Y-93874505D01*
X176975000Y-93850001D01*
X176975000Y-93199999D01*
X176976204Y-93175495D01*
X176979804Y-93151227D01*
X176985765Y-93127428D01*
X176994030Y-93104329D01*
X177004520Y-93082150D01*
X177017132Y-93061107D01*
X177031747Y-93041401D01*
X177048223Y-93023223D01*
X177066401Y-93006747D01*
X177086107Y-92992132D01*
X177107150Y-92979520D01*
X177129329Y-92969030D01*
X177152428Y-92960765D01*
X177176227Y-92954804D01*
X177200495Y-92951204D01*
X177224999Y-92950000D01*
X178125001Y-92950000D01*
X178149505Y-92951204D01*
G37*
D23*
X183300000Y-78550000D03*
X185300000Y-77600000D03*
X185300000Y-79500000D03*
D24*
X174100000Y-114700000D03*
D25*
X174100000Y-104700000D03*
D26*
X194290000Y-113460000D03*
X191750000Y-113460000D03*
X194290000Y-110920000D03*
X191750000Y-110920000D03*
X194290000Y-108380000D03*
X191750000Y-108380000D03*
X194290000Y-105840000D03*
X191750000Y-105840000D03*
X194290000Y-103300000D03*
X191750000Y-103300000D03*
X194290000Y-100760000D03*
X191750000Y-100760000D03*
X194290000Y-98220000D03*
X191750000Y-98220000D03*
X194290000Y-95680000D03*
X191750000Y-95680000D03*
X194290000Y-93140000D03*
X191750000Y-93140000D03*
X194290000Y-90600000D03*
X191750000Y-90600000D03*
X194290000Y-88060000D03*
X191750000Y-88060000D03*
X194290000Y-85520000D03*
X191750000Y-85520000D03*
X194290000Y-82980000D03*
X191750000Y-82980000D03*
X194290000Y-80440000D03*
X191750000Y-80440000D03*
X194290000Y-77900000D03*
X191750000Y-77900000D03*
X194290000Y-75360000D03*
X191750000Y-75360000D03*
X194290000Y-72820000D03*
X191750000Y-72820000D03*
X194290000Y-70280000D03*
X191750000Y-70280000D03*
X194290000Y-67740000D03*
X191750000Y-67740000D03*
X194290000Y-65200000D03*
D27*
X191750000Y-65200000D03*
D16*
G36*
X183624505Y-82976204D02*
G01*
X183648773Y-82979804D01*
X183672572Y-82985765D01*
X183695671Y-82994030D01*
X183717850Y-83004520D01*
X183738893Y-83017132D01*
X183758599Y-83031747D01*
X183776777Y-83048223D01*
X183793253Y-83066401D01*
X183807868Y-83086107D01*
X183820480Y-83107150D01*
X183830970Y-83129329D01*
X183839235Y-83152428D01*
X183845196Y-83176227D01*
X183848796Y-83200495D01*
X183850000Y-83224999D01*
X183850000Y-84125001D01*
X183848796Y-84149505D01*
X183845196Y-84173773D01*
X183839235Y-84197572D01*
X183830970Y-84220671D01*
X183820480Y-84242850D01*
X183807868Y-84263893D01*
X183793253Y-84283599D01*
X183776777Y-84301777D01*
X183758599Y-84318253D01*
X183738893Y-84332868D01*
X183717850Y-84345480D01*
X183695671Y-84355970D01*
X183672572Y-84364235D01*
X183648773Y-84370196D01*
X183624505Y-84373796D01*
X183600001Y-84375000D01*
X182949999Y-84375000D01*
X182925495Y-84373796D01*
X182901227Y-84370196D01*
X182877428Y-84364235D01*
X182854329Y-84355970D01*
X182832150Y-84345480D01*
X182811107Y-84332868D01*
X182791401Y-84318253D01*
X182773223Y-84301777D01*
X182756747Y-84283599D01*
X182742132Y-84263893D01*
X182729520Y-84242850D01*
X182719030Y-84220671D01*
X182710765Y-84197572D01*
X182704804Y-84173773D01*
X182701204Y-84149505D01*
X182700000Y-84125001D01*
X182700000Y-83224999D01*
X182701204Y-83200495D01*
X182704804Y-83176227D01*
X182710765Y-83152428D01*
X182719030Y-83129329D01*
X182729520Y-83107150D01*
X182742132Y-83086107D01*
X182756747Y-83066401D01*
X182773223Y-83048223D01*
X182791401Y-83031747D01*
X182811107Y-83017132D01*
X182832150Y-83004520D01*
X182854329Y-82994030D01*
X182877428Y-82985765D01*
X182901227Y-82979804D01*
X182925495Y-82976204D01*
X182949999Y-82975000D01*
X183600001Y-82975000D01*
X183624505Y-82976204D01*
G37*
G36*
X185674505Y-82976204D02*
G01*
X185698773Y-82979804D01*
X185722572Y-82985765D01*
X185745671Y-82994030D01*
X185767850Y-83004520D01*
X185788893Y-83017132D01*
X185808599Y-83031747D01*
X185826777Y-83048223D01*
X185843253Y-83066401D01*
X185857868Y-83086107D01*
X185870480Y-83107150D01*
X185880970Y-83129329D01*
X185889235Y-83152428D01*
X185895196Y-83176227D01*
X185898796Y-83200495D01*
X185900000Y-83224999D01*
X185900000Y-84125001D01*
X185898796Y-84149505D01*
X185895196Y-84173773D01*
X185889235Y-84197572D01*
X185880970Y-84220671D01*
X185870480Y-84242850D01*
X185857868Y-84263893D01*
X185843253Y-84283599D01*
X185826777Y-84301777D01*
X185808599Y-84318253D01*
X185788893Y-84332868D01*
X185767850Y-84345480D01*
X185745671Y-84355970D01*
X185722572Y-84364235D01*
X185698773Y-84370196D01*
X185674505Y-84373796D01*
X185650001Y-84375000D01*
X184999999Y-84375000D01*
X184975495Y-84373796D01*
X184951227Y-84370196D01*
X184927428Y-84364235D01*
X184904329Y-84355970D01*
X184882150Y-84345480D01*
X184861107Y-84332868D01*
X184841401Y-84318253D01*
X184823223Y-84301777D01*
X184806747Y-84283599D01*
X184792132Y-84263893D01*
X184779520Y-84242850D01*
X184769030Y-84220671D01*
X184760765Y-84197572D01*
X184754804Y-84173773D01*
X184751204Y-84149505D01*
X184750000Y-84125001D01*
X184750000Y-83224999D01*
X184751204Y-83200495D01*
X184754804Y-83176227D01*
X184760765Y-83152428D01*
X184769030Y-83129329D01*
X184779520Y-83107150D01*
X184792132Y-83086107D01*
X184806747Y-83066401D01*
X184823223Y-83048223D01*
X184841401Y-83031747D01*
X184861107Y-83017132D01*
X184882150Y-83004520D01*
X184904329Y-82994030D01*
X184927428Y-82985765D01*
X184951227Y-82979804D01*
X184975495Y-82976204D01*
X184999999Y-82975000D01*
X185650001Y-82975000D01*
X185674505Y-82976204D01*
G37*
G36*
X183074505Y-73801204D02*
G01*
X183098773Y-73804804D01*
X183122572Y-73810765D01*
X183145671Y-73819030D01*
X183167850Y-73829520D01*
X183188893Y-73842132D01*
X183208599Y-73856747D01*
X183226777Y-73873223D01*
X183243253Y-73891401D01*
X183257868Y-73911107D01*
X183270480Y-73932150D01*
X183280970Y-73954329D01*
X183289235Y-73977428D01*
X183295196Y-74001227D01*
X183298796Y-74025495D01*
X183300000Y-74049999D01*
X183300000Y-74700001D01*
X183298796Y-74724505D01*
X183295196Y-74748773D01*
X183289235Y-74772572D01*
X183280970Y-74795671D01*
X183270480Y-74817850D01*
X183257868Y-74838893D01*
X183243253Y-74858599D01*
X183226777Y-74876777D01*
X183208599Y-74893253D01*
X183188893Y-74907868D01*
X183167850Y-74920480D01*
X183145671Y-74930970D01*
X183122572Y-74939235D01*
X183098773Y-74945196D01*
X183074505Y-74948796D01*
X183050001Y-74950000D01*
X182149999Y-74950000D01*
X182125495Y-74948796D01*
X182101227Y-74945196D01*
X182077428Y-74939235D01*
X182054329Y-74930970D01*
X182032150Y-74920480D01*
X182011107Y-74907868D01*
X181991401Y-74893253D01*
X181973223Y-74876777D01*
X181956747Y-74858599D01*
X181942132Y-74838893D01*
X181929520Y-74817850D01*
X181919030Y-74795671D01*
X181910765Y-74772572D01*
X181904804Y-74748773D01*
X181901204Y-74724505D01*
X181900000Y-74700001D01*
X181900000Y-74049999D01*
X181901204Y-74025495D01*
X181904804Y-74001227D01*
X181910765Y-73977428D01*
X181919030Y-73954329D01*
X181929520Y-73932150D01*
X181942132Y-73911107D01*
X181956747Y-73891401D01*
X181973223Y-73873223D01*
X181991401Y-73856747D01*
X182011107Y-73842132D01*
X182032150Y-73829520D01*
X182054329Y-73819030D01*
X182077428Y-73810765D01*
X182101227Y-73804804D01*
X182125495Y-73801204D01*
X182149999Y-73800000D01*
X183050001Y-73800000D01*
X183074505Y-73801204D01*
G37*
G36*
X183074505Y-71751204D02*
G01*
X183098773Y-71754804D01*
X183122572Y-71760765D01*
X183145671Y-71769030D01*
X183167850Y-71779520D01*
X183188893Y-71792132D01*
X183208599Y-71806747D01*
X183226777Y-71823223D01*
X183243253Y-71841401D01*
X183257868Y-71861107D01*
X183270480Y-71882150D01*
X183280970Y-71904329D01*
X183289235Y-71927428D01*
X183295196Y-71951227D01*
X183298796Y-71975495D01*
X183300000Y-71999999D01*
X183300000Y-72650001D01*
X183298796Y-72674505D01*
X183295196Y-72698773D01*
X183289235Y-72722572D01*
X183280970Y-72745671D01*
X183270480Y-72767850D01*
X183257868Y-72788893D01*
X183243253Y-72808599D01*
X183226777Y-72826777D01*
X183208599Y-72843253D01*
X183188893Y-72857868D01*
X183167850Y-72870480D01*
X183145671Y-72880970D01*
X183122572Y-72889235D01*
X183098773Y-72895196D01*
X183074505Y-72898796D01*
X183050001Y-72900000D01*
X182149999Y-72900000D01*
X182125495Y-72898796D01*
X182101227Y-72895196D01*
X182077428Y-72889235D01*
X182054329Y-72880970D01*
X182032150Y-72870480D01*
X182011107Y-72857868D01*
X181991401Y-72843253D01*
X181973223Y-72826777D01*
X181956747Y-72808599D01*
X181942132Y-72788893D01*
X181929520Y-72767850D01*
X181919030Y-72745671D01*
X181910765Y-72722572D01*
X181904804Y-72698773D01*
X181901204Y-72674505D01*
X181900000Y-72650001D01*
X181900000Y-71999999D01*
X181901204Y-71975495D01*
X181904804Y-71951227D01*
X181910765Y-71927428D01*
X181919030Y-71904329D01*
X181929520Y-71882150D01*
X181942132Y-71861107D01*
X181956747Y-71841401D01*
X181973223Y-71823223D01*
X181991401Y-71806747D01*
X182011107Y-71792132D01*
X182032150Y-71779520D01*
X182054329Y-71769030D01*
X182077428Y-71760765D01*
X182101227Y-71754804D01*
X182125495Y-71751204D01*
X182149999Y-71750000D01*
X183050001Y-71750000D01*
X183074505Y-71751204D01*
G37*
G36*
X185524505Y-73801204D02*
G01*
X185548773Y-73804804D01*
X185572572Y-73810765D01*
X185595671Y-73819030D01*
X185617850Y-73829520D01*
X185638893Y-73842132D01*
X185658599Y-73856747D01*
X185676777Y-73873223D01*
X185693253Y-73891401D01*
X185707868Y-73911107D01*
X185720480Y-73932150D01*
X185730970Y-73954329D01*
X185739235Y-73977428D01*
X185745196Y-74001227D01*
X185748796Y-74025495D01*
X185750000Y-74049999D01*
X185750000Y-74700001D01*
X185748796Y-74724505D01*
X185745196Y-74748773D01*
X185739235Y-74772572D01*
X185730970Y-74795671D01*
X185720480Y-74817850D01*
X185707868Y-74838893D01*
X185693253Y-74858599D01*
X185676777Y-74876777D01*
X185658599Y-74893253D01*
X185638893Y-74907868D01*
X185617850Y-74920480D01*
X185595671Y-74930970D01*
X185572572Y-74939235D01*
X185548773Y-74945196D01*
X185524505Y-74948796D01*
X185500001Y-74950000D01*
X184599999Y-74950000D01*
X184575495Y-74948796D01*
X184551227Y-74945196D01*
X184527428Y-74939235D01*
X184504329Y-74930970D01*
X184482150Y-74920480D01*
X184461107Y-74907868D01*
X184441401Y-74893253D01*
X184423223Y-74876777D01*
X184406747Y-74858599D01*
X184392132Y-74838893D01*
X184379520Y-74817850D01*
X184369030Y-74795671D01*
X184360765Y-74772572D01*
X184354804Y-74748773D01*
X184351204Y-74724505D01*
X184350000Y-74700001D01*
X184350000Y-74049999D01*
X184351204Y-74025495D01*
X184354804Y-74001227D01*
X184360765Y-73977428D01*
X184369030Y-73954329D01*
X184379520Y-73932150D01*
X184392132Y-73911107D01*
X184406747Y-73891401D01*
X184423223Y-73873223D01*
X184441401Y-73856747D01*
X184461107Y-73842132D01*
X184482150Y-73829520D01*
X184504329Y-73819030D01*
X184527428Y-73810765D01*
X184551227Y-73804804D01*
X184575495Y-73801204D01*
X184599999Y-73800000D01*
X185500001Y-73800000D01*
X185524505Y-73801204D01*
G37*
G36*
X185524505Y-71751204D02*
G01*
X185548773Y-71754804D01*
X185572572Y-71760765D01*
X185595671Y-71769030D01*
X185617850Y-71779520D01*
X185638893Y-71792132D01*
X185658599Y-71806747D01*
X185676777Y-71823223D01*
X185693253Y-71841401D01*
X185707868Y-71861107D01*
X185720480Y-71882150D01*
X185730970Y-71904329D01*
X185739235Y-71927428D01*
X185745196Y-71951227D01*
X185748796Y-71975495D01*
X185750000Y-71999999D01*
X185750000Y-72650001D01*
X185748796Y-72674505D01*
X185745196Y-72698773D01*
X185739235Y-72722572D01*
X185730970Y-72745671D01*
X185720480Y-72767850D01*
X185707868Y-72788893D01*
X185693253Y-72808599D01*
X185676777Y-72826777D01*
X185658599Y-72843253D01*
X185638893Y-72857868D01*
X185617850Y-72870480D01*
X185595671Y-72880970D01*
X185572572Y-72889235D01*
X185548773Y-72895196D01*
X185524505Y-72898796D01*
X185500001Y-72900000D01*
X184599999Y-72900000D01*
X184575495Y-72898796D01*
X184551227Y-72895196D01*
X184527428Y-72889235D01*
X184504329Y-72880970D01*
X184482150Y-72870480D01*
X184461107Y-72857868D01*
X184441401Y-72843253D01*
X184423223Y-72826777D01*
X184406747Y-72808599D01*
X184392132Y-72788893D01*
X184379520Y-72767850D01*
X184369030Y-72745671D01*
X184360765Y-72722572D01*
X184354804Y-72698773D01*
X184351204Y-72674505D01*
X184350000Y-72650001D01*
X184350000Y-71999999D01*
X184351204Y-71975495D01*
X184354804Y-71951227D01*
X184360765Y-71927428D01*
X184369030Y-71904329D01*
X184379520Y-71882150D01*
X184392132Y-71861107D01*
X184406747Y-71841401D01*
X184423223Y-71823223D01*
X184441401Y-71806747D01*
X184461107Y-71792132D01*
X184482150Y-71779520D01*
X184504329Y-71769030D01*
X184527428Y-71760765D01*
X184551227Y-71754804D01*
X184575495Y-71751204D01*
X184599999Y-71750000D01*
X185500001Y-71750000D01*
X185524505Y-71751204D01*
G37*
M02*
