G04 #@! TF.GenerationSoftware,KiCad,Pcbnew,(5.1.5-0-10_14)*
G04 #@! TF.CreationDate,2020-11-06T22:51:34+01:00*
G04 #@! TF.ProjectId,HB-RF-MOD,48422d52-462d-44d4-9f44-2e6b69636164,rev?*
G04 #@! TF.SameCoordinates,Original*
G04 #@! TF.FileFunction,Legend,Top*
G04 #@! TF.FilePolarity,Positive*
%FSLAX46Y46*%
G04 Gerber Fmt 4.6, Leading zero omitted, Abs format (unit mm)*
G04 Created by KiCad (PCBNEW (5.1.5-0-10_14)) date 2020-11-06 22:51:34*
%MOMM*%
%LPD*%
G04 APERTURE LIST*
%ADD10C,0.150000*%
%ADD11C,0.120000*%
G04 APERTURE END LIST*
D10*
X186164285Y-103371428D02*
X186926190Y-103371428D01*
X186545238Y-103752380D02*
X186545238Y-102990476D01*
X187878571Y-102752380D02*
X187402380Y-102752380D01*
X187354761Y-103228571D01*
X187402380Y-103180952D01*
X187497619Y-103133333D01*
X187735714Y-103133333D01*
X187830952Y-103180952D01*
X187878571Y-103228571D01*
X187926190Y-103323809D01*
X187926190Y-103561904D01*
X187878571Y-103657142D01*
X187830952Y-103704761D01*
X187735714Y-103752380D01*
X187497619Y-103752380D01*
X187402380Y-103704761D01*
X187354761Y-103657142D01*
X188211904Y-102752380D02*
X188545238Y-103752380D01*
X188878571Y-102752380D01*
X189609523Y-107802380D02*
X189276190Y-107326190D01*
X189038095Y-107802380D02*
X189038095Y-106802380D01*
X189419047Y-106802380D01*
X189514285Y-106850000D01*
X189561904Y-106897619D01*
X189609523Y-106992857D01*
X189609523Y-107135714D01*
X189561904Y-107230952D01*
X189514285Y-107278571D01*
X189419047Y-107326190D01*
X189038095Y-107326190D01*
X189611904Y-108900000D02*
X189516666Y-108852380D01*
X189373809Y-108852380D01*
X189230952Y-108900000D01*
X189135714Y-108995238D01*
X189088095Y-109090476D01*
X189040476Y-109280952D01*
X189040476Y-109423809D01*
X189088095Y-109614285D01*
X189135714Y-109709523D01*
X189230952Y-109804761D01*
X189373809Y-109852380D01*
X189469047Y-109852380D01*
X189611904Y-109804761D01*
X189659523Y-109757142D01*
X189659523Y-109423809D01*
X189469047Y-109423809D01*
X189371428Y-111378571D02*
X189514285Y-111426190D01*
X189561904Y-111473809D01*
X189609523Y-111569047D01*
X189609523Y-111711904D01*
X189561904Y-111807142D01*
X189514285Y-111854761D01*
X189419047Y-111902380D01*
X189038095Y-111902380D01*
X189038095Y-110902380D01*
X189371428Y-110902380D01*
X189466666Y-110950000D01*
X189514285Y-110997619D01*
X189561904Y-111092857D01*
X189561904Y-111188095D01*
X189514285Y-111283333D01*
X189466666Y-111330952D01*
X189371428Y-111378571D01*
X189038095Y-111378571D01*
X186738095Y-115100000D02*
X186642857Y-115052380D01*
X186500000Y-115052380D01*
X186357142Y-115100000D01*
X186261904Y-115195238D01*
X186214285Y-115290476D01*
X186166666Y-115480952D01*
X186166666Y-115623809D01*
X186214285Y-115814285D01*
X186261904Y-115909523D01*
X186357142Y-116004761D01*
X186500000Y-116052380D01*
X186595238Y-116052380D01*
X186738095Y-116004761D01*
X186785714Y-115957142D01*
X186785714Y-115623809D01*
X186595238Y-115623809D01*
X187214285Y-116052380D02*
X187214285Y-115052380D01*
X187785714Y-116052380D01*
X187785714Y-115052380D01*
X188261904Y-116052380D02*
X188261904Y-115052380D01*
X188500000Y-115052380D01*
X188642857Y-115100000D01*
X188738095Y-115195238D01*
X188785714Y-115290476D01*
X188833333Y-115480952D01*
X188833333Y-115623809D01*
X188785714Y-115814285D01*
X188738095Y-115909523D01*
X188642857Y-116004761D01*
X188500000Y-116052380D01*
X188261904Y-116052380D01*
D11*
X188510000Y-114450000D02*
X186390000Y-114450000D01*
X186390000Y-114450000D02*
X186390000Y-104340000D01*
X188510000Y-114450000D02*
X188510000Y-104340000D01*
X188510000Y-104340000D02*
X186390000Y-104340000D01*
X154150000Y-65900000D02*
X154150000Y-84900000D01*
X154150000Y-84900000D02*
X164850000Y-84900000D01*
X154150000Y-65900000D02*
X164865000Y-65902000D01*
X178970000Y-84750000D02*
X177505000Y-84750000D01*
X164850000Y-66050000D02*
X168615000Y-66052000D01*
X164850000Y-84750000D02*
X168615000Y-84750000D01*
X178970000Y-66050000D02*
X178970000Y-69150000D01*
X177505000Y-66052000D02*
X178970000Y-66050000D01*
X178970000Y-84750000D02*
X178970000Y-81750000D01*
D10*
X168950000Y-91322000D02*
X168536000Y-90950000D01*
D11*
X168950000Y-95250000D02*
X163550000Y-95250000D01*
X163550000Y-95250000D02*
X163550000Y-90950000D01*
X168536000Y-90950000D02*
X163550000Y-90950000D01*
X168950000Y-95250000D02*
X168950000Y-91322000D01*
X161690000Y-92863748D02*
X161690000Y-93386252D01*
X163110000Y-92863748D02*
X163110000Y-93386252D01*
X166815000Y-97363748D02*
X166815000Y-97886252D01*
X168235000Y-97363748D02*
X168235000Y-97886252D01*
X187080000Y-58800000D02*
X187080000Y-60000000D01*
X183080000Y-58800000D02*
X187080000Y-58800000D01*
X187080000Y-63600000D02*
X184380000Y-63600000D01*
X187080000Y-62400000D02*
X187080000Y-63600000D01*
X185775000Y-88800000D02*
X181375000Y-88800000D01*
X181375000Y-88800000D02*
X181375000Y-88920000D01*
X181375000Y-89930000D02*
X181375000Y-91070000D01*
X181375000Y-92080000D02*
X181375000Y-92200000D01*
X181375000Y-92200000D02*
X185775000Y-92200000D01*
X185775000Y-92200000D02*
X185775000Y-92080000D01*
X185775000Y-91070000D02*
X185775000Y-89930000D01*
X185775000Y-88920000D02*
X185775000Y-88800000D01*
X186565000Y-95788748D02*
X186565000Y-96311252D01*
X187985000Y-95788748D02*
X187985000Y-96311252D01*
X163565000Y-97938748D02*
X163565000Y-98461252D01*
X164985000Y-97938748D02*
X164985000Y-98461252D01*
X165160000Y-88911252D02*
X165160000Y-88388748D01*
X163740000Y-88911252D02*
X163740000Y-88388748D01*
X168810000Y-88936252D02*
X168810000Y-88413748D01*
X167390000Y-88936252D02*
X167390000Y-88413748D01*
X177693750Y-63441250D02*
X177693750Y-62653750D01*
X178087500Y-63047500D02*
X177300000Y-63047500D01*
X177060000Y-58854437D02*
X175995563Y-57790000D01*
X177060000Y-63545563D02*
X175995563Y-64610000D01*
X177060000Y-63545563D02*
X177060000Y-62260000D01*
X177060000Y-58854437D02*
X177060000Y-60140000D01*
X175995563Y-57790000D02*
X170240000Y-57790000D01*
X175995563Y-64610000D02*
X170240000Y-64610000D01*
X170240000Y-64610000D02*
X170240000Y-62260000D01*
X170240000Y-57790000D02*
X170240000Y-60140000D01*
X184860000Y-96311252D02*
X184860000Y-95788748D01*
X183440000Y-96311252D02*
X183440000Y-95788748D01*
X180860000Y-60461252D02*
X180860000Y-59938748D01*
X179440000Y-60461252D02*
X179440000Y-59938748D01*
X172285000Y-95936252D02*
X172285000Y-95413748D01*
X170865000Y-95936252D02*
X170865000Y-95413748D01*
X178360000Y-90815552D02*
X178360000Y-90293048D01*
X176940000Y-90815552D02*
X176940000Y-90293048D01*
X176965000Y-94288748D02*
X176965000Y-94811252D01*
X178385000Y-94288748D02*
X178385000Y-94811252D01*
X183540000Y-76970000D02*
X185000000Y-76970000D01*
X183540000Y-80130000D02*
X185700000Y-80130000D01*
X183540000Y-80130000D02*
X183540000Y-79200000D01*
X183540000Y-76970000D02*
X183540000Y-77900000D01*
X181435000Y-98900663D02*
X179235000Y-98900663D01*
X180335000Y-97800663D02*
X180335000Y-100000663D01*
X174140000Y-120820000D02*
X174060000Y-120820000D01*
X175003000Y-120780000D02*
X173197000Y-120780000D01*
X175392000Y-120740000D02*
X172808000Y-120740000D01*
X175690000Y-120700000D02*
X172510000Y-120700000D01*
X175940000Y-120660000D02*
X172260000Y-120660000D01*
X176160000Y-120620000D02*
X172040000Y-120620000D01*
X176358000Y-120580000D02*
X171842000Y-120580000D01*
X176540000Y-120540000D02*
X171660000Y-120540000D01*
X176709000Y-120500000D02*
X171491000Y-120500000D01*
X176867000Y-120460000D02*
X171333000Y-120460000D01*
X177016000Y-120420000D02*
X171184000Y-120420000D01*
X177158000Y-120380000D02*
X171042000Y-120380000D01*
X177292000Y-120340000D02*
X170908000Y-120340000D01*
X177421000Y-120300000D02*
X170779000Y-120300000D01*
X177545000Y-120260000D02*
X170655000Y-120260000D01*
X177664000Y-120220000D02*
X170536000Y-120220000D01*
X177779000Y-120180000D02*
X170421000Y-120180000D01*
X177889000Y-120140000D02*
X170311000Y-120140000D01*
X177997000Y-120100000D02*
X170203000Y-120100000D01*
X178101000Y-120060000D02*
X170099000Y-120060000D01*
X178202000Y-120020000D02*
X169998000Y-120020000D01*
X178300000Y-119980000D02*
X169900000Y-119980000D01*
X178396000Y-119940000D02*
X169804000Y-119940000D01*
X178489000Y-119900000D02*
X169711000Y-119900000D01*
X178580000Y-119860000D02*
X169620000Y-119860000D01*
X178669000Y-119820000D02*
X169531000Y-119820000D01*
X178756000Y-119780000D02*
X169444000Y-119780000D01*
X178841000Y-119740000D02*
X169359000Y-119740000D01*
X178924000Y-119700000D02*
X169276000Y-119700000D01*
X179005000Y-119660000D02*
X169195000Y-119660000D01*
X179085000Y-119620000D02*
X169115000Y-119620000D01*
X179163000Y-119580000D02*
X169037000Y-119580000D01*
X179240000Y-119540000D02*
X168960000Y-119540000D01*
X179315000Y-119500000D02*
X168885000Y-119500000D01*
X179389000Y-119460000D02*
X168811000Y-119460000D01*
X179462000Y-119420000D02*
X168738000Y-119420000D01*
X179533000Y-119380000D02*
X168667000Y-119380000D01*
X179603000Y-119340000D02*
X168597000Y-119340000D01*
X179672000Y-119300000D02*
X168528000Y-119300000D01*
X179740000Y-119260000D02*
X168460000Y-119260000D01*
X179807000Y-119220000D02*
X168393000Y-119220000D01*
X179873000Y-119180000D02*
X168327000Y-119180000D01*
X179938000Y-119140000D02*
X168262000Y-119140000D01*
X180001000Y-119100000D02*
X168199000Y-119100000D01*
X180064000Y-119060000D02*
X168136000Y-119060000D01*
X180126000Y-119020000D02*
X168074000Y-119020000D01*
X180187000Y-118980000D02*
X168013000Y-118980000D01*
X180247000Y-118940000D02*
X167953000Y-118940000D01*
X180307000Y-118900000D02*
X167893000Y-118900000D01*
X180365000Y-118860000D02*
X167835000Y-118860000D01*
X180423000Y-118820000D02*
X167777000Y-118820000D01*
X180480000Y-118780000D02*
X167720000Y-118780000D01*
X180536000Y-118740000D02*
X167664000Y-118740000D01*
X180592000Y-118700000D02*
X167608000Y-118700000D01*
X180646000Y-118660000D02*
X167554000Y-118660000D01*
X180700000Y-118620000D02*
X167500000Y-118620000D01*
X180754000Y-118580000D02*
X167446000Y-118580000D01*
X180807000Y-118540000D02*
X167393000Y-118540000D01*
X180859000Y-118500000D02*
X167341000Y-118500000D01*
X180910000Y-118460000D02*
X167290000Y-118460000D01*
X180961000Y-118420000D02*
X167239000Y-118420000D01*
X181011000Y-118380000D02*
X167189000Y-118380000D01*
X181061000Y-118340000D02*
X167139000Y-118340000D01*
X181110000Y-118300000D02*
X167090000Y-118300000D01*
X181158000Y-118260000D02*
X167042000Y-118260000D01*
X181206000Y-118220000D02*
X166994000Y-118220000D01*
X181254000Y-118180000D02*
X166946000Y-118180000D01*
X181301000Y-118140000D02*
X166899000Y-118140000D01*
X181347000Y-118100000D02*
X166853000Y-118100000D01*
X181393000Y-118060000D02*
X166807000Y-118060000D01*
X181438000Y-118020000D02*
X166762000Y-118020000D01*
X181483000Y-117980000D02*
X166717000Y-117980000D01*
X181528000Y-117940000D02*
X166672000Y-117940000D01*
X181571000Y-117900000D02*
X166629000Y-117900000D01*
X181615000Y-117861000D02*
X166585000Y-117861000D01*
X181658000Y-117821000D02*
X166542000Y-117821000D01*
X181700000Y-117781000D02*
X166500000Y-117781000D01*
X181742000Y-117741000D02*
X166458000Y-117741000D01*
X181784000Y-117701000D02*
X166416000Y-117701000D01*
X181825000Y-117661000D02*
X166375000Y-117661000D01*
X181866000Y-117621000D02*
X166334000Y-117621000D01*
X181907000Y-117581000D02*
X166293000Y-117581000D01*
X181946000Y-117541000D02*
X166254000Y-117541000D01*
X181986000Y-117501000D02*
X166214000Y-117501000D01*
X182025000Y-117461000D02*
X166175000Y-117461000D01*
X182064000Y-117421000D02*
X166136000Y-117421000D01*
X182102000Y-117381000D02*
X166098000Y-117381000D01*
X182140000Y-117341000D02*
X166060000Y-117341000D01*
X182178000Y-117301000D02*
X166022000Y-117301000D01*
X182215000Y-117261000D02*
X165985000Y-117261000D01*
X182252000Y-117221000D02*
X165948000Y-117221000D01*
X182289000Y-117181000D02*
X165911000Y-117181000D01*
X182325000Y-117141000D02*
X165875000Y-117141000D01*
X182361000Y-117101000D02*
X165839000Y-117101000D01*
X182396000Y-117061000D02*
X165804000Y-117061000D01*
X182431000Y-117021000D02*
X165769000Y-117021000D01*
X182466000Y-116981000D02*
X165734000Y-116981000D01*
X182501000Y-116941000D02*
X165699000Y-116941000D01*
X171860000Y-116901000D02*
X165665000Y-116901000D01*
X182535000Y-116901000D02*
X176340000Y-116901000D01*
X171860000Y-116861000D02*
X165631000Y-116861000D01*
X182569000Y-116861000D02*
X176340000Y-116861000D01*
X171860000Y-116821000D02*
X165598000Y-116821000D01*
X182602000Y-116821000D02*
X176340000Y-116821000D01*
X171860000Y-116781000D02*
X165565000Y-116781000D01*
X182635000Y-116781000D02*
X176340000Y-116781000D01*
X171860000Y-116741000D02*
X165532000Y-116741000D01*
X182668000Y-116741000D02*
X176340000Y-116741000D01*
X171860000Y-116701000D02*
X165499000Y-116701000D01*
X182701000Y-116701000D02*
X176340000Y-116701000D01*
X171860000Y-116661000D02*
X165467000Y-116661000D01*
X182733000Y-116661000D02*
X176340000Y-116661000D01*
X171860000Y-116621000D02*
X165435000Y-116621000D01*
X182765000Y-116621000D02*
X176340000Y-116621000D01*
X171860000Y-116581000D02*
X165403000Y-116581000D01*
X182797000Y-116581000D02*
X176340000Y-116581000D01*
X171860000Y-116541000D02*
X165372000Y-116541000D01*
X182828000Y-116541000D02*
X176340000Y-116541000D01*
X171860000Y-116501000D02*
X165341000Y-116501000D01*
X182859000Y-116501000D02*
X176340000Y-116501000D01*
X171860000Y-116461000D02*
X165310000Y-116461000D01*
X182890000Y-116461000D02*
X176340000Y-116461000D01*
X171860000Y-116421000D02*
X165280000Y-116421000D01*
X182920000Y-116421000D02*
X176340000Y-116421000D01*
X171860000Y-116381000D02*
X165250000Y-116381000D01*
X182950000Y-116381000D02*
X176340000Y-116381000D01*
X171860000Y-116341000D02*
X165220000Y-116341000D01*
X182980000Y-116341000D02*
X176340000Y-116341000D01*
X171860000Y-116301000D02*
X165190000Y-116301000D01*
X183010000Y-116301000D02*
X176340000Y-116301000D01*
X171860000Y-116261000D02*
X165161000Y-116261000D01*
X183039000Y-116261000D02*
X176340000Y-116261000D01*
X171860000Y-116221000D02*
X165132000Y-116221000D01*
X183068000Y-116221000D02*
X176340000Y-116221000D01*
X171860000Y-116181000D02*
X165103000Y-116181000D01*
X183097000Y-116181000D02*
X176340000Y-116181000D01*
X171860000Y-116141000D02*
X165074000Y-116141000D01*
X183126000Y-116141000D02*
X176340000Y-116141000D01*
X171860000Y-116101000D02*
X165046000Y-116101000D01*
X183154000Y-116101000D02*
X176340000Y-116101000D01*
X171860000Y-116061000D02*
X165018000Y-116061000D01*
X183182000Y-116061000D02*
X176340000Y-116061000D01*
X171860000Y-116021000D02*
X164990000Y-116021000D01*
X183210000Y-116021000D02*
X176340000Y-116021000D01*
X171860000Y-115981000D02*
X164963000Y-115981000D01*
X183237000Y-115981000D02*
X176340000Y-115981000D01*
X171860000Y-115941000D02*
X164935000Y-115941000D01*
X183265000Y-115941000D02*
X176340000Y-115941000D01*
X171860000Y-115901000D02*
X164908000Y-115901000D01*
X183292000Y-115901000D02*
X176340000Y-115901000D01*
X171860000Y-115861000D02*
X164882000Y-115861000D01*
X183318000Y-115861000D02*
X176340000Y-115861000D01*
X171860000Y-115821000D02*
X164855000Y-115821000D01*
X183345000Y-115821000D02*
X176340000Y-115821000D01*
X171860000Y-115781000D02*
X164829000Y-115781000D01*
X183371000Y-115781000D02*
X176340000Y-115781000D01*
X171860000Y-115741000D02*
X164803000Y-115741000D01*
X183397000Y-115741000D02*
X176340000Y-115741000D01*
X171860000Y-115701000D02*
X164777000Y-115701000D01*
X183423000Y-115701000D02*
X176340000Y-115701000D01*
X171860000Y-115661000D02*
X164752000Y-115661000D01*
X183448000Y-115661000D02*
X176340000Y-115661000D01*
X171860000Y-115621000D02*
X164726000Y-115621000D01*
X183474000Y-115621000D02*
X176340000Y-115621000D01*
X171860000Y-115581000D02*
X164701000Y-115581000D01*
X183499000Y-115581000D02*
X176340000Y-115581000D01*
X171860000Y-115541000D02*
X164676000Y-115541000D01*
X183524000Y-115541000D02*
X176340000Y-115541000D01*
X171860000Y-115501000D02*
X164652000Y-115501000D01*
X183548000Y-115501000D02*
X176340000Y-115501000D01*
X171860000Y-115461000D02*
X164628000Y-115461000D01*
X183572000Y-115461000D02*
X176340000Y-115461000D01*
X171860000Y-115421000D02*
X164603000Y-115421000D01*
X183597000Y-115421000D02*
X176340000Y-115421000D01*
X171860000Y-115381000D02*
X164580000Y-115381000D01*
X183620000Y-115381000D02*
X176340000Y-115381000D01*
X171860000Y-115341000D02*
X164556000Y-115341000D01*
X183644000Y-115341000D02*
X176340000Y-115341000D01*
X171860000Y-115301000D02*
X164533000Y-115301000D01*
X183667000Y-115301000D02*
X176340000Y-115301000D01*
X171860000Y-115261000D02*
X164509000Y-115261000D01*
X183691000Y-115261000D02*
X176340000Y-115261000D01*
X171860000Y-115221000D02*
X164486000Y-115221000D01*
X183714000Y-115221000D02*
X176340000Y-115221000D01*
X171860000Y-115181000D02*
X164464000Y-115181000D01*
X183736000Y-115181000D02*
X176340000Y-115181000D01*
X171860000Y-115141000D02*
X164441000Y-115141000D01*
X183759000Y-115141000D02*
X176340000Y-115141000D01*
X171860000Y-115101000D02*
X164419000Y-115101000D01*
X183781000Y-115101000D02*
X176340000Y-115101000D01*
X171860000Y-115061000D02*
X164397000Y-115061000D01*
X183803000Y-115061000D02*
X176340000Y-115061000D01*
X171860000Y-115021000D02*
X164375000Y-115021000D01*
X183825000Y-115021000D02*
X176340000Y-115021000D01*
X171860000Y-114981000D02*
X164353000Y-114981000D01*
X183847000Y-114981000D02*
X176340000Y-114981000D01*
X171860000Y-114941000D02*
X164332000Y-114941000D01*
X183868000Y-114941000D02*
X176340000Y-114941000D01*
X171860000Y-114901000D02*
X164310000Y-114901000D01*
X183890000Y-114901000D02*
X176340000Y-114901000D01*
X171860000Y-114861000D02*
X164289000Y-114861000D01*
X183911000Y-114861000D02*
X176340000Y-114861000D01*
X171860000Y-114821000D02*
X164268000Y-114821000D01*
X183932000Y-114821000D02*
X176340000Y-114821000D01*
X171860000Y-114781000D02*
X164248000Y-114781000D01*
X183952000Y-114781000D02*
X176340000Y-114781000D01*
X171860000Y-114741000D02*
X164227000Y-114741000D01*
X183973000Y-114741000D02*
X176340000Y-114741000D01*
X171860000Y-114701000D02*
X164207000Y-114701000D01*
X183993000Y-114701000D02*
X176340000Y-114701000D01*
X171860000Y-114661000D02*
X164187000Y-114661000D01*
X184013000Y-114661000D02*
X176340000Y-114661000D01*
X171860000Y-114621000D02*
X164167000Y-114621000D01*
X184033000Y-114621000D02*
X176340000Y-114621000D01*
X171860000Y-114581000D02*
X164148000Y-114581000D01*
X184052000Y-114581000D02*
X176340000Y-114581000D01*
X171860000Y-114541000D02*
X164128000Y-114541000D01*
X184072000Y-114541000D02*
X176340000Y-114541000D01*
X171860000Y-114501000D02*
X164109000Y-114501000D01*
X184091000Y-114501000D02*
X176340000Y-114501000D01*
X171860000Y-114461000D02*
X164090000Y-114461000D01*
X184110000Y-114461000D02*
X176340000Y-114461000D01*
X171860000Y-114421000D02*
X164071000Y-114421000D01*
X184129000Y-114421000D02*
X176340000Y-114421000D01*
X171860000Y-114381000D02*
X164052000Y-114381000D01*
X184148000Y-114381000D02*
X176340000Y-114381000D01*
X171860000Y-114341000D02*
X164034000Y-114341000D01*
X184166000Y-114341000D02*
X176340000Y-114341000D01*
X171860000Y-114301000D02*
X164016000Y-114301000D01*
X184184000Y-114301000D02*
X176340000Y-114301000D01*
X171860000Y-114261000D02*
X163997000Y-114261000D01*
X184203000Y-114261000D02*
X176340000Y-114261000D01*
X171860000Y-114221000D02*
X163980000Y-114221000D01*
X184220000Y-114221000D02*
X176340000Y-114221000D01*
X171860000Y-114181000D02*
X163962000Y-114181000D01*
X184238000Y-114181000D02*
X176340000Y-114181000D01*
X171860000Y-114141000D02*
X163944000Y-114141000D01*
X184256000Y-114141000D02*
X176340000Y-114141000D01*
X171860000Y-114101000D02*
X163927000Y-114101000D01*
X184273000Y-114101000D02*
X176340000Y-114101000D01*
X171860000Y-114061000D02*
X163910000Y-114061000D01*
X184290000Y-114061000D02*
X176340000Y-114061000D01*
X171860000Y-114021000D02*
X163893000Y-114021000D01*
X184307000Y-114021000D02*
X176340000Y-114021000D01*
X171860000Y-113981000D02*
X163876000Y-113981000D01*
X184324000Y-113981000D02*
X176340000Y-113981000D01*
X171860000Y-113941000D02*
X163860000Y-113941000D01*
X184340000Y-113941000D02*
X176340000Y-113941000D01*
X171860000Y-113901000D02*
X163843000Y-113901000D01*
X184357000Y-113901000D02*
X176340000Y-113901000D01*
X171860000Y-113861000D02*
X163827000Y-113861000D01*
X184373000Y-113861000D02*
X176340000Y-113861000D01*
X171860000Y-113821000D02*
X163811000Y-113821000D01*
X184389000Y-113821000D02*
X176340000Y-113821000D01*
X171860000Y-113781000D02*
X163795000Y-113781000D01*
X184405000Y-113781000D02*
X176340000Y-113781000D01*
X171860000Y-113741000D02*
X163779000Y-113741000D01*
X184421000Y-113741000D02*
X176340000Y-113741000D01*
X171860000Y-113701000D02*
X163764000Y-113701000D01*
X184436000Y-113701000D02*
X176340000Y-113701000D01*
X171860000Y-113661000D02*
X163749000Y-113661000D01*
X184451000Y-113661000D02*
X176340000Y-113661000D01*
X171860000Y-113621000D02*
X163733000Y-113621000D01*
X184467000Y-113621000D02*
X176340000Y-113621000D01*
X171860000Y-113581000D02*
X163718000Y-113581000D01*
X184482000Y-113581000D02*
X176340000Y-113581000D01*
X171860000Y-113541000D02*
X163704000Y-113541000D01*
X184496000Y-113541000D02*
X176340000Y-113541000D01*
X171860000Y-113501000D02*
X163689000Y-113501000D01*
X184511000Y-113501000D02*
X176340000Y-113501000D01*
X171860000Y-113461000D02*
X163674000Y-113461000D01*
X184526000Y-113461000D02*
X176340000Y-113461000D01*
X171860000Y-113421000D02*
X163660000Y-113421000D01*
X184540000Y-113421000D02*
X176340000Y-113421000D01*
X171860000Y-113381000D02*
X163646000Y-113381000D01*
X184554000Y-113381000D02*
X176340000Y-113381000D01*
X171860000Y-113341000D02*
X163632000Y-113341000D01*
X184568000Y-113341000D02*
X176340000Y-113341000D01*
X171860000Y-113301000D02*
X163618000Y-113301000D01*
X184582000Y-113301000D02*
X176340000Y-113301000D01*
X171860000Y-113261000D02*
X163605000Y-113261000D01*
X184595000Y-113261000D02*
X176340000Y-113261000D01*
X171860000Y-113221000D02*
X163591000Y-113221000D01*
X184609000Y-113221000D02*
X176340000Y-113221000D01*
X171860000Y-113181000D02*
X163578000Y-113181000D01*
X184622000Y-113181000D02*
X176340000Y-113181000D01*
X171860000Y-113141000D02*
X163565000Y-113141000D01*
X184635000Y-113141000D02*
X176340000Y-113141000D01*
X171860000Y-113101000D02*
X163552000Y-113101000D01*
X184648000Y-113101000D02*
X176340000Y-113101000D01*
X171860000Y-113061000D02*
X163539000Y-113061000D01*
X184661000Y-113061000D02*
X176340000Y-113061000D01*
X171860000Y-113021000D02*
X163527000Y-113021000D01*
X184673000Y-113021000D02*
X176340000Y-113021000D01*
X171860000Y-112981000D02*
X163514000Y-112981000D01*
X184686000Y-112981000D02*
X176340000Y-112981000D01*
X171860000Y-112941000D02*
X163502000Y-112941000D01*
X184698000Y-112941000D02*
X176340000Y-112941000D01*
X171860000Y-112901000D02*
X163490000Y-112901000D01*
X184710000Y-112901000D02*
X176340000Y-112901000D01*
X171860000Y-112861000D02*
X163478000Y-112861000D01*
X184722000Y-112861000D02*
X176340000Y-112861000D01*
X171860000Y-112821000D02*
X163466000Y-112821000D01*
X184734000Y-112821000D02*
X176340000Y-112821000D01*
X171860000Y-112781000D02*
X163455000Y-112781000D01*
X184745000Y-112781000D02*
X176340000Y-112781000D01*
X171860000Y-112741000D02*
X163443000Y-112741000D01*
X184757000Y-112741000D02*
X176340000Y-112741000D01*
X171860000Y-112701000D02*
X163432000Y-112701000D01*
X184768000Y-112701000D02*
X176340000Y-112701000D01*
X171860000Y-112661000D02*
X163421000Y-112661000D01*
X184779000Y-112661000D02*
X176340000Y-112661000D01*
X171860000Y-112621000D02*
X163410000Y-112621000D01*
X184790000Y-112621000D02*
X176340000Y-112621000D01*
X171860000Y-112581000D02*
X163399000Y-112581000D01*
X184801000Y-112581000D02*
X176340000Y-112581000D01*
X171860000Y-112541000D02*
X163388000Y-112541000D01*
X184812000Y-112541000D02*
X176340000Y-112541000D01*
X171860000Y-112501000D02*
X163378000Y-112501000D01*
X184822000Y-112501000D02*
X176340000Y-112501000D01*
X171860000Y-112461000D02*
X163367000Y-112461000D01*
X184833000Y-112461000D02*
X176340000Y-112461000D01*
X184843000Y-112421000D02*
X163357000Y-112421000D01*
X184853000Y-112381000D02*
X163347000Y-112381000D01*
X184863000Y-112341000D02*
X163337000Y-112341000D01*
X184872000Y-112301000D02*
X163328000Y-112301000D01*
X184882000Y-112261000D02*
X163318000Y-112261000D01*
X184891000Y-112221000D02*
X163309000Y-112221000D01*
X184900000Y-112181000D02*
X163300000Y-112181000D01*
X184909000Y-112141000D02*
X163291000Y-112141000D01*
X184918000Y-112101000D02*
X163282000Y-112101000D01*
X184927000Y-112061000D02*
X163273000Y-112061000D01*
X184936000Y-112021000D02*
X163264000Y-112021000D01*
X184944000Y-111981000D02*
X163256000Y-111981000D01*
X184953000Y-111941000D02*
X163247000Y-111941000D01*
X184961000Y-111901000D02*
X163239000Y-111901000D01*
X184969000Y-111861000D02*
X163231000Y-111861000D01*
X184977000Y-111821000D02*
X163223000Y-111821000D01*
X184984000Y-111781000D02*
X163216000Y-111781000D01*
X184992000Y-111741000D02*
X163208000Y-111741000D01*
X184999000Y-111701000D02*
X163201000Y-111701000D01*
X185006000Y-111661000D02*
X163194000Y-111661000D01*
X185013000Y-111621000D02*
X163187000Y-111621000D01*
X185020000Y-111581000D02*
X163180000Y-111581000D01*
X185027000Y-111541000D02*
X163173000Y-111541000D01*
X185034000Y-111501000D02*
X163166000Y-111501000D01*
X185040000Y-111461000D02*
X163160000Y-111461000D01*
X185047000Y-111421000D02*
X163153000Y-111421000D01*
X185053000Y-111381000D02*
X163147000Y-111381000D01*
X185059000Y-111341000D02*
X163141000Y-111341000D01*
X185065000Y-111301000D02*
X163135000Y-111301000D01*
X185071000Y-111261000D02*
X163129000Y-111261000D01*
X185076000Y-111221000D02*
X163124000Y-111221000D01*
X185082000Y-111181000D02*
X163118000Y-111181000D01*
X185087000Y-111141000D02*
X163113000Y-111141000D01*
X185092000Y-111101000D02*
X163108000Y-111101000D01*
X185097000Y-111061000D02*
X163103000Y-111061000D01*
X185102000Y-111021000D02*
X163098000Y-111021000D01*
X185107000Y-110981000D02*
X163093000Y-110981000D01*
X185111000Y-110941000D02*
X163089000Y-110941000D01*
X185116000Y-110901000D02*
X163084000Y-110901000D01*
X185120000Y-110861000D02*
X163080000Y-110861000D01*
X185124000Y-110821000D02*
X163076000Y-110821000D01*
X185128000Y-110781000D02*
X163072000Y-110781000D01*
X185132000Y-110741000D02*
X163068000Y-110741000D01*
X185135000Y-110701000D02*
X163065000Y-110701000D01*
X185139000Y-110661000D02*
X163061000Y-110661000D01*
X185142000Y-110621000D02*
X163058000Y-110621000D01*
X185146000Y-110581000D02*
X163054000Y-110581000D01*
X185149000Y-110541000D02*
X163051000Y-110541000D01*
X185152000Y-110501000D02*
X163048000Y-110501000D01*
X185154000Y-110461000D02*
X163046000Y-110461000D01*
X185157000Y-110421000D02*
X163043000Y-110421000D01*
X185160000Y-110380000D02*
X163040000Y-110380000D01*
X185162000Y-110340000D02*
X163038000Y-110340000D01*
X185164000Y-110300000D02*
X163036000Y-110300000D01*
X185166000Y-110260000D02*
X163034000Y-110260000D01*
X185168000Y-110220000D02*
X163032000Y-110220000D01*
X185170000Y-110180000D02*
X163030000Y-110180000D01*
X185172000Y-110140000D02*
X163028000Y-110140000D01*
X185173000Y-110100000D02*
X163027000Y-110100000D01*
X185175000Y-110060000D02*
X163025000Y-110060000D01*
X185176000Y-110020000D02*
X163024000Y-110020000D01*
X185177000Y-109980000D02*
X163023000Y-109980000D01*
X185178000Y-109940000D02*
X163022000Y-109940000D01*
X185179000Y-109900000D02*
X163021000Y-109900000D01*
X185179000Y-109860000D02*
X163021000Y-109860000D01*
X185180000Y-109820000D02*
X163020000Y-109820000D01*
X185180000Y-109780000D02*
X163020000Y-109780000D01*
X185180000Y-109740000D02*
X163020000Y-109740000D01*
X185181000Y-109700000D02*
X163019000Y-109700000D01*
X185220000Y-109700000D02*
G75*
G03X185220000Y-109700000I-11120000J0D01*
G01*
X184561252Y-82965000D02*
X184038748Y-82965000D01*
X184561252Y-84385000D02*
X184038748Y-84385000D01*
X181890000Y-73088748D02*
X181890000Y-73611252D01*
X183310000Y-73088748D02*
X183310000Y-73611252D01*
X184340000Y-73088748D02*
X184340000Y-73611252D01*
X185760000Y-73088748D02*
X185760000Y-73611252D01*
D10*
X179252380Y-84361904D02*
X180061904Y-84361904D01*
X180157142Y-84314285D01*
X180204761Y-84266666D01*
X180252380Y-84171428D01*
X180252380Y-83980952D01*
X180204761Y-83885714D01*
X180157142Y-83838095D01*
X180061904Y-83790476D01*
X179252380Y-83790476D01*
X180252380Y-82790476D02*
X180252380Y-83361904D01*
X180252380Y-83076190D02*
X179252380Y-83076190D01*
X179395238Y-83171428D01*
X179490476Y-83266666D01*
X179538095Y-83361904D01*
X169252380Y-93761904D02*
X170061904Y-93761904D01*
X170157142Y-93714285D01*
X170204761Y-93666666D01*
X170252380Y-93571428D01*
X170252380Y-93380952D01*
X170204761Y-93285714D01*
X170157142Y-93238095D01*
X170061904Y-93190476D01*
X169252380Y-93190476D01*
X169347619Y-92761904D02*
X169300000Y-92714285D01*
X169252380Y-92619047D01*
X169252380Y-92380952D01*
X169300000Y-92285714D01*
X169347619Y-92238095D01*
X169442857Y-92190476D01*
X169538095Y-92190476D01*
X169680952Y-92238095D01*
X170252380Y-92809523D01*
X170252380Y-92190476D01*
X162977380Y-96141666D02*
X162501190Y-96475000D01*
X162977380Y-96713095D02*
X161977380Y-96713095D01*
X161977380Y-96332142D01*
X162025000Y-96236904D01*
X162072619Y-96189285D01*
X162167857Y-96141666D01*
X162310714Y-96141666D01*
X162405952Y-96189285D01*
X162453571Y-96236904D01*
X162501190Y-96332142D01*
X162501190Y-96713095D01*
X162977380Y-95665476D02*
X162977380Y-95475000D01*
X162929761Y-95379761D01*
X162882142Y-95332142D01*
X162739285Y-95236904D01*
X162548809Y-95189285D01*
X162167857Y-95189285D01*
X162072619Y-95236904D01*
X162025000Y-95284523D01*
X161977380Y-95379761D01*
X161977380Y-95570238D01*
X162025000Y-95665476D01*
X162072619Y-95713095D01*
X162167857Y-95760714D01*
X162405952Y-95760714D01*
X162501190Y-95713095D01*
X162548809Y-95665476D01*
X162596428Y-95570238D01*
X162596428Y-95379761D01*
X162548809Y-95284523D01*
X162501190Y-95236904D01*
X162405952Y-95189285D01*
X169532142Y-97791666D02*
X169579761Y-97839285D01*
X169627380Y-97982142D01*
X169627380Y-98077380D01*
X169579761Y-98220238D01*
X169484523Y-98315476D01*
X169389285Y-98363095D01*
X169198809Y-98410714D01*
X169055952Y-98410714D01*
X168865476Y-98363095D01*
X168770238Y-98315476D01*
X168675000Y-98220238D01*
X168627380Y-98077380D01*
X168627380Y-97982142D01*
X168675000Y-97839285D01*
X168722619Y-97791666D01*
X168627380Y-97458333D02*
X168627380Y-96839285D01*
X169008333Y-97172619D01*
X169008333Y-97029761D01*
X169055952Y-96934523D01*
X169103571Y-96886904D01*
X169198809Y-96839285D01*
X169436904Y-96839285D01*
X169532142Y-96886904D01*
X169579761Y-96934523D01*
X169627380Y-97029761D01*
X169627380Y-97315476D01*
X169579761Y-97410714D01*
X169532142Y-97458333D01*
X188852380Y-61961904D02*
X189661904Y-61961904D01*
X189757142Y-61914285D01*
X189804761Y-61866666D01*
X189852380Y-61771428D01*
X189852380Y-61580952D01*
X189804761Y-61485714D01*
X189757142Y-61438095D01*
X189661904Y-61390476D01*
X188852380Y-61390476D01*
X188852380Y-61009523D02*
X188852380Y-60390476D01*
X189233333Y-60723809D01*
X189233333Y-60580952D01*
X189280952Y-60485714D01*
X189328571Y-60438095D01*
X189423809Y-60390476D01*
X189661904Y-60390476D01*
X189757142Y-60438095D01*
X189804761Y-60485714D01*
X189852380Y-60580952D01*
X189852380Y-60866666D01*
X189804761Y-60961904D01*
X189757142Y-61009523D01*
X187624761Y-91843333D02*
X187672380Y-91700476D01*
X187672380Y-91462380D01*
X187624761Y-91367142D01*
X187577142Y-91319523D01*
X187481904Y-91271904D01*
X187386666Y-91271904D01*
X187291428Y-91319523D01*
X187243809Y-91367142D01*
X187196190Y-91462380D01*
X187148571Y-91652857D01*
X187100952Y-91748095D01*
X187053333Y-91795714D01*
X186958095Y-91843333D01*
X186862857Y-91843333D01*
X186767619Y-91795714D01*
X186720000Y-91748095D01*
X186672380Y-91652857D01*
X186672380Y-91414761D01*
X186720000Y-91271904D01*
X186672380Y-90938571D02*
X187672380Y-90700476D01*
X186958095Y-90510000D01*
X187672380Y-90319523D01*
X186672380Y-90081428D01*
X187672380Y-89176666D02*
X187672380Y-89748095D01*
X187672380Y-89462380D02*
X186672380Y-89462380D01*
X186815238Y-89557619D01*
X186910476Y-89652857D01*
X186958095Y-89748095D01*
X189377380Y-96216666D02*
X188901190Y-96550000D01*
X189377380Y-96788095D02*
X188377380Y-96788095D01*
X188377380Y-96407142D01*
X188425000Y-96311904D01*
X188472619Y-96264285D01*
X188567857Y-96216666D01*
X188710714Y-96216666D01*
X188805952Y-96264285D01*
X188853571Y-96311904D01*
X188901190Y-96407142D01*
X188901190Y-96788095D01*
X188805952Y-95645238D02*
X188758333Y-95740476D01*
X188710714Y-95788095D01*
X188615476Y-95835714D01*
X188567857Y-95835714D01*
X188472619Y-95788095D01*
X188425000Y-95740476D01*
X188377380Y-95645238D01*
X188377380Y-95454761D01*
X188425000Y-95359523D01*
X188472619Y-95311904D01*
X188567857Y-95264285D01*
X188615476Y-95264285D01*
X188710714Y-95311904D01*
X188758333Y-95359523D01*
X188805952Y-95454761D01*
X188805952Y-95645238D01*
X188853571Y-95740476D01*
X188901190Y-95788095D01*
X188996428Y-95835714D01*
X189186904Y-95835714D01*
X189282142Y-95788095D01*
X189329761Y-95740476D01*
X189377380Y-95645238D01*
X189377380Y-95454761D01*
X189329761Y-95359523D01*
X189282142Y-95311904D01*
X189186904Y-95264285D01*
X188996428Y-95264285D01*
X188901190Y-95311904D01*
X188853571Y-95359523D01*
X188805952Y-95454761D01*
X166377380Y-98366666D02*
X165901190Y-98700000D01*
X166377380Y-98938095D02*
X165377380Y-98938095D01*
X165377380Y-98557142D01*
X165425000Y-98461904D01*
X165472619Y-98414285D01*
X165567857Y-98366666D01*
X165710714Y-98366666D01*
X165805952Y-98414285D01*
X165853571Y-98461904D01*
X165901190Y-98557142D01*
X165901190Y-98938095D01*
X165377380Y-98033333D02*
X165377380Y-97366666D01*
X166377380Y-97795238D01*
X163252380Y-88816666D02*
X162776190Y-89150000D01*
X163252380Y-89388095D02*
X162252380Y-89388095D01*
X162252380Y-89007142D01*
X162300000Y-88911904D01*
X162347619Y-88864285D01*
X162442857Y-88816666D01*
X162585714Y-88816666D01*
X162680952Y-88864285D01*
X162728571Y-88911904D01*
X162776190Y-89007142D01*
X162776190Y-89388095D01*
X162252380Y-87959523D02*
X162252380Y-88150000D01*
X162300000Y-88245238D01*
X162347619Y-88292857D01*
X162490476Y-88388095D01*
X162680952Y-88435714D01*
X163061904Y-88435714D01*
X163157142Y-88388095D01*
X163204761Y-88340476D01*
X163252380Y-88245238D01*
X163252380Y-88054761D01*
X163204761Y-87959523D01*
X163157142Y-87911904D01*
X163061904Y-87864285D01*
X162823809Y-87864285D01*
X162728571Y-87911904D01*
X162680952Y-87959523D01*
X162633333Y-88054761D01*
X162633333Y-88245238D01*
X162680952Y-88340476D01*
X162728571Y-88388095D01*
X162823809Y-88435714D01*
X170352380Y-88641666D02*
X169876190Y-88975000D01*
X170352380Y-89213095D02*
X169352380Y-89213095D01*
X169352380Y-88832142D01*
X169400000Y-88736904D01*
X169447619Y-88689285D01*
X169542857Y-88641666D01*
X169685714Y-88641666D01*
X169780952Y-88689285D01*
X169828571Y-88736904D01*
X169876190Y-88832142D01*
X169876190Y-89213095D01*
X169352380Y-87736904D02*
X169352380Y-88213095D01*
X169828571Y-88260714D01*
X169780952Y-88213095D01*
X169733333Y-88117857D01*
X169733333Y-87879761D01*
X169780952Y-87784523D01*
X169828571Y-87736904D01*
X169923809Y-87689285D01*
X170161904Y-87689285D01*
X170257142Y-87736904D01*
X170304761Y-87784523D01*
X170352380Y-87879761D01*
X170352380Y-88117857D01*
X170304761Y-88213095D01*
X170257142Y-88260714D01*
X167832142Y-61141666D02*
X167879761Y-61189285D01*
X167927380Y-61332142D01*
X167927380Y-61427380D01*
X167879761Y-61570238D01*
X167784523Y-61665476D01*
X167689285Y-61713095D01*
X167498809Y-61760714D01*
X167355952Y-61760714D01*
X167165476Y-61713095D01*
X167070238Y-61665476D01*
X166975000Y-61570238D01*
X166927380Y-61427380D01*
X166927380Y-61332142D01*
X166975000Y-61189285D01*
X167022619Y-61141666D01*
X166927380Y-60808333D02*
X166927380Y-60141666D01*
X167927380Y-60570238D01*
X182857142Y-96216666D02*
X182904761Y-96264285D01*
X182952380Y-96407142D01*
X182952380Y-96502380D01*
X182904761Y-96645238D01*
X182809523Y-96740476D01*
X182714285Y-96788095D01*
X182523809Y-96835714D01*
X182380952Y-96835714D01*
X182190476Y-96788095D01*
X182095238Y-96740476D01*
X182000000Y-96645238D01*
X181952380Y-96502380D01*
X181952380Y-96407142D01*
X182000000Y-96264285D01*
X182047619Y-96216666D01*
X181952380Y-95359523D02*
X181952380Y-95550000D01*
X182000000Y-95645238D01*
X182047619Y-95692857D01*
X182190476Y-95788095D01*
X182380952Y-95835714D01*
X182761904Y-95835714D01*
X182857142Y-95788095D01*
X182904761Y-95740476D01*
X182952380Y-95645238D01*
X182952380Y-95454761D01*
X182904761Y-95359523D01*
X182857142Y-95311904D01*
X182761904Y-95264285D01*
X182523809Y-95264285D01*
X182428571Y-95311904D01*
X182380952Y-95359523D01*
X182333333Y-95454761D01*
X182333333Y-95645238D01*
X182380952Y-95740476D01*
X182428571Y-95788095D01*
X182523809Y-95835714D01*
X182257142Y-60416666D02*
X182304761Y-60464285D01*
X182352380Y-60607142D01*
X182352380Y-60702380D01*
X182304761Y-60845238D01*
X182209523Y-60940476D01*
X182114285Y-60988095D01*
X181923809Y-61035714D01*
X181780952Y-61035714D01*
X181590476Y-60988095D01*
X181495238Y-60940476D01*
X181400000Y-60845238D01*
X181352380Y-60702380D01*
X181352380Y-60607142D01*
X181400000Y-60464285D01*
X181447619Y-60416666D01*
X181352380Y-59511904D02*
X181352380Y-59988095D01*
X181828571Y-60035714D01*
X181780952Y-59988095D01*
X181733333Y-59892857D01*
X181733333Y-59654761D01*
X181780952Y-59559523D01*
X181828571Y-59511904D01*
X181923809Y-59464285D01*
X182161904Y-59464285D01*
X182257142Y-59511904D01*
X182304761Y-59559523D01*
X182352380Y-59654761D01*
X182352380Y-59892857D01*
X182304761Y-59988095D01*
X182257142Y-60035714D01*
X173802380Y-95891666D02*
X173326190Y-96225000D01*
X173802380Y-96463095D02*
X172802380Y-96463095D01*
X172802380Y-96082142D01*
X172850000Y-95986904D01*
X172897619Y-95939285D01*
X172992857Y-95891666D01*
X173135714Y-95891666D01*
X173230952Y-95939285D01*
X173278571Y-95986904D01*
X173326190Y-96082142D01*
X173326190Y-96463095D01*
X173135714Y-95034523D02*
X173802380Y-95034523D01*
X172754761Y-95272619D02*
X173469047Y-95510714D01*
X173469047Y-94891666D01*
X179852380Y-90166666D02*
X179376190Y-90500000D01*
X179852380Y-90738095D02*
X178852380Y-90738095D01*
X178852380Y-90357142D01*
X178900000Y-90261904D01*
X178947619Y-90214285D01*
X179042857Y-90166666D01*
X179185714Y-90166666D01*
X179280952Y-90214285D01*
X179328571Y-90261904D01*
X179376190Y-90357142D01*
X179376190Y-90738095D01*
X178852380Y-89833333D02*
X178852380Y-89214285D01*
X179233333Y-89547619D01*
X179233333Y-89404761D01*
X179280952Y-89309523D01*
X179328571Y-89261904D01*
X179423809Y-89214285D01*
X179661904Y-89214285D01*
X179757142Y-89261904D01*
X179804761Y-89309523D01*
X179852380Y-89404761D01*
X179852380Y-89690476D01*
X179804761Y-89785714D01*
X179757142Y-89833333D01*
X179777380Y-94716666D02*
X179301190Y-95050000D01*
X179777380Y-95288095D02*
X178777380Y-95288095D01*
X178777380Y-94907142D01*
X178825000Y-94811904D01*
X178872619Y-94764285D01*
X178967857Y-94716666D01*
X179110714Y-94716666D01*
X179205952Y-94764285D01*
X179253571Y-94811904D01*
X179301190Y-94907142D01*
X179301190Y-95288095D01*
X178872619Y-94335714D02*
X178825000Y-94288095D01*
X178777380Y-94192857D01*
X178777380Y-93954761D01*
X178825000Y-93859523D01*
X178872619Y-93811904D01*
X178967857Y-93764285D01*
X179063095Y-93764285D01*
X179205952Y-93811904D01*
X179777380Y-94383333D01*
X179777380Y-93764285D01*
X187322619Y-78520238D02*
X187275000Y-78615476D01*
X187179761Y-78710714D01*
X187036904Y-78853571D01*
X186989285Y-78948809D01*
X186989285Y-79044047D01*
X187227380Y-78996428D02*
X187179761Y-79091666D01*
X187084523Y-79186904D01*
X186894047Y-79234523D01*
X186560714Y-79234523D01*
X186370238Y-79186904D01*
X186275000Y-79091666D01*
X186227380Y-78996428D01*
X186227380Y-78805952D01*
X186275000Y-78710714D01*
X186370238Y-78615476D01*
X186560714Y-78567857D01*
X186894047Y-78567857D01*
X187084523Y-78615476D01*
X187179761Y-78710714D01*
X187227380Y-78805952D01*
X187227380Y-78996428D01*
X187227380Y-77615476D02*
X187227380Y-78186904D01*
X187227380Y-77901190D02*
X186227380Y-77901190D01*
X186370238Y-77996428D01*
X186465476Y-78091666D01*
X186513095Y-78186904D01*
X164257142Y-118416666D02*
X164304761Y-118464285D01*
X164352380Y-118607142D01*
X164352380Y-118702380D01*
X164304761Y-118845238D01*
X164209523Y-118940476D01*
X164114285Y-118988095D01*
X163923809Y-119035714D01*
X163780952Y-119035714D01*
X163590476Y-118988095D01*
X163495238Y-118940476D01*
X163400000Y-118845238D01*
X163352380Y-118702380D01*
X163352380Y-118607142D01*
X163400000Y-118464285D01*
X163447619Y-118416666D01*
X163685714Y-117559523D02*
X164352380Y-117559523D01*
X163304761Y-117797619D02*
X164019047Y-118035714D01*
X164019047Y-117416666D01*
X187352380Y-83766666D02*
X186876190Y-84100000D01*
X187352380Y-84338095D02*
X186352380Y-84338095D01*
X186352380Y-83957142D01*
X186400000Y-83861904D01*
X186447619Y-83814285D01*
X186542857Y-83766666D01*
X186685714Y-83766666D01*
X186780952Y-83814285D01*
X186828571Y-83861904D01*
X186876190Y-83957142D01*
X186876190Y-84338095D01*
X187352380Y-82814285D02*
X187352380Y-83385714D01*
X187352380Y-83100000D02*
X186352380Y-83100000D01*
X186495238Y-83195238D01*
X186590476Y-83290476D01*
X186638095Y-83385714D01*
X182957142Y-70566666D02*
X183004761Y-70614285D01*
X183052380Y-70757142D01*
X183052380Y-70852380D01*
X183004761Y-70995238D01*
X182909523Y-71090476D01*
X182814285Y-71138095D01*
X182623809Y-71185714D01*
X182480952Y-71185714D01*
X182290476Y-71138095D01*
X182195238Y-71090476D01*
X182100000Y-70995238D01*
X182052380Y-70852380D01*
X182052380Y-70757142D01*
X182100000Y-70614285D01*
X182147619Y-70566666D01*
X182147619Y-70185714D02*
X182100000Y-70138095D01*
X182052380Y-70042857D01*
X182052380Y-69804761D01*
X182100000Y-69709523D01*
X182147619Y-69661904D01*
X182242857Y-69614285D01*
X182338095Y-69614285D01*
X182480952Y-69661904D01*
X183052380Y-70233333D01*
X183052380Y-69614285D01*
X185457142Y-70566666D02*
X185504761Y-70614285D01*
X185552380Y-70757142D01*
X185552380Y-70852380D01*
X185504761Y-70995238D01*
X185409523Y-71090476D01*
X185314285Y-71138095D01*
X185123809Y-71185714D01*
X184980952Y-71185714D01*
X184790476Y-71138095D01*
X184695238Y-71090476D01*
X184600000Y-70995238D01*
X184552380Y-70852380D01*
X184552380Y-70757142D01*
X184600000Y-70614285D01*
X184647619Y-70566666D01*
X185552380Y-69614285D02*
X185552380Y-70185714D01*
X185552380Y-69900000D02*
X184552380Y-69900000D01*
X184695238Y-69995238D01*
X184790476Y-70090476D01*
X184838095Y-70185714D01*
M02*
