G04 #@! TF.GenerationSoftware,KiCad,Pcbnew,(5.1.5-0-10_14)*
G04 #@! TF.CreationDate,2020-11-09T09:24:24+01:00*
G04 #@! TF.ProjectId,HB-RF-MOD,48422d52-462d-44d4-9f44-2e6b69636164,rev?*
G04 #@! TF.SameCoordinates,Original*
G04 #@! TF.FileFunction,Legend,Bot*
G04 #@! TF.FilePolarity,Positive*
%FSLAX46Y46*%
G04 Gerber Fmt 4.6, Leading zero omitted, Abs format (unit mm)*
G04 Created by KiCad (PCBNEW (5.1.5-0-10_14)) date 2020-11-09 09:24:24*
%MOMM*%
%LPD*%
G04 APERTURE LIST*
%ADD10C,0.120000*%
%ADD11C,0.150000*%
G04 APERTURE END LIST*
D10*
X36500000Y-62400000D02*
X36500000Y-60600000D01*
X35600000Y-61500000D02*
X37400000Y-61500000D01*
X48381000Y-61837000D02*
X48381000Y-61163000D01*
X48341000Y-62301000D02*
X48341000Y-60699000D01*
X48301000Y-62587000D02*
X48301000Y-60413000D01*
X48261000Y-62812000D02*
X48261000Y-60188000D01*
X48221000Y-63004000D02*
X48221000Y-59996000D01*
X48181000Y-63173000D02*
X48181000Y-59827000D01*
X48141000Y-63327000D02*
X48141000Y-59673000D01*
X48101000Y-63468000D02*
X48101000Y-59532000D01*
X48061000Y-63598000D02*
X48061000Y-59402000D01*
X48021000Y-63721000D02*
X48021000Y-59279000D01*
X47981000Y-63837000D02*
X47981000Y-59163000D01*
X47941000Y-63946000D02*
X47941000Y-59054000D01*
X47901000Y-64050000D02*
X47901000Y-58950000D01*
X47861000Y-64150000D02*
X47861000Y-58850000D01*
X47821000Y-64246000D02*
X47821000Y-58754000D01*
X47781000Y-64338000D02*
X47781000Y-58662000D01*
X47741000Y-64426000D02*
X47741000Y-58574000D01*
X47701000Y-64511000D02*
X47701000Y-58489000D01*
X47661000Y-64594000D02*
X47661000Y-58406000D01*
X47621000Y-64674000D02*
X47621000Y-58326000D01*
X47581000Y-64751000D02*
X47581000Y-58249000D01*
X47541000Y-64827000D02*
X47541000Y-58173000D01*
X47501000Y-64900000D02*
X47501000Y-58100000D01*
X47461000Y-64971000D02*
X47461000Y-58029000D01*
X47421000Y-65040000D02*
X47421000Y-57960000D01*
X47381000Y-65108000D02*
X47381000Y-57892000D01*
X47341000Y-65174000D02*
X47341000Y-57826000D01*
X47301000Y-65238000D02*
X47301000Y-57762000D01*
X47261000Y-65301000D02*
X47261000Y-57699000D01*
X47221000Y-65362000D02*
X47221000Y-57638000D01*
X47181000Y-65422000D02*
X47181000Y-57578000D01*
X47141000Y-65481000D02*
X47141000Y-57519000D01*
X47101000Y-65538000D02*
X47101000Y-57462000D01*
X47061000Y-65595000D02*
X47061000Y-57405000D01*
X47021000Y-65650000D02*
X47021000Y-57350000D01*
X46981000Y-65704000D02*
X46981000Y-57296000D01*
X46941000Y-65757000D02*
X46941000Y-57243000D01*
X46901000Y-65809000D02*
X46901000Y-57191000D01*
X46861000Y-65860000D02*
X46861000Y-57140000D01*
X46821000Y-65910000D02*
X46821000Y-57090000D01*
X46781000Y-65959000D02*
X46781000Y-57041000D01*
X46741000Y-66007000D02*
X46741000Y-56993000D01*
X46701000Y-66055000D02*
X46701000Y-56945000D01*
X46661000Y-66101000D02*
X46661000Y-56899000D01*
X46621000Y-66147000D02*
X46621000Y-56853000D01*
X46581000Y-66192000D02*
X46581000Y-56808000D01*
X46541000Y-66237000D02*
X46541000Y-56763000D01*
X46501000Y-66280000D02*
X46501000Y-56720000D01*
X46461000Y-66323000D02*
X46461000Y-56677000D01*
X46421000Y-66365000D02*
X46421000Y-56635000D01*
X46381000Y-66406000D02*
X46381000Y-56594000D01*
X46341000Y-66447000D02*
X46341000Y-56553000D01*
X46301000Y-66487000D02*
X46301000Y-56513000D01*
X46261000Y-66527000D02*
X46261000Y-56473000D01*
X46221000Y-66566000D02*
X46221000Y-56434000D01*
X46181000Y-66604000D02*
X46181000Y-56396000D01*
X46141000Y-66641000D02*
X46141000Y-56359000D01*
X46101000Y-66679000D02*
X46101000Y-56321000D01*
X46061000Y-66715000D02*
X46061000Y-56285000D01*
X46021000Y-66751000D02*
X46021000Y-56249000D01*
X45981000Y-66786000D02*
X45981000Y-56214000D01*
X45941000Y-66821000D02*
X45941000Y-56179000D01*
X45901000Y-66856000D02*
X45901000Y-56144000D01*
X45861000Y-66890000D02*
X45861000Y-56110000D01*
X45821000Y-66923000D02*
X45821000Y-56077000D01*
X45781000Y-66956000D02*
X45781000Y-56044000D01*
X45741000Y-66988000D02*
X45741000Y-56012000D01*
X45701000Y-67020000D02*
X45701000Y-55980000D01*
X45661000Y-67051000D02*
X45661000Y-55949000D01*
X45621000Y-67082000D02*
X45621000Y-55918000D01*
X45581000Y-67113000D02*
X45581000Y-55887000D01*
X45541000Y-67143000D02*
X45541000Y-55857000D01*
X45501000Y-67173000D02*
X45501000Y-55827000D01*
X45461000Y-67202000D02*
X45461000Y-55798000D01*
X45421000Y-67231000D02*
X45421000Y-55769000D01*
X45381000Y-67259000D02*
X45381000Y-55741000D01*
X45341000Y-67287000D02*
X45341000Y-55713000D01*
X45301000Y-67314000D02*
X45301000Y-55686000D01*
X45261000Y-67342000D02*
X45261000Y-55658000D01*
X45221000Y-67368000D02*
X45221000Y-55632000D01*
X45181000Y-67395000D02*
X45181000Y-55605000D01*
X45141000Y-60120000D02*
X45141000Y-55579000D01*
X45141000Y-67421000D02*
X45141000Y-62880000D01*
X45101000Y-60120000D02*
X45101000Y-55554000D01*
X45101000Y-67446000D02*
X45101000Y-62880000D01*
X45061000Y-60120000D02*
X45061000Y-55529000D01*
X45061000Y-67471000D02*
X45061000Y-62880000D01*
X45021000Y-60120000D02*
X45021000Y-55504000D01*
X45021000Y-67496000D02*
X45021000Y-62880000D01*
X44981000Y-60120000D02*
X44981000Y-55479000D01*
X44981000Y-67521000D02*
X44981000Y-62880000D01*
X44941000Y-60120000D02*
X44941000Y-55455000D01*
X44941000Y-67545000D02*
X44941000Y-62880000D01*
X44901000Y-60120000D02*
X44901000Y-55431000D01*
X44901000Y-67569000D02*
X44901000Y-62880000D01*
X44861000Y-60120000D02*
X44861000Y-55408000D01*
X44861000Y-67592000D02*
X44861000Y-62880000D01*
X44821000Y-60120000D02*
X44821000Y-55385000D01*
X44821000Y-67615000D02*
X44821000Y-62880000D01*
X44781000Y-60120000D02*
X44781000Y-55362000D01*
X44781000Y-67638000D02*
X44781000Y-62880000D01*
X44741000Y-60120000D02*
X44741000Y-55340000D01*
X44741000Y-67660000D02*
X44741000Y-62880000D01*
X44701000Y-60120000D02*
X44701000Y-55318000D01*
X44701000Y-67682000D02*
X44701000Y-62880000D01*
X44661000Y-60120000D02*
X44661000Y-55296000D01*
X44661000Y-67704000D02*
X44661000Y-62880000D01*
X44621000Y-60120000D02*
X44621000Y-55275000D01*
X44621000Y-67725000D02*
X44621000Y-62880000D01*
X44581000Y-60120000D02*
X44581000Y-55254000D01*
X44581000Y-67746000D02*
X44581000Y-62880000D01*
X44541000Y-60120000D02*
X44541000Y-55233000D01*
X44541000Y-67767000D02*
X44541000Y-62880000D01*
X44501000Y-60120000D02*
X44501000Y-55213000D01*
X44501000Y-67787000D02*
X44501000Y-62880000D01*
X44461000Y-60120000D02*
X44461000Y-55193000D01*
X44461000Y-67807000D02*
X44461000Y-62880000D01*
X44421000Y-60120000D02*
X44421000Y-55173000D01*
X44421000Y-67827000D02*
X44421000Y-62880000D01*
X44381000Y-60120000D02*
X44381000Y-55153000D01*
X44381000Y-67847000D02*
X44381000Y-62880000D01*
X44341000Y-60120000D02*
X44341000Y-55134000D01*
X44341000Y-67866000D02*
X44341000Y-62880000D01*
X44301000Y-60120000D02*
X44301000Y-55115000D01*
X44301000Y-67885000D02*
X44301000Y-62880000D01*
X44261000Y-60120000D02*
X44261000Y-55097000D01*
X44261000Y-67903000D02*
X44261000Y-62880000D01*
X44221000Y-60120000D02*
X44221000Y-55079000D01*
X44221000Y-67921000D02*
X44221000Y-62880000D01*
X44181000Y-60120000D02*
X44181000Y-55061000D01*
X44181000Y-67939000D02*
X44181000Y-62880000D01*
X44141000Y-60120000D02*
X44141000Y-55043000D01*
X44141000Y-67957000D02*
X44141000Y-62880000D01*
X44101000Y-60120000D02*
X44101000Y-55026000D01*
X44101000Y-67974000D02*
X44101000Y-62880000D01*
X44061000Y-60120000D02*
X44061000Y-55009000D01*
X44061000Y-67991000D02*
X44061000Y-62880000D01*
X44021000Y-60120000D02*
X44021000Y-54992000D01*
X44021000Y-68008000D02*
X44021000Y-62880000D01*
X43981000Y-60120000D02*
X43981000Y-54976000D01*
X43981000Y-68024000D02*
X43981000Y-62880000D01*
X43941000Y-60120000D02*
X43941000Y-54959000D01*
X43941000Y-68041000D02*
X43941000Y-62880000D01*
X43901000Y-60120000D02*
X43901000Y-54943000D01*
X43901000Y-68057000D02*
X43901000Y-62880000D01*
X43861000Y-60120000D02*
X43861000Y-54928000D01*
X43861000Y-68072000D02*
X43861000Y-62880000D01*
X43821000Y-60120000D02*
X43821000Y-54912000D01*
X43821000Y-68088000D02*
X43821000Y-62880000D01*
X43781000Y-60120000D02*
X43781000Y-54897000D01*
X43781000Y-68103000D02*
X43781000Y-62880000D01*
X43741000Y-60120000D02*
X43741000Y-54883000D01*
X43741000Y-68117000D02*
X43741000Y-62880000D01*
X43701000Y-60120000D02*
X43701000Y-54868000D01*
X43701000Y-68132000D02*
X43701000Y-62880000D01*
X43661000Y-60120000D02*
X43661000Y-54854000D01*
X43661000Y-68146000D02*
X43661000Y-62880000D01*
X43621000Y-60120000D02*
X43621000Y-54840000D01*
X43621000Y-68160000D02*
X43621000Y-62880000D01*
X43581000Y-60120000D02*
X43581000Y-54826000D01*
X43581000Y-68174000D02*
X43581000Y-62880000D01*
X43541000Y-60120000D02*
X43541000Y-54813000D01*
X43541000Y-68187000D02*
X43541000Y-62880000D01*
X43501000Y-60120000D02*
X43501000Y-54799000D01*
X43501000Y-68201000D02*
X43501000Y-62880000D01*
X43461000Y-60120000D02*
X43461000Y-54787000D01*
X43461000Y-68213000D02*
X43461000Y-62880000D01*
X43421000Y-60120000D02*
X43421000Y-54774000D01*
X43421000Y-68226000D02*
X43421000Y-62880000D01*
X43381000Y-60120000D02*
X43381000Y-54761000D01*
X43381000Y-68239000D02*
X43381000Y-62880000D01*
X43341000Y-60120000D02*
X43341000Y-54749000D01*
X43341000Y-68251000D02*
X43341000Y-62880000D01*
X43301000Y-60120000D02*
X43301000Y-54737000D01*
X43301000Y-68263000D02*
X43301000Y-62880000D01*
X43261000Y-60120000D02*
X43261000Y-54726000D01*
X43261000Y-68274000D02*
X43261000Y-62880000D01*
X43221000Y-60120000D02*
X43221000Y-54714000D01*
X43221000Y-68286000D02*
X43221000Y-62880000D01*
X43181000Y-60120000D02*
X43181000Y-54703000D01*
X43181000Y-68297000D02*
X43181000Y-62880000D01*
X43141000Y-60120000D02*
X43141000Y-54692000D01*
X43141000Y-68308000D02*
X43141000Y-62880000D01*
X43101000Y-60120000D02*
X43101000Y-54682000D01*
X43101000Y-68318000D02*
X43101000Y-62880000D01*
X43061000Y-60120000D02*
X43061000Y-54671000D01*
X43061000Y-68329000D02*
X43061000Y-62880000D01*
X43021000Y-60120000D02*
X43021000Y-54661000D01*
X43021000Y-68339000D02*
X43021000Y-62880000D01*
X42981000Y-60120000D02*
X42981000Y-54651000D01*
X42981000Y-68349000D02*
X42981000Y-62880000D01*
X42941000Y-60120000D02*
X42941000Y-54642000D01*
X42941000Y-68358000D02*
X42941000Y-62880000D01*
X42901000Y-60120000D02*
X42901000Y-54632000D01*
X42901000Y-68368000D02*
X42901000Y-62880000D01*
X42861000Y-60120000D02*
X42861000Y-54623000D01*
X42861000Y-68377000D02*
X42861000Y-62880000D01*
X42821000Y-60120000D02*
X42821000Y-54614000D01*
X42821000Y-68386000D02*
X42821000Y-62880000D01*
X42781000Y-60120000D02*
X42781000Y-54606000D01*
X42781000Y-68394000D02*
X42781000Y-62880000D01*
X42741000Y-60120000D02*
X42741000Y-54597000D01*
X42741000Y-68403000D02*
X42741000Y-62880000D01*
X42701000Y-60120000D02*
X42701000Y-54589000D01*
X42701000Y-68411000D02*
X42701000Y-62880000D01*
X42661000Y-60120000D02*
X42661000Y-54581000D01*
X42661000Y-68419000D02*
X42661000Y-62880000D01*
X42621000Y-60120000D02*
X42621000Y-54573000D01*
X42621000Y-68427000D02*
X42621000Y-62880000D01*
X42581000Y-60120000D02*
X42581000Y-54566000D01*
X42581000Y-68434000D02*
X42581000Y-62880000D01*
X42541000Y-60120000D02*
X42541000Y-54559000D01*
X42541000Y-68441000D02*
X42541000Y-62880000D01*
X42501000Y-60120000D02*
X42501000Y-54552000D01*
X42501000Y-68448000D02*
X42501000Y-62880000D01*
X42461000Y-60120000D02*
X42461000Y-54545000D01*
X42461000Y-68455000D02*
X42461000Y-62880000D01*
X42421000Y-60120000D02*
X42421000Y-54539000D01*
X42421000Y-68461000D02*
X42421000Y-62880000D01*
X42381000Y-68468000D02*
X42381000Y-54532000D01*
X42341000Y-68474000D02*
X42341000Y-54526000D01*
X42301000Y-68480000D02*
X42301000Y-54520000D01*
X42261000Y-68485000D02*
X42261000Y-54515000D01*
X42221000Y-68491000D02*
X42221000Y-54509000D01*
X42181000Y-68496000D02*
X42181000Y-54504000D01*
X42141000Y-68501000D02*
X42141000Y-54499000D01*
X42101000Y-68505000D02*
X42101000Y-54495000D01*
X42061000Y-68510000D02*
X42061000Y-54490000D01*
X42021000Y-68514000D02*
X42021000Y-54486000D01*
X41980000Y-68518000D02*
X41980000Y-54482000D01*
X41940000Y-68522000D02*
X41940000Y-54478000D01*
X41900000Y-68525000D02*
X41900000Y-54475000D01*
X41860000Y-68528000D02*
X41860000Y-54472000D01*
X41820000Y-68531000D02*
X41820000Y-54469000D01*
X41780000Y-68534000D02*
X41780000Y-54466000D01*
X41740000Y-68537000D02*
X41740000Y-54463000D01*
X41700000Y-68539000D02*
X41700000Y-54461000D01*
X41660000Y-68541000D02*
X41660000Y-54459000D01*
X41620000Y-68543000D02*
X41620000Y-54457000D01*
X41580000Y-68545000D02*
X41580000Y-54455000D01*
X41540000Y-68546000D02*
X41540000Y-54454000D01*
X41500000Y-68548000D02*
X41500000Y-54452000D01*
X41460000Y-68549000D02*
X41460000Y-54451000D01*
X41420000Y-68549000D02*
X41420000Y-54451000D01*
X41380000Y-68550000D02*
X41380000Y-54450000D01*
X41340000Y-68550000D02*
X41340000Y-54450000D01*
X41300000Y-68550000D02*
X41300000Y-54450000D01*
X51539629Y-61500000D02*
G75*
G03X51539629Y-61500000I-10239629J0D01*
G01*
X44858750Y-36556250D02*
X45646250Y-36556250D01*
X45252500Y-36162500D02*
X45252500Y-36950000D01*
X49445563Y-37190000D02*
X50510000Y-38254437D01*
X44754437Y-37190000D02*
X43690000Y-38254437D01*
X44754437Y-37190000D02*
X46040000Y-37190000D01*
X49445563Y-37190000D02*
X48160000Y-37190000D01*
X50510000Y-38254437D02*
X50510000Y-44010000D01*
X43690000Y-38254437D02*
X43690000Y-44010000D01*
X43690000Y-44010000D02*
X46040000Y-44010000D01*
X50510000Y-44010000D02*
X48160000Y-44010000D01*
X53530000Y-22450000D02*
X52200000Y-22450000D01*
X52200000Y-22450000D02*
X52200000Y-23780000D01*
X54800000Y-22450000D02*
X54800000Y-25050000D01*
X54800000Y-25050000D02*
X52200000Y-25050000D01*
X52200000Y-25050000D02*
X52200000Y-73370000D01*
X57400000Y-73370000D02*
X52200000Y-73370000D01*
X57400000Y-22450000D02*
X57400000Y-73370000D01*
X57400000Y-22450000D02*
X54800000Y-22450000D01*
D11*
X41466666Y-70167142D02*
X41514285Y-70214761D01*
X41657142Y-70262380D01*
X41752380Y-70262380D01*
X41895238Y-70214761D01*
X41990476Y-70119523D01*
X42038095Y-70024285D01*
X42085714Y-69833809D01*
X42085714Y-69690952D01*
X42038095Y-69500476D01*
X41990476Y-69405238D01*
X41895238Y-69310000D01*
X41752380Y-69262380D01*
X41657142Y-69262380D01*
X41514285Y-69310000D01*
X41466666Y-69357619D01*
X40609523Y-69595714D02*
X40609523Y-70262380D01*
X40847619Y-69214761D02*
X41085714Y-69929047D01*
X40466666Y-69929047D01*
X47491666Y-47132142D02*
X47539285Y-47179761D01*
X47682142Y-47227380D01*
X47777380Y-47227380D01*
X47920238Y-47179761D01*
X48015476Y-47084523D01*
X48063095Y-46989285D01*
X48110714Y-46798809D01*
X48110714Y-46655952D01*
X48063095Y-46465476D01*
X48015476Y-46370238D01*
X47920238Y-46275000D01*
X47777380Y-46227380D01*
X47682142Y-46227380D01*
X47539285Y-46275000D01*
X47491666Y-46322619D01*
X47158333Y-46227380D02*
X46491666Y-46227380D01*
X46920238Y-47227380D01*
X55133333Y-20462380D02*
X55133333Y-21176666D01*
X55180952Y-21319523D01*
X55276190Y-21414761D01*
X55419047Y-21462380D01*
X55514285Y-21462380D01*
X54133333Y-21462380D02*
X54704761Y-21462380D01*
X54419047Y-21462380D02*
X54419047Y-20462380D01*
X54514285Y-20605238D01*
X54609523Y-20700476D01*
X54704761Y-20748095D01*
M02*
