G04 #@! TF.GenerationSoftware,KiCad,Pcbnew,(5.1.5-0-10_14)*
G04 #@! TF.CreationDate,2020-11-09T09:27:31+01:00*
G04 #@! TF.ProjectId,HB-RF-MOD,48422d52-462d-44d4-9f44-2e6b69636164,rev?*
G04 #@! TF.SameCoordinates,Original*
G04 #@! TF.FileFunction,Soldermask,Top*
G04 #@! TF.FilePolarity,Negative*
%FSLAX46Y46*%
G04 Gerber Fmt 4.6, Leading zero omitted, Abs format (unit mm)*
G04 Created by KiCad (PCBNEW (5.1.5-0-10_14)) date 2020-11-09 09:27:31*
%MOMM*%
%LPD*%
G04 APERTURE LIST*
%ADD10C,2.400000*%
%ADD11R,2.400000X2.400000*%
%ADD12C,1.500000*%
%ADD13C,0.100000*%
%ADD14R,0.900000X0.800000*%
%ADD15C,1.800000*%
%ADD16R,1.800000X1.800000*%
%ADD17R,0.800000X1.200000*%
%ADD18R,1.200000X0.800000*%
%ADD19R,0.400000X1.100000*%
%ADD20R,0.700000X1.100000*%
%ADD21R,2.200000X1.840000*%
%ADD22R,1.000000X1.500000*%
%ADD23R,1.000000X1.800000*%
%ADD24R,1.050000X0.650000*%
%ADD25C,2.700000*%
%ADD26O,1.700000X1.700000*%
%ADD27R,1.700000X1.700000*%
G04 APERTURE END LIST*
D10*
X43800000Y-61500000D03*
D11*
X38800000Y-61500000D03*
D12*
X50100000Y-32600000D03*
X50100000Y-35100000D03*
X50100000Y-37600000D03*
X50100000Y-30100000D03*
X50100000Y-27600000D03*
D13*
G36*
X34164505Y-76301204D02*
G01*
X34188773Y-76304804D01*
X34212572Y-76310765D01*
X34235671Y-76319030D01*
X34257850Y-76329520D01*
X34278893Y-76342132D01*
X34298599Y-76356747D01*
X34316777Y-76373223D01*
X34333253Y-76391401D01*
X34347868Y-76411107D01*
X34360480Y-76432150D01*
X34370970Y-76454329D01*
X34379235Y-76477428D01*
X34385196Y-76501227D01*
X34388796Y-76525495D01*
X34390000Y-76549999D01*
X34390000Y-77450001D01*
X34388796Y-77474505D01*
X34385196Y-77498773D01*
X34379235Y-77522572D01*
X34370970Y-77545671D01*
X34360480Y-77567850D01*
X34347868Y-77588893D01*
X34333253Y-77608599D01*
X34316777Y-77626777D01*
X34298599Y-77643253D01*
X34278893Y-77657868D01*
X34257850Y-77670480D01*
X34235671Y-77680970D01*
X34212572Y-77689235D01*
X34188773Y-77695196D01*
X34164505Y-77698796D01*
X34140001Y-77700000D01*
X33489999Y-77700000D01*
X33465495Y-77698796D01*
X33441227Y-77695196D01*
X33417428Y-77689235D01*
X33394329Y-77680970D01*
X33372150Y-77670480D01*
X33351107Y-77657868D01*
X33331401Y-77643253D01*
X33313223Y-77626777D01*
X33296747Y-77608599D01*
X33282132Y-77588893D01*
X33269520Y-77567850D01*
X33259030Y-77545671D01*
X33250765Y-77522572D01*
X33244804Y-77498773D01*
X33241204Y-77474505D01*
X33240000Y-77450001D01*
X33240000Y-76549999D01*
X33241204Y-76525495D01*
X33244804Y-76501227D01*
X33250765Y-76477428D01*
X33259030Y-76454329D01*
X33269520Y-76432150D01*
X33282132Y-76411107D01*
X33296747Y-76391401D01*
X33313223Y-76373223D01*
X33331401Y-76356747D01*
X33351107Y-76342132D01*
X33372150Y-76329520D01*
X33394329Y-76319030D01*
X33417428Y-76310765D01*
X33441227Y-76304804D01*
X33465495Y-76301204D01*
X33489999Y-76300000D01*
X34140001Y-76300000D01*
X34164505Y-76301204D01*
G37*
G36*
X32114505Y-76301204D02*
G01*
X32138773Y-76304804D01*
X32162572Y-76310765D01*
X32185671Y-76319030D01*
X32207850Y-76329520D01*
X32228893Y-76342132D01*
X32248599Y-76356747D01*
X32266777Y-76373223D01*
X32283253Y-76391401D01*
X32297868Y-76411107D01*
X32310480Y-76432150D01*
X32320970Y-76454329D01*
X32329235Y-76477428D01*
X32335196Y-76501227D01*
X32338796Y-76525495D01*
X32340000Y-76549999D01*
X32340000Y-77450001D01*
X32338796Y-77474505D01*
X32335196Y-77498773D01*
X32329235Y-77522572D01*
X32320970Y-77545671D01*
X32310480Y-77567850D01*
X32297868Y-77588893D01*
X32283253Y-77608599D01*
X32266777Y-77626777D01*
X32248599Y-77643253D01*
X32228893Y-77657868D01*
X32207850Y-77670480D01*
X32185671Y-77680970D01*
X32162572Y-77689235D01*
X32138773Y-77695196D01*
X32114505Y-77698796D01*
X32090001Y-77700000D01*
X31439999Y-77700000D01*
X31415495Y-77698796D01*
X31391227Y-77695196D01*
X31367428Y-77689235D01*
X31344329Y-77680970D01*
X31322150Y-77670480D01*
X31301107Y-77657868D01*
X31281401Y-77643253D01*
X31263223Y-77626777D01*
X31246747Y-77608599D01*
X31232132Y-77588893D01*
X31219520Y-77567850D01*
X31209030Y-77545671D01*
X31200765Y-77522572D01*
X31194804Y-77498773D01*
X31191204Y-77474505D01*
X31190000Y-77450001D01*
X31190000Y-76549999D01*
X31191204Y-76525495D01*
X31194804Y-76501227D01*
X31200765Y-76477428D01*
X31209030Y-76454329D01*
X31219520Y-76432150D01*
X31232132Y-76411107D01*
X31246747Y-76391401D01*
X31263223Y-76373223D01*
X31281401Y-76356747D01*
X31301107Y-76342132D01*
X31322150Y-76329520D01*
X31344329Y-76319030D01*
X31367428Y-76310765D01*
X31391227Y-76304804D01*
X31415495Y-76301204D01*
X31439999Y-76300000D01*
X32090001Y-76300000D01*
X32114505Y-76301204D01*
G37*
G36*
X31994505Y-71711204D02*
G01*
X32018773Y-71714804D01*
X32042572Y-71720765D01*
X32065671Y-71729030D01*
X32087850Y-71739520D01*
X32108893Y-71752132D01*
X32128599Y-71766747D01*
X32146777Y-71783223D01*
X32163253Y-71801401D01*
X32177868Y-71821107D01*
X32190480Y-71842150D01*
X32200970Y-71864329D01*
X32209235Y-71887428D01*
X32215196Y-71911227D01*
X32218796Y-71935495D01*
X32220000Y-71959999D01*
X32220000Y-72860001D01*
X32218796Y-72884505D01*
X32215196Y-72908773D01*
X32209235Y-72932572D01*
X32200970Y-72955671D01*
X32190480Y-72977850D01*
X32177868Y-72998893D01*
X32163253Y-73018599D01*
X32146777Y-73036777D01*
X32128599Y-73053253D01*
X32108893Y-73067868D01*
X32087850Y-73080480D01*
X32065671Y-73090970D01*
X32042572Y-73099235D01*
X32018773Y-73105196D01*
X31994505Y-73108796D01*
X31970001Y-73110000D01*
X31319999Y-73110000D01*
X31295495Y-73108796D01*
X31271227Y-73105196D01*
X31247428Y-73099235D01*
X31224329Y-73090970D01*
X31202150Y-73080480D01*
X31181107Y-73067868D01*
X31161401Y-73053253D01*
X31143223Y-73036777D01*
X31126747Y-73018599D01*
X31112132Y-72998893D01*
X31099520Y-72977850D01*
X31089030Y-72955671D01*
X31080765Y-72932572D01*
X31074804Y-72908773D01*
X31071204Y-72884505D01*
X31070000Y-72860001D01*
X31070000Y-71959999D01*
X31071204Y-71935495D01*
X31074804Y-71911227D01*
X31080765Y-71887428D01*
X31089030Y-71864329D01*
X31099520Y-71842150D01*
X31112132Y-71821107D01*
X31126747Y-71801401D01*
X31143223Y-71783223D01*
X31161401Y-71766747D01*
X31181107Y-71752132D01*
X31202150Y-71739520D01*
X31224329Y-71729030D01*
X31247428Y-71720765D01*
X31271227Y-71714804D01*
X31295495Y-71711204D01*
X31319999Y-71710000D01*
X31970001Y-71710000D01*
X31994505Y-71711204D01*
G37*
G36*
X34044505Y-71711204D02*
G01*
X34068773Y-71714804D01*
X34092572Y-71720765D01*
X34115671Y-71729030D01*
X34137850Y-71739520D01*
X34158893Y-71752132D01*
X34178599Y-71766747D01*
X34196777Y-71783223D01*
X34213253Y-71801401D01*
X34227868Y-71821107D01*
X34240480Y-71842150D01*
X34250970Y-71864329D01*
X34259235Y-71887428D01*
X34265196Y-71911227D01*
X34268796Y-71935495D01*
X34270000Y-71959999D01*
X34270000Y-72860001D01*
X34268796Y-72884505D01*
X34265196Y-72908773D01*
X34259235Y-72932572D01*
X34250970Y-72955671D01*
X34240480Y-72977850D01*
X34227868Y-72998893D01*
X34213253Y-73018599D01*
X34196777Y-73036777D01*
X34178599Y-73053253D01*
X34158893Y-73067868D01*
X34137850Y-73080480D01*
X34115671Y-73090970D01*
X34092572Y-73099235D01*
X34068773Y-73105196D01*
X34044505Y-73108796D01*
X34020001Y-73110000D01*
X33369999Y-73110000D01*
X33345495Y-73108796D01*
X33321227Y-73105196D01*
X33297428Y-73099235D01*
X33274329Y-73090970D01*
X33252150Y-73080480D01*
X33231107Y-73067868D01*
X33211401Y-73053253D01*
X33193223Y-73036777D01*
X33176747Y-73018599D01*
X33162132Y-72998893D01*
X33149520Y-72977850D01*
X33139030Y-72955671D01*
X33130765Y-72932572D01*
X33124804Y-72908773D01*
X33121204Y-72884505D01*
X33120000Y-72860001D01*
X33120000Y-71959999D01*
X33121204Y-71935495D01*
X33124804Y-71911227D01*
X33130765Y-71887428D01*
X33139030Y-71864329D01*
X33149520Y-71842150D01*
X33162132Y-71821107D01*
X33176747Y-71801401D01*
X33193223Y-71783223D01*
X33211401Y-71766747D01*
X33231107Y-71752132D01*
X33252150Y-71739520D01*
X33274329Y-71729030D01*
X33297428Y-71720765D01*
X33321227Y-71714804D01*
X33345495Y-71711204D01*
X33369999Y-71710000D01*
X34020001Y-71710000D01*
X34044505Y-71711204D01*
G37*
G36*
X31874505Y-67121204D02*
G01*
X31898773Y-67124804D01*
X31922572Y-67130765D01*
X31945671Y-67139030D01*
X31967850Y-67149520D01*
X31988893Y-67162132D01*
X32008599Y-67176747D01*
X32026777Y-67193223D01*
X32043253Y-67211401D01*
X32057868Y-67231107D01*
X32070480Y-67252150D01*
X32080970Y-67274329D01*
X32089235Y-67297428D01*
X32095196Y-67321227D01*
X32098796Y-67345495D01*
X32100000Y-67369999D01*
X32100000Y-68270001D01*
X32098796Y-68294505D01*
X32095196Y-68318773D01*
X32089235Y-68342572D01*
X32080970Y-68365671D01*
X32070480Y-68387850D01*
X32057868Y-68408893D01*
X32043253Y-68428599D01*
X32026777Y-68446777D01*
X32008599Y-68463253D01*
X31988893Y-68477868D01*
X31967850Y-68490480D01*
X31945671Y-68500970D01*
X31922572Y-68509235D01*
X31898773Y-68515196D01*
X31874505Y-68518796D01*
X31850001Y-68520000D01*
X31199999Y-68520000D01*
X31175495Y-68518796D01*
X31151227Y-68515196D01*
X31127428Y-68509235D01*
X31104329Y-68500970D01*
X31082150Y-68490480D01*
X31061107Y-68477868D01*
X31041401Y-68463253D01*
X31023223Y-68446777D01*
X31006747Y-68428599D01*
X30992132Y-68408893D01*
X30979520Y-68387850D01*
X30969030Y-68365671D01*
X30960765Y-68342572D01*
X30954804Y-68318773D01*
X30951204Y-68294505D01*
X30950000Y-68270001D01*
X30950000Y-67369999D01*
X30951204Y-67345495D01*
X30954804Y-67321227D01*
X30960765Y-67297428D01*
X30969030Y-67274329D01*
X30979520Y-67252150D01*
X30992132Y-67231107D01*
X31006747Y-67211401D01*
X31023223Y-67193223D01*
X31041401Y-67176747D01*
X31061107Y-67162132D01*
X31082150Y-67149520D01*
X31104329Y-67139030D01*
X31127428Y-67130765D01*
X31151227Y-67124804D01*
X31175495Y-67121204D01*
X31199999Y-67120000D01*
X31850001Y-67120000D01*
X31874505Y-67121204D01*
G37*
G36*
X33924505Y-67121204D02*
G01*
X33948773Y-67124804D01*
X33972572Y-67130765D01*
X33995671Y-67139030D01*
X34017850Y-67149520D01*
X34038893Y-67162132D01*
X34058599Y-67176747D01*
X34076777Y-67193223D01*
X34093253Y-67211401D01*
X34107868Y-67231107D01*
X34120480Y-67252150D01*
X34130970Y-67274329D01*
X34139235Y-67297428D01*
X34145196Y-67321227D01*
X34148796Y-67345495D01*
X34150000Y-67369999D01*
X34150000Y-68270001D01*
X34148796Y-68294505D01*
X34145196Y-68318773D01*
X34139235Y-68342572D01*
X34130970Y-68365671D01*
X34120480Y-68387850D01*
X34107868Y-68408893D01*
X34093253Y-68428599D01*
X34076777Y-68446777D01*
X34058599Y-68463253D01*
X34038893Y-68477868D01*
X34017850Y-68490480D01*
X33995671Y-68500970D01*
X33972572Y-68509235D01*
X33948773Y-68515196D01*
X33924505Y-68518796D01*
X33900001Y-68520000D01*
X33249999Y-68520000D01*
X33225495Y-68518796D01*
X33201227Y-68515196D01*
X33177428Y-68509235D01*
X33154329Y-68500970D01*
X33132150Y-68490480D01*
X33111107Y-68477868D01*
X33091401Y-68463253D01*
X33073223Y-68446777D01*
X33056747Y-68428599D01*
X33042132Y-68408893D01*
X33029520Y-68387850D01*
X33019030Y-68365671D01*
X33010765Y-68342572D01*
X33004804Y-68318773D01*
X33001204Y-68294505D01*
X33000000Y-68270001D01*
X33000000Y-67369999D01*
X33001204Y-67345495D01*
X33004804Y-67321227D01*
X33010765Y-67297428D01*
X33019030Y-67274329D01*
X33029520Y-67252150D01*
X33042132Y-67231107D01*
X33056747Y-67211401D01*
X33073223Y-67193223D01*
X33091401Y-67176747D01*
X33111107Y-67162132D01*
X33132150Y-67149520D01*
X33154329Y-67139030D01*
X33177428Y-67130765D01*
X33201227Y-67124804D01*
X33225495Y-67121204D01*
X33249999Y-67120000D01*
X33900001Y-67120000D01*
X33924505Y-67121204D01*
G37*
G36*
X43609505Y-75081204D02*
G01*
X43633773Y-75084804D01*
X43657572Y-75090765D01*
X43680671Y-75099030D01*
X43702850Y-75109520D01*
X43723893Y-75122132D01*
X43743599Y-75136747D01*
X43761777Y-75153223D01*
X43778253Y-75171401D01*
X43792868Y-75191107D01*
X43805480Y-75212150D01*
X43815970Y-75234329D01*
X43824235Y-75257428D01*
X43830196Y-75281227D01*
X43833796Y-75305495D01*
X43835000Y-75329999D01*
X43835000Y-75980001D01*
X43833796Y-76004505D01*
X43830196Y-76028773D01*
X43824235Y-76052572D01*
X43815970Y-76075671D01*
X43805480Y-76097850D01*
X43792868Y-76118893D01*
X43778253Y-76138599D01*
X43761777Y-76156777D01*
X43743599Y-76173253D01*
X43723893Y-76187868D01*
X43702850Y-76200480D01*
X43680671Y-76210970D01*
X43657572Y-76219235D01*
X43633773Y-76225196D01*
X43609505Y-76228796D01*
X43585001Y-76230000D01*
X42684999Y-76230000D01*
X42660495Y-76228796D01*
X42636227Y-76225196D01*
X42612428Y-76219235D01*
X42589329Y-76210970D01*
X42567150Y-76200480D01*
X42546107Y-76187868D01*
X42526401Y-76173253D01*
X42508223Y-76156777D01*
X42491747Y-76138599D01*
X42477132Y-76118893D01*
X42464520Y-76097850D01*
X42454030Y-76075671D01*
X42445765Y-76052572D01*
X42439804Y-76028773D01*
X42436204Y-76004505D01*
X42435000Y-75980001D01*
X42435000Y-75329999D01*
X42436204Y-75305495D01*
X42439804Y-75281227D01*
X42445765Y-75257428D01*
X42454030Y-75234329D01*
X42464520Y-75212150D01*
X42477132Y-75191107D01*
X42491747Y-75171401D01*
X42508223Y-75153223D01*
X42526401Y-75136747D01*
X42546107Y-75122132D01*
X42567150Y-75109520D01*
X42589329Y-75099030D01*
X42612428Y-75090765D01*
X42636227Y-75084804D01*
X42660495Y-75081204D01*
X42684999Y-75080000D01*
X43585001Y-75080000D01*
X43609505Y-75081204D01*
G37*
G36*
X43609505Y-77131204D02*
G01*
X43633773Y-77134804D01*
X43657572Y-77140765D01*
X43680671Y-77149030D01*
X43702850Y-77159520D01*
X43723893Y-77172132D01*
X43743599Y-77186747D01*
X43761777Y-77203223D01*
X43778253Y-77221401D01*
X43792868Y-77241107D01*
X43805480Y-77262150D01*
X43815970Y-77284329D01*
X43824235Y-77307428D01*
X43830196Y-77331227D01*
X43833796Y-77355495D01*
X43835000Y-77379999D01*
X43835000Y-78030001D01*
X43833796Y-78054505D01*
X43830196Y-78078773D01*
X43824235Y-78102572D01*
X43815970Y-78125671D01*
X43805480Y-78147850D01*
X43792868Y-78168893D01*
X43778253Y-78188599D01*
X43761777Y-78206777D01*
X43743599Y-78223253D01*
X43723893Y-78237868D01*
X43702850Y-78250480D01*
X43680671Y-78260970D01*
X43657572Y-78269235D01*
X43633773Y-78275196D01*
X43609505Y-78278796D01*
X43585001Y-78280000D01*
X42684999Y-78280000D01*
X42660495Y-78278796D01*
X42636227Y-78275196D01*
X42612428Y-78269235D01*
X42589329Y-78260970D01*
X42567150Y-78250480D01*
X42546107Y-78237868D01*
X42526401Y-78223253D01*
X42508223Y-78206777D01*
X42491747Y-78188599D01*
X42477132Y-78168893D01*
X42464520Y-78147850D01*
X42454030Y-78125671D01*
X42445765Y-78102572D01*
X42439804Y-78078773D01*
X42436204Y-78054505D01*
X42435000Y-78030001D01*
X42435000Y-77379999D01*
X42436204Y-77355495D01*
X42439804Y-77331227D01*
X42445765Y-77307428D01*
X42454030Y-77284329D01*
X42464520Y-77262150D01*
X42477132Y-77241107D01*
X42491747Y-77221401D01*
X42508223Y-77203223D01*
X42526401Y-77186747D01*
X42546107Y-77172132D01*
X42567150Y-77159520D01*
X42589329Y-77149030D01*
X42612428Y-77140765D01*
X42636227Y-77134804D01*
X42660495Y-77131204D01*
X42684999Y-77130000D01*
X43585001Y-77130000D01*
X43609505Y-77131204D01*
G37*
G36*
X47324505Y-75901204D02*
G01*
X47348773Y-75904804D01*
X47372572Y-75910765D01*
X47395671Y-75919030D01*
X47417850Y-75929520D01*
X47438893Y-75942132D01*
X47458599Y-75956747D01*
X47476777Y-75973223D01*
X47493253Y-75991401D01*
X47507868Y-76011107D01*
X47520480Y-76032150D01*
X47530970Y-76054329D01*
X47539235Y-76077428D01*
X47545196Y-76101227D01*
X47548796Y-76125495D01*
X47550000Y-76149999D01*
X47550000Y-77050001D01*
X47548796Y-77074505D01*
X47545196Y-77098773D01*
X47539235Y-77122572D01*
X47530970Y-77145671D01*
X47520480Y-77167850D01*
X47507868Y-77188893D01*
X47493253Y-77208599D01*
X47476777Y-77226777D01*
X47458599Y-77243253D01*
X47438893Y-77257868D01*
X47417850Y-77270480D01*
X47395671Y-77280970D01*
X47372572Y-77289235D01*
X47348773Y-77295196D01*
X47324505Y-77298796D01*
X47300001Y-77300000D01*
X46649999Y-77300000D01*
X46625495Y-77298796D01*
X46601227Y-77295196D01*
X46577428Y-77289235D01*
X46554329Y-77280970D01*
X46532150Y-77270480D01*
X46511107Y-77257868D01*
X46491401Y-77243253D01*
X46473223Y-77226777D01*
X46456747Y-77208599D01*
X46442132Y-77188893D01*
X46429520Y-77167850D01*
X46419030Y-77145671D01*
X46410765Y-77122572D01*
X46404804Y-77098773D01*
X46401204Y-77074505D01*
X46400000Y-77050001D01*
X46400000Y-76149999D01*
X46401204Y-76125495D01*
X46404804Y-76101227D01*
X46410765Y-76077428D01*
X46419030Y-76054329D01*
X46429520Y-76032150D01*
X46442132Y-76011107D01*
X46456747Y-75991401D01*
X46473223Y-75973223D01*
X46491401Y-75956747D01*
X46511107Y-75942132D01*
X46532150Y-75929520D01*
X46554329Y-75919030D01*
X46577428Y-75910765D01*
X46601227Y-75904804D01*
X46625495Y-75901204D01*
X46649999Y-75900000D01*
X47300001Y-75900000D01*
X47324505Y-75901204D01*
G37*
G36*
X49374505Y-75901204D02*
G01*
X49398773Y-75904804D01*
X49422572Y-75910765D01*
X49445671Y-75919030D01*
X49467850Y-75929520D01*
X49488893Y-75942132D01*
X49508599Y-75956747D01*
X49526777Y-75973223D01*
X49543253Y-75991401D01*
X49557868Y-76011107D01*
X49570480Y-76032150D01*
X49580970Y-76054329D01*
X49589235Y-76077428D01*
X49595196Y-76101227D01*
X49598796Y-76125495D01*
X49600000Y-76149999D01*
X49600000Y-77050001D01*
X49598796Y-77074505D01*
X49595196Y-77098773D01*
X49589235Y-77122572D01*
X49580970Y-77145671D01*
X49570480Y-77167850D01*
X49557868Y-77188893D01*
X49543253Y-77208599D01*
X49526777Y-77226777D01*
X49508599Y-77243253D01*
X49488893Y-77257868D01*
X49467850Y-77270480D01*
X49445671Y-77280970D01*
X49422572Y-77289235D01*
X49398773Y-77295196D01*
X49374505Y-77298796D01*
X49350001Y-77300000D01*
X48699999Y-77300000D01*
X48675495Y-77298796D01*
X48651227Y-77295196D01*
X48627428Y-77289235D01*
X48604329Y-77280970D01*
X48582150Y-77270480D01*
X48561107Y-77257868D01*
X48541401Y-77243253D01*
X48523223Y-77226777D01*
X48506747Y-77208599D01*
X48492132Y-77188893D01*
X48479520Y-77167850D01*
X48469030Y-77145671D01*
X48460765Y-77122572D01*
X48454804Y-77098773D01*
X48451204Y-77074505D01*
X48450000Y-77050001D01*
X48450000Y-76149999D01*
X48451204Y-76125495D01*
X48454804Y-76101227D01*
X48460765Y-76077428D01*
X48469030Y-76054329D01*
X48479520Y-76032150D01*
X48492132Y-76011107D01*
X48506747Y-75991401D01*
X48523223Y-75973223D01*
X48541401Y-75956747D01*
X48561107Y-75942132D01*
X48582150Y-75929520D01*
X48604329Y-75919030D01*
X48627428Y-75910765D01*
X48651227Y-75904804D01*
X48675495Y-75901204D01*
X48699999Y-75900000D01*
X49350001Y-75900000D01*
X49374505Y-75901204D01*
G37*
G36*
X43634505Y-70521204D02*
G01*
X43658773Y-70524804D01*
X43682572Y-70530765D01*
X43705671Y-70539030D01*
X43727850Y-70549520D01*
X43748893Y-70562132D01*
X43768599Y-70576747D01*
X43786777Y-70593223D01*
X43803253Y-70611401D01*
X43817868Y-70631107D01*
X43830480Y-70652150D01*
X43840970Y-70674329D01*
X43849235Y-70697428D01*
X43855196Y-70721227D01*
X43858796Y-70745495D01*
X43860000Y-70769999D01*
X43860000Y-71420001D01*
X43858796Y-71444505D01*
X43855196Y-71468773D01*
X43849235Y-71492572D01*
X43840970Y-71515671D01*
X43830480Y-71537850D01*
X43817868Y-71558893D01*
X43803253Y-71578599D01*
X43786777Y-71596777D01*
X43768599Y-71613253D01*
X43748893Y-71627868D01*
X43727850Y-71640480D01*
X43705671Y-71650970D01*
X43682572Y-71659235D01*
X43658773Y-71665196D01*
X43634505Y-71668796D01*
X43610001Y-71670000D01*
X42709999Y-71670000D01*
X42685495Y-71668796D01*
X42661227Y-71665196D01*
X42637428Y-71659235D01*
X42614329Y-71650970D01*
X42592150Y-71640480D01*
X42571107Y-71627868D01*
X42551401Y-71613253D01*
X42533223Y-71596777D01*
X42516747Y-71578599D01*
X42502132Y-71558893D01*
X42489520Y-71537850D01*
X42479030Y-71515671D01*
X42470765Y-71492572D01*
X42464804Y-71468773D01*
X42461204Y-71444505D01*
X42460000Y-71420001D01*
X42460000Y-70769999D01*
X42461204Y-70745495D01*
X42464804Y-70721227D01*
X42470765Y-70697428D01*
X42479030Y-70674329D01*
X42489520Y-70652150D01*
X42502132Y-70631107D01*
X42516747Y-70611401D01*
X42533223Y-70593223D01*
X42551401Y-70576747D01*
X42571107Y-70562132D01*
X42592150Y-70549520D01*
X42614329Y-70539030D01*
X42637428Y-70530765D01*
X42661227Y-70524804D01*
X42685495Y-70521204D01*
X42709999Y-70520000D01*
X43610001Y-70520000D01*
X43634505Y-70521204D01*
G37*
G36*
X43634505Y-72571204D02*
G01*
X43658773Y-72574804D01*
X43682572Y-72580765D01*
X43705671Y-72589030D01*
X43727850Y-72599520D01*
X43748893Y-72612132D01*
X43768599Y-72626747D01*
X43786777Y-72643223D01*
X43803253Y-72661401D01*
X43817868Y-72681107D01*
X43830480Y-72702150D01*
X43840970Y-72724329D01*
X43849235Y-72747428D01*
X43855196Y-72771227D01*
X43858796Y-72795495D01*
X43860000Y-72819999D01*
X43860000Y-73470001D01*
X43858796Y-73494505D01*
X43855196Y-73518773D01*
X43849235Y-73542572D01*
X43840970Y-73565671D01*
X43830480Y-73587850D01*
X43817868Y-73608893D01*
X43803253Y-73628599D01*
X43786777Y-73646777D01*
X43768599Y-73663253D01*
X43748893Y-73677868D01*
X43727850Y-73690480D01*
X43705671Y-73700970D01*
X43682572Y-73709235D01*
X43658773Y-73715196D01*
X43634505Y-73718796D01*
X43610001Y-73720000D01*
X42709999Y-73720000D01*
X42685495Y-73718796D01*
X42661227Y-73715196D01*
X42637428Y-73709235D01*
X42614329Y-73700970D01*
X42592150Y-73690480D01*
X42571107Y-73677868D01*
X42551401Y-73663253D01*
X42533223Y-73646777D01*
X42516747Y-73628599D01*
X42502132Y-73608893D01*
X42489520Y-73587850D01*
X42479030Y-73565671D01*
X42470765Y-73542572D01*
X42464804Y-73518773D01*
X42461204Y-73494505D01*
X42460000Y-73470001D01*
X42460000Y-72819999D01*
X42461204Y-72795495D01*
X42464804Y-72771227D01*
X42470765Y-72747428D01*
X42479030Y-72724329D01*
X42489520Y-72702150D01*
X42502132Y-72681107D01*
X42516747Y-72661401D01*
X42533223Y-72643223D01*
X42551401Y-72626747D01*
X42571107Y-72612132D01*
X42592150Y-72599520D01*
X42614329Y-72589030D01*
X42637428Y-72580765D01*
X42661227Y-72574804D01*
X42685495Y-72571204D01*
X42709999Y-72570000D01*
X43610001Y-72570000D01*
X43634505Y-72571204D01*
G37*
G36*
X47324505Y-71601204D02*
G01*
X47348773Y-71604804D01*
X47372572Y-71610765D01*
X47395671Y-71619030D01*
X47417850Y-71629520D01*
X47438893Y-71642132D01*
X47458599Y-71656747D01*
X47476777Y-71673223D01*
X47493253Y-71691401D01*
X47507868Y-71711107D01*
X47520480Y-71732150D01*
X47530970Y-71754329D01*
X47539235Y-71777428D01*
X47545196Y-71801227D01*
X47548796Y-71825495D01*
X47550000Y-71849999D01*
X47550000Y-72750001D01*
X47548796Y-72774505D01*
X47545196Y-72798773D01*
X47539235Y-72822572D01*
X47530970Y-72845671D01*
X47520480Y-72867850D01*
X47507868Y-72888893D01*
X47493253Y-72908599D01*
X47476777Y-72926777D01*
X47458599Y-72943253D01*
X47438893Y-72957868D01*
X47417850Y-72970480D01*
X47395671Y-72980970D01*
X47372572Y-72989235D01*
X47348773Y-72995196D01*
X47324505Y-72998796D01*
X47300001Y-73000000D01*
X46649999Y-73000000D01*
X46625495Y-72998796D01*
X46601227Y-72995196D01*
X46577428Y-72989235D01*
X46554329Y-72980970D01*
X46532150Y-72970480D01*
X46511107Y-72957868D01*
X46491401Y-72943253D01*
X46473223Y-72926777D01*
X46456747Y-72908599D01*
X46442132Y-72888893D01*
X46429520Y-72867850D01*
X46419030Y-72845671D01*
X46410765Y-72822572D01*
X46404804Y-72798773D01*
X46401204Y-72774505D01*
X46400000Y-72750001D01*
X46400000Y-71849999D01*
X46401204Y-71825495D01*
X46404804Y-71801227D01*
X46410765Y-71777428D01*
X46419030Y-71754329D01*
X46429520Y-71732150D01*
X46442132Y-71711107D01*
X46456747Y-71691401D01*
X46473223Y-71673223D01*
X46491401Y-71656747D01*
X46511107Y-71642132D01*
X46532150Y-71629520D01*
X46554329Y-71619030D01*
X46577428Y-71610765D01*
X46601227Y-71604804D01*
X46625495Y-71601204D01*
X46649999Y-71600000D01*
X47300001Y-71600000D01*
X47324505Y-71601204D01*
G37*
G36*
X49374505Y-71601204D02*
G01*
X49398773Y-71604804D01*
X49422572Y-71610765D01*
X49445671Y-71619030D01*
X49467850Y-71629520D01*
X49488893Y-71642132D01*
X49508599Y-71656747D01*
X49526777Y-71673223D01*
X49543253Y-71691401D01*
X49557868Y-71711107D01*
X49570480Y-71732150D01*
X49580970Y-71754329D01*
X49589235Y-71777428D01*
X49595196Y-71801227D01*
X49598796Y-71825495D01*
X49600000Y-71849999D01*
X49600000Y-72750001D01*
X49598796Y-72774505D01*
X49595196Y-72798773D01*
X49589235Y-72822572D01*
X49580970Y-72845671D01*
X49570480Y-72867850D01*
X49557868Y-72888893D01*
X49543253Y-72908599D01*
X49526777Y-72926777D01*
X49508599Y-72943253D01*
X49488893Y-72957868D01*
X49467850Y-72970480D01*
X49445671Y-72980970D01*
X49422572Y-72989235D01*
X49398773Y-72995196D01*
X49374505Y-72998796D01*
X49350001Y-73000000D01*
X48699999Y-73000000D01*
X48675495Y-72998796D01*
X48651227Y-72995196D01*
X48627428Y-72989235D01*
X48604329Y-72980970D01*
X48582150Y-72970480D01*
X48561107Y-72957868D01*
X48541401Y-72943253D01*
X48523223Y-72926777D01*
X48506747Y-72908599D01*
X48492132Y-72888893D01*
X48479520Y-72867850D01*
X48469030Y-72845671D01*
X48460765Y-72822572D01*
X48454804Y-72798773D01*
X48451204Y-72774505D01*
X48450000Y-72750001D01*
X48450000Y-71849999D01*
X48451204Y-71825495D01*
X48454804Y-71801227D01*
X48460765Y-71777428D01*
X48469030Y-71754329D01*
X48479520Y-71732150D01*
X48492132Y-71711107D01*
X48506747Y-71691401D01*
X48523223Y-71673223D01*
X48541401Y-71656747D01*
X48561107Y-71642132D01*
X48582150Y-71629520D01*
X48604329Y-71619030D01*
X48627428Y-71610765D01*
X48651227Y-71604804D01*
X48675495Y-71601204D01*
X48699999Y-71600000D01*
X49350001Y-71600000D01*
X49374505Y-71601204D01*
G37*
G36*
X43584505Y-68051204D02*
G01*
X43608773Y-68054804D01*
X43632572Y-68060765D01*
X43655671Y-68069030D01*
X43677850Y-68079520D01*
X43698893Y-68092132D01*
X43718599Y-68106747D01*
X43736777Y-68123223D01*
X43753253Y-68141401D01*
X43767868Y-68161107D01*
X43780480Y-68182150D01*
X43790970Y-68204329D01*
X43799235Y-68227428D01*
X43805196Y-68251227D01*
X43808796Y-68275495D01*
X43810000Y-68299999D01*
X43810000Y-68950001D01*
X43808796Y-68974505D01*
X43805196Y-68998773D01*
X43799235Y-69022572D01*
X43790970Y-69045671D01*
X43780480Y-69067850D01*
X43767868Y-69088893D01*
X43753253Y-69108599D01*
X43736777Y-69126777D01*
X43718599Y-69143253D01*
X43698893Y-69157868D01*
X43677850Y-69170480D01*
X43655671Y-69180970D01*
X43632572Y-69189235D01*
X43608773Y-69195196D01*
X43584505Y-69198796D01*
X43560001Y-69200000D01*
X42659999Y-69200000D01*
X42635495Y-69198796D01*
X42611227Y-69195196D01*
X42587428Y-69189235D01*
X42564329Y-69180970D01*
X42542150Y-69170480D01*
X42521107Y-69157868D01*
X42501401Y-69143253D01*
X42483223Y-69126777D01*
X42466747Y-69108599D01*
X42452132Y-69088893D01*
X42439520Y-69067850D01*
X42429030Y-69045671D01*
X42420765Y-69022572D01*
X42414804Y-68998773D01*
X42411204Y-68974505D01*
X42410000Y-68950001D01*
X42410000Y-68299999D01*
X42411204Y-68275495D01*
X42414804Y-68251227D01*
X42420765Y-68227428D01*
X42429030Y-68204329D01*
X42439520Y-68182150D01*
X42452132Y-68161107D01*
X42466747Y-68141401D01*
X42483223Y-68123223D01*
X42501401Y-68106747D01*
X42521107Y-68092132D01*
X42542150Y-68079520D01*
X42564329Y-68069030D01*
X42587428Y-68060765D01*
X42611227Y-68054804D01*
X42635495Y-68051204D01*
X42659999Y-68050000D01*
X43560001Y-68050000D01*
X43584505Y-68051204D01*
G37*
G36*
X43584505Y-66001204D02*
G01*
X43608773Y-66004804D01*
X43632572Y-66010765D01*
X43655671Y-66019030D01*
X43677850Y-66029520D01*
X43698893Y-66042132D01*
X43718599Y-66056747D01*
X43736777Y-66073223D01*
X43753253Y-66091401D01*
X43767868Y-66111107D01*
X43780480Y-66132150D01*
X43790970Y-66154329D01*
X43799235Y-66177428D01*
X43805196Y-66201227D01*
X43808796Y-66225495D01*
X43810000Y-66249999D01*
X43810000Y-66900001D01*
X43808796Y-66924505D01*
X43805196Y-66948773D01*
X43799235Y-66972572D01*
X43790970Y-66995671D01*
X43780480Y-67017850D01*
X43767868Y-67038893D01*
X43753253Y-67058599D01*
X43736777Y-67076777D01*
X43718599Y-67093253D01*
X43698893Y-67107868D01*
X43677850Y-67120480D01*
X43655671Y-67130970D01*
X43632572Y-67139235D01*
X43608773Y-67145196D01*
X43584505Y-67148796D01*
X43560001Y-67150000D01*
X42659999Y-67150000D01*
X42635495Y-67148796D01*
X42611227Y-67145196D01*
X42587428Y-67139235D01*
X42564329Y-67130970D01*
X42542150Y-67120480D01*
X42521107Y-67107868D01*
X42501401Y-67093253D01*
X42483223Y-67076777D01*
X42466747Y-67058599D01*
X42452132Y-67038893D01*
X42439520Y-67017850D01*
X42429030Y-66995671D01*
X42420765Y-66972572D01*
X42414804Y-66948773D01*
X42411204Y-66924505D01*
X42410000Y-66900001D01*
X42410000Y-66249999D01*
X42411204Y-66225495D01*
X42414804Y-66201227D01*
X42420765Y-66177428D01*
X42429030Y-66154329D01*
X42439520Y-66132150D01*
X42452132Y-66111107D01*
X42466747Y-66091401D01*
X42483223Y-66073223D01*
X42501401Y-66056747D01*
X42521107Y-66042132D01*
X42542150Y-66029520D01*
X42564329Y-66019030D01*
X42587428Y-66010765D01*
X42611227Y-66004804D01*
X42635495Y-66001204D01*
X42659999Y-66000000D01*
X43560001Y-66000000D01*
X43584505Y-66001204D01*
G37*
G36*
X47224505Y-67001204D02*
G01*
X47248773Y-67004804D01*
X47272572Y-67010765D01*
X47295671Y-67019030D01*
X47317850Y-67029520D01*
X47338893Y-67042132D01*
X47358599Y-67056747D01*
X47376777Y-67073223D01*
X47393253Y-67091401D01*
X47407868Y-67111107D01*
X47420480Y-67132150D01*
X47430970Y-67154329D01*
X47439235Y-67177428D01*
X47445196Y-67201227D01*
X47448796Y-67225495D01*
X47450000Y-67249999D01*
X47450000Y-68150001D01*
X47448796Y-68174505D01*
X47445196Y-68198773D01*
X47439235Y-68222572D01*
X47430970Y-68245671D01*
X47420480Y-68267850D01*
X47407868Y-68288893D01*
X47393253Y-68308599D01*
X47376777Y-68326777D01*
X47358599Y-68343253D01*
X47338893Y-68357868D01*
X47317850Y-68370480D01*
X47295671Y-68380970D01*
X47272572Y-68389235D01*
X47248773Y-68395196D01*
X47224505Y-68398796D01*
X47200001Y-68400000D01*
X46549999Y-68400000D01*
X46525495Y-68398796D01*
X46501227Y-68395196D01*
X46477428Y-68389235D01*
X46454329Y-68380970D01*
X46432150Y-68370480D01*
X46411107Y-68357868D01*
X46391401Y-68343253D01*
X46373223Y-68326777D01*
X46356747Y-68308599D01*
X46342132Y-68288893D01*
X46329520Y-68267850D01*
X46319030Y-68245671D01*
X46310765Y-68222572D01*
X46304804Y-68198773D01*
X46301204Y-68174505D01*
X46300000Y-68150001D01*
X46300000Y-67249999D01*
X46301204Y-67225495D01*
X46304804Y-67201227D01*
X46310765Y-67177428D01*
X46319030Y-67154329D01*
X46329520Y-67132150D01*
X46342132Y-67111107D01*
X46356747Y-67091401D01*
X46373223Y-67073223D01*
X46391401Y-67056747D01*
X46411107Y-67042132D01*
X46432150Y-67029520D01*
X46454329Y-67019030D01*
X46477428Y-67010765D01*
X46501227Y-67004804D01*
X46525495Y-67001204D01*
X46549999Y-67000000D01*
X47200001Y-67000000D01*
X47224505Y-67001204D01*
G37*
G36*
X49274505Y-67001204D02*
G01*
X49298773Y-67004804D01*
X49322572Y-67010765D01*
X49345671Y-67019030D01*
X49367850Y-67029520D01*
X49388893Y-67042132D01*
X49408599Y-67056747D01*
X49426777Y-67073223D01*
X49443253Y-67091401D01*
X49457868Y-67111107D01*
X49470480Y-67132150D01*
X49480970Y-67154329D01*
X49489235Y-67177428D01*
X49495196Y-67201227D01*
X49498796Y-67225495D01*
X49500000Y-67249999D01*
X49500000Y-68150001D01*
X49498796Y-68174505D01*
X49495196Y-68198773D01*
X49489235Y-68222572D01*
X49480970Y-68245671D01*
X49470480Y-68267850D01*
X49457868Y-68288893D01*
X49443253Y-68308599D01*
X49426777Y-68326777D01*
X49408599Y-68343253D01*
X49388893Y-68357868D01*
X49367850Y-68370480D01*
X49345671Y-68380970D01*
X49322572Y-68389235D01*
X49298773Y-68395196D01*
X49274505Y-68398796D01*
X49250001Y-68400000D01*
X48599999Y-68400000D01*
X48575495Y-68398796D01*
X48551227Y-68395196D01*
X48527428Y-68389235D01*
X48504329Y-68380970D01*
X48482150Y-68370480D01*
X48461107Y-68357868D01*
X48441401Y-68343253D01*
X48423223Y-68326777D01*
X48406747Y-68308599D01*
X48392132Y-68288893D01*
X48379520Y-68267850D01*
X48369030Y-68245671D01*
X48360765Y-68222572D01*
X48354804Y-68198773D01*
X48351204Y-68174505D01*
X48350000Y-68150001D01*
X48350000Y-67249999D01*
X48351204Y-67225495D01*
X48354804Y-67201227D01*
X48360765Y-67177428D01*
X48369030Y-67154329D01*
X48379520Y-67132150D01*
X48392132Y-67111107D01*
X48406747Y-67091401D01*
X48423223Y-67073223D01*
X48441401Y-67056747D01*
X48461107Y-67042132D01*
X48482150Y-67029520D01*
X48504329Y-67019030D01*
X48527428Y-67010765D01*
X48551227Y-67004804D01*
X48575495Y-67001204D01*
X48599999Y-67000000D01*
X49250001Y-67000000D01*
X49274505Y-67001204D01*
G37*
D14*
X37210000Y-76980000D03*
X39210000Y-76030000D03*
X39210000Y-77930000D03*
X37300000Y-72320000D03*
X39300000Y-71370000D03*
X39300000Y-73270000D03*
X37310000Y-67750000D03*
X39310000Y-66800000D03*
X39310000Y-68700000D03*
D15*
X26950000Y-75937000D03*
X26950000Y-73778000D03*
X26950000Y-71619000D03*
D16*
X26950000Y-69460000D03*
D17*
X31030000Y-24764800D03*
X32300000Y-24764800D03*
X33570000Y-24764800D03*
X34840000Y-24764800D03*
X36110000Y-24764800D03*
X37380000Y-24764800D03*
X38650000Y-24768500D03*
D18*
X40785000Y-28315000D03*
X40785000Y-29585000D03*
X40785000Y-30855000D03*
X40785000Y-32125000D03*
X40785000Y-33395000D03*
X40785000Y-34665000D03*
X40785000Y-35935000D03*
X40785000Y-37205000D03*
X40785000Y-38475000D03*
X40785000Y-39745000D03*
D17*
X38650000Y-43201000D03*
X37380000Y-43201000D03*
X36110000Y-43201000D03*
X34840000Y-43201000D03*
X33570000Y-43201000D03*
X32300000Y-43201000D03*
X31030000Y-43201000D03*
D19*
X28730000Y-52780000D03*
X28030000Y-52780000D03*
X27330000Y-52780000D03*
X27330000Y-50580000D03*
X28030000Y-50580000D03*
X28730000Y-50580000D03*
D20*
X29580000Y-52780000D03*
X26480000Y-52780000D03*
X26480000Y-50580000D03*
X29580000Y-50580000D03*
D13*
G36*
X24654505Y-52156204D02*
G01*
X24678773Y-52159804D01*
X24702572Y-52165765D01*
X24725671Y-52174030D01*
X24747850Y-52184520D01*
X24768893Y-52197132D01*
X24788599Y-52211747D01*
X24806777Y-52228223D01*
X24823253Y-52246401D01*
X24837868Y-52266107D01*
X24850480Y-52287150D01*
X24860970Y-52309329D01*
X24869235Y-52332428D01*
X24875196Y-52356227D01*
X24878796Y-52380495D01*
X24880000Y-52404999D01*
X24880000Y-53055001D01*
X24878796Y-53079505D01*
X24875196Y-53103773D01*
X24869235Y-53127572D01*
X24860970Y-53150671D01*
X24850480Y-53172850D01*
X24837868Y-53193893D01*
X24823253Y-53213599D01*
X24806777Y-53231777D01*
X24788599Y-53248253D01*
X24768893Y-53262868D01*
X24747850Y-53275480D01*
X24725671Y-53285970D01*
X24702572Y-53294235D01*
X24678773Y-53300196D01*
X24654505Y-53303796D01*
X24630001Y-53305000D01*
X23729999Y-53305000D01*
X23705495Y-53303796D01*
X23681227Y-53300196D01*
X23657428Y-53294235D01*
X23634329Y-53285970D01*
X23612150Y-53275480D01*
X23591107Y-53262868D01*
X23571401Y-53248253D01*
X23553223Y-53231777D01*
X23536747Y-53213599D01*
X23522132Y-53193893D01*
X23509520Y-53172850D01*
X23499030Y-53150671D01*
X23490765Y-53127572D01*
X23484804Y-53103773D01*
X23481204Y-53079505D01*
X23480000Y-53055001D01*
X23480000Y-52404999D01*
X23481204Y-52380495D01*
X23484804Y-52356227D01*
X23490765Y-52332428D01*
X23499030Y-52309329D01*
X23509520Y-52287150D01*
X23522132Y-52266107D01*
X23536747Y-52246401D01*
X23553223Y-52228223D01*
X23571401Y-52211747D01*
X23591107Y-52197132D01*
X23612150Y-52184520D01*
X23634329Y-52174030D01*
X23657428Y-52165765D01*
X23681227Y-52159804D01*
X23705495Y-52156204D01*
X23729999Y-52155000D01*
X24630001Y-52155000D01*
X24654505Y-52156204D01*
G37*
G36*
X24654505Y-50106204D02*
G01*
X24678773Y-50109804D01*
X24702572Y-50115765D01*
X24725671Y-50124030D01*
X24747850Y-50134520D01*
X24768893Y-50147132D01*
X24788599Y-50161747D01*
X24806777Y-50178223D01*
X24823253Y-50196401D01*
X24837868Y-50216107D01*
X24850480Y-50237150D01*
X24860970Y-50259329D01*
X24869235Y-50282428D01*
X24875196Y-50306227D01*
X24878796Y-50330495D01*
X24880000Y-50354999D01*
X24880000Y-51005001D01*
X24878796Y-51029505D01*
X24875196Y-51053773D01*
X24869235Y-51077572D01*
X24860970Y-51100671D01*
X24850480Y-51122850D01*
X24837868Y-51143893D01*
X24823253Y-51163599D01*
X24806777Y-51181777D01*
X24788599Y-51198253D01*
X24768893Y-51212868D01*
X24747850Y-51225480D01*
X24725671Y-51235970D01*
X24702572Y-51244235D01*
X24678773Y-51250196D01*
X24654505Y-51253796D01*
X24630001Y-51255000D01*
X23729999Y-51255000D01*
X23705495Y-51253796D01*
X23681227Y-51250196D01*
X23657428Y-51244235D01*
X23634329Y-51235970D01*
X23612150Y-51225480D01*
X23591107Y-51212868D01*
X23571401Y-51198253D01*
X23553223Y-51181777D01*
X23536747Y-51163599D01*
X23522132Y-51143893D01*
X23509520Y-51122850D01*
X23499030Y-51100671D01*
X23490765Y-51077572D01*
X23484804Y-51053773D01*
X23481204Y-51029505D01*
X23480000Y-51005001D01*
X23480000Y-50354999D01*
X23481204Y-50330495D01*
X23484804Y-50306227D01*
X23490765Y-50282428D01*
X23499030Y-50259329D01*
X23509520Y-50237150D01*
X23522132Y-50216107D01*
X23536747Y-50196401D01*
X23553223Y-50178223D01*
X23571401Y-50161747D01*
X23591107Y-50147132D01*
X23612150Y-50134520D01*
X23634329Y-50124030D01*
X23657428Y-50115765D01*
X23681227Y-50109804D01*
X23705495Y-50106204D01*
X23729999Y-50105000D01*
X24630001Y-50105000D01*
X24654505Y-50106204D01*
G37*
G36*
X30374505Y-57251204D02*
G01*
X30398773Y-57254804D01*
X30422572Y-57260765D01*
X30445671Y-57269030D01*
X30467850Y-57279520D01*
X30488893Y-57292132D01*
X30508599Y-57306747D01*
X30526777Y-57323223D01*
X30543253Y-57341401D01*
X30557868Y-57361107D01*
X30570480Y-57382150D01*
X30580970Y-57404329D01*
X30589235Y-57427428D01*
X30595196Y-57451227D01*
X30598796Y-57475495D01*
X30600000Y-57499999D01*
X30600000Y-58150001D01*
X30598796Y-58174505D01*
X30595196Y-58198773D01*
X30589235Y-58222572D01*
X30580970Y-58245671D01*
X30570480Y-58267850D01*
X30557868Y-58288893D01*
X30543253Y-58308599D01*
X30526777Y-58326777D01*
X30508599Y-58343253D01*
X30488893Y-58357868D01*
X30467850Y-58370480D01*
X30445671Y-58380970D01*
X30422572Y-58389235D01*
X30398773Y-58395196D01*
X30374505Y-58398796D01*
X30350001Y-58400000D01*
X29449999Y-58400000D01*
X29425495Y-58398796D01*
X29401227Y-58395196D01*
X29377428Y-58389235D01*
X29354329Y-58380970D01*
X29332150Y-58370480D01*
X29311107Y-58357868D01*
X29291401Y-58343253D01*
X29273223Y-58326777D01*
X29256747Y-58308599D01*
X29242132Y-58288893D01*
X29229520Y-58267850D01*
X29219030Y-58245671D01*
X29210765Y-58222572D01*
X29204804Y-58198773D01*
X29201204Y-58174505D01*
X29200000Y-58150001D01*
X29200000Y-57499999D01*
X29201204Y-57475495D01*
X29204804Y-57451227D01*
X29210765Y-57427428D01*
X29219030Y-57404329D01*
X29229520Y-57382150D01*
X29242132Y-57361107D01*
X29256747Y-57341401D01*
X29273223Y-57323223D01*
X29291401Y-57306747D01*
X29311107Y-57292132D01*
X29332150Y-57279520D01*
X29354329Y-57269030D01*
X29377428Y-57260765D01*
X29401227Y-57254804D01*
X29425495Y-57251204D01*
X29449999Y-57250000D01*
X30350001Y-57250000D01*
X30374505Y-57251204D01*
G37*
G36*
X30374505Y-55201204D02*
G01*
X30398773Y-55204804D01*
X30422572Y-55210765D01*
X30445671Y-55219030D01*
X30467850Y-55229520D01*
X30488893Y-55242132D01*
X30508599Y-55256747D01*
X30526777Y-55273223D01*
X30543253Y-55291401D01*
X30557868Y-55311107D01*
X30570480Y-55332150D01*
X30580970Y-55354329D01*
X30589235Y-55377428D01*
X30595196Y-55401227D01*
X30598796Y-55425495D01*
X30600000Y-55449999D01*
X30600000Y-56100001D01*
X30598796Y-56124505D01*
X30595196Y-56148773D01*
X30589235Y-56172572D01*
X30580970Y-56195671D01*
X30570480Y-56217850D01*
X30557868Y-56238893D01*
X30543253Y-56258599D01*
X30526777Y-56276777D01*
X30508599Y-56293253D01*
X30488893Y-56307868D01*
X30467850Y-56320480D01*
X30445671Y-56330970D01*
X30422572Y-56339235D01*
X30398773Y-56345196D01*
X30374505Y-56348796D01*
X30350001Y-56350000D01*
X29449999Y-56350000D01*
X29425495Y-56348796D01*
X29401227Y-56345196D01*
X29377428Y-56339235D01*
X29354329Y-56330970D01*
X29332150Y-56320480D01*
X29311107Y-56307868D01*
X29291401Y-56293253D01*
X29273223Y-56276777D01*
X29256747Y-56258599D01*
X29242132Y-56238893D01*
X29229520Y-56217850D01*
X29219030Y-56195671D01*
X29210765Y-56172572D01*
X29204804Y-56148773D01*
X29201204Y-56124505D01*
X29200000Y-56100001D01*
X29200000Y-55449999D01*
X29201204Y-55425495D01*
X29204804Y-55401227D01*
X29210765Y-55377428D01*
X29219030Y-55354329D01*
X29229520Y-55332150D01*
X29242132Y-55311107D01*
X29256747Y-55291401D01*
X29273223Y-55273223D01*
X29291401Y-55256747D01*
X29311107Y-55242132D01*
X29332150Y-55229520D01*
X29354329Y-55219030D01*
X29377428Y-55210765D01*
X29401227Y-55204804D01*
X29425495Y-55201204D01*
X29449999Y-55200000D01*
X30350001Y-55200000D01*
X30374505Y-55201204D01*
G37*
G36*
X33100000Y-19776200D02*
G01*
X32400000Y-20776200D01*
X31600000Y-20776200D01*
X30900000Y-19776200D01*
X33100000Y-19776200D01*
G37*
D21*
X32000000Y-18866500D03*
D22*
X33500000Y-21680000D03*
D23*
X32000000Y-21533500D03*
D22*
X30500000Y-21680000D03*
D13*
G36*
X30900000Y-17958000D02*
G01*
X31500000Y-17108000D01*
X32500000Y-17108000D01*
X33100000Y-17958000D01*
X30900000Y-17958000D01*
G37*
D24*
X48775000Y-50375000D03*
X44625000Y-50375000D03*
X48775000Y-48225000D03*
X44625000Y-48225000D03*
D13*
G36*
X47924505Y-52501204D02*
G01*
X47948773Y-52504804D01*
X47972572Y-52510765D01*
X47995671Y-52519030D01*
X48017850Y-52529520D01*
X48038893Y-52542132D01*
X48058599Y-52556747D01*
X48076777Y-52573223D01*
X48093253Y-52591401D01*
X48107868Y-52611107D01*
X48120480Y-52632150D01*
X48130970Y-52654329D01*
X48139235Y-52677428D01*
X48145196Y-52701227D01*
X48148796Y-52725495D01*
X48150000Y-52749999D01*
X48150000Y-53650001D01*
X48148796Y-53674505D01*
X48145196Y-53698773D01*
X48139235Y-53722572D01*
X48130970Y-53745671D01*
X48120480Y-53767850D01*
X48107868Y-53788893D01*
X48093253Y-53808599D01*
X48076777Y-53826777D01*
X48058599Y-53843253D01*
X48038893Y-53857868D01*
X48017850Y-53870480D01*
X47995671Y-53880970D01*
X47972572Y-53889235D01*
X47948773Y-53895196D01*
X47924505Y-53898796D01*
X47900001Y-53900000D01*
X47249999Y-53900000D01*
X47225495Y-53898796D01*
X47201227Y-53895196D01*
X47177428Y-53889235D01*
X47154329Y-53880970D01*
X47132150Y-53870480D01*
X47111107Y-53857868D01*
X47091401Y-53843253D01*
X47073223Y-53826777D01*
X47056747Y-53808599D01*
X47042132Y-53788893D01*
X47029520Y-53767850D01*
X47019030Y-53745671D01*
X47010765Y-53722572D01*
X47004804Y-53698773D01*
X47001204Y-53674505D01*
X47000000Y-53650001D01*
X47000000Y-52749999D01*
X47001204Y-52725495D01*
X47004804Y-52701227D01*
X47010765Y-52677428D01*
X47019030Y-52654329D01*
X47029520Y-52632150D01*
X47042132Y-52611107D01*
X47056747Y-52591401D01*
X47073223Y-52573223D01*
X47091401Y-52556747D01*
X47111107Y-52542132D01*
X47132150Y-52529520D01*
X47154329Y-52519030D01*
X47177428Y-52510765D01*
X47201227Y-52504804D01*
X47225495Y-52501204D01*
X47249999Y-52500000D01*
X47900001Y-52500000D01*
X47924505Y-52501204D01*
G37*
G36*
X49974505Y-52501204D02*
G01*
X49998773Y-52504804D01*
X50022572Y-52510765D01*
X50045671Y-52519030D01*
X50067850Y-52529520D01*
X50088893Y-52542132D01*
X50108599Y-52556747D01*
X50126777Y-52573223D01*
X50143253Y-52591401D01*
X50157868Y-52611107D01*
X50170480Y-52632150D01*
X50180970Y-52654329D01*
X50189235Y-52677428D01*
X50195196Y-52701227D01*
X50198796Y-52725495D01*
X50200000Y-52749999D01*
X50200000Y-53650001D01*
X50198796Y-53674505D01*
X50195196Y-53698773D01*
X50189235Y-53722572D01*
X50180970Y-53745671D01*
X50170480Y-53767850D01*
X50157868Y-53788893D01*
X50143253Y-53808599D01*
X50126777Y-53826777D01*
X50108599Y-53843253D01*
X50088893Y-53857868D01*
X50067850Y-53870480D01*
X50045671Y-53880970D01*
X50022572Y-53889235D01*
X49998773Y-53895196D01*
X49974505Y-53898796D01*
X49950001Y-53900000D01*
X49299999Y-53900000D01*
X49275495Y-53898796D01*
X49251227Y-53895196D01*
X49227428Y-53889235D01*
X49204329Y-53880970D01*
X49182150Y-53870480D01*
X49161107Y-53857868D01*
X49141401Y-53843253D01*
X49123223Y-53826777D01*
X49106747Y-53808599D01*
X49092132Y-53788893D01*
X49079520Y-53767850D01*
X49069030Y-53745671D01*
X49060765Y-53722572D01*
X49054804Y-53698773D01*
X49051204Y-53674505D01*
X49050000Y-53650001D01*
X49050000Y-52749999D01*
X49051204Y-52725495D01*
X49054804Y-52701227D01*
X49060765Y-52677428D01*
X49069030Y-52654329D01*
X49079520Y-52632150D01*
X49092132Y-52611107D01*
X49106747Y-52591401D01*
X49123223Y-52573223D01*
X49141401Y-52556747D01*
X49161107Y-52542132D01*
X49182150Y-52529520D01*
X49204329Y-52519030D01*
X49227428Y-52510765D01*
X49251227Y-52504804D01*
X49275495Y-52501204D01*
X49299999Y-52500000D01*
X49950001Y-52500000D01*
X49974505Y-52501204D01*
G37*
G36*
X26529505Y-57231204D02*
G01*
X26553773Y-57234804D01*
X26577572Y-57240765D01*
X26600671Y-57249030D01*
X26622850Y-57259520D01*
X26643893Y-57272132D01*
X26663599Y-57286747D01*
X26681777Y-57303223D01*
X26698253Y-57321401D01*
X26712868Y-57341107D01*
X26725480Y-57362150D01*
X26735970Y-57384329D01*
X26744235Y-57407428D01*
X26750196Y-57431227D01*
X26753796Y-57455495D01*
X26755000Y-57479999D01*
X26755000Y-58130001D01*
X26753796Y-58154505D01*
X26750196Y-58178773D01*
X26744235Y-58202572D01*
X26735970Y-58225671D01*
X26725480Y-58247850D01*
X26712868Y-58268893D01*
X26698253Y-58288599D01*
X26681777Y-58306777D01*
X26663599Y-58323253D01*
X26643893Y-58337868D01*
X26622850Y-58350480D01*
X26600671Y-58360970D01*
X26577572Y-58369235D01*
X26553773Y-58375196D01*
X26529505Y-58378796D01*
X26505001Y-58380000D01*
X25604999Y-58380000D01*
X25580495Y-58378796D01*
X25556227Y-58375196D01*
X25532428Y-58369235D01*
X25509329Y-58360970D01*
X25487150Y-58350480D01*
X25466107Y-58337868D01*
X25446401Y-58323253D01*
X25428223Y-58306777D01*
X25411747Y-58288599D01*
X25397132Y-58268893D01*
X25384520Y-58247850D01*
X25374030Y-58225671D01*
X25365765Y-58202572D01*
X25359804Y-58178773D01*
X25356204Y-58154505D01*
X25355000Y-58130001D01*
X25355000Y-57479999D01*
X25356204Y-57455495D01*
X25359804Y-57431227D01*
X25365765Y-57407428D01*
X25374030Y-57384329D01*
X25384520Y-57362150D01*
X25397132Y-57341107D01*
X25411747Y-57321401D01*
X25428223Y-57303223D01*
X25446401Y-57286747D01*
X25466107Y-57272132D01*
X25487150Y-57259520D01*
X25509329Y-57249030D01*
X25532428Y-57240765D01*
X25556227Y-57234804D01*
X25580495Y-57231204D01*
X25604999Y-57230000D01*
X26505001Y-57230000D01*
X26529505Y-57231204D01*
G37*
G36*
X26529505Y-55181204D02*
G01*
X26553773Y-55184804D01*
X26577572Y-55190765D01*
X26600671Y-55199030D01*
X26622850Y-55209520D01*
X26643893Y-55222132D01*
X26663599Y-55236747D01*
X26681777Y-55253223D01*
X26698253Y-55271401D01*
X26712868Y-55291107D01*
X26725480Y-55312150D01*
X26735970Y-55334329D01*
X26744235Y-55357428D01*
X26750196Y-55381227D01*
X26753796Y-55405495D01*
X26755000Y-55429999D01*
X26755000Y-56080001D01*
X26753796Y-56104505D01*
X26750196Y-56128773D01*
X26744235Y-56152572D01*
X26735970Y-56175671D01*
X26725480Y-56197850D01*
X26712868Y-56218893D01*
X26698253Y-56238599D01*
X26681777Y-56256777D01*
X26663599Y-56273253D01*
X26643893Y-56287868D01*
X26622850Y-56300480D01*
X26600671Y-56310970D01*
X26577572Y-56319235D01*
X26553773Y-56325196D01*
X26529505Y-56328796D01*
X26505001Y-56330000D01*
X25604999Y-56330000D01*
X25580495Y-56328796D01*
X25556227Y-56325196D01*
X25532428Y-56319235D01*
X25509329Y-56310970D01*
X25487150Y-56300480D01*
X25466107Y-56287868D01*
X25446401Y-56273253D01*
X25428223Y-56256777D01*
X25411747Y-56238599D01*
X25397132Y-56218893D01*
X25384520Y-56197850D01*
X25374030Y-56175671D01*
X25365765Y-56152572D01*
X25359804Y-56128773D01*
X25356204Y-56104505D01*
X25355000Y-56080001D01*
X25355000Y-55429999D01*
X25356204Y-55405495D01*
X25359804Y-55381227D01*
X25365765Y-55357428D01*
X25374030Y-55334329D01*
X25384520Y-55312150D01*
X25397132Y-55291107D01*
X25411747Y-55271401D01*
X25428223Y-55253223D01*
X25446401Y-55236747D01*
X25466107Y-55222132D01*
X25487150Y-55209520D01*
X25509329Y-55199030D01*
X25532428Y-55190765D01*
X25556227Y-55184804D01*
X25580495Y-55181204D01*
X25604999Y-55180000D01*
X26505001Y-55180000D01*
X26529505Y-55181204D01*
G37*
G36*
X26704505Y-45631204D02*
G01*
X26728773Y-45634804D01*
X26752572Y-45640765D01*
X26775671Y-45649030D01*
X26797850Y-45659520D01*
X26818893Y-45672132D01*
X26838599Y-45686747D01*
X26856777Y-45703223D01*
X26873253Y-45721401D01*
X26887868Y-45741107D01*
X26900480Y-45762150D01*
X26910970Y-45784329D01*
X26919235Y-45807428D01*
X26925196Y-45831227D01*
X26928796Y-45855495D01*
X26930000Y-45879999D01*
X26930000Y-46530001D01*
X26928796Y-46554505D01*
X26925196Y-46578773D01*
X26919235Y-46602572D01*
X26910970Y-46625671D01*
X26900480Y-46647850D01*
X26887868Y-46668893D01*
X26873253Y-46688599D01*
X26856777Y-46706777D01*
X26838599Y-46723253D01*
X26818893Y-46737868D01*
X26797850Y-46750480D01*
X26775671Y-46760970D01*
X26752572Y-46769235D01*
X26728773Y-46775196D01*
X26704505Y-46778796D01*
X26680001Y-46780000D01*
X25779999Y-46780000D01*
X25755495Y-46778796D01*
X25731227Y-46775196D01*
X25707428Y-46769235D01*
X25684329Y-46760970D01*
X25662150Y-46750480D01*
X25641107Y-46737868D01*
X25621401Y-46723253D01*
X25603223Y-46706777D01*
X25586747Y-46688599D01*
X25572132Y-46668893D01*
X25559520Y-46647850D01*
X25549030Y-46625671D01*
X25540765Y-46602572D01*
X25534804Y-46578773D01*
X25531204Y-46554505D01*
X25530000Y-46530001D01*
X25530000Y-45879999D01*
X25531204Y-45855495D01*
X25534804Y-45831227D01*
X25540765Y-45807428D01*
X25549030Y-45784329D01*
X25559520Y-45762150D01*
X25572132Y-45741107D01*
X25586747Y-45721401D01*
X25603223Y-45703223D01*
X25621401Y-45686747D01*
X25641107Y-45672132D01*
X25662150Y-45659520D01*
X25684329Y-45649030D01*
X25707428Y-45640765D01*
X25731227Y-45634804D01*
X25755495Y-45631204D01*
X25779999Y-45630000D01*
X26680001Y-45630000D01*
X26704505Y-45631204D01*
G37*
G36*
X26704505Y-47681204D02*
G01*
X26728773Y-47684804D01*
X26752572Y-47690765D01*
X26775671Y-47699030D01*
X26797850Y-47709520D01*
X26818893Y-47722132D01*
X26838599Y-47736747D01*
X26856777Y-47753223D01*
X26873253Y-47771401D01*
X26887868Y-47791107D01*
X26900480Y-47812150D01*
X26910970Y-47834329D01*
X26919235Y-47857428D01*
X26925196Y-47881227D01*
X26928796Y-47905495D01*
X26930000Y-47929999D01*
X26930000Y-48580001D01*
X26928796Y-48604505D01*
X26925196Y-48628773D01*
X26919235Y-48652572D01*
X26910970Y-48675671D01*
X26900480Y-48697850D01*
X26887868Y-48718893D01*
X26873253Y-48738599D01*
X26856777Y-48756777D01*
X26838599Y-48773253D01*
X26818893Y-48787868D01*
X26797850Y-48800480D01*
X26775671Y-48810970D01*
X26752572Y-48819235D01*
X26728773Y-48825196D01*
X26704505Y-48828796D01*
X26680001Y-48830000D01*
X25779999Y-48830000D01*
X25755495Y-48828796D01*
X25731227Y-48825196D01*
X25707428Y-48819235D01*
X25684329Y-48810970D01*
X25662150Y-48800480D01*
X25641107Y-48787868D01*
X25621401Y-48773253D01*
X25603223Y-48756777D01*
X25586747Y-48738599D01*
X25572132Y-48718893D01*
X25559520Y-48697850D01*
X25549030Y-48675671D01*
X25540765Y-48652572D01*
X25534804Y-48628773D01*
X25531204Y-48604505D01*
X25530000Y-48580001D01*
X25530000Y-47929999D01*
X25531204Y-47905495D01*
X25534804Y-47881227D01*
X25540765Y-47857428D01*
X25549030Y-47834329D01*
X25559520Y-47812150D01*
X25572132Y-47791107D01*
X25586747Y-47771401D01*
X25603223Y-47753223D01*
X25621401Y-47736747D01*
X25641107Y-47722132D01*
X25662150Y-47709520D01*
X25684329Y-47699030D01*
X25707428Y-47690765D01*
X25731227Y-47684804D01*
X25755495Y-47681204D01*
X25779999Y-47680000D01*
X26680001Y-47680000D01*
X26704505Y-47681204D01*
G37*
G36*
X30354505Y-45656204D02*
G01*
X30378773Y-45659804D01*
X30402572Y-45665765D01*
X30425671Y-45674030D01*
X30447850Y-45684520D01*
X30468893Y-45697132D01*
X30488599Y-45711747D01*
X30506777Y-45728223D01*
X30523253Y-45746401D01*
X30537868Y-45766107D01*
X30550480Y-45787150D01*
X30560970Y-45809329D01*
X30569235Y-45832428D01*
X30575196Y-45856227D01*
X30578796Y-45880495D01*
X30580000Y-45904999D01*
X30580000Y-46555001D01*
X30578796Y-46579505D01*
X30575196Y-46603773D01*
X30569235Y-46627572D01*
X30560970Y-46650671D01*
X30550480Y-46672850D01*
X30537868Y-46693893D01*
X30523253Y-46713599D01*
X30506777Y-46731777D01*
X30488599Y-46748253D01*
X30468893Y-46762868D01*
X30447850Y-46775480D01*
X30425671Y-46785970D01*
X30402572Y-46794235D01*
X30378773Y-46800196D01*
X30354505Y-46803796D01*
X30330001Y-46805000D01*
X29429999Y-46805000D01*
X29405495Y-46803796D01*
X29381227Y-46800196D01*
X29357428Y-46794235D01*
X29334329Y-46785970D01*
X29312150Y-46775480D01*
X29291107Y-46762868D01*
X29271401Y-46748253D01*
X29253223Y-46731777D01*
X29236747Y-46713599D01*
X29222132Y-46693893D01*
X29209520Y-46672850D01*
X29199030Y-46650671D01*
X29190765Y-46627572D01*
X29184804Y-46603773D01*
X29181204Y-46579505D01*
X29180000Y-46555001D01*
X29180000Y-45904999D01*
X29181204Y-45880495D01*
X29184804Y-45856227D01*
X29190765Y-45832428D01*
X29199030Y-45809329D01*
X29209520Y-45787150D01*
X29222132Y-45766107D01*
X29236747Y-45746401D01*
X29253223Y-45728223D01*
X29271401Y-45711747D01*
X29291107Y-45697132D01*
X29312150Y-45684520D01*
X29334329Y-45674030D01*
X29357428Y-45665765D01*
X29381227Y-45659804D01*
X29405495Y-45656204D01*
X29429999Y-45655000D01*
X30330001Y-45655000D01*
X30354505Y-45656204D01*
G37*
G36*
X30354505Y-47706204D02*
G01*
X30378773Y-47709804D01*
X30402572Y-47715765D01*
X30425671Y-47724030D01*
X30447850Y-47734520D01*
X30468893Y-47747132D01*
X30488599Y-47761747D01*
X30506777Y-47778223D01*
X30523253Y-47796401D01*
X30537868Y-47816107D01*
X30550480Y-47837150D01*
X30560970Y-47859329D01*
X30569235Y-47882428D01*
X30575196Y-47906227D01*
X30578796Y-47930495D01*
X30580000Y-47954999D01*
X30580000Y-48605001D01*
X30578796Y-48629505D01*
X30575196Y-48653773D01*
X30569235Y-48677572D01*
X30560970Y-48700671D01*
X30550480Y-48722850D01*
X30537868Y-48743893D01*
X30523253Y-48763599D01*
X30506777Y-48781777D01*
X30488599Y-48798253D01*
X30468893Y-48812868D01*
X30447850Y-48825480D01*
X30425671Y-48835970D01*
X30402572Y-48844235D01*
X30378773Y-48850196D01*
X30354505Y-48853796D01*
X30330001Y-48855000D01*
X29429999Y-48855000D01*
X29405495Y-48853796D01*
X29381227Y-48850196D01*
X29357428Y-48844235D01*
X29334329Y-48835970D01*
X29312150Y-48825480D01*
X29291107Y-48812868D01*
X29271401Y-48798253D01*
X29253223Y-48781777D01*
X29236747Y-48763599D01*
X29222132Y-48743893D01*
X29209520Y-48722850D01*
X29199030Y-48700671D01*
X29190765Y-48677572D01*
X29184804Y-48653773D01*
X29181204Y-48629505D01*
X29180000Y-48605001D01*
X29180000Y-47954999D01*
X29181204Y-47930495D01*
X29184804Y-47906227D01*
X29190765Y-47882428D01*
X29199030Y-47859329D01*
X29209520Y-47837150D01*
X29222132Y-47816107D01*
X29236747Y-47796401D01*
X29253223Y-47778223D01*
X29271401Y-47761747D01*
X29291107Y-47747132D01*
X29312150Y-47734520D01*
X29334329Y-47724030D01*
X29357428Y-47715765D01*
X29381227Y-47709804D01*
X29405495Y-47706204D01*
X29429999Y-47705000D01*
X30330001Y-47705000D01*
X30354505Y-47706204D01*
G37*
G36*
X44874505Y-54651204D02*
G01*
X44898773Y-54654804D01*
X44922572Y-54660765D01*
X44945671Y-54669030D01*
X44967850Y-54679520D01*
X44988893Y-54692132D01*
X45008599Y-54706747D01*
X45026777Y-54723223D01*
X45043253Y-54741401D01*
X45057868Y-54761107D01*
X45070480Y-54782150D01*
X45080970Y-54804329D01*
X45089235Y-54827428D01*
X45095196Y-54851227D01*
X45098796Y-54875495D01*
X45100000Y-54899999D01*
X45100000Y-55550001D01*
X45098796Y-55574505D01*
X45095196Y-55598773D01*
X45089235Y-55622572D01*
X45080970Y-55645671D01*
X45070480Y-55667850D01*
X45057868Y-55688893D01*
X45043253Y-55708599D01*
X45026777Y-55726777D01*
X45008599Y-55743253D01*
X44988893Y-55757868D01*
X44967850Y-55770480D01*
X44945671Y-55780970D01*
X44922572Y-55789235D01*
X44898773Y-55795196D01*
X44874505Y-55798796D01*
X44850001Y-55800000D01*
X43949999Y-55800000D01*
X43925495Y-55798796D01*
X43901227Y-55795196D01*
X43877428Y-55789235D01*
X43854329Y-55780970D01*
X43832150Y-55770480D01*
X43811107Y-55757868D01*
X43791401Y-55743253D01*
X43773223Y-55726777D01*
X43756747Y-55708599D01*
X43742132Y-55688893D01*
X43729520Y-55667850D01*
X43719030Y-55645671D01*
X43710765Y-55622572D01*
X43704804Y-55598773D01*
X43701204Y-55574505D01*
X43700000Y-55550001D01*
X43700000Y-54899999D01*
X43701204Y-54875495D01*
X43704804Y-54851227D01*
X43710765Y-54827428D01*
X43719030Y-54804329D01*
X43729520Y-54782150D01*
X43742132Y-54761107D01*
X43756747Y-54741401D01*
X43773223Y-54723223D01*
X43791401Y-54706747D01*
X43811107Y-54692132D01*
X43832150Y-54679520D01*
X43854329Y-54669030D01*
X43877428Y-54660765D01*
X43901227Y-54654804D01*
X43925495Y-54651204D01*
X43949999Y-54650000D01*
X44850001Y-54650000D01*
X44874505Y-54651204D01*
G37*
G36*
X44874505Y-52601204D02*
G01*
X44898773Y-52604804D01*
X44922572Y-52610765D01*
X44945671Y-52619030D01*
X44967850Y-52629520D01*
X44988893Y-52642132D01*
X45008599Y-52656747D01*
X45026777Y-52673223D01*
X45043253Y-52691401D01*
X45057868Y-52711107D01*
X45070480Y-52732150D01*
X45080970Y-52754329D01*
X45089235Y-52777428D01*
X45095196Y-52801227D01*
X45098796Y-52825495D01*
X45100000Y-52849999D01*
X45100000Y-53500001D01*
X45098796Y-53524505D01*
X45095196Y-53548773D01*
X45089235Y-53572572D01*
X45080970Y-53595671D01*
X45070480Y-53617850D01*
X45057868Y-53638893D01*
X45043253Y-53658599D01*
X45026777Y-53676777D01*
X45008599Y-53693253D01*
X44988893Y-53707868D01*
X44967850Y-53720480D01*
X44945671Y-53730970D01*
X44922572Y-53739235D01*
X44898773Y-53745196D01*
X44874505Y-53748796D01*
X44850001Y-53750000D01*
X43949999Y-53750000D01*
X43925495Y-53748796D01*
X43901227Y-53745196D01*
X43877428Y-53739235D01*
X43854329Y-53730970D01*
X43832150Y-53720480D01*
X43811107Y-53707868D01*
X43791401Y-53693253D01*
X43773223Y-53676777D01*
X43756747Y-53658599D01*
X43742132Y-53638893D01*
X43729520Y-53617850D01*
X43719030Y-53595671D01*
X43710765Y-53572572D01*
X43704804Y-53548773D01*
X43701204Y-53524505D01*
X43700000Y-53500001D01*
X43700000Y-52849999D01*
X43701204Y-52825495D01*
X43704804Y-52801227D01*
X43710765Y-52777428D01*
X43719030Y-52754329D01*
X43729520Y-52732150D01*
X43742132Y-52711107D01*
X43756747Y-52691401D01*
X43773223Y-52673223D01*
X43791401Y-52656747D01*
X43811107Y-52642132D01*
X43832150Y-52629520D01*
X43854329Y-52619030D01*
X43877428Y-52610765D01*
X43901227Y-52604804D01*
X43925495Y-52601204D01*
X43949999Y-52600000D01*
X44850001Y-52600000D01*
X44874505Y-52601204D01*
G37*
G36*
X28274505Y-21251204D02*
G01*
X28298773Y-21254804D01*
X28322572Y-21260765D01*
X28345671Y-21269030D01*
X28367850Y-21279520D01*
X28388893Y-21292132D01*
X28408599Y-21306747D01*
X28426777Y-21323223D01*
X28443253Y-21341401D01*
X28457868Y-21361107D01*
X28470480Y-21382150D01*
X28480970Y-21404329D01*
X28489235Y-21427428D01*
X28495196Y-21451227D01*
X28498796Y-21475495D01*
X28500000Y-21499999D01*
X28500000Y-22150001D01*
X28498796Y-22174505D01*
X28495196Y-22198773D01*
X28489235Y-22222572D01*
X28480970Y-22245671D01*
X28470480Y-22267850D01*
X28457868Y-22288893D01*
X28443253Y-22308599D01*
X28426777Y-22326777D01*
X28408599Y-22343253D01*
X28388893Y-22357868D01*
X28367850Y-22370480D01*
X28345671Y-22380970D01*
X28322572Y-22389235D01*
X28298773Y-22395196D01*
X28274505Y-22398796D01*
X28250001Y-22400000D01*
X27349999Y-22400000D01*
X27325495Y-22398796D01*
X27301227Y-22395196D01*
X27277428Y-22389235D01*
X27254329Y-22380970D01*
X27232150Y-22370480D01*
X27211107Y-22357868D01*
X27191401Y-22343253D01*
X27173223Y-22326777D01*
X27156747Y-22308599D01*
X27142132Y-22288893D01*
X27129520Y-22267850D01*
X27119030Y-22245671D01*
X27110765Y-22222572D01*
X27104804Y-22198773D01*
X27101204Y-22174505D01*
X27100000Y-22150001D01*
X27100000Y-21499999D01*
X27101204Y-21475495D01*
X27104804Y-21451227D01*
X27110765Y-21427428D01*
X27119030Y-21404329D01*
X27129520Y-21382150D01*
X27142132Y-21361107D01*
X27156747Y-21341401D01*
X27173223Y-21323223D01*
X27191401Y-21306747D01*
X27211107Y-21292132D01*
X27232150Y-21279520D01*
X27254329Y-21269030D01*
X27277428Y-21260765D01*
X27301227Y-21254804D01*
X27325495Y-21251204D01*
X27349999Y-21250000D01*
X28250001Y-21250000D01*
X28274505Y-21251204D01*
G37*
G36*
X28274505Y-19201204D02*
G01*
X28298773Y-19204804D01*
X28322572Y-19210765D01*
X28345671Y-19219030D01*
X28367850Y-19229520D01*
X28388893Y-19242132D01*
X28408599Y-19256747D01*
X28426777Y-19273223D01*
X28443253Y-19291401D01*
X28457868Y-19311107D01*
X28470480Y-19332150D01*
X28480970Y-19354329D01*
X28489235Y-19377428D01*
X28495196Y-19401227D01*
X28498796Y-19425495D01*
X28500000Y-19449999D01*
X28500000Y-20100001D01*
X28498796Y-20124505D01*
X28495196Y-20148773D01*
X28489235Y-20172572D01*
X28480970Y-20195671D01*
X28470480Y-20217850D01*
X28457868Y-20238893D01*
X28443253Y-20258599D01*
X28426777Y-20276777D01*
X28408599Y-20293253D01*
X28388893Y-20307868D01*
X28367850Y-20320480D01*
X28345671Y-20330970D01*
X28322572Y-20339235D01*
X28298773Y-20345196D01*
X28274505Y-20348796D01*
X28250001Y-20350000D01*
X27349999Y-20350000D01*
X27325495Y-20348796D01*
X27301227Y-20345196D01*
X27277428Y-20339235D01*
X27254329Y-20330970D01*
X27232150Y-20320480D01*
X27211107Y-20307868D01*
X27191401Y-20293253D01*
X27173223Y-20276777D01*
X27156747Y-20258599D01*
X27142132Y-20238893D01*
X27129520Y-20217850D01*
X27119030Y-20195671D01*
X27110765Y-20172572D01*
X27104804Y-20148773D01*
X27101204Y-20124505D01*
X27100000Y-20100001D01*
X27100000Y-19449999D01*
X27101204Y-19425495D01*
X27104804Y-19401227D01*
X27110765Y-19377428D01*
X27119030Y-19354329D01*
X27129520Y-19332150D01*
X27142132Y-19311107D01*
X27156747Y-19291401D01*
X27173223Y-19273223D01*
X27191401Y-19256747D01*
X27211107Y-19242132D01*
X27232150Y-19229520D01*
X27254329Y-19219030D01*
X27277428Y-19210765D01*
X27301227Y-19204804D01*
X27325495Y-19201204D01*
X27349999Y-19200000D01*
X28250001Y-19200000D01*
X28274505Y-19201204D01*
G37*
D25*
X54780000Y-19280000D03*
X54780000Y-76480000D03*
D13*
G36*
X34774505Y-52701204D02*
G01*
X34798773Y-52704804D01*
X34822572Y-52710765D01*
X34845671Y-52719030D01*
X34867850Y-52729520D01*
X34888893Y-52742132D01*
X34908599Y-52756747D01*
X34926777Y-52773223D01*
X34943253Y-52791401D01*
X34957868Y-52811107D01*
X34970480Y-52832150D01*
X34980970Y-52854329D01*
X34989235Y-52877428D01*
X34995196Y-52901227D01*
X34998796Y-52925495D01*
X35000000Y-52949999D01*
X35000000Y-53600001D01*
X34998796Y-53624505D01*
X34995196Y-53648773D01*
X34989235Y-53672572D01*
X34980970Y-53695671D01*
X34970480Y-53717850D01*
X34957868Y-53738893D01*
X34943253Y-53758599D01*
X34926777Y-53776777D01*
X34908599Y-53793253D01*
X34888893Y-53807868D01*
X34867850Y-53820480D01*
X34845671Y-53830970D01*
X34822572Y-53839235D01*
X34798773Y-53845196D01*
X34774505Y-53848796D01*
X34750001Y-53850000D01*
X33849999Y-53850000D01*
X33825495Y-53848796D01*
X33801227Y-53845196D01*
X33777428Y-53839235D01*
X33754329Y-53830970D01*
X33732150Y-53820480D01*
X33711107Y-53807868D01*
X33691401Y-53793253D01*
X33673223Y-53776777D01*
X33656747Y-53758599D01*
X33642132Y-53738893D01*
X33629520Y-53717850D01*
X33619030Y-53695671D01*
X33610765Y-53672572D01*
X33604804Y-53648773D01*
X33601204Y-53624505D01*
X33600000Y-53600001D01*
X33600000Y-52949999D01*
X33601204Y-52925495D01*
X33604804Y-52901227D01*
X33610765Y-52877428D01*
X33619030Y-52854329D01*
X33629520Y-52832150D01*
X33642132Y-52811107D01*
X33656747Y-52791401D01*
X33673223Y-52773223D01*
X33691401Y-52756747D01*
X33711107Y-52742132D01*
X33732150Y-52729520D01*
X33754329Y-52719030D01*
X33777428Y-52710765D01*
X33801227Y-52704804D01*
X33825495Y-52701204D01*
X33849999Y-52700000D01*
X34750001Y-52700000D01*
X34774505Y-52701204D01*
G37*
G36*
X34774505Y-54751204D02*
G01*
X34798773Y-54754804D01*
X34822572Y-54760765D01*
X34845671Y-54769030D01*
X34867850Y-54779520D01*
X34888893Y-54792132D01*
X34908599Y-54806747D01*
X34926777Y-54823223D01*
X34943253Y-54841401D01*
X34957868Y-54861107D01*
X34970480Y-54882150D01*
X34980970Y-54904329D01*
X34989235Y-54927428D01*
X34995196Y-54951227D01*
X34998796Y-54975495D01*
X35000000Y-54999999D01*
X35000000Y-55650001D01*
X34998796Y-55674505D01*
X34995196Y-55698773D01*
X34989235Y-55722572D01*
X34980970Y-55745671D01*
X34970480Y-55767850D01*
X34957868Y-55788893D01*
X34943253Y-55808599D01*
X34926777Y-55826777D01*
X34908599Y-55843253D01*
X34888893Y-55857868D01*
X34867850Y-55870480D01*
X34845671Y-55880970D01*
X34822572Y-55889235D01*
X34798773Y-55895196D01*
X34774505Y-55898796D01*
X34750001Y-55900000D01*
X33849999Y-55900000D01*
X33825495Y-55898796D01*
X33801227Y-55895196D01*
X33777428Y-55889235D01*
X33754329Y-55880970D01*
X33732150Y-55870480D01*
X33711107Y-55857868D01*
X33691401Y-55843253D01*
X33673223Y-55826777D01*
X33656747Y-55808599D01*
X33642132Y-55788893D01*
X33629520Y-55767850D01*
X33619030Y-55745671D01*
X33610765Y-55722572D01*
X33604804Y-55698773D01*
X33601204Y-55674505D01*
X33600000Y-55650001D01*
X33600000Y-54999999D01*
X33601204Y-54975495D01*
X33604804Y-54951227D01*
X33610765Y-54927428D01*
X33619030Y-54904329D01*
X33629520Y-54882150D01*
X33642132Y-54861107D01*
X33656747Y-54841401D01*
X33673223Y-54823223D01*
X33691401Y-54806747D01*
X33711107Y-54792132D01*
X33732150Y-54779520D01*
X33754329Y-54769030D01*
X33777428Y-54760765D01*
X33801227Y-54754804D01*
X33825495Y-54751204D01*
X33849999Y-54750000D01*
X34750001Y-54750000D01*
X34774505Y-54751204D01*
G37*
G36*
X39904505Y-47535504D02*
G01*
X39928773Y-47539104D01*
X39952572Y-47545065D01*
X39975671Y-47553330D01*
X39997850Y-47563820D01*
X40018893Y-47576432D01*
X40038599Y-47591047D01*
X40056777Y-47607523D01*
X40073253Y-47625701D01*
X40087868Y-47645407D01*
X40100480Y-47666450D01*
X40110970Y-47688629D01*
X40119235Y-47711728D01*
X40125196Y-47735527D01*
X40128796Y-47759795D01*
X40130000Y-47784299D01*
X40130000Y-48434301D01*
X40128796Y-48458805D01*
X40125196Y-48483073D01*
X40119235Y-48506872D01*
X40110970Y-48529971D01*
X40100480Y-48552150D01*
X40087868Y-48573193D01*
X40073253Y-48592899D01*
X40056777Y-48611077D01*
X40038599Y-48627553D01*
X40018893Y-48642168D01*
X39997850Y-48654780D01*
X39975671Y-48665270D01*
X39952572Y-48673535D01*
X39928773Y-48679496D01*
X39904505Y-48683096D01*
X39880001Y-48684300D01*
X38979999Y-48684300D01*
X38955495Y-48683096D01*
X38931227Y-48679496D01*
X38907428Y-48673535D01*
X38884329Y-48665270D01*
X38862150Y-48654780D01*
X38841107Y-48642168D01*
X38821401Y-48627553D01*
X38803223Y-48611077D01*
X38786747Y-48592899D01*
X38772132Y-48573193D01*
X38759520Y-48552150D01*
X38749030Y-48529971D01*
X38740765Y-48506872D01*
X38734804Y-48483073D01*
X38731204Y-48458805D01*
X38730000Y-48434301D01*
X38730000Y-47784299D01*
X38731204Y-47759795D01*
X38734804Y-47735527D01*
X38740765Y-47711728D01*
X38749030Y-47688629D01*
X38759520Y-47666450D01*
X38772132Y-47645407D01*
X38786747Y-47625701D01*
X38803223Y-47607523D01*
X38821401Y-47591047D01*
X38841107Y-47576432D01*
X38862150Y-47563820D01*
X38884329Y-47553330D01*
X38907428Y-47545065D01*
X38931227Y-47539104D01*
X38955495Y-47535504D01*
X38979999Y-47534300D01*
X39880001Y-47534300D01*
X39904505Y-47535504D01*
G37*
G36*
X39904505Y-49585504D02*
G01*
X39928773Y-49589104D01*
X39952572Y-49595065D01*
X39975671Y-49603330D01*
X39997850Y-49613820D01*
X40018893Y-49626432D01*
X40038599Y-49641047D01*
X40056777Y-49657523D01*
X40073253Y-49675701D01*
X40087868Y-49695407D01*
X40100480Y-49716450D01*
X40110970Y-49738629D01*
X40119235Y-49761728D01*
X40125196Y-49785527D01*
X40128796Y-49809795D01*
X40130000Y-49834299D01*
X40130000Y-50484301D01*
X40128796Y-50508805D01*
X40125196Y-50533073D01*
X40119235Y-50556872D01*
X40110970Y-50579971D01*
X40100480Y-50602150D01*
X40087868Y-50623193D01*
X40073253Y-50642899D01*
X40056777Y-50661077D01*
X40038599Y-50677553D01*
X40018893Y-50692168D01*
X39997850Y-50704780D01*
X39975671Y-50715270D01*
X39952572Y-50723535D01*
X39928773Y-50729496D01*
X39904505Y-50733096D01*
X39880001Y-50734300D01*
X38979999Y-50734300D01*
X38955495Y-50733096D01*
X38931227Y-50729496D01*
X38907428Y-50723535D01*
X38884329Y-50715270D01*
X38862150Y-50704780D01*
X38841107Y-50692168D01*
X38821401Y-50677553D01*
X38803223Y-50661077D01*
X38786747Y-50642899D01*
X38772132Y-50623193D01*
X38759520Y-50602150D01*
X38749030Y-50579971D01*
X38740765Y-50556872D01*
X38734804Y-50533073D01*
X38731204Y-50508805D01*
X38730000Y-50484301D01*
X38730000Y-49834299D01*
X38731204Y-49809795D01*
X38734804Y-49785527D01*
X38740765Y-49761728D01*
X38749030Y-49738629D01*
X38759520Y-49716450D01*
X38772132Y-49695407D01*
X38786747Y-49675701D01*
X38803223Y-49657523D01*
X38821401Y-49641047D01*
X38841107Y-49626432D01*
X38862150Y-49613820D01*
X38884329Y-49603330D01*
X38907428Y-49595065D01*
X38931227Y-49589104D01*
X38955495Y-49585504D01*
X38979999Y-49584300D01*
X39880001Y-49584300D01*
X39904505Y-49585504D01*
G37*
G36*
X39929505Y-53581204D02*
G01*
X39953773Y-53584804D01*
X39977572Y-53590765D01*
X40000671Y-53599030D01*
X40022850Y-53609520D01*
X40043893Y-53622132D01*
X40063599Y-53636747D01*
X40081777Y-53653223D01*
X40098253Y-53671401D01*
X40112868Y-53691107D01*
X40125480Y-53712150D01*
X40135970Y-53734329D01*
X40144235Y-53757428D01*
X40150196Y-53781227D01*
X40153796Y-53805495D01*
X40155000Y-53829999D01*
X40155000Y-54480001D01*
X40153796Y-54504505D01*
X40150196Y-54528773D01*
X40144235Y-54552572D01*
X40135970Y-54575671D01*
X40125480Y-54597850D01*
X40112868Y-54618893D01*
X40098253Y-54638599D01*
X40081777Y-54656777D01*
X40063599Y-54673253D01*
X40043893Y-54687868D01*
X40022850Y-54700480D01*
X40000671Y-54710970D01*
X39977572Y-54719235D01*
X39953773Y-54725196D01*
X39929505Y-54728796D01*
X39905001Y-54730000D01*
X39004999Y-54730000D01*
X38980495Y-54728796D01*
X38956227Y-54725196D01*
X38932428Y-54719235D01*
X38909329Y-54710970D01*
X38887150Y-54700480D01*
X38866107Y-54687868D01*
X38846401Y-54673253D01*
X38828223Y-54656777D01*
X38811747Y-54638599D01*
X38797132Y-54618893D01*
X38784520Y-54597850D01*
X38774030Y-54575671D01*
X38765765Y-54552572D01*
X38759804Y-54528773D01*
X38756204Y-54504505D01*
X38755000Y-54480001D01*
X38755000Y-53829999D01*
X38756204Y-53805495D01*
X38759804Y-53781227D01*
X38765765Y-53757428D01*
X38774030Y-53734329D01*
X38784520Y-53712150D01*
X38797132Y-53691107D01*
X38811747Y-53671401D01*
X38828223Y-53653223D01*
X38846401Y-53636747D01*
X38866107Y-53622132D01*
X38887150Y-53609520D01*
X38909329Y-53599030D01*
X38932428Y-53590765D01*
X38956227Y-53584804D01*
X38980495Y-53581204D01*
X39004999Y-53580000D01*
X39905001Y-53580000D01*
X39929505Y-53581204D01*
G37*
G36*
X39929505Y-51531204D02*
G01*
X39953773Y-51534804D01*
X39977572Y-51540765D01*
X40000671Y-51549030D01*
X40022850Y-51559520D01*
X40043893Y-51572132D01*
X40063599Y-51586747D01*
X40081777Y-51603223D01*
X40098253Y-51621401D01*
X40112868Y-51641107D01*
X40125480Y-51662150D01*
X40135970Y-51684329D01*
X40144235Y-51707428D01*
X40150196Y-51731227D01*
X40153796Y-51755495D01*
X40155000Y-51779999D01*
X40155000Y-52430001D01*
X40153796Y-52454505D01*
X40150196Y-52478773D01*
X40144235Y-52502572D01*
X40135970Y-52525671D01*
X40125480Y-52547850D01*
X40112868Y-52568893D01*
X40098253Y-52588599D01*
X40081777Y-52606777D01*
X40063599Y-52623253D01*
X40043893Y-52637868D01*
X40022850Y-52650480D01*
X40000671Y-52660970D01*
X39977572Y-52669235D01*
X39953773Y-52675196D01*
X39929505Y-52678796D01*
X39905001Y-52680000D01*
X39004999Y-52680000D01*
X38980495Y-52678796D01*
X38956227Y-52675196D01*
X38932428Y-52669235D01*
X38909329Y-52660970D01*
X38887150Y-52650480D01*
X38866107Y-52637868D01*
X38846401Y-52623253D01*
X38828223Y-52606777D01*
X38811747Y-52588599D01*
X38797132Y-52568893D01*
X38784520Y-52547850D01*
X38774030Y-52525671D01*
X38765765Y-52502572D01*
X38759804Y-52478773D01*
X38756204Y-52454505D01*
X38755000Y-52430001D01*
X38755000Y-51779999D01*
X38756204Y-51755495D01*
X38759804Y-51731227D01*
X38765765Y-51707428D01*
X38774030Y-51684329D01*
X38784520Y-51662150D01*
X38797132Y-51641107D01*
X38811747Y-51621401D01*
X38828223Y-51603223D01*
X38846401Y-51586747D01*
X38866107Y-51572132D01*
X38887150Y-51559520D01*
X38909329Y-51549030D01*
X38932428Y-51540765D01*
X38956227Y-51534804D01*
X38980495Y-51531204D01*
X39004999Y-51530000D01*
X39905001Y-51530000D01*
X39929505Y-51531204D01*
G37*
D14*
X43880000Y-41030000D03*
X45880000Y-40080000D03*
X45880000Y-41980000D03*
D26*
X56070000Y-72040000D03*
X53530000Y-72040000D03*
X56070000Y-69500000D03*
X53530000Y-69500000D03*
X56070000Y-66960000D03*
X53530000Y-66960000D03*
X56070000Y-64420000D03*
X53530000Y-64420000D03*
X56070000Y-61880000D03*
X53530000Y-61880000D03*
X56070000Y-59340000D03*
X53530000Y-59340000D03*
X56070000Y-56800000D03*
X53530000Y-56800000D03*
X56070000Y-54260000D03*
X53530000Y-54260000D03*
X56070000Y-51720000D03*
X53530000Y-51720000D03*
X56070000Y-49180000D03*
X53530000Y-49180000D03*
X56070000Y-46640000D03*
X53530000Y-46640000D03*
X56070000Y-44100000D03*
X53530000Y-44100000D03*
X56070000Y-41560000D03*
X53530000Y-41560000D03*
X56070000Y-39020000D03*
X53530000Y-39020000D03*
X56070000Y-36480000D03*
X53530000Y-36480000D03*
X56070000Y-33940000D03*
X53530000Y-33940000D03*
X56070000Y-31400000D03*
X53530000Y-31400000D03*
X56070000Y-28860000D03*
X53530000Y-28860000D03*
X56070000Y-26320000D03*
X53530000Y-26320000D03*
X56070000Y-23780000D03*
D27*
X53530000Y-23780000D03*
D13*
G36*
X44324505Y-44101204D02*
G01*
X44348773Y-44104804D01*
X44372572Y-44110765D01*
X44395671Y-44119030D01*
X44417850Y-44129520D01*
X44438893Y-44142132D01*
X44458599Y-44156747D01*
X44476777Y-44173223D01*
X44493253Y-44191401D01*
X44507868Y-44211107D01*
X44520480Y-44232150D01*
X44530970Y-44254329D01*
X44539235Y-44277428D01*
X44545196Y-44301227D01*
X44548796Y-44325495D01*
X44550000Y-44349999D01*
X44550000Y-45250001D01*
X44548796Y-45274505D01*
X44545196Y-45298773D01*
X44539235Y-45322572D01*
X44530970Y-45345671D01*
X44520480Y-45367850D01*
X44507868Y-45388893D01*
X44493253Y-45408599D01*
X44476777Y-45426777D01*
X44458599Y-45443253D01*
X44438893Y-45457868D01*
X44417850Y-45470480D01*
X44395671Y-45480970D01*
X44372572Y-45489235D01*
X44348773Y-45495196D01*
X44324505Y-45498796D01*
X44300001Y-45500000D01*
X43649999Y-45500000D01*
X43625495Y-45498796D01*
X43601227Y-45495196D01*
X43577428Y-45489235D01*
X43554329Y-45480970D01*
X43532150Y-45470480D01*
X43511107Y-45457868D01*
X43491401Y-45443253D01*
X43473223Y-45426777D01*
X43456747Y-45408599D01*
X43442132Y-45388893D01*
X43429520Y-45367850D01*
X43419030Y-45345671D01*
X43410765Y-45322572D01*
X43404804Y-45298773D01*
X43401204Y-45274505D01*
X43400000Y-45250001D01*
X43400000Y-44349999D01*
X43401204Y-44325495D01*
X43404804Y-44301227D01*
X43410765Y-44277428D01*
X43419030Y-44254329D01*
X43429520Y-44232150D01*
X43442132Y-44211107D01*
X43456747Y-44191401D01*
X43473223Y-44173223D01*
X43491401Y-44156747D01*
X43511107Y-44142132D01*
X43532150Y-44129520D01*
X43554329Y-44119030D01*
X43577428Y-44110765D01*
X43601227Y-44104804D01*
X43625495Y-44101204D01*
X43649999Y-44100000D01*
X44300001Y-44100000D01*
X44324505Y-44101204D01*
G37*
G36*
X46374505Y-44101204D02*
G01*
X46398773Y-44104804D01*
X46422572Y-44110765D01*
X46445671Y-44119030D01*
X46467850Y-44129520D01*
X46488893Y-44142132D01*
X46508599Y-44156747D01*
X46526777Y-44173223D01*
X46543253Y-44191401D01*
X46557868Y-44211107D01*
X46570480Y-44232150D01*
X46580970Y-44254329D01*
X46589235Y-44277428D01*
X46595196Y-44301227D01*
X46598796Y-44325495D01*
X46600000Y-44349999D01*
X46600000Y-45250001D01*
X46598796Y-45274505D01*
X46595196Y-45298773D01*
X46589235Y-45322572D01*
X46580970Y-45345671D01*
X46570480Y-45367850D01*
X46557868Y-45388893D01*
X46543253Y-45408599D01*
X46526777Y-45426777D01*
X46508599Y-45443253D01*
X46488893Y-45457868D01*
X46467850Y-45470480D01*
X46445671Y-45480970D01*
X46422572Y-45489235D01*
X46398773Y-45495196D01*
X46374505Y-45498796D01*
X46350001Y-45500000D01*
X45699999Y-45500000D01*
X45675495Y-45498796D01*
X45651227Y-45495196D01*
X45627428Y-45489235D01*
X45604329Y-45480970D01*
X45582150Y-45470480D01*
X45561107Y-45457868D01*
X45541401Y-45443253D01*
X45523223Y-45426777D01*
X45506747Y-45408599D01*
X45492132Y-45388893D01*
X45479520Y-45367850D01*
X45469030Y-45345671D01*
X45460765Y-45322572D01*
X45454804Y-45298773D01*
X45451204Y-45274505D01*
X45450000Y-45250001D01*
X45450000Y-44349999D01*
X45451204Y-44325495D01*
X45454804Y-44301227D01*
X45460765Y-44277428D01*
X45469030Y-44254329D01*
X45479520Y-44232150D01*
X45492132Y-44211107D01*
X45506747Y-44191401D01*
X45523223Y-44173223D01*
X45541401Y-44156747D01*
X45561107Y-44142132D01*
X45582150Y-44129520D01*
X45604329Y-44119030D01*
X45627428Y-44110765D01*
X45651227Y-44104804D01*
X45675495Y-44101204D01*
X45699999Y-44100000D01*
X46350001Y-44100000D01*
X46374505Y-44101204D01*
G37*
G36*
X44274505Y-30851204D02*
G01*
X44298773Y-30854804D01*
X44322572Y-30860765D01*
X44345671Y-30869030D01*
X44367850Y-30879520D01*
X44388893Y-30892132D01*
X44408599Y-30906747D01*
X44426777Y-30923223D01*
X44443253Y-30941401D01*
X44457868Y-30961107D01*
X44470480Y-30982150D01*
X44480970Y-31004329D01*
X44489235Y-31027428D01*
X44495196Y-31051227D01*
X44498796Y-31075495D01*
X44500000Y-31099999D01*
X44500000Y-31750001D01*
X44498796Y-31774505D01*
X44495196Y-31798773D01*
X44489235Y-31822572D01*
X44480970Y-31845671D01*
X44470480Y-31867850D01*
X44457868Y-31888893D01*
X44443253Y-31908599D01*
X44426777Y-31926777D01*
X44408599Y-31943253D01*
X44388893Y-31957868D01*
X44367850Y-31970480D01*
X44345671Y-31980970D01*
X44322572Y-31989235D01*
X44298773Y-31995196D01*
X44274505Y-31998796D01*
X44250001Y-32000000D01*
X43349999Y-32000000D01*
X43325495Y-31998796D01*
X43301227Y-31995196D01*
X43277428Y-31989235D01*
X43254329Y-31980970D01*
X43232150Y-31970480D01*
X43211107Y-31957868D01*
X43191401Y-31943253D01*
X43173223Y-31926777D01*
X43156747Y-31908599D01*
X43142132Y-31888893D01*
X43129520Y-31867850D01*
X43119030Y-31845671D01*
X43110765Y-31822572D01*
X43104804Y-31798773D01*
X43101204Y-31774505D01*
X43100000Y-31750001D01*
X43100000Y-31099999D01*
X43101204Y-31075495D01*
X43104804Y-31051227D01*
X43110765Y-31027428D01*
X43119030Y-31004329D01*
X43129520Y-30982150D01*
X43142132Y-30961107D01*
X43156747Y-30941401D01*
X43173223Y-30923223D01*
X43191401Y-30906747D01*
X43211107Y-30892132D01*
X43232150Y-30879520D01*
X43254329Y-30869030D01*
X43277428Y-30860765D01*
X43301227Y-30854804D01*
X43325495Y-30851204D01*
X43349999Y-30850000D01*
X44250001Y-30850000D01*
X44274505Y-30851204D01*
G37*
G36*
X44274505Y-28801204D02*
G01*
X44298773Y-28804804D01*
X44322572Y-28810765D01*
X44345671Y-28819030D01*
X44367850Y-28829520D01*
X44388893Y-28842132D01*
X44408599Y-28856747D01*
X44426777Y-28873223D01*
X44443253Y-28891401D01*
X44457868Y-28911107D01*
X44470480Y-28932150D01*
X44480970Y-28954329D01*
X44489235Y-28977428D01*
X44495196Y-29001227D01*
X44498796Y-29025495D01*
X44500000Y-29049999D01*
X44500000Y-29700001D01*
X44498796Y-29724505D01*
X44495196Y-29748773D01*
X44489235Y-29772572D01*
X44480970Y-29795671D01*
X44470480Y-29817850D01*
X44457868Y-29838893D01*
X44443253Y-29858599D01*
X44426777Y-29876777D01*
X44408599Y-29893253D01*
X44388893Y-29907868D01*
X44367850Y-29920480D01*
X44345671Y-29930970D01*
X44322572Y-29939235D01*
X44298773Y-29945196D01*
X44274505Y-29948796D01*
X44250001Y-29950000D01*
X43349999Y-29950000D01*
X43325495Y-29948796D01*
X43301227Y-29945196D01*
X43277428Y-29939235D01*
X43254329Y-29930970D01*
X43232150Y-29920480D01*
X43211107Y-29907868D01*
X43191401Y-29893253D01*
X43173223Y-29876777D01*
X43156747Y-29858599D01*
X43142132Y-29838893D01*
X43129520Y-29817850D01*
X43119030Y-29795671D01*
X43110765Y-29772572D01*
X43104804Y-29748773D01*
X43101204Y-29724505D01*
X43100000Y-29700001D01*
X43100000Y-29049999D01*
X43101204Y-29025495D01*
X43104804Y-29001227D01*
X43110765Y-28977428D01*
X43119030Y-28954329D01*
X43129520Y-28932150D01*
X43142132Y-28911107D01*
X43156747Y-28891401D01*
X43173223Y-28873223D01*
X43191401Y-28856747D01*
X43211107Y-28842132D01*
X43232150Y-28829520D01*
X43254329Y-28819030D01*
X43277428Y-28810765D01*
X43301227Y-28804804D01*
X43325495Y-28801204D01*
X43349999Y-28800000D01*
X44250001Y-28800000D01*
X44274505Y-28801204D01*
G37*
G36*
X46474505Y-30851204D02*
G01*
X46498773Y-30854804D01*
X46522572Y-30860765D01*
X46545671Y-30869030D01*
X46567850Y-30879520D01*
X46588893Y-30892132D01*
X46608599Y-30906747D01*
X46626777Y-30923223D01*
X46643253Y-30941401D01*
X46657868Y-30961107D01*
X46670480Y-30982150D01*
X46680970Y-31004329D01*
X46689235Y-31027428D01*
X46695196Y-31051227D01*
X46698796Y-31075495D01*
X46700000Y-31099999D01*
X46700000Y-31750001D01*
X46698796Y-31774505D01*
X46695196Y-31798773D01*
X46689235Y-31822572D01*
X46680970Y-31845671D01*
X46670480Y-31867850D01*
X46657868Y-31888893D01*
X46643253Y-31908599D01*
X46626777Y-31926777D01*
X46608599Y-31943253D01*
X46588893Y-31957868D01*
X46567850Y-31970480D01*
X46545671Y-31980970D01*
X46522572Y-31989235D01*
X46498773Y-31995196D01*
X46474505Y-31998796D01*
X46450001Y-32000000D01*
X45549999Y-32000000D01*
X45525495Y-31998796D01*
X45501227Y-31995196D01*
X45477428Y-31989235D01*
X45454329Y-31980970D01*
X45432150Y-31970480D01*
X45411107Y-31957868D01*
X45391401Y-31943253D01*
X45373223Y-31926777D01*
X45356747Y-31908599D01*
X45342132Y-31888893D01*
X45329520Y-31867850D01*
X45319030Y-31845671D01*
X45310765Y-31822572D01*
X45304804Y-31798773D01*
X45301204Y-31774505D01*
X45300000Y-31750001D01*
X45300000Y-31099999D01*
X45301204Y-31075495D01*
X45304804Y-31051227D01*
X45310765Y-31027428D01*
X45319030Y-31004329D01*
X45329520Y-30982150D01*
X45342132Y-30961107D01*
X45356747Y-30941401D01*
X45373223Y-30923223D01*
X45391401Y-30906747D01*
X45411107Y-30892132D01*
X45432150Y-30879520D01*
X45454329Y-30869030D01*
X45477428Y-30860765D01*
X45501227Y-30854804D01*
X45525495Y-30851204D01*
X45549999Y-30850000D01*
X46450001Y-30850000D01*
X46474505Y-30851204D01*
G37*
G36*
X46474505Y-28801204D02*
G01*
X46498773Y-28804804D01*
X46522572Y-28810765D01*
X46545671Y-28819030D01*
X46567850Y-28829520D01*
X46588893Y-28842132D01*
X46608599Y-28856747D01*
X46626777Y-28873223D01*
X46643253Y-28891401D01*
X46657868Y-28911107D01*
X46670480Y-28932150D01*
X46680970Y-28954329D01*
X46689235Y-28977428D01*
X46695196Y-29001227D01*
X46698796Y-29025495D01*
X46700000Y-29049999D01*
X46700000Y-29700001D01*
X46698796Y-29724505D01*
X46695196Y-29748773D01*
X46689235Y-29772572D01*
X46680970Y-29795671D01*
X46670480Y-29817850D01*
X46657868Y-29838893D01*
X46643253Y-29858599D01*
X46626777Y-29876777D01*
X46608599Y-29893253D01*
X46588893Y-29907868D01*
X46567850Y-29920480D01*
X46545671Y-29930970D01*
X46522572Y-29939235D01*
X46498773Y-29945196D01*
X46474505Y-29948796D01*
X46450001Y-29950000D01*
X45549999Y-29950000D01*
X45525495Y-29948796D01*
X45501227Y-29945196D01*
X45477428Y-29939235D01*
X45454329Y-29930970D01*
X45432150Y-29920480D01*
X45411107Y-29907868D01*
X45391401Y-29893253D01*
X45373223Y-29876777D01*
X45356747Y-29858599D01*
X45342132Y-29838893D01*
X45329520Y-29817850D01*
X45319030Y-29795671D01*
X45310765Y-29772572D01*
X45304804Y-29748773D01*
X45301204Y-29724505D01*
X45300000Y-29700001D01*
X45300000Y-29049999D01*
X45301204Y-29025495D01*
X45304804Y-29001227D01*
X45310765Y-28977428D01*
X45319030Y-28954329D01*
X45329520Y-28932150D01*
X45342132Y-28911107D01*
X45356747Y-28891401D01*
X45373223Y-28873223D01*
X45391401Y-28856747D01*
X45411107Y-28842132D01*
X45432150Y-28829520D01*
X45454329Y-28819030D01*
X45477428Y-28810765D01*
X45501227Y-28804804D01*
X45525495Y-28801204D01*
X45549999Y-28800000D01*
X46450001Y-28800000D01*
X46474505Y-28801204D01*
G37*
M02*
