G04 #@! TF.GenerationSoftware,KiCad,Pcbnew,(5.1.5-0-10_14)*
G04 #@! TF.CreationDate,2020-11-09T09:20:15+01:00*
G04 #@! TF.ProjectId,HB-RF-MOD,48422d52-462d-44d4-9f44-2e6b69636164,rev?*
G04 #@! TF.SameCoordinates,Original*
G04 #@! TF.FileFunction,Soldermask,Bot*
G04 #@! TF.FilePolarity,Negative*
%FSLAX46Y46*%
G04 Gerber Fmt 4.6, Leading zero omitted, Abs format (unit mm)*
G04 Created by KiCad (PCBNEW (5.1.5-0-10_14)) date 2020-11-09 09:20:15*
%MOMM*%
%LPD*%
G04 APERTURE LIST*
%ADD10C,2.400000*%
%ADD11R,2.400000X2.400000*%
%ADD12C,1.800000*%
%ADD13R,1.800000X1.800000*%
%ADD14R,1.600000X3.500000*%
%ADD15C,2.700000*%
%ADD16O,1.700000X1.700000*%
%ADD17R,1.700000X1.700000*%
G04 APERTURE END LIST*
D10*
X43800000Y-61500000D03*
D11*
X38800000Y-61500000D03*
D12*
X26950000Y-75937000D03*
X26950000Y-73778000D03*
X26950000Y-71619000D03*
D13*
X26950000Y-69460000D03*
D14*
X47100000Y-43400000D03*
X47100000Y-37800000D03*
D15*
X54780000Y-19280000D03*
X54780000Y-76480000D03*
D16*
X56070000Y-72040000D03*
X53530000Y-72040000D03*
X56070000Y-69500000D03*
X53530000Y-69500000D03*
X56070000Y-66960000D03*
X53530000Y-66960000D03*
X56070000Y-64420000D03*
X53530000Y-64420000D03*
X56070000Y-61880000D03*
X53530000Y-61880000D03*
X56070000Y-59340000D03*
X53530000Y-59340000D03*
X56070000Y-56800000D03*
X53530000Y-56800000D03*
X56070000Y-54260000D03*
X53530000Y-54260000D03*
X56070000Y-51720000D03*
X53530000Y-51720000D03*
X56070000Y-49180000D03*
X53530000Y-49180000D03*
X56070000Y-46640000D03*
X53530000Y-46640000D03*
X56070000Y-44100000D03*
X53530000Y-44100000D03*
X56070000Y-41560000D03*
X53530000Y-41560000D03*
X56070000Y-39020000D03*
X53530000Y-39020000D03*
X56070000Y-36480000D03*
X53530000Y-36480000D03*
X56070000Y-33940000D03*
X53530000Y-33940000D03*
X56070000Y-31400000D03*
X53530000Y-31400000D03*
X56070000Y-28860000D03*
X53530000Y-28860000D03*
X56070000Y-26320000D03*
X53530000Y-26320000D03*
X56070000Y-23780000D03*
D17*
X53530000Y-23780000D03*
M02*
