M48
; DRILL file {KiCad (5.1.5-0-10_14)} date 2020 November 09, Monday 10:05:18
; FORMAT={-:-/ absolute / inch / decimal}
; #@! TF.CreationDate,2020-11-09T10:05:18+01:00
; #@! TF.GenerationSoftware,Kicad,Pcbnew,(5.1.5-0-10_14)
FMAT,2
INCH
T1C0.0157
T2C0.0354
T3C0.0394
T4C0.0472
T5C0.1063
%
G90
G05
T1
X0.9488Y-1.7283
X0.9921Y-0.7087
X0.9921Y-0.9213
X1.0425Y-2.1247
X1.0709Y-2.6161
X1.0728Y-2.4626
X1.0728Y-2.5413
X1.0748Y-2.3799
X1.0967Y-1.9054
X1.1257Y-1.7244
X1.1366Y-1.8594
X1.2879Y-1.7481
X1.3597Y-0.8112
X1.3681Y-1.9941
X1.3701Y-1.8583
X1.3976Y-2.9331
X1.4016Y-2.752
X1.4055Y-3.0984
X1.4682Y-1.7495
X1.6122Y-2.2736
X1.6142Y-2.6142
X1.6142Y-2.9744
X1.6181Y-2.7657
X1.6535Y-0.8346
X1.6661Y-1.0898
X1.687Y-1.9094
X1.7677Y-1.3071
X1.7795Y-0.9291
X1.8189Y-2.0394
X1.8701Y-2.2008
X1.8839Y-2.752
X1.8878Y-2.9291
X1.8898Y-3.0984
X1.9311Y-2.4508
X2.0078Y-1.7124
X2.0105Y-1.3296
X2.0276Y-1.815
X2.0472Y-0.8268
X2.0709Y-3.0945
X2.2283Y-2.9213
X2.2362Y-0.6772
T2
X1.061Y-2.7346
X1.061Y-2.8196
X1.061Y-2.9046
X1.061Y-2.9896
T3
X2.1075Y-0.9362
X2.1075Y-1.0362
X2.1075Y-1.1362
X2.1075Y-1.2362
X2.1075Y-1.3362
X2.1075Y-1.4362
X2.1075Y-1.5362
X2.1075Y-1.6362
X2.1075Y-1.7362
X2.1075Y-1.8362
X2.1075Y-1.9362
X2.1075Y-2.0362
X2.1075Y-2.1362
X2.1075Y-2.2362
X2.1075Y-2.3362
X2.1075Y-2.4362
X2.1075Y-2.5362
X2.1075Y-2.6362
X2.1075Y-2.7362
X2.1075Y-2.8362
X2.2075Y-0.9362
X2.2075Y-1.0362
X2.2075Y-1.1362
X2.2075Y-1.2362
X2.2075Y-1.3362
X2.2075Y-1.4362
X2.2075Y-1.5362
X2.2075Y-1.6362
X2.2075Y-1.7362
X2.2075Y-1.8362
X2.2075Y-1.9362
X2.2075Y-2.0362
X2.2075Y-2.1362
X2.2075Y-2.2362
X2.2075Y-2.3362
X2.2075Y-2.4362
X2.2075Y-2.5362
X2.2075Y-2.6362
X2.2075Y-2.7362
X2.2075Y-2.8362
T4
X1.5118Y-2.3937
X1.7087Y-2.3937
T5
X2.1567Y-0.7591
X2.1567Y-3.011
T0
M30
