M48
; DRILL file {KiCad (5.1.5-0-10_14)} date 2020 November 06, Friday 22:36:19
; FORMAT={-:-/ absolute / inch / decimal}
; #@! TF.CreationDate,2020-11-06T22:36:19+01:00
; #@! TF.GenerationSoftware,Kicad,Pcbnew,(5.1.5-0-10_14)
FMAT,2
INCH
T1C0.0157
T2C0.0315
T3C0.0394
T4C0.0787
T5C0.1063
%
G90
G05
T1
X6.3937Y-3.4134
X6.4675Y-3.778
X6.4961Y-4.1339
X6.4961Y-4.3307
X6.4961Y-4.5276
X6.4961Y-4.7244
X6.5Y-2.3937
X6.5319Y-3.4948
X6.5775Y-3.4896
X6.6929Y-3.937
X6.6929Y-4.1339
X6.6929Y-4.3307
X6.6929Y-4.7244
X6.7021Y-3.4067
X6.7283Y-3.5906
X6.7329Y-3.3814
X6.872Y-3.7106
X6.874Y-3.5896
X6.8898Y-3.937
X6.8898Y-4.3307
X6.8898Y-4.7244
X7.046Y-3.6107
X7.0807Y-4.5335
X7.0866Y-4.1339
X7.0866Y-4.3307
X7.0866Y-4.7244
X7.1142Y-2.6063
X7.1171Y-2.8986
X7.1211Y-3.0404
X7.2008Y-3.4094
X7.2283Y-3.6772
X7.3018Y-3.2176
X7.311Y-3.8898
X7.3465Y-2.7087
X7.4311Y-3.5591
X7.4331Y-3.4764
X7.437Y-3.2087
T2
X7.3799Y-4.1496
X7.3799Y-4.2283
X7.3799Y-4.3071
X7.3799Y-4.3858
X7.3799Y-4.4646
T3
X7.5492Y-2.5669
X7.5492Y-2.6669
X7.5492Y-2.7669
X7.5492Y-2.8669
X7.5492Y-2.9669
X7.5492Y-3.0669
X7.5492Y-3.1669
X7.5492Y-3.2669
X7.5492Y-3.3669
X7.5492Y-3.4669
X7.5492Y-3.5669
X7.5492Y-3.6669
X7.5492Y-3.7669
X7.5492Y-3.8669
X7.5492Y-3.9669
X7.5492Y-4.0669
X7.5492Y-4.1669
X7.5492Y-4.2669
X7.5492Y-4.3669
X7.5492Y-4.4669
X7.6492Y-2.5669
X7.6492Y-2.6669
X7.6492Y-2.7669
X7.6492Y-2.8669
X7.6492Y-2.9669
X7.6492Y-3.0669
X7.6492Y-3.1669
X7.6492Y-3.2669
X7.6492Y-3.3669
X7.6492Y-3.4669
X7.6492Y-3.5669
X7.6492Y-3.6669
X7.6492Y-3.7669
X7.6492Y-3.8669
X7.6492Y-3.9669
X7.6492Y-4.0669
X7.6492Y-4.1669
X7.6492Y-4.2669
X7.6492Y-4.3669
X7.6492Y-4.4669
T4
X6.8543Y-4.122
X6.8543Y-4.5157
T5
X7.5984Y-2.3898
X7.5984Y-4.6417
T0
M30
