G04 #@! TF.GenerationSoftware,KiCad,Pcbnew,(5.1.5-0-10_14)*
G04 #@! TF.CreationDate,2020-11-06T22:44:04+01:00*
G04 #@! TF.ProjectId,HB-RF-MOD,48422d52-462d-44d4-9f44-2e6b69636164,rev?*
G04 #@! TF.SameCoordinates,Original*
G04 #@! TF.FileFunction,Copper,L1,Top*
G04 #@! TF.FilePolarity,Positive*
%FSLAX46Y46*%
G04 Gerber Fmt 4.6, Leading zero omitted, Abs format (unit mm)*
G04 Created by KiCad (PCBNEW (5.1.5-0-10_14)) date 2020-11-06 22:44:04*
%MOMM*%
%LPD*%
G04 APERTURE LIST*
%ADD10O,1.350000X1.350000*%
%ADD11R,1.350000X1.350000*%
%ADD12R,0.800000X1.200000*%
%ADD13R,1.200000X0.800000*%
%ADD14R,0.400000X1.100000*%
%ADD15R,0.700000X1.100000*%
%ADD16C,0.100000*%
%ADD17R,1.840000X2.200000*%
%ADD18R,1.500000X1.000000*%
%ADD19R,1.800000X1.000000*%
%ADD20R,1.050000X0.650000*%
%ADD21R,3.500000X1.600000*%
%ADD22R,0.900000X0.800000*%
%ADD23C,4.000000*%
%ADD24R,4.000000X4.000000*%
%ADD25O,1.700000X1.700000*%
%ADD26R,1.700000X1.700000*%
%ADD27C,0.800000*%
%ADD28C,0.250000*%
%ADD29C,0.400000*%
%ADD30C,0.254000*%
G04 APERTURE END LIST*
D10*
X187450000Y-105400000D03*
X187450000Y-107400000D03*
X187450000Y-109400000D03*
X187450000Y-111400000D03*
D11*
X187450000Y-113400000D03*
D12*
X169250000Y-66184800D03*
X170520000Y-66184800D03*
X171790000Y-66184800D03*
X173060000Y-66184800D03*
X174330000Y-66184800D03*
X175600000Y-66184800D03*
X176870000Y-66188500D03*
D13*
X179005000Y-69735000D03*
X179005000Y-71005000D03*
X179005000Y-72275000D03*
X179005000Y-73545000D03*
X179005000Y-74815000D03*
X179005000Y-76085000D03*
X179005000Y-77355000D03*
X179005000Y-78625000D03*
X179005000Y-79895000D03*
X179005000Y-81165000D03*
D12*
X176870000Y-84621000D03*
X175600000Y-84621000D03*
X174330000Y-84621000D03*
X173060000Y-84621000D03*
X171790000Y-84621000D03*
X170520000Y-84621000D03*
X169250000Y-84621000D03*
D14*
X166950000Y-94200000D03*
X166250000Y-94200000D03*
X165550000Y-94200000D03*
X165550000Y-92000000D03*
X166250000Y-92000000D03*
X166950000Y-92000000D03*
D15*
X167800000Y-94200000D03*
X164700000Y-94200000D03*
X164700000Y-92000000D03*
X167800000Y-92000000D03*
G04 #@! TA.AperFunction,SMDPad,CuDef*
D16*
G36*
X162874505Y-93576204D02*
G01*
X162898773Y-93579804D01*
X162922572Y-93585765D01*
X162945671Y-93594030D01*
X162967850Y-93604520D01*
X162988893Y-93617132D01*
X163008599Y-93631747D01*
X163026777Y-93648223D01*
X163043253Y-93666401D01*
X163057868Y-93686107D01*
X163070480Y-93707150D01*
X163080970Y-93729329D01*
X163089235Y-93752428D01*
X163095196Y-93776227D01*
X163098796Y-93800495D01*
X163100000Y-93824999D01*
X163100000Y-94475001D01*
X163098796Y-94499505D01*
X163095196Y-94523773D01*
X163089235Y-94547572D01*
X163080970Y-94570671D01*
X163070480Y-94592850D01*
X163057868Y-94613893D01*
X163043253Y-94633599D01*
X163026777Y-94651777D01*
X163008599Y-94668253D01*
X162988893Y-94682868D01*
X162967850Y-94695480D01*
X162945671Y-94705970D01*
X162922572Y-94714235D01*
X162898773Y-94720196D01*
X162874505Y-94723796D01*
X162850001Y-94725000D01*
X161949999Y-94725000D01*
X161925495Y-94723796D01*
X161901227Y-94720196D01*
X161877428Y-94714235D01*
X161854329Y-94705970D01*
X161832150Y-94695480D01*
X161811107Y-94682868D01*
X161791401Y-94668253D01*
X161773223Y-94651777D01*
X161756747Y-94633599D01*
X161742132Y-94613893D01*
X161729520Y-94592850D01*
X161719030Y-94570671D01*
X161710765Y-94547572D01*
X161704804Y-94523773D01*
X161701204Y-94499505D01*
X161700000Y-94475001D01*
X161700000Y-93824999D01*
X161701204Y-93800495D01*
X161704804Y-93776227D01*
X161710765Y-93752428D01*
X161719030Y-93729329D01*
X161729520Y-93707150D01*
X161742132Y-93686107D01*
X161756747Y-93666401D01*
X161773223Y-93648223D01*
X161791401Y-93631747D01*
X161811107Y-93617132D01*
X161832150Y-93604520D01*
X161854329Y-93594030D01*
X161877428Y-93585765D01*
X161901227Y-93579804D01*
X161925495Y-93576204D01*
X161949999Y-93575000D01*
X162850001Y-93575000D01*
X162874505Y-93576204D01*
G37*
G04 #@! TD.AperFunction*
G04 #@! TA.AperFunction,SMDPad,CuDef*
G36*
X162874505Y-91526204D02*
G01*
X162898773Y-91529804D01*
X162922572Y-91535765D01*
X162945671Y-91544030D01*
X162967850Y-91554520D01*
X162988893Y-91567132D01*
X163008599Y-91581747D01*
X163026777Y-91598223D01*
X163043253Y-91616401D01*
X163057868Y-91636107D01*
X163070480Y-91657150D01*
X163080970Y-91679329D01*
X163089235Y-91702428D01*
X163095196Y-91726227D01*
X163098796Y-91750495D01*
X163100000Y-91774999D01*
X163100000Y-92425001D01*
X163098796Y-92449505D01*
X163095196Y-92473773D01*
X163089235Y-92497572D01*
X163080970Y-92520671D01*
X163070480Y-92542850D01*
X163057868Y-92563893D01*
X163043253Y-92583599D01*
X163026777Y-92601777D01*
X163008599Y-92618253D01*
X162988893Y-92632868D01*
X162967850Y-92645480D01*
X162945671Y-92655970D01*
X162922572Y-92664235D01*
X162898773Y-92670196D01*
X162874505Y-92673796D01*
X162850001Y-92675000D01*
X161949999Y-92675000D01*
X161925495Y-92673796D01*
X161901227Y-92670196D01*
X161877428Y-92664235D01*
X161854329Y-92655970D01*
X161832150Y-92645480D01*
X161811107Y-92632868D01*
X161791401Y-92618253D01*
X161773223Y-92601777D01*
X161756747Y-92583599D01*
X161742132Y-92563893D01*
X161729520Y-92542850D01*
X161719030Y-92520671D01*
X161710765Y-92497572D01*
X161704804Y-92473773D01*
X161701204Y-92449505D01*
X161700000Y-92425001D01*
X161700000Y-91774999D01*
X161701204Y-91750495D01*
X161704804Y-91726227D01*
X161710765Y-91702428D01*
X161719030Y-91679329D01*
X161729520Y-91657150D01*
X161742132Y-91636107D01*
X161756747Y-91616401D01*
X161773223Y-91598223D01*
X161791401Y-91581747D01*
X161811107Y-91567132D01*
X161832150Y-91554520D01*
X161854329Y-91544030D01*
X161877428Y-91535765D01*
X161901227Y-91529804D01*
X161925495Y-91526204D01*
X161949999Y-91525000D01*
X162850001Y-91525000D01*
X162874505Y-91526204D01*
G37*
G04 #@! TD.AperFunction*
G04 #@! TA.AperFunction,SMDPad,CuDef*
G36*
X167999505Y-98076204D02*
G01*
X168023773Y-98079804D01*
X168047572Y-98085765D01*
X168070671Y-98094030D01*
X168092850Y-98104520D01*
X168113893Y-98117132D01*
X168133599Y-98131747D01*
X168151777Y-98148223D01*
X168168253Y-98166401D01*
X168182868Y-98186107D01*
X168195480Y-98207150D01*
X168205970Y-98229329D01*
X168214235Y-98252428D01*
X168220196Y-98276227D01*
X168223796Y-98300495D01*
X168225000Y-98324999D01*
X168225000Y-98975001D01*
X168223796Y-98999505D01*
X168220196Y-99023773D01*
X168214235Y-99047572D01*
X168205970Y-99070671D01*
X168195480Y-99092850D01*
X168182868Y-99113893D01*
X168168253Y-99133599D01*
X168151777Y-99151777D01*
X168133599Y-99168253D01*
X168113893Y-99182868D01*
X168092850Y-99195480D01*
X168070671Y-99205970D01*
X168047572Y-99214235D01*
X168023773Y-99220196D01*
X167999505Y-99223796D01*
X167975001Y-99225000D01*
X167074999Y-99225000D01*
X167050495Y-99223796D01*
X167026227Y-99220196D01*
X167002428Y-99214235D01*
X166979329Y-99205970D01*
X166957150Y-99195480D01*
X166936107Y-99182868D01*
X166916401Y-99168253D01*
X166898223Y-99151777D01*
X166881747Y-99133599D01*
X166867132Y-99113893D01*
X166854520Y-99092850D01*
X166844030Y-99070671D01*
X166835765Y-99047572D01*
X166829804Y-99023773D01*
X166826204Y-98999505D01*
X166825000Y-98975001D01*
X166825000Y-98324999D01*
X166826204Y-98300495D01*
X166829804Y-98276227D01*
X166835765Y-98252428D01*
X166844030Y-98229329D01*
X166854520Y-98207150D01*
X166867132Y-98186107D01*
X166881747Y-98166401D01*
X166898223Y-98148223D01*
X166916401Y-98131747D01*
X166936107Y-98117132D01*
X166957150Y-98104520D01*
X166979329Y-98094030D01*
X167002428Y-98085765D01*
X167026227Y-98079804D01*
X167050495Y-98076204D01*
X167074999Y-98075000D01*
X167975001Y-98075000D01*
X167999505Y-98076204D01*
G37*
G04 #@! TD.AperFunction*
G04 #@! TA.AperFunction,SMDPad,CuDef*
G36*
X167999505Y-96026204D02*
G01*
X168023773Y-96029804D01*
X168047572Y-96035765D01*
X168070671Y-96044030D01*
X168092850Y-96054520D01*
X168113893Y-96067132D01*
X168133599Y-96081747D01*
X168151777Y-96098223D01*
X168168253Y-96116401D01*
X168182868Y-96136107D01*
X168195480Y-96157150D01*
X168205970Y-96179329D01*
X168214235Y-96202428D01*
X168220196Y-96226227D01*
X168223796Y-96250495D01*
X168225000Y-96274999D01*
X168225000Y-96925001D01*
X168223796Y-96949505D01*
X168220196Y-96973773D01*
X168214235Y-96997572D01*
X168205970Y-97020671D01*
X168195480Y-97042850D01*
X168182868Y-97063893D01*
X168168253Y-97083599D01*
X168151777Y-97101777D01*
X168133599Y-97118253D01*
X168113893Y-97132868D01*
X168092850Y-97145480D01*
X168070671Y-97155970D01*
X168047572Y-97164235D01*
X168023773Y-97170196D01*
X167999505Y-97173796D01*
X167975001Y-97175000D01*
X167074999Y-97175000D01*
X167050495Y-97173796D01*
X167026227Y-97170196D01*
X167002428Y-97164235D01*
X166979329Y-97155970D01*
X166957150Y-97145480D01*
X166936107Y-97132868D01*
X166916401Y-97118253D01*
X166898223Y-97101777D01*
X166881747Y-97083599D01*
X166867132Y-97063893D01*
X166854520Y-97042850D01*
X166844030Y-97020671D01*
X166835765Y-96997572D01*
X166829804Y-96973773D01*
X166826204Y-96949505D01*
X166825000Y-96925001D01*
X166825000Y-96274999D01*
X166826204Y-96250495D01*
X166829804Y-96226227D01*
X166835765Y-96202428D01*
X166844030Y-96179329D01*
X166854520Y-96157150D01*
X166867132Y-96136107D01*
X166881747Y-96116401D01*
X166898223Y-96098223D01*
X166916401Y-96081747D01*
X166936107Y-96067132D01*
X166957150Y-96054520D01*
X166979329Y-96044030D01*
X167002428Y-96035765D01*
X167026227Y-96029804D01*
X167050495Y-96026204D01*
X167074999Y-96025000D01*
X167975001Y-96025000D01*
X167999505Y-96026204D01*
G37*
G04 #@! TD.AperFunction*
G04 #@! TA.AperFunction,SMDPad,CuDef*
G36*
X185723800Y-62300000D02*
G01*
X184723800Y-61600000D01*
X184723800Y-60800000D01*
X185723800Y-60100000D01*
X185723800Y-62300000D01*
G37*
G04 #@! TD.AperFunction*
D17*
X186633500Y-61200000D03*
D18*
X183820000Y-62700000D03*
D19*
X183966500Y-61200000D03*
D18*
X183820000Y-59700000D03*
G04 #@! TA.AperFunction,SMDPad,CuDef*
D16*
G36*
X187542000Y-60100000D02*
G01*
X188392000Y-60700000D01*
X188392000Y-61700000D01*
X187542000Y-62300000D01*
X187542000Y-60100000D01*
G37*
G04 #@! TD.AperFunction*
D20*
X185650000Y-91575000D03*
X181500000Y-91575000D03*
X185650000Y-89425000D03*
X181500000Y-89425000D03*
G04 #@! TA.AperFunction,SMDPad,CuDef*
D16*
G36*
X187749505Y-96501204D02*
G01*
X187773773Y-96504804D01*
X187797572Y-96510765D01*
X187820671Y-96519030D01*
X187842850Y-96529520D01*
X187863893Y-96542132D01*
X187883599Y-96556747D01*
X187901777Y-96573223D01*
X187918253Y-96591401D01*
X187932868Y-96611107D01*
X187945480Y-96632150D01*
X187955970Y-96654329D01*
X187964235Y-96677428D01*
X187970196Y-96701227D01*
X187973796Y-96725495D01*
X187975000Y-96749999D01*
X187975000Y-97400001D01*
X187973796Y-97424505D01*
X187970196Y-97448773D01*
X187964235Y-97472572D01*
X187955970Y-97495671D01*
X187945480Y-97517850D01*
X187932868Y-97538893D01*
X187918253Y-97558599D01*
X187901777Y-97576777D01*
X187883599Y-97593253D01*
X187863893Y-97607868D01*
X187842850Y-97620480D01*
X187820671Y-97630970D01*
X187797572Y-97639235D01*
X187773773Y-97645196D01*
X187749505Y-97648796D01*
X187725001Y-97650000D01*
X186824999Y-97650000D01*
X186800495Y-97648796D01*
X186776227Y-97645196D01*
X186752428Y-97639235D01*
X186729329Y-97630970D01*
X186707150Y-97620480D01*
X186686107Y-97607868D01*
X186666401Y-97593253D01*
X186648223Y-97576777D01*
X186631747Y-97558599D01*
X186617132Y-97538893D01*
X186604520Y-97517850D01*
X186594030Y-97495671D01*
X186585765Y-97472572D01*
X186579804Y-97448773D01*
X186576204Y-97424505D01*
X186575000Y-97400001D01*
X186575000Y-96749999D01*
X186576204Y-96725495D01*
X186579804Y-96701227D01*
X186585765Y-96677428D01*
X186594030Y-96654329D01*
X186604520Y-96632150D01*
X186617132Y-96611107D01*
X186631747Y-96591401D01*
X186648223Y-96573223D01*
X186666401Y-96556747D01*
X186686107Y-96542132D01*
X186707150Y-96529520D01*
X186729329Y-96519030D01*
X186752428Y-96510765D01*
X186776227Y-96504804D01*
X186800495Y-96501204D01*
X186824999Y-96500000D01*
X187725001Y-96500000D01*
X187749505Y-96501204D01*
G37*
G04 #@! TD.AperFunction*
G04 #@! TA.AperFunction,SMDPad,CuDef*
G36*
X187749505Y-94451204D02*
G01*
X187773773Y-94454804D01*
X187797572Y-94460765D01*
X187820671Y-94469030D01*
X187842850Y-94479520D01*
X187863893Y-94492132D01*
X187883599Y-94506747D01*
X187901777Y-94523223D01*
X187918253Y-94541401D01*
X187932868Y-94561107D01*
X187945480Y-94582150D01*
X187955970Y-94604329D01*
X187964235Y-94627428D01*
X187970196Y-94651227D01*
X187973796Y-94675495D01*
X187975000Y-94699999D01*
X187975000Y-95350001D01*
X187973796Y-95374505D01*
X187970196Y-95398773D01*
X187964235Y-95422572D01*
X187955970Y-95445671D01*
X187945480Y-95467850D01*
X187932868Y-95488893D01*
X187918253Y-95508599D01*
X187901777Y-95526777D01*
X187883599Y-95543253D01*
X187863893Y-95557868D01*
X187842850Y-95570480D01*
X187820671Y-95580970D01*
X187797572Y-95589235D01*
X187773773Y-95595196D01*
X187749505Y-95598796D01*
X187725001Y-95600000D01*
X186824999Y-95600000D01*
X186800495Y-95598796D01*
X186776227Y-95595196D01*
X186752428Y-95589235D01*
X186729329Y-95580970D01*
X186707150Y-95570480D01*
X186686107Y-95557868D01*
X186666401Y-95543253D01*
X186648223Y-95526777D01*
X186631747Y-95508599D01*
X186617132Y-95488893D01*
X186604520Y-95467850D01*
X186594030Y-95445671D01*
X186585765Y-95422572D01*
X186579804Y-95398773D01*
X186576204Y-95374505D01*
X186575000Y-95350001D01*
X186575000Y-94699999D01*
X186576204Y-94675495D01*
X186579804Y-94651227D01*
X186585765Y-94627428D01*
X186594030Y-94604329D01*
X186604520Y-94582150D01*
X186617132Y-94561107D01*
X186631747Y-94541401D01*
X186648223Y-94523223D01*
X186666401Y-94506747D01*
X186686107Y-94492132D01*
X186707150Y-94479520D01*
X186729329Y-94469030D01*
X186752428Y-94460765D01*
X186776227Y-94454804D01*
X186800495Y-94451204D01*
X186824999Y-94450000D01*
X187725001Y-94450000D01*
X187749505Y-94451204D01*
G37*
G04 #@! TD.AperFunction*
G04 #@! TA.AperFunction,SMDPad,CuDef*
G36*
X164749505Y-98651204D02*
G01*
X164773773Y-98654804D01*
X164797572Y-98660765D01*
X164820671Y-98669030D01*
X164842850Y-98679520D01*
X164863893Y-98692132D01*
X164883599Y-98706747D01*
X164901777Y-98723223D01*
X164918253Y-98741401D01*
X164932868Y-98761107D01*
X164945480Y-98782150D01*
X164955970Y-98804329D01*
X164964235Y-98827428D01*
X164970196Y-98851227D01*
X164973796Y-98875495D01*
X164975000Y-98899999D01*
X164975000Y-99550001D01*
X164973796Y-99574505D01*
X164970196Y-99598773D01*
X164964235Y-99622572D01*
X164955970Y-99645671D01*
X164945480Y-99667850D01*
X164932868Y-99688893D01*
X164918253Y-99708599D01*
X164901777Y-99726777D01*
X164883599Y-99743253D01*
X164863893Y-99757868D01*
X164842850Y-99770480D01*
X164820671Y-99780970D01*
X164797572Y-99789235D01*
X164773773Y-99795196D01*
X164749505Y-99798796D01*
X164725001Y-99800000D01*
X163824999Y-99800000D01*
X163800495Y-99798796D01*
X163776227Y-99795196D01*
X163752428Y-99789235D01*
X163729329Y-99780970D01*
X163707150Y-99770480D01*
X163686107Y-99757868D01*
X163666401Y-99743253D01*
X163648223Y-99726777D01*
X163631747Y-99708599D01*
X163617132Y-99688893D01*
X163604520Y-99667850D01*
X163594030Y-99645671D01*
X163585765Y-99622572D01*
X163579804Y-99598773D01*
X163576204Y-99574505D01*
X163575000Y-99550001D01*
X163575000Y-98899999D01*
X163576204Y-98875495D01*
X163579804Y-98851227D01*
X163585765Y-98827428D01*
X163594030Y-98804329D01*
X163604520Y-98782150D01*
X163617132Y-98761107D01*
X163631747Y-98741401D01*
X163648223Y-98723223D01*
X163666401Y-98706747D01*
X163686107Y-98692132D01*
X163707150Y-98679520D01*
X163729329Y-98669030D01*
X163752428Y-98660765D01*
X163776227Y-98654804D01*
X163800495Y-98651204D01*
X163824999Y-98650000D01*
X164725001Y-98650000D01*
X164749505Y-98651204D01*
G37*
G04 #@! TD.AperFunction*
G04 #@! TA.AperFunction,SMDPad,CuDef*
G36*
X164749505Y-96601204D02*
G01*
X164773773Y-96604804D01*
X164797572Y-96610765D01*
X164820671Y-96619030D01*
X164842850Y-96629520D01*
X164863893Y-96642132D01*
X164883599Y-96656747D01*
X164901777Y-96673223D01*
X164918253Y-96691401D01*
X164932868Y-96711107D01*
X164945480Y-96732150D01*
X164955970Y-96754329D01*
X164964235Y-96777428D01*
X164970196Y-96801227D01*
X164973796Y-96825495D01*
X164975000Y-96849999D01*
X164975000Y-97500001D01*
X164973796Y-97524505D01*
X164970196Y-97548773D01*
X164964235Y-97572572D01*
X164955970Y-97595671D01*
X164945480Y-97617850D01*
X164932868Y-97638893D01*
X164918253Y-97658599D01*
X164901777Y-97676777D01*
X164883599Y-97693253D01*
X164863893Y-97707868D01*
X164842850Y-97720480D01*
X164820671Y-97730970D01*
X164797572Y-97739235D01*
X164773773Y-97745196D01*
X164749505Y-97748796D01*
X164725001Y-97750000D01*
X163824999Y-97750000D01*
X163800495Y-97748796D01*
X163776227Y-97745196D01*
X163752428Y-97739235D01*
X163729329Y-97730970D01*
X163707150Y-97720480D01*
X163686107Y-97707868D01*
X163666401Y-97693253D01*
X163648223Y-97676777D01*
X163631747Y-97658599D01*
X163617132Y-97638893D01*
X163604520Y-97617850D01*
X163594030Y-97595671D01*
X163585765Y-97572572D01*
X163579804Y-97548773D01*
X163576204Y-97524505D01*
X163575000Y-97500001D01*
X163575000Y-96849999D01*
X163576204Y-96825495D01*
X163579804Y-96801227D01*
X163585765Y-96777428D01*
X163594030Y-96754329D01*
X163604520Y-96732150D01*
X163617132Y-96711107D01*
X163631747Y-96691401D01*
X163648223Y-96673223D01*
X163666401Y-96656747D01*
X163686107Y-96642132D01*
X163707150Y-96629520D01*
X163729329Y-96619030D01*
X163752428Y-96610765D01*
X163776227Y-96604804D01*
X163800495Y-96601204D01*
X163824999Y-96600000D01*
X164725001Y-96600000D01*
X164749505Y-96601204D01*
G37*
G04 #@! TD.AperFunction*
G04 #@! TA.AperFunction,SMDPad,CuDef*
G36*
X164924505Y-87051204D02*
G01*
X164948773Y-87054804D01*
X164972572Y-87060765D01*
X164995671Y-87069030D01*
X165017850Y-87079520D01*
X165038893Y-87092132D01*
X165058599Y-87106747D01*
X165076777Y-87123223D01*
X165093253Y-87141401D01*
X165107868Y-87161107D01*
X165120480Y-87182150D01*
X165130970Y-87204329D01*
X165139235Y-87227428D01*
X165145196Y-87251227D01*
X165148796Y-87275495D01*
X165150000Y-87299999D01*
X165150000Y-87950001D01*
X165148796Y-87974505D01*
X165145196Y-87998773D01*
X165139235Y-88022572D01*
X165130970Y-88045671D01*
X165120480Y-88067850D01*
X165107868Y-88088893D01*
X165093253Y-88108599D01*
X165076777Y-88126777D01*
X165058599Y-88143253D01*
X165038893Y-88157868D01*
X165017850Y-88170480D01*
X164995671Y-88180970D01*
X164972572Y-88189235D01*
X164948773Y-88195196D01*
X164924505Y-88198796D01*
X164900001Y-88200000D01*
X163999999Y-88200000D01*
X163975495Y-88198796D01*
X163951227Y-88195196D01*
X163927428Y-88189235D01*
X163904329Y-88180970D01*
X163882150Y-88170480D01*
X163861107Y-88157868D01*
X163841401Y-88143253D01*
X163823223Y-88126777D01*
X163806747Y-88108599D01*
X163792132Y-88088893D01*
X163779520Y-88067850D01*
X163769030Y-88045671D01*
X163760765Y-88022572D01*
X163754804Y-87998773D01*
X163751204Y-87974505D01*
X163750000Y-87950001D01*
X163750000Y-87299999D01*
X163751204Y-87275495D01*
X163754804Y-87251227D01*
X163760765Y-87227428D01*
X163769030Y-87204329D01*
X163779520Y-87182150D01*
X163792132Y-87161107D01*
X163806747Y-87141401D01*
X163823223Y-87123223D01*
X163841401Y-87106747D01*
X163861107Y-87092132D01*
X163882150Y-87079520D01*
X163904329Y-87069030D01*
X163927428Y-87060765D01*
X163951227Y-87054804D01*
X163975495Y-87051204D01*
X163999999Y-87050000D01*
X164900001Y-87050000D01*
X164924505Y-87051204D01*
G37*
G04 #@! TD.AperFunction*
G04 #@! TA.AperFunction,SMDPad,CuDef*
G36*
X164924505Y-89101204D02*
G01*
X164948773Y-89104804D01*
X164972572Y-89110765D01*
X164995671Y-89119030D01*
X165017850Y-89129520D01*
X165038893Y-89142132D01*
X165058599Y-89156747D01*
X165076777Y-89173223D01*
X165093253Y-89191401D01*
X165107868Y-89211107D01*
X165120480Y-89232150D01*
X165130970Y-89254329D01*
X165139235Y-89277428D01*
X165145196Y-89301227D01*
X165148796Y-89325495D01*
X165150000Y-89349999D01*
X165150000Y-90000001D01*
X165148796Y-90024505D01*
X165145196Y-90048773D01*
X165139235Y-90072572D01*
X165130970Y-90095671D01*
X165120480Y-90117850D01*
X165107868Y-90138893D01*
X165093253Y-90158599D01*
X165076777Y-90176777D01*
X165058599Y-90193253D01*
X165038893Y-90207868D01*
X165017850Y-90220480D01*
X164995671Y-90230970D01*
X164972572Y-90239235D01*
X164948773Y-90245196D01*
X164924505Y-90248796D01*
X164900001Y-90250000D01*
X163999999Y-90250000D01*
X163975495Y-90248796D01*
X163951227Y-90245196D01*
X163927428Y-90239235D01*
X163904329Y-90230970D01*
X163882150Y-90220480D01*
X163861107Y-90207868D01*
X163841401Y-90193253D01*
X163823223Y-90176777D01*
X163806747Y-90158599D01*
X163792132Y-90138893D01*
X163779520Y-90117850D01*
X163769030Y-90095671D01*
X163760765Y-90072572D01*
X163754804Y-90048773D01*
X163751204Y-90024505D01*
X163750000Y-90000001D01*
X163750000Y-89349999D01*
X163751204Y-89325495D01*
X163754804Y-89301227D01*
X163760765Y-89277428D01*
X163769030Y-89254329D01*
X163779520Y-89232150D01*
X163792132Y-89211107D01*
X163806747Y-89191401D01*
X163823223Y-89173223D01*
X163841401Y-89156747D01*
X163861107Y-89142132D01*
X163882150Y-89129520D01*
X163904329Y-89119030D01*
X163927428Y-89110765D01*
X163951227Y-89104804D01*
X163975495Y-89101204D01*
X163999999Y-89100000D01*
X164900001Y-89100000D01*
X164924505Y-89101204D01*
G37*
G04 #@! TD.AperFunction*
G04 #@! TA.AperFunction,SMDPad,CuDef*
G36*
X168574505Y-87076204D02*
G01*
X168598773Y-87079804D01*
X168622572Y-87085765D01*
X168645671Y-87094030D01*
X168667850Y-87104520D01*
X168688893Y-87117132D01*
X168708599Y-87131747D01*
X168726777Y-87148223D01*
X168743253Y-87166401D01*
X168757868Y-87186107D01*
X168770480Y-87207150D01*
X168780970Y-87229329D01*
X168789235Y-87252428D01*
X168795196Y-87276227D01*
X168798796Y-87300495D01*
X168800000Y-87324999D01*
X168800000Y-87975001D01*
X168798796Y-87999505D01*
X168795196Y-88023773D01*
X168789235Y-88047572D01*
X168780970Y-88070671D01*
X168770480Y-88092850D01*
X168757868Y-88113893D01*
X168743253Y-88133599D01*
X168726777Y-88151777D01*
X168708599Y-88168253D01*
X168688893Y-88182868D01*
X168667850Y-88195480D01*
X168645671Y-88205970D01*
X168622572Y-88214235D01*
X168598773Y-88220196D01*
X168574505Y-88223796D01*
X168550001Y-88225000D01*
X167649999Y-88225000D01*
X167625495Y-88223796D01*
X167601227Y-88220196D01*
X167577428Y-88214235D01*
X167554329Y-88205970D01*
X167532150Y-88195480D01*
X167511107Y-88182868D01*
X167491401Y-88168253D01*
X167473223Y-88151777D01*
X167456747Y-88133599D01*
X167442132Y-88113893D01*
X167429520Y-88092850D01*
X167419030Y-88070671D01*
X167410765Y-88047572D01*
X167404804Y-88023773D01*
X167401204Y-87999505D01*
X167400000Y-87975001D01*
X167400000Y-87324999D01*
X167401204Y-87300495D01*
X167404804Y-87276227D01*
X167410765Y-87252428D01*
X167419030Y-87229329D01*
X167429520Y-87207150D01*
X167442132Y-87186107D01*
X167456747Y-87166401D01*
X167473223Y-87148223D01*
X167491401Y-87131747D01*
X167511107Y-87117132D01*
X167532150Y-87104520D01*
X167554329Y-87094030D01*
X167577428Y-87085765D01*
X167601227Y-87079804D01*
X167625495Y-87076204D01*
X167649999Y-87075000D01*
X168550001Y-87075000D01*
X168574505Y-87076204D01*
G37*
G04 #@! TD.AperFunction*
G04 #@! TA.AperFunction,SMDPad,CuDef*
G36*
X168574505Y-89126204D02*
G01*
X168598773Y-89129804D01*
X168622572Y-89135765D01*
X168645671Y-89144030D01*
X168667850Y-89154520D01*
X168688893Y-89167132D01*
X168708599Y-89181747D01*
X168726777Y-89198223D01*
X168743253Y-89216401D01*
X168757868Y-89236107D01*
X168770480Y-89257150D01*
X168780970Y-89279329D01*
X168789235Y-89302428D01*
X168795196Y-89326227D01*
X168798796Y-89350495D01*
X168800000Y-89374999D01*
X168800000Y-90025001D01*
X168798796Y-90049505D01*
X168795196Y-90073773D01*
X168789235Y-90097572D01*
X168780970Y-90120671D01*
X168770480Y-90142850D01*
X168757868Y-90163893D01*
X168743253Y-90183599D01*
X168726777Y-90201777D01*
X168708599Y-90218253D01*
X168688893Y-90232868D01*
X168667850Y-90245480D01*
X168645671Y-90255970D01*
X168622572Y-90264235D01*
X168598773Y-90270196D01*
X168574505Y-90273796D01*
X168550001Y-90275000D01*
X167649999Y-90275000D01*
X167625495Y-90273796D01*
X167601227Y-90270196D01*
X167577428Y-90264235D01*
X167554329Y-90255970D01*
X167532150Y-90245480D01*
X167511107Y-90232868D01*
X167491401Y-90218253D01*
X167473223Y-90201777D01*
X167456747Y-90183599D01*
X167442132Y-90163893D01*
X167429520Y-90142850D01*
X167419030Y-90120671D01*
X167410765Y-90097572D01*
X167404804Y-90073773D01*
X167401204Y-90049505D01*
X167400000Y-90025001D01*
X167400000Y-89374999D01*
X167401204Y-89350495D01*
X167404804Y-89326227D01*
X167410765Y-89302428D01*
X167419030Y-89279329D01*
X167429520Y-89257150D01*
X167442132Y-89236107D01*
X167456747Y-89216401D01*
X167473223Y-89198223D01*
X167491401Y-89181747D01*
X167511107Y-89167132D01*
X167532150Y-89154520D01*
X167554329Y-89144030D01*
X167577428Y-89135765D01*
X167601227Y-89129804D01*
X167625495Y-89126204D01*
X167649999Y-89125000D01*
X168550001Y-89125000D01*
X168574505Y-89126204D01*
G37*
G04 #@! TD.AperFunction*
D21*
X170850000Y-61200000D03*
X176450000Y-61200000D03*
G04 #@! TA.AperFunction,SMDPad,CuDef*
D16*
G36*
X184624505Y-94451204D02*
G01*
X184648773Y-94454804D01*
X184672572Y-94460765D01*
X184695671Y-94469030D01*
X184717850Y-94479520D01*
X184738893Y-94492132D01*
X184758599Y-94506747D01*
X184776777Y-94523223D01*
X184793253Y-94541401D01*
X184807868Y-94561107D01*
X184820480Y-94582150D01*
X184830970Y-94604329D01*
X184839235Y-94627428D01*
X184845196Y-94651227D01*
X184848796Y-94675495D01*
X184850000Y-94699999D01*
X184850000Y-95350001D01*
X184848796Y-95374505D01*
X184845196Y-95398773D01*
X184839235Y-95422572D01*
X184830970Y-95445671D01*
X184820480Y-95467850D01*
X184807868Y-95488893D01*
X184793253Y-95508599D01*
X184776777Y-95526777D01*
X184758599Y-95543253D01*
X184738893Y-95557868D01*
X184717850Y-95570480D01*
X184695671Y-95580970D01*
X184672572Y-95589235D01*
X184648773Y-95595196D01*
X184624505Y-95598796D01*
X184600001Y-95600000D01*
X183699999Y-95600000D01*
X183675495Y-95598796D01*
X183651227Y-95595196D01*
X183627428Y-95589235D01*
X183604329Y-95580970D01*
X183582150Y-95570480D01*
X183561107Y-95557868D01*
X183541401Y-95543253D01*
X183523223Y-95526777D01*
X183506747Y-95508599D01*
X183492132Y-95488893D01*
X183479520Y-95467850D01*
X183469030Y-95445671D01*
X183460765Y-95422572D01*
X183454804Y-95398773D01*
X183451204Y-95374505D01*
X183450000Y-95350001D01*
X183450000Y-94699999D01*
X183451204Y-94675495D01*
X183454804Y-94651227D01*
X183460765Y-94627428D01*
X183469030Y-94604329D01*
X183479520Y-94582150D01*
X183492132Y-94561107D01*
X183506747Y-94541401D01*
X183523223Y-94523223D01*
X183541401Y-94506747D01*
X183561107Y-94492132D01*
X183582150Y-94479520D01*
X183604329Y-94469030D01*
X183627428Y-94460765D01*
X183651227Y-94454804D01*
X183675495Y-94451204D01*
X183699999Y-94450000D01*
X184600001Y-94450000D01*
X184624505Y-94451204D01*
G37*
G04 #@! TD.AperFunction*
G04 #@! TA.AperFunction,SMDPad,CuDef*
G36*
X184624505Y-96501204D02*
G01*
X184648773Y-96504804D01*
X184672572Y-96510765D01*
X184695671Y-96519030D01*
X184717850Y-96529520D01*
X184738893Y-96542132D01*
X184758599Y-96556747D01*
X184776777Y-96573223D01*
X184793253Y-96591401D01*
X184807868Y-96611107D01*
X184820480Y-96632150D01*
X184830970Y-96654329D01*
X184839235Y-96677428D01*
X184845196Y-96701227D01*
X184848796Y-96725495D01*
X184850000Y-96749999D01*
X184850000Y-97400001D01*
X184848796Y-97424505D01*
X184845196Y-97448773D01*
X184839235Y-97472572D01*
X184830970Y-97495671D01*
X184820480Y-97517850D01*
X184807868Y-97538893D01*
X184793253Y-97558599D01*
X184776777Y-97576777D01*
X184758599Y-97593253D01*
X184738893Y-97607868D01*
X184717850Y-97620480D01*
X184695671Y-97630970D01*
X184672572Y-97639235D01*
X184648773Y-97645196D01*
X184624505Y-97648796D01*
X184600001Y-97650000D01*
X183699999Y-97650000D01*
X183675495Y-97648796D01*
X183651227Y-97645196D01*
X183627428Y-97639235D01*
X183604329Y-97630970D01*
X183582150Y-97620480D01*
X183561107Y-97607868D01*
X183541401Y-97593253D01*
X183523223Y-97576777D01*
X183506747Y-97558599D01*
X183492132Y-97538893D01*
X183479520Y-97517850D01*
X183469030Y-97495671D01*
X183460765Y-97472572D01*
X183454804Y-97448773D01*
X183451204Y-97424505D01*
X183450000Y-97400001D01*
X183450000Y-96749999D01*
X183451204Y-96725495D01*
X183454804Y-96701227D01*
X183460765Y-96677428D01*
X183469030Y-96654329D01*
X183479520Y-96632150D01*
X183492132Y-96611107D01*
X183506747Y-96591401D01*
X183523223Y-96573223D01*
X183541401Y-96556747D01*
X183561107Y-96542132D01*
X183582150Y-96529520D01*
X183604329Y-96519030D01*
X183627428Y-96510765D01*
X183651227Y-96504804D01*
X183675495Y-96501204D01*
X183699999Y-96500000D01*
X184600001Y-96500000D01*
X184624505Y-96501204D01*
G37*
G04 #@! TD.AperFunction*
G04 #@! TA.AperFunction,SMDPad,CuDef*
G36*
X180624505Y-58601204D02*
G01*
X180648773Y-58604804D01*
X180672572Y-58610765D01*
X180695671Y-58619030D01*
X180717850Y-58629520D01*
X180738893Y-58642132D01*
X180758599Y-58656747D01*
X180776777Y-58673223D01*
X180793253Y-58691401D01*
X180807868Y-58711107D01*
X180820480Y-58732150D01*
X180830970Y-58754329D01*
X180839235Y-58777428D01*
X180845196Y-58801227D01*
X180848796Y-58825495D01*
X180850000Y-58849999D01*
X180850000Y-59500001D01*
X180848796Y-59524505D01*
X180845196Y-59548773D01*
X180839235Y-59572572D01*
X180830970Y-59595671D01*
X180820480Y-59617850D01*
X180807868Y-59638893D01*
X180793253Y-59658599D01*
X180776777Y-59676777D01*
X180758599Y-59693253D01*
X180738893Y-59707868D01*
X180717850Y-59720480D01*
X180695671Y-59730970D01*
X180672572Y-59739235D01*
X180648773Y-59745196D01*
X180624505Y-59748796D01*
X180600001Y-59750000D01*
X179699999Y-59750000D01*
X179675495Y-59748796D01*
X179651227Y-59745196D01*
X179627428Y-59739235D01*
X179604329Y-59730970D01*
X179582150Y-59720480D01*
X179561107Y-59707868D01*
X179541401Y-59693253D01*
X179523223Y-59676777D01*
X179506747Y-59658599D01*
X179492132Y-59638893D01*
X179479520Y-59617850D01*
X179469030Y-59595671D01*
X179460765Y-59572572D01*
X179454804Y-59548773D01*
X179451204Y-59524505D01*
X179450000Y-59500001D01*
X179450000Y-58849999D01*
X179451204Y-58825495D01*
X179454804Y-58801227D01*
X179460765Y-58777428D01*
X179469030Y-58754329D01*
X179479520Y-58732150D01*
X179492132Y-58711107D01*
X179506747Y-58691401D01*
X179523223Y-58673223D01*
X179541401Y-58656747D01*
X179561107Y-58642132D01*
X179582150Y-58629520D01*
X179604329Y-58619030D01*
X179627428Y-58610765D01*
X179651227Y-58604804D01*
X179675495Y-58601204D01*
X179699999Y-58600000D01*
X180600001Y-58600000D01*
X180624505Y-58601204D01*
G37*
G04 #@! TD.AperFunction*
G04 #@! TA.AperFunction,SMDPad,CuDef*
G36*
X180624505Y-60651204D02*
G01*
X180648773Y-60654804D01*
X180672572Y-60660765D01*
X180695671Y-60669030D01*
X180717850Y-60679520D01*
X180738893Y-60692132D01*
X180758599Y-60706747D01*
X180776777Y-60723223D01*
X180793253Y-60741401D01*
X180807868Y-60761107D01*
X180820480Y-60782150D01*
X180830970Y-60804329D01*
X180839235Y-60827428D01*
X180845196Y-60851227D01*
X180848796Y-60875495D01*
X180850000Y-60899999D01*
X180850000Y-61550001D01*
X180848796Y-61574505D01*
X180845196Y-61598773D01*
X180839235Y-61622572D01*
X180830970Y-61645671D01*
X180820480Y-61667850D01*
X180807868Y-61688893D01*
X180793253Y-61708599D01*
X180776777Y-61726777D01*
X180758599Y-61743253D01*
X180738893Y-61757868D01*
X180717850Y-61770480D01*
X180695671Y-61780970D01*
X180672572Y-61789235D01*
X180648773Y-61795196D01*
X180624505Y-61798796D01*
X180600001Y-61800000D01*
X179699999Y-61800000D01*
X179675495Y-61798796D01*
X179651227Y-61795196D01*
X179627428Y-61789235D01*
X179604329Y-61780970D01*
X179582150Y-61770480D01*
X179561107Y-61757868D01*
X179541401Y-61743253D01*
X179523223Y-61726777D01*
X179506747Y-61708599D01*
X179492132Y-61688893D01*
X179479520Y-61667850D01*
X179469030Y-61645671D01*
X179460765Y-61622572D01*
X179454804Y-61598773D01*
X179451204Y-61574505D01*
X179450000Y-61550001D01*
X179450000Y-60899999D01*
X179451204Y-60875495D01*
X179454804Y-60851227D01*
X179460765Y-60827428D01*
X179469030Y-60804329D01*
X179479520Y-60782150D01*
X179492132Y-60761107D01*
X179506747Y-60741401D01*
X179523223Y-60723223D01*
X179541401Y-60706747D01*
X179561107Y-60692132D01*
X179582150Y-60679520D01*
X179604329Y-60669030D01*
X179627428Y-60660765D01*
X179651227Y-60654804D01*
X179675495Y-60651204D01*
X179699999Y-60650000D01*
X180600001Y-60650000D01*
X180624505Y-60651204D01*
G37*
G04 #@! TD.AperFunction*
G04 #@! TA.AperFunction,SMDPad,CuDef*
G36*
X172049505Y-94076204D02*
G01*
X172073773Y-94079804D01*
X172097572Y-94085765D01*
X172120671Y-94094030D01*
X172142850Y-94104520D01*
X172163893Y-94117132D01*
X172183599Y-94131747D01*
X172201777Y-94148223D01*
X172218253Y-94166401D01*
X172232868Y-94186107D01*
X172245480Y-94207150D01*
X172255970Y-94229329D01*
X172264235Y-94252428D01*
X172270196Y-94276227D01*
X172273796Y-94300495D01*
X172275000Y-94324999D01*
X172275000Y-94975001D01*
X172273796Y-94999505D01*
X172270196Y-95023773D01*
X172264235Y-95047572D01*
X172255970Y-95070671D01*
X172245480Y-95092850D01*
X172232868Y-95113893D01*
X172218253Y-95133599D01*
X172201777Y-95151777D01*
X172183599Y-95168253D01*
X172163893Y-95182868D01*
X172142850Y-95195480D01*
X172120671Y-95205970D01*
X172097572Y-95214235D01*
X172073773Y-95220196D01*
X172049505Y-95223796D01*
X172025001Y-95225000D01*
X171124999Y-95225000D01*
X171100495Y-95223796D01*
X171076227Y-95220196D01*
X171052428Y-95214235D01*
X171029329Y-95205970D01*
X171007150Y-95195480D01*
X170986107Y-95182868D01*
X170966401Y-95168253D01*
X170948223Y-95151777D01*
X170931747Y-95133599D01*
X170917132Y-95113893D01*
X170904520Y-95092850D01*
X170894030Y-95070671D01*
X170885765Y-95047572D01*
X170879804Y-95023773D01*
X170876204Y-94999505D01*
X170875000Y-94975001D01*
X170875000Y-94324999D01*
X170876204Y-94300495D01*
X170879804Y-94276227D01*
X170885765Y-94252428D01*
X170894030Y-94229329D01*
X170904520Y-94207150D01*
X170917132Y-94186107D01*
X170931747Y-94166401D01*
X170948223Y-94148223D01*
X170966401Y-94131747D01*
X170986107Y-94117132D01*
X171007150Y-94104520D01*
X171029329Y-94094030D01*
X171052428Y-94085765D01*
X171076227Y-94079804D01*
X171100495Y-94076204D01*
X171124999Y-94075000D01*
X172025001Y-94075000D01*
X172049505Y-94076204D01*
G37*
G04 #@! TD.AperFunction*
G04 #@! TA.AperFunction,SMDPad,CuDef*
G36*
X172049505Y-96126204D02*
G01*
X172073773Y-96129804D01*
X172097572Y-96135765D01*
X172120671Y-96144030D01*
X172142850Y-96154520D01*
X172163893Y-96167132D01*
X172183599Y-96181747D01*
X172201777Y-96198223D01*
X172218253Y-96216401D01*
X172232868Y-96236107D01*
X172245480Y-96257150D01*
X172255970Y-96279329D01*
X172264235Y-96302428D01*
X172270196Y-96326227D01*
X172273796Y-96350495D01*
X172275000Y-96374999D01*
X172275000Y-97025001D01*
X172273796Y-97049505D01*
X172270196Y-97073773D01*
X172264235Y-97097572D01*
X172255970Y-97120671D01*
X172245480Y-97142850D01*
X172232868Y-97163893D01*
X172218253Y-97183599D01*
X172201777Y-97201777D01*
X172183599Y-97218253D01*
X172163893Y-97232868D01*
X172142850Y-97245480D01*
X172120671Y-97255970D01*
X172097572Y-97264235D01*
X172073773Y-97270196D01*
X172049505Y-97273796D01*
X172025001Y-97275000D01*
X171124999Y-97275000D01*
X171100495Y-97273796D01*
X171076227Y-97270196D01*
X171052428Y-97264235D01*
X171029329Y-97255970D01*
X171007150Y-97245480D01*
X170986107Y-97232868D01*
X170966401Y-97218253D01*
X170948223Y-97201777D01*
X170931747Y-97183599D01*
X170917132Y-97163893D01*
X170904520Y-97142850D01*
X170894030Y-97120671D01*
X170885765Y-97097572D01*
X170879804Y-97073773D01*
X170876204Y-97049505D01*
X170875000Y-97025001D01*
X170875000Y-96374999D01*
X170876204Y-96350495D01*
X170879804Y-96326227D01*
X170885765Y-96302428D01*
X170894030Y-96279329D01*
X170904520Y-96257150D01*
X170917132Y-96236107D01*
X170931747Y-96216401D01*
X170948223Y-96198223D01*
X170966401Y-96181747D01*
X170986107Y-96167132D01*
X171007150Y-96154520D01*
X171029329Y-96144030D01*
X171052428Y-96135765D01*
X171076227Y-96129804D01*
X171100495Y-96126204D01*
X171124999Y-96125000D01*
X172025001Y-96125000D01*
X172049505Y-96126204D01*
G37*
G04 #@! TD.AperFunction*
G04 #@! TA.AperFunction,SMDPad,CuDef*
G36*
X178124505Y-88955504D02*
G01*
X178148773Y-88959104D01*
X178172572Y-88965065D01*
X178195671Y-88973330D01*
X178217850Y-88983820D01*
X178238893Y-88996432D01*
X178258599Y-89011047D01*
X178276777Y-89027523D01*
X178293253Y-89045701D01*
X178307868Y-89065407D01*
X178320480Y-89086450D01*
X178330970Y-89108629D01*
X178339235Y-89131728D01*
X178345196Y-89155527D01*
X178348796Y-89179795D01*
X178350000Y-89204299D01*
X178350000Y-89854301D01*
X178348796Y-89878805D01*
X178345196Y-89903073D01*
X178339235Y-89926872D01*
X178330970Y-89949971D01*
X178320480Y-89972150D01*
X178307868Y-89993193D01*
X178293253Y-90012899D01*
X178276777Y-90031077D01*
X178258599Y-90047553D01*
X178238893Y-90062168D01*
X178217850Y-90074780D01*
X178195671Y-90085270D01*
X178172572Y-90093535D01*
X178148773Y-90099496D01*
X178124505Y-90103096D01*
X178100001Y-90104300D01*
X177199999Y-90104300D01*
X177175495Y-90103096D01*
X177151227Y-90099496D01*
X177127428Y-90093535D01*
X177104329Y-90085270D01*
X177082150Y-90074780D01*
X177061107Y-90062168D01*
X177041401Y-90047553D01*
X177023223Y-90031077D01*
X177006747Y-90012899D01*
X176992132Y-89993193D01*
X176979520Y-89972150D01*
X176969030Y-89949971D01*
X176960765Y-89926872D01*
X176954804Y-89903073D01*
X176951204Y-89878805D01*
X176950000Y-89854301D01*
X176950000Y-89204299D01*
X176951204Y-89179795D01*
X176954804Y-89155527D01*
X176960765Y-89131728D01*
X176969030Y-89108629D01*
X176979520Y-89086450D01*
X176992132Y-89065407D01*
X177006747Y-89045701D01*
X177023223Y-89027523D01*
X177041401Y-89011047D01*
X177061107Y-88996432D01*
X177082150Y-88983820D01*
X177104329Y-88973330D01*
X177127428Y-88965065D01*
X177151227Y-88959104D01*
X177175495Y-88955504D01*
X177199999Y-88954300D01*
X178100001Y-88954300D01*
X178124505Y-88955504D01*
G37*
G04 #@! TD.AperFunction*
G04 #@! TA.AperFunction,SMDPad,CuDef*
G36*
X178124505Y-91005504D02*
G01*
X178148773Y-91009104D01*
X178172572Y-91015065D01*
X178195671Y-91023330D01*
X178217850Y-91033820D01*
X178238893Y-91046432D01*
X178258599Y-91061047D01*
X178276777Y-91077523D01*
X178293253Y-91095701D01*
X178307868Y-91115407D01*
X178320480Y-91136450D01*
X178330970Y-91158629D01*
X178339235Y-91181728D01*
X178345196Y-91205527D01*
X178348796Y-91229795D01*
X178350000Y-91254299D01*
X178350000Y-91904301D01*
X178348796Y-91928805D01*
X178345196Y-91953073D01*
X178339235Y-91976872D01*
X178330970Y-91999971D01*
X178320480Y-92022150D01*
X178307868Y-92043193D01*
X178293253Y-92062899D01*
X178276777Y-92081077D01*
X178258599Y-92097553D01*
X178238893Y-92112168D01*
X178217850Y-92124780D01*
X178195671Y-92135270D01*
X178172572Y-92143535D01*
X178148773Y-92149496D01*
X178124505Y-92153096D01*
X178100001Y-92154300D01*
X177199999Y-92154300D01*
X177175495Y-92153096D01*
X177151227Y-92149496D01*
X177127428Y-92143535D01*
X177104329Y-92135270D01*
X177082150Y-92124780D01*
X177061107Y-92112168D01*
X177041401Y-92097553D01*
X177023223Y-92081077D01*
X177006747Y-92062899D01*
X176992132Y-92043193D01*
X176979520Y-92022150D01*
X176969030Y-91999971D01*
X176960765Y-91976872D01*
X176954804Y-91953073D01*
X176951204Y-91928805D01*
X176950000Y-91904301D01*
X176950000Y-91254299D01*
X176951204Y-91229795D01*
X176954804Y-91205527D01*
X176960765Y-91181728D01*
X176969030Y-91158629D01*
X176979520Y-91136450D01*
X176992132Y-91115407D01*
X177006747Y-91095701D01*
X177023223Y-91077523D01*
X177041401Y-91061047D01*
X177061107Y-91046432D01*
X177082150Y-91033820D01*
X177104329Y-91023330D01*
X177127428Y-91015065D01*
X177151227Y-91009104D01*
X177175495Y-91005504D01*
X177199999Y-91004300D01*
X178100001Y-91004300D01*
X178124505Y-91005504D01*
G37*
G04 #@! TD.AperFunction*
G04 #@! TA.AperFunction,SMDPad,CuDef*
G36*
X178149505Y-95001204D02*
G01*
X178173773Y-95004804D01*
X178197572Y-95010765D01*
X178220671Y-95019030D01*
X178242850Y-95029520D01*
X178263893Y-95042132D01*
X178283599Y-95056747D01*
X178301777Y-95073223D01*
X178318253Y-95091401D01*
X178332868Y-95111107D01*
X178345480Y-95132150D01*
X178355970Y-95154329D01*
X178364235Y-95177428D01*
X178370196Y-95201227D01*
X178373796Y-95225495D01*
X178375000Y-95249999D01*
X178375000Y-95900001D01*
X178373796Y-95924505D01*
X178370196Y-95948773D01*
X178364235Y-95972572D01*
X178355970Y-95995671D01*
X178345480Y-96017850D01*
X178332868Y-96038893D01*
X178318253Y-96058599D01*
X178301777Y-96076777D01*
X178283599Y-96093253D01*
X178263893Y-96107868D01*
X178242850Y-96120480D01*
X178220671Y-96130970D01*
X178197572Y-96139235D01*
X178173773Y-96145196D01*
X178149505Y-96148796D01*
X178125001Y-96150000D01*
X177224999Y-96150000D01*
X177200495Y-96148796D01*
X177176227Y-96145196D01*
X177152428Y-96139235D01*
X177129329Y-96130970D01*
X177107150Y-96120480D01*
X177086107Y-96107868D01*
X177066401Y-96093253D01*
X177048223Y-96076777D01*
X177031747Y-96058599D01*
X177017132Y-96038893D01*
X177004520Y-96017850D01*
X176994030Y-95995671D01*
X176985765Y-95972572D01*
X176979804Y-95948773D01*
X176976204Y-95924505D01*
X176975000Y-95900001D01*
X176975000Y-95249999D01*
X176976204Y-95225495D01*
X176979804Y-95201227D01*
X176985765Y-95177428D01*
X176994030Y-95154329D01*
X177004520Y-95132150D01*
X177017132Y-95111107D01*
X177031747Y-95091401D01*
X177048223Y-95073223D01*
X177066401Y-95056747D01*
X177086107Y-95042132D01*
X177107150Y-95029520D01*
X177129329Y-95019030D01*
X177152428Y-95010765D01*
X177176227Y-95004804D01*
X177200495Y-95001204D01*
X177224999Y-95000000D01*
X178125001Y-95000000D01*
X178149505Y-95001204D01*
G37*
G04 #@! TD.AperFunction*
G04 #@! TA.AperFunction,SMDPad,CuDef*
G36*
X178149505Y-92951204D02*
G01*
X178173773Y-92954804D01*
X178197572Y-92960765D01*
X178220671Y-92969030D01*
X178242850Y-92979520D01*
X178263893Y-92992132D01*
X178283599Y-93006747D01*
X178301777Y-93023223D01*
X178318253Y-93041401D01*
X178332868Y-93061107D01*
X178345480Y-93082150D01*
X178355970Y-93104329D01*
X178364235Y-93127428D01*
X178370196Y-93151227D01*
X178373796Y-93175495D01*
X178375000Y-93199999D01*
X178375000Y-93850001D01*
X178373796Y-93874505D01*
X178370196Y-93898773D01*
X178364235Y-93922572D01*
X178355970Y-93945671D01*
X178345480Y-93967850D01*
X178332868Y-93988893D01*
X178318253Y-94008599D01*
X178301777Y-94026777D01*
X178283599Y-94043253D01*
X178263893Y-94057868D01*
X178242850Y-94070480D01*
X178220671Y-94080970D01*
X178197572Y-94089235D01*
X178173773Y-94095196D01*
X178149505Y-94098796D01*
X178125001Y-94100000D01*
X177224999Y-94100000D01*
X177200495Y-94098796D01*
X177176227Y-94095196D01*
X177152428Y-94089235D01*
X177129329Y-94080970D01*
X177107150Y-94070480D01*
X177086107Y-94057868D01*
X177066401Y-94043253D01*
X177048223Y-94026777D01*
X177031747Y-94008599D01*
X177017132Y-93988893D01*
X177004520Y-93967850D01*
X176994030Y-93945671D01*
X176985765Y-93922572D01*
X176979804Y-93898773D01*
X176976204Y-93874505D01*
X176975000Y-93850001D01*
X176975000Y-93199999D01*
X176976204Y-93175495D01*
X176979804Y-93151227D01*
X176985765Y-93127428D01*
X176994030Y-93104329D01*
X177004520Y-93082150D01*
X177017132Y-93061107D01*
X177031747Y-93041401D01*
X177048223Y-93023223D01*
X177066401Y-93006747D01*
X177086107Y-92992132D01*
X177107150Y-92979520D01*
X177129329Y-92969030D01*
X177152428Y-92960765D01*
X177176227Y-92954804D01*
X177200495Y-92951204D01*
X177224999Y-92950000D01*
X178125001Y-92950000D01*
X178149505Y-92951204D01*
G37*
G04 #@! TD.AperFunction*
D22*
X183300000Y-78550000D03*
X185300000Y-77600000D03*
X185300000Y-79500000D03*
D23*
X174100000Y-114700000D03*
D24*
X174100000Y-104700000D03*
D25*
X194290000Y-113460000D03*
X191750000Y-113460000D03*
X194290000Y-110920000D03*
X191750000Y-110920000D03*
X194290000Y-108380000D03*
X191750000Y-108380000D03*
X194290000Y-105840000D03*
X191750000Y-105840000D03*
X194290000Y-103300000D03*
X191750000Y-103300000D03*
X194290000Y-100760000D03*
X191750000Y-100760000D03*
X194290000Y-98220000D03*
X191750000Y-98220000D03*
X194290000Y-95680000D03*
X191750000Y-95680000D03*
X194290000Y-93140000D03*
X191750000Y-93140000D03*
X194290000Y-90600000D03*
X191750000Y-90600000D03*
X194290000Y-88060000D03*
X191750000Y-88060000D03*
X194290000Y-85520000D03*
X191750000Y-85520000D03*
X194290000Y-82980000D03*
X191750000Y-82980000D03*
X194290000Y-80440000D03*
X191750000Y-80440000D03*
X194290000Y-77900000D03*
X191750000Y-77900000D03*
X194290000Y-75360000D03*
X191750000Y-75360000D03*
X194290000Y-72820000D03*
X191750000Y-72820000D03*
X194290000Y-70280000D03*
X191750000Y-70280000D03*
X194290000Y-67740000D03*
X191750000Y-67740000D03*
X194290000Y-65200000D03*
D26*
X191750000Y-65200000D03*
G04 #@! TA.AperFunction,SMDPad,CuDef*
D16*
G36*
X183624505Y-82976204D02*
G01*
X183648773Y-82979804D01*
X183672572Y-82985765D01*
X183695671Y-82994030D01*
X183717850Y-83004520D01*
X183738893Y-83017132D01*
X183758599Y-83031747D01*
X183776777Y-83048223D01*
X183793253Y-83066401D01*
X183807868Y-83086107D01*
X183820480Y-83107150D01*
X183830970Y-83129329D01*
X183839235Y-83152428D01*
X183845196Y-83176227D01*
X183848796Y-83200495D01*
X183850000Y-83224999D01*
X183850000Y-84125001D01*
X183848796Y-84149505D01*
X183845196Y-84173773D01*
X183839235Y-84197572D01*
X183830970Y-84220671D01*
X183820480Y-84242850D01*
X183807868Y-84263893D01*
X183793253Y-84283599D01*
X183776777Y-84301777D01*
X183758599Y-84318253D01*
X183738893Y-84332868D01*
X183717850Y-84345480D01*
X183695671Y-84355970D01*
X183672572Y-84364235D01*
X183648773Y-84370196D01*
X183624505Y-84373796D01*
X183600001Y-84375000D01*
X182949999Y-84375000D01*
X182925495Y-84373796D01*
X182901227Y-84370196D01*
X182877428Y-84364235D01*
X182854329Y-84355970D01*
X182832150Y-84345480D01*
X182811107Y-84332868D01*
X182791401Y-84318253D01*
X182773223Y-84301777D01*
X182756747Y-84283599D01*
X182742132Y-84263893D01*
X182729520Y-84242850D01*
X182719030Y-84220671D01*
X182710765Y-84197572D01*
X182704804Y-84173773D01*
X182701204Y-84149505D01*
X182700000Y-84125001D01*
X182700000Y-83224999D01*
X182701204Y-83200495D01*
X182704804Y-83176227D01*
X182710765Y-83152428D01*
X182719030Y-83129329D01*
X182729520Y-83107150D01*
X182742132Y-83086107D01*
X182756747Y-83066401D01*
X182773223Y-83048223D01*
X182791401Y-83031747D01*
X182811107Y-83017132D01*
X182832150Y-83004520D01*
X182854329Y-82994030D01*
X182877428Y-82985765D01*
X182901227Y-82979804D01*
X182925495Y-82976204D01*
X182949999Y-82975000D01*
X183600001Y-82975000D01*
X183624505Y-82976204D01*
G37*
G04 #@! TD.AperFunction*
G04 #@! TA.AperFunction,SMDPad,CuDef*
G36*
X185674505Y-82976204D02*
G01*
X185698773Y-82979804D01*
X185722572Y-82985765D01*
X185745671Y-82994030D01*
X185767850Y-83004520D01*
X185788893Y-83017132D01*
X185808599Y-83031747D01*
X185826777Y-83048223D01*
X185843253Y-83066401D01*
X185857868Y-83086107D01*
X185870480Y-83107150D01*
X185880970Y-83129329D01*
X185889235Y-83152428D01*
X185895196Y-83176227D01*
X185898796Y-83200495D01*
X185900000Y-83224999D01*
X185900000Y-84125001D01*
X185898796Y-84149505D01*
X185895196Y-84173773D01*
X185889235Y-84197572D01*
X185880970Y-84220671D01*
X185870480Y-84242850D01*
X185857868Y-84263893D01*
X185843253Y-84283599D01*
X185826777Y-84301777D01*
X185808599Y-84318253D01*
X185788893Y-84332868D01*
X185767850Y-84345480D01*
X185745671Y-84355970D01*
X185722572Y-84364235D01*
X185698773Y-84370196D01*
X185674505Y-84373796D01*
X185650001Y-84375000D01*
X184999999Y-84375000D01*
X184975495Y-84373796D01*
X184951227Y-84370196D01*
X184927428Y-84364235D01*
X184904329Y-84355970D01*
X184882150Y-84345480D01*
X184861107Y-84332868D01*
X184841401Y-84318253D01*
X184823223Y-84301777D01*
X184806747Y-84283599D01*
X184792132Y-84263893D01*
X184779520Y-84242850D01*
X184769030Y-84220671D01*
X184760765Y-84197572D01*
X184754804Y-84173773D01*
X184751204Y-84149505D01*
X184750000Y-84125001D01*
X184750000Y-83224999D01*
X184751204Y-83200495D01*
X184754804Y-83176227D01*
X184760765Y-83152428D01*
X184769030Y-83129329D01*
X184779520Y-83107150D01*
X184792132Y-83086107D01*
X184806747Y-83066401D01*
X184823223Y-83048223D01*
X184841401Y-83031747D01*
X184861107Y-83017132D01*
X184882150Y-83004520D01*
X184904329Y-82994030D01*
X184927428Y-82985765D01*
X184951227Y-82979804D01*
X184975495Y-82976204D01*
X184999999Y-82975000D01*
X185650001Y-82975000D01*
X185674505Y-82976204D01*
G37*
G04 #@! TD.AperFunction*
G04 #@! TA.AperFunction,SMDPad,CuDef*
G36*
X183074505Y-73801204D02*
G01*
X183098773Y-73804804D01*
X183122572Y-73810765D01*
X183145671Y-73819030D01*
X183167850Y-73829520D01*
X183188893Y-73842132D01*
X183208599Y-73856747D01*
X183226777Y-73873223D01*
X183243253Y-73891401D01*
X183257868Y-73911107D01*
X183270480Y-73932150D01*
X183280970Y-73954329D01*
X183289235Y-73977428D01*
X183295196Y-74001227D01*
X183298796Y-74025495D01*
X183300000Y-74049999D01*
X183300000Y-74700001D01*
X183298796Y-74724505D01*
X183295196Y-74748773D01*
X183289235Y-74772572D01*
X183280970Y-74795671D01*
X183270480Y-74817850D01*
X183257868Y-74838893D01*
X183243253Y-74858599D01*
X183226777Y-74876777D01*
X183208599Y-74893253D01*
X183188893Y-74907868D01*
X183167850Y-74920480D01*
X183145671Y-74930970D01*
X183122572Y-74939235D01*
X183098773Y-74945196D01*
X183074505Y-74948796D01*
X183050001Y-74950000D01*
X182149999Y-74950000D01*
X182125495Y-74948796D01*
X182101227Y-74945196D01*
X182077428Y-74939235D01*
X182054329Y-74930970D01*
X182032150Y-74920480D01*
X182011107Y-74907868D01*
X181991401Y-74893253D01*
X181973223Y-74876777D01*
X181956747Y-74858599D01*
X181942132Y-74838893D01*
X181929520Y-74817850D01*
X181919030Y-74795671D01*
X181910765Y-74772572D01*
X181904804Y-74748773D01*
X181901204Y-74724505D01*
X181900000Y-74700001D01*
X181900000Y-74049999D01*
X181901204Y-74025495D01*
X181904804Y-74001227D01*
X181910765Y-73977428D01*
X181919030Y-73954329D01*
X181929520Y-73932150D01*
X181942132Y-73911107D01*
X181956747Y-73891401D01*
X181973223Y-73873223D01*
X181991401Y-73856747D01*
X182011107Y-73842132D01*
X182032150Y-73829520D01*
X182054329Y-73819030D01*
X182077428Y-73810765D01*
X182101227Y-73804804D01*
X182125495Y-73801204D01*
X182149999Y-73800000D01*
X183050001Y-73800000D01*
X183074505Y-73801204D01*
G37*
G04 #@! TD.AperFunction*
G04 #@! TA.AperFunction,SMDPad,CuDef*
G36*
X183074505Y-71751204D02*
G01*
X183098773Y-71754804D01*
X183122572Y-71760765D01*
X183145671Y-71769030D01*
X183167850Y-71779520D01*
X183188893Y-71792132D01*
X183208599Y-71806747D01*
X183226777Y-71823223D01*
X183243253Y-71841401D01*
X183257868Y-71861107D01*
X183270480Y-71882150D01*
X183280970Y-71904329D01*
X183289235Y-71927428D01*
X183295196Y-71951227D01*
X183298796Y-71975495D01*
X183300000Y-71999999D01*
X183300000Y-72650001D01*
X183298796Y-72674505D01*
X183295196Y-72698773D01*
X183289235Y-72722572D01*
X183280970Y-72745671D01*
X183270480Y-72767850D01*
X183257868Y-72788893D01*
X183243253Y-72808599D01*
X183226777Y-72826777D01*
X183208599Y-72843253D01*
X183188893Y-72857868D01*
X183167850Y-72870480D01*
X183145671Y-72880970D01*
X183122572Y-72889235D01*
X183098773Y-72895196D01*
X183074505Y-72898796D01*
X183050001Y-72900000D01*
X182149999Y-72900000D01*
X182125495Y-72898796D01*
X182101227Y-72895196D01*
X182077428Y-72889235D01*
X182054329Y-72880970D01*
X182032150Y-72870480D01*
X182011107Y-72857868D01*
X181991401Y-72843253D01*
X181973223Y-72826777D01*
X181956747Y-72808599D01*
X181942132Y-72788893D01*
X181929520Y-72767850D01*
X181919030Y-72745671D01*
X181910765Y-72722572D01*
X181904804Y-72698773D01*
X181901204Y-72674505D01*
X181900000Y-72650001D01*
X181900000Y-71999999D01*
X181901204Y-71975495D01*
X181904804Y-71951227D01*
X181910765Y-71927428D01*
X181919030Y-71904329D01*
X181929520Y-71882150D01*
X181942132Y-71861107D01*
X181956747Y-71841401D01*
X181973223Y-71823223D01*
X181991401Y-71806747D01*
X182011107Y-71792132D01*
X182032150Y-71779520D01*
X182054329Y-71769030D01*
X182077428Y-71760765D01*
X182101227Y-71754804D01*
X182125495Y-71751204D01*
X182149999Y-71750000D01*
X183050001Y-71750000D01*
X183074505Y-71751204D01*
G37*
G04 #@! TD.AperFunction*
G04 #@! TA.AperFunction,SMDPad,CuDef*
G36*
X185524505Y-73801204D02*
G01*
X185548773Y-73804804D01*
X185572572Y-73810765D01*
X185595671Y-73819030D01*
X185617850Y-73829520D01*
X185638893Y-73842132D01*
X185658599Y-73856747D01*
X185676777Y-73873223D01*
X185693253Y-73891401D01*
X185707868Y-73911107D01*
X185720480Y-73932150D01*
X185730970Y-73954329D01*
X185739235Y-73977428D01*
X185745196Y-74001227D01*
X185748796Y-74025495D01*
X185750000Y-74049999D01*
X185750000Y-74700001D01*
X185748796Y-74724505D01*
X185745196Y-74748773D01*
X185739235Y-74772572D01*
X185730970Y-74795671D01*
X185720480Y-74817850D01*
X185707868Y-74838893D01*
X185693253Y-74858599D01*
X185676777Y-74876777D01*
X185658599Y-74893253D01*
X185638893Y-74907868D01*
X185617850Y-74920480D01*
X185595671Y-74930970D01*
X185572572Y-74939235D01*
X185548773Y-74945196D01*
X185524505Y-74948796D01*
X185500001Y-74950000D01*
X184599999Y-74950000D01*
X184575495Y-74948796D01*
X184551227Y-74945196D01*
X184527428Y-74939235D01*
X184504329Y-74930970D01*
X184482150Y-74920480D01*
X184461107Y-74907868D01*
X184441401Y-74893253D01*
X184423223Y-74876777D01*
X184406747Y-74858599D01*
X184392132Y-74838893D01*
X184379520Y-74817850D01*
X184369030Y-74795671D01*
X184360765Y-74772572D01*
X184354804Y-74748773D01*
X184351204Y-74724505D01*
X184350000Y-74700001D01*
X184350000Y-74049999D01*
X184351204Y-74025495D01*
X184354804Y-74001227D01*
X184360765Y-73977428D01*
X184369030Y-73954329D01*
X184379520Y-73932150D01*
X184392132Y-73911107D01*
X184406747Y-73891401D01*
X184423223Y-73873223D01*
X184441401Y-73856747D01*
X184461107Y-73842132D01*
X184482150Y-73829520D01*
X184504329Y-73819030D01*
X184527428Y-73810765D01*
X184551227Y-73804804D01*
X184575495Y-73801204D01*
X184599999Y-73800000D01*
X185500001Y-73800000D01*
X185524505Y-73801204D01*
G37*
G04 #@! TD.AperFunction*
G04 #@! TA.AperFunction,SMDPad,CuDef*
G36*
X185524505Y-71751204D02*
G01*
X185548773Y-71754804D01*
X185572572Y-71760765D01*
X185595671Y-71769030D01*
X185617850Y-71779520D01*
X185638893Y-71792132D01*
X185658599Y-71806747D01*
X185676777Y-71823223D01*
X185693253Y-71841401D01*
X185707868Y-71861107D01*
X185720480Y-71882150D01*
X185730970Y-71904329D01*
X185739235Y-71927428D01*
X185745196Y-71951227D01*
X185748796Y-71975495D01*
X185750000Y-71999999D01*
X185750000Y-72650001D01*
X185748796Y-72674505D01*
X185745196Y-72698773D01*
X185739235Y-72722572D01*
X185730970Y-72745671D01*
X185720480Y-72767850D01*
X185707868Y-72788893D01*
X185693253Y-72808599D01*
X185676777Y-72826777D01*
X185658599Y-72843253D01*
X185638893Y-72857868D01*
X185617850Y-72870480D01*
X185595671Y-72880970D01*
X185572572Y-72889235D01*
X185548773Y-72895196D01*
X185524505Y-72898796D01*
X185500001Y-72900000D01*
X184599999Y-72900000D01*
X184575495Y-72898796D01*
X184551227Y-72895196D01*
X184527428Y-72889235D01*
X184504329Y-72880970D01*
X184482150Y-72870480D01*
X184461107Y-72857868D01*
X184441401Y-72843253D01*
X184423223Y-72826777D01*
X184406747Y-72808599D01*
X184392132Y-72788893D01*
X184379520Y-72767850D01*
X184369030Y-72745671D01*
X184360765Y-72722572D01*
X184354804Y-72698773D01*
X184351204Y-72674505D01*
X184350000Y-72650001D01*
X184350000Y-71999999D01*
X184351204Y-71975495D01*
X184354804Y-71951227D01*
X184360765Y-71927428D01*
X184369030Y-71904329D01*
X184379520Y-71882150D01*
X184392132Y-71861107D01*
X184406747Y-71841401D01*
X184423223Y-71823223D01*
X184441401Y-71806747D01*
X184461107Y-71792132D01*
X184482150Y-71779520D01*
X184504329Y-71769030D01*
X184527428Y-71760765D01*
X184551227Y-71754804D01*
X184575495Y-71751204D01*
X184599999Y-71750000D01*
X185500001Y-71750000D01*
X185524505Y-71751204D01*
G37*
G04 #@! TD.AperFunction*
D27*
X180875000Y-77225000D03*
X180775000Y-73625000D03*
X188750000Y-90400000D03*
X185700000Y-98800000D03*
X183600000Y-93400000D03*
X182900000Y-86600000D03*
X188900000Y-81500000D03*
X188800000Y-88300000D03*
X186600000Y-68800000D03*
X180700000Y-66200000D03*
X165100000Y-60800000D03*
X180000000Y-110000000D03*
X179850000Y-115150000D03*
X180000000Y-120000000D03*
X175000000Y-120000000D03*
X170000000Y-120000000D03*
X165000000Y-120000000D03*
X165000000Y-115000000D03*
X165000000Y-110000000D03*
X170000000Y-110000000D03*
X175000000Y-110000000D03*
X180000000Y-105000000D03*
X170000000Y-105000000D03*
X165000000Y-105000000D03*
X175000000Y-100000000D03*
X170000000Y-100000000D03*
X170900000Y-91200000D03*
X162400000Y-86700000D03*
X174600000Y-91175000D03*
X174550000Y-94250000D03*
X190900000Y-58650000D03*
X194825000Y-62925000D03*
X194925000Y-115825000D03*
X190775000Y-119900000D03*
X171016100Y-85888700D03*
X170232900Y-86529200D03*
X178969200Y-91711900D03*
X185464900Y-81726200D03*
X164275000Y-95961400D03*
X167069000Y-88635000D03*
X165910000Y-88768200D03*
D28*
X186690000Y-89235300D02*
X186500300Y-89425000D01*
X185650000Y-89425000D02*
X186500300Y-89425000D01*
X165550000Y-94200000D02*
X165550000Y-95075300D01*
X184409900Y-89035200D02*
X184799700Y-89425000D01*
X184409900Y-89035200D02*
X182740100Y-89035200D01*
X182740100Y-89035200D02*
X182350300Y-89425000D01*
X181500000Y-89425000D02*
X182350300Y-89425000D01*
X180475000Y-59050000D02*
X180150000Y-58725000D01*
X185650000Y-89425000D02*
X184799700Y-89425000D01*
X185300000Y-77237300D02*
X185300000Y-77600000D01*
X185300000Y-77237300D02*
X185300000Y-76874700D01*
X185300000Y-76874700D02*
X185050000Y-76624700D01*
X185050000Y-76624700D02*
X185050000Y-74625000D01*
X182650000Y-74625000D02*
X182600000Y-74575000D01*
X179005000Y-74575000D02*
X179005000Y-73545000D01*
X179005000Y-74815000D02*
X179005000Y-74575000D01*
X175600000Y-84621000D02*
X176870000Y-84621000D01*
X169129900Y-88679900D02*
X169129900Y-90301300D01*
X169129900Y-90301300D02*
X168306500Y-91124700D01*
X168306500Y-91124700D02*
X167800000Y-91124700D01*
X168100000Y-87650000D02*
X169129900Y-88679900D01*
X186191300Y-82808700D02*
X186191300Y-73716300D01*
X186191300Y-73716300D02*
X185050000Y-72575000D01*
X185325000Y-83675000D02*
X186191300Y-82808700D01*
X186191300Y-82808700D02*
X190172600Y-86790000D01*
X190172600Y-86790000D02*
X194695500Y-86790000D01*
X194695500Y-86790000D02*
X195506700Y-87601200D01*
X195506700Y-87601200D02*
X195506700Y-103758500D01*
X195506700Y-103758500D02*
X194745900Y-104519300D01*
X194745900Y-104519300D02*
X191290000Y-104519300D01*
X191290000Y-104519300D02*
X187275000Y-100504300D01*
X187275000Y-100504300D02*
X187275000Y-97075000D01*
X167800000Y-92000000D02*
X167800000Y-91124700D01*
X164450000Y-87625000D02*
X168075000Y-87625000D01*
X168075000Y-87625000D02*
X168100000Y-87650000D01*
X183820000Y-62700000D02*
X182744700Y-62700000D01*
X182350000Y-72275000D02*
X182600000Y-72525000D01*
X179005000Y-72275000D02*
X182350000Y-72275000D01*
X182600000Y-72300000D02*
X185000000Y-72300000D01*
X185000000Y-72525000D02*
X185050000Y-72575000D01*
X162612700Y-94150000D02*
X162612700Y-97562700D01*
X162612700Y-97562700D02*
X164275000Y-99225000D01*
X166250000Y-93324700D02*
X163438000Y-93324700D01*
X163438000Y-93324700D02*
X162612700Y-94150000D01*
X162200000Y-94150000D02*
X162612700Y-94150000D01*
X167800000Y-92000000D02*
X167800000Y-92875300D01*
X167800000Y-92875300D02*
X166699400Y-92875300D01*
X166699400Y-92875300D02*
X166250000Y-93324700D01*
X166250000Y-94200000D02*
X166250000Y-93324700D01*
X184175000Y-97075000D02*
X187275000Y-97075000D01*
X182765000Y-97050000D02*
X184150000Y-97050000D01*
X169129900Y-88679900D02*
X169193500Y-88616300D01*
X180005200Y-90296310D02*
X180005200Y-94290200D01*
X184150000Y-97050000D02*
X184175000Y-97075000D01*
X180005200Y-94290200D02*
X182765000Y-97050000D01*
X178325190Y-88616300D02*
X180005200Y-90296310D01*
X169193500Y-88616300D02*
X178325190Y-88616300D01*
X182744700Y-71880300D02*
X182350000Y-72275000D01*
X182744700Y-62700000D02*
X182744700Y-71880300D01*
X171016100Y-85888700D02*
X170862400Y-85888700D01*
X170862400Y-85888700D02*
X170520000Y-85546300D01*
X170520000Y-84621000D02*
X170520000Y-85546300D01*
X169250000Y-85546300D02*
X170232900Y-86529200D01*
X169250000Y-84621000D02*
X169250000Y-85546300D01*
X194290000Y-113460000D02*
X193114700Y-113460000D01*
X193114700Y-113460000D02*
X193114700Y-113827300D01*
X192306999Y-114635001D02*
X193114700Y-113827300D01*
X190685001Y-114635001D02*
X192306999Y-114635001D01*
X187450000Y-111400000D02*
X190685001Y-114635001D01*
X194290000Y-110920000D02*
X193114700Y-110920000D01*
X193114700Y-110920000D02*
X193114700Y-111287400D01*
X193114700Y-111287400D02*
X192306800Y-112095300D01*
X192306800Y-112095300D02*
X190405000Y-112095300D01*
X188384699Y-110074999D02*
X190405000Y-112095300D01*
X188124999Y-110074999D02*
X188384699Y-110074999D01*
X187450000Y-109400000D02*
X188124999Y-110074999D01*
X192307099Y-109555001D02*
X193114700Y-108747400D01*
X189605001Y-109555001D02*
X192307099Y-109555001D01*
X193114700Y-108380000D02*
X194290000Y-108380000D01*
X193114700Y-108747400D02*
X193114700Y-108380000D01*
X187450000Y-107400000D02*
X189605001Y-109555001D01*
X173300000Y-105150000D02*
X173300000Y-102824700D01*
X173300000Y-102824700D02*
X171575000Y-101099700D01*
X171575000Y-101099700D02*
X171575000Y-96700000D01*
X183300000Y-78550000D02*
X183300000Y-77824700D01*
X179005000Y-76085000D02*
X181560300Y-76085000D01*
X181560300Y-76085000D02*
X183300000Y-77824700D01*
X183300000Y-78550000D02*
X183300000Y-79275300D01*
X183300000Y-79275300D02*
X183275000Y-79300300D01*
X183275000Y-79300300D02*
X183275000Y-83675000D01*
X177650000Y-91579300D02*
X177782600Y-91711900D01*
X177782600Y-91711900D02*
X178969200Y-91711900D01*
X185300000Y-79500000D02*
X185300000Y-80225300D01*
X185300000Y-80225300D02*
X185464900Y-80390200D01*
X185464900Y-80390200D02*
X185464900Y-81726200D01*
X177650000Y-91579300D02*
X177650000Y-93450000D01*
X167800000Y-94200000D02*
X167800000Y-95075300D01*
X171575000Y-94650000D02*
X171149700Y-95075300D01*
X171149700Y-95075300D02*
X167800000Y-95075300D01*
D29*
X194290000Y-65200000D02*
X194290000Y-67740000D01*
D28*
X187967000Y-60550000D02*
X186633500Y-60550000D01*
D29*
X180150000Y-61200000D02*
X178525300Y-61200000D01*
X176450000Y-61200000D02*
X178525300Y-61200000D01*
X194290000Y-65200000D02*
X192790000Y-63700000D01*
X192790000Y-63700000D02*
X191750000Y-63700000D01*
X191750000Y-63700000D02*
X191600000Y-63700000D01*
X191600000Y-63700000D02*
X189000000Y-61100000D01*
X189000000Y-61100000D02*
X188000000Y-61100000D01*
X186600000Y-61200000D02*
X180375000Y-61200000D01*
D28*
X189100000Y-107581500D02*
X189898500Y-108380000D01*
X189100000Y-103800000D02*
X189100000Y-107581500D01*
X182400000Y-100075001D02*
X185375001Y-100075001D01*
X185375001Y-100075001D02*
X189100000Y-103800000D01*
X189898500Y-108380000D02*
X191750000Y-108380000D01*
X182400000Y-100075001D02*
X182150001Y-100075001D01*
X182150001Y-100075001D02*
X177725000Y-95650000D01*
X187275000Y-95025000D02*
X187275000Y-92349700D01*
X187275000Y-92349700D02*
X186500300Y-91575000D01*
X194290000Y-102124700D02*
X193922600Y-102124700D01*
X187275000Y-95409200D02*
X187275000Y-95025000D01*
X185650000Y-91575000D02*
X186500300Y-91575000D01*
X185650000Y-91575000D02*
X181500000Y-91575000D01*
X194290000Y-103300000D02*
X194290000Y-102124700D01*
X191375698Y-102124700D02*
X189125000Y-99874002D01*
X193922600Y-102124700D02*
X191375698Y-102124700D01*
X189125000Y-99874002D02*
X189125000Y-97336810D01*
X189125000Y-97336810D02*
X189125000Y-96825000D01*
X189125000Y-96825000D02*
X187325000Y-95025000D01*
X164275000Y-95961400D02*
X164700000Y-95536400D01*
X164700000Y-95536400D02*
X164700000Y-94200000D01*
X164275000Y-97175000D02*
X164275000Y-95961400D01*
X167069000Y-89700000D02*
X167069000Y-91005700D01*
X167069000Y-91005700D02*
X166950000Y-91124700D01*
X167069000Y-88635000D02*
X167069000Y-89700000D01*
X168100000Y-89700000D02*
X167069000Y-89700000D01*
X166950000Y-92000000D02*
X166950000Y-91124700D01*
X165910000Y-89675000D02*
X165910000Y-88768200D01*
X165910000Y-89675000D02*
X164450000Y-89675000D01*
X166250000Y-92000000D02*
X166250000Y-90015000D01*
X166250000Y-90015000D02*
X165910000Y-89675000D01*
X167525000Y-96600000D02*
X166950000Y-96025000D01*
X166950000Y-96025000D02*
X166950000Y-94200000D01*
X162200000Y-92100000D02*
X164600000Y-92100000D01*
X164600000Y-92100000D02*
X164700000Y-92000000D01*
D30*
G36*
X176473750Y-89402300D02*
G01*
X177523000Y-89402300D01*
X177523000Y-89382300D01*
X177777000Y-89382300D01*
X177777000Y-89402300D01*
X177797000Y-89402300D01*
X177797000Y-89656300D01*
X177777000Y-89656300D01*
X177777000Y-89676300D01*
X177523000Y-89676300D01*
X177523000Y-89656300D01*
X176473750Y-89656300D01*
X176315000Y-89815050D01*
X176311928Y-90104300D01*
X176324188Y-90228782D01*
X176360498Y-90348480D01*
X176419463Y-90458794D01*
X176498815Y-90555485D01*
X176578594Y-90620958D01*
X176572038Y-90626338D01*
X176461595Y-90760913D01*
X176379528Y-90914449D01*
X176328992Y-91081045D01*
X176311928Y-91254299D01*
X176311928Y-91904301D01*
X176328992Y-92077555D01*
X176379528Y-92244151D01*
X176461595Y-92397687D01*
X176572038Y-92532262D01*
X176608772Y-92562408D01*
X176597038Y-92572038D01*
X176486595Y-92706613D01*
X176404528Y-92860149D01*
X176353992Y-93026745D01*
X176336928Y-93199999D01*
X176336928Y-93850001D01*
X176353992Y-94023255D01*
X176404528Y-94189851D01*
X176486595Y-94343387D01*
X176597038Y-94477962D01*
X176684816Y-94550000D01*
X176597038Y-94622038D01*
X176486595Y-94756613D01*
X176404528Y-94910149D01*
X176353992Y-95076745D01*
X176336928Y-95249999D01*
X176336928Y-95900001D01*
X176353992Y-96073255D01*
X176404528Y-96239851D01*
X176486595Y-96393387D01*
X176597038Y-96527962D01*
X176731613Y-96638405D01*
X176885149Y-96720472D01*
X177051745Y-96771008D01*
X177224999Y-96788072D01*
X177788271Y-96788072D01*
X181586206Y-100586009D01*
X181610000Y-100615002D01*
X181638993Y-100638796D01*
X181638997Y-100638800D01*
X181683624Y-100675424D01*
X181725725Y-100709975D01*
X181857754Y-100780547D01*
X182001015Y-100824004D01*
X182112668Y-100835001D01*
X182112677Y-100835001D01*
X182150000Y-100838677D01*
X182187323Y-100835001D01*
X185060200Y-100835001D01*
X188340000Y-104114802D01*
X188340000Y-104437379D01*
X188285077Y-104382456D01*
X188070518Y-104239093D01*
X187832113Y-104140342D01*
X187579024Y-104090000D01*
X187320976Y-104090000D01*
X187067887Y-104140342D01*
X186829482Y-104239093D01*
X186614923Y-104382456D01*
X186432456Y-104564923D01*
X186289093Y-104779482D01*
X186190342Y-105017887D01*
X186140000Y-105270976D01*
X186140000Y-105529024D01*
X186190342Y-105782113D01*
X186289093Y-106020518D01*
X186432456Y-106235077D01*
X186597379Y-106400000D01*
X186432456Y-106564923D01*
X186289093Y-106779482D01*
X186190342Y-107017887D01*
X186140000Y-107270976D01*
X186140000Y-107529024D01*
X186190342Y-107782113D01*
X186289093Y-108020518D01*
X186432456Y-108235077D01*
X186597379Y-108400000D01*
X186432456Y-108564923D01*
X186289093Y-108779482D01*
X186190342Y-109017887D01*
X186140000Y-109270976D01*
X186140000Y-109529024D01*
X186190342Y-109782113D01*
X186289093Y-110020518D01*
X186432456Y-110235077D01*
X186597379Y-110400000D01*
X186432456Y-110564923D01*
X186289093Y-110779482D01*
X186190342Y-111017887D01*
X186140000Y-111270976D01*
X186140000Y-111529024D01*
X186190342Y-111782113D01*
X186289093Y-112020518D01*
X186410697Y-112202513D01*
X186323815Y-112273815D01*
X186244463Y-112370506D01*
X186185498Y-112480820D01*
X186149188Y-112600518D01*
X186136928Y-112725000D01*
X186140000Y-113114250D01*
X186298750Y-113273000D01*
X187323000Y-113273000D01*
X187323000Y-113253000D01*
X187577000Y-113253000D01*
X187577000Y-113273000D01*
X187597000Y-113273000D01*
X187597000Y-113527000D01*
X187577000Y-113527000D01*
X187577000Y-114551250D01*
X187735750Y-114710000D01*
X188125000Y-114713072D01*
X188249482Y-114700812D01*
X188369180Y-114664502D01*
X188479494Y-114605537D01*
X188576185Y-114526185D01*
X188655537Y-114429494D01*
X188714502Y-114319180D01*
X188750812Y-114199482D01*
X188763072Y-114075000D01*
X188760788Y-113785590D01*
X190121202Y-115146004D01*
X190145000Y-115175002D01*
X190260725Y-115269975D01*
X190392754Y-115340547D01*
X190536015Y-115384004D01*
X190647668Y-115395001D01*
X190647677Y-115395001D01*
X190685000Y-115398677D01*
X190722323Y-115395001D01*
X192269677Y-115395001D01*
X192306999Y-115398677D01*
X192344321Y-115395001D01*
X192344332Y-115395001D01*
X192455985Y-115384004D01*
X192599246Y-115340547D01*
X192731275Y-115269975D01*
X192847000Y-115175002D01*
X192870802Y-115145999D01*
X193379311Y-114637491D01*
X193586589Y-114775990D01*
X193856842Y-114887932D01*
X194143740Y-114945000D01*
X194436260Y-114945000D01*
X194723158Y-114887932D01*
X194993411Y-114775990D01*
X195236632Y-114613475D01*
X195443475Y-114406632D01*
X195605990Y-114163411D01*
X195717932Y-113893158D01*
X195775000Y-113606260D01*
X195775000Y-113313740D01*
X195717932Y-113026842D01*
X195605990Y-112756589D01*
X195443475Y-112513368D01*
X195236632Y-112306525D01*
X195062240Y-112190000D01*
X195236632Y-112073475D01*
X195443475Y-111866632D01*
X195605990Y-111623411D01*
X195717932Y-111353158D01*
X195775000Y-111066260D01*
X195775000Y-110773740D01*
X195717932Y-110486842D01*
X195605990Y-110216589D01*
X195443475Y-109973368D01*
X195236632Y-109766525D01*
X195062240Y-109650000D01*
X195236632Y-109533475D01*
X195443475Y-109326632D01*
X195605990Y-109083411D01*
X195717932Y-108813158D01*
X195775000Y-108526260D01*
X195775000Y-108233740D01*
X195717932Y-107946842D01*
X195605990Y-107676589D01*
X195443475Y-107433368D01*
X195236632Y-107226525D01*
X195054466Y-107104805D01*
X195171355Y-107035178D01*
X195387588Y-106840269D01*
X195561641Y-106606920D01*
X195686825Y-106344099D01*
X195731476Y-106196890D01*
X195610155Y-105967000D01*
X194417000Y-105967000D01*
X194417000Y-105987000D01*
X194163000Y-105987000D01*
X194163000Y-105967000D01*
X194143000Y-105967000D01*
X194143000Y-105713000D01*
X194163000Y-105713000D01*
X194163000Y-105693000D01*
X194417000Y-105693000D01*
X194417000Y-105713000D01*
X195610155Y-105713000D01*
X195731476Y-105483110D01*
X195686825Y-105335901D01*
X195561641Y-105073080D01*
X195435729Y-104904272D01*
X195816280Y-104523722D01*
X195814990Y-120363139D01*
X195806079Y-120459005D01*
X195788791Y-120517331D01*
X195760504Y-120571185D01*
X195722292Y-120618523D01*
X195675611Y-120657540D01*
X195622242Y-120686746D01*
X195564222Y-120705028D01*
X195473740Y-120715000D01*
X161931774Y-120715000D01*
X161835944Y-120706092D01*
X161777618Y-120688804D01*
X161723764Y-120660517D01*
X161676426Y-120622305D01*
X161637409Y-120575624D01*
X161608203Y-120522255D01*
X161589921Y-120464235D01*
X161579951Y-120373770D01*
X161580167Y-117704495D01*
X191015000Y-117704495D01*
X191015000Y-118095505D01*
X191091282Y-118479003D01*
X191240915Y-118840250D01*
X191458149Y-119165364D01*
X191734636Y-119441851D01*
X192059750Y-119659085D01*
X192420997Y-119808718D01*
X192804495Y-119885000D01*
X193195505Y-119885000D01*
X193579003Y-119808718D01*
X193940250Y-119659085D01*
X194265364Y-119441851D01*
X194541851Y-119165364D01*
X194759085Y-118840250D01*
X194908718Y-118479003D01*
X194985000Y-118095505D01*
X194985000Y-117704495D01*
X194908718Y-117320997D01*
X194759085Y-116959750D01*
X194541851Y-116634636D01*
X194265364Y-116358149D01*
X193940250Y-116140915D01*
X193579003Y-115991282D01*
X193195505Y-115915000D01*
X192804495Y-115915000D01*
X192420997Y-115991282D01*
X192059750Y-116140915D01*
X191734636Y-116358149D01*
X191458149Y-116634636D01*
X191240915Y-116959750D01*
X191091282Y-117320997D01*
X191015000Y-117704495D01*
X161580167Y-117704495D01*
X161580261Y-116547499D01*
X172432106Y-116547499D01*
X172648228Y-116914258D01*
X173108105Y-117154938D01*
X173606098Y-117301275D01*
X174123071Y-117347648D01*
X174639159Y-117292273D01*
X175134526Y-117137279D01*
X175551772Y-116914258D01*
X175767894Y-116547499D01*
X174100000Y-114879605D01*
X172432106Y-116547499D01*
X161580261Y-116547499D01*
X161580409Y-114723071D01*
X171452352Y-114723071D01*
X171507727Y-115239159D01*
X171662721Y-115734526D01*
X171885742Y-116151772D01*
X172252501Y-116367894D01*
X173920395Y-114700000D01*
X174279605Y-114700000D01*
X175947499Y-116367894D01*
X176314258Y-116151772D01*
X176554938Y-115691895D01*
X176701275Y-115193902D01*
X176747648Y-114676929D01*
X176692273Y-114160841D01*
X176665415Y-114075000D01*
X186136928Y-114075000D01*
X186149188Y-114199482D01*
X186185498Y-114319180D01*
X186244463Y-114429494D01*
X186323815Y-114526185D01*
X186420506Y-114605537D01*
X186530820Y-114664502D01*
X186650518Y-114700812D01*
X186775000Y-114713072D01*
X187164250Y-114710000D01*
X187323000Y-114551250D01*
X187323000Y-113527000D01*
X186298750Y-113527000D01*
X186140000Y-113685750D01*
X186136928Y-114075000D01*
X176665415Y-114075000D01*
X176537279Y-113665474D01*
X176314258Y-113248228D01*
X175947499Y-113032106D01*
X174279605Y-114700000D01*
X173920395Y-114700000D01*
X172252501Y-113032106D01*
X171885742Y-113248228D01*
X171645062Y-113708105D01*
X171498725Y-114206098D01*
X171452352Y-114723071D01*
X161580409Y-114723071D01*
X161580560Y-112852501D01*
X172432106Y-112852501D01*
X174100000Y-114520395D01*
X175767894Y-112852501D01*
X175551772Y-112485742D01*
X175091895Y-112245062D01*
X174593902Y-112098725D01*
X174076929Y-112052352D01*
X173560841Y-112107727D01*
X173065474Y-112262721D01*
X172648228Y-112485742D01*
X172432106Y-112852501D01*
X161580560Y-112852501D01*
X161581988Y-95280420D01*
X161610149Y-95295472D01*
X161776745Y-95346008D01*
X161852700Y-95353489D01*
X161852701Y-97525368D01*
X161849024Y-97562700D01*
X161852701Y-97600033D01*
X161863698Y-97711686D01*
X161872242Y-97739851D01*
X161907154Y-97854946D01*
X161977726Y-97986976D01*
X162023176Y-98042356D01*
X162072700Y-98102701D01*
X162101698Y-98126499D01*
X162936928Y-98961730D01*
X162936928Y-99550001D01*
X162953992Y-99723255D01*
X163004528Y-99889851D01*
X163086595Y-100043387D01*
X163197038Y-100177962D01*
X163331613Y-100288405D01*
X163485149Y-100370472D01*
X163651745Y-100421008D01*
X163824999Y-100438072D01*
X164725001Y-100438072D01*
X164898255Y-100421008D01*
X165064851Y-100370472D01*
X165218387Y-100288405D01*
X165352962Y-100177962D01*
X165463405Y-100043387D01*
X165545472Y-99889851D01*
X165596008Y-99723255D01*
X165613072Y-99550001D01*
X165613072Y-99225000D01*
X166186928Y-99225000D01*
X166199188Y-99349482D01*
X166235498Y-99469180D01*
X166294463Y-99579494D01*
X166373815Y-99676185D01*
X166470506Y-99755537D01*
X166580820Y-99814502D01*
X166700518Y-99850812D01*
X166825000Y-99863072D01*
X167239250Y-99860000D01*
X167398000Y-99701250D01*
X167398000Y-98777000D01*
X167652000Y-98777000D01*
X167652000Y-99701250D01*
X167810750Y-99860000D01*
X168225000Y-99863072D01*
X168349482Y-99850812D01*
X168469180Y-99814502D01*
X168579494Y-99755537D01*
X168676185Y-99676185D01*
X168755537Y-99579494D01*
X168814502Y-99469180D01*
X168850812Y-99349482D01*
X168863072Y-99225000D01*
X168860000Y-98935750D01*
X168701250Y-98777000D01*
X167652000Y-98777000D01*
X167398000Y-98777000D01*
X166348750Y-98777000D01*
X166190000Y-98935750D01*
X166186928Y-99225000D01*
X165613072Y-99225000D01*
X165613072Y-98899999D01*
X165596008Y-98726745D01*
X165545472Y-98560149D01*
X165463405Y-98406613D01*
X165352962Y-98272038D01*
X165265184Y-98200000D01*
X165352962Y-98127962D01*
X165463405Y-97993387D01*
X165545472Y-97839851D01*
X165596008Y-97673255D01*
X165613072Y-97500001D01*
X165613072Y-96849999D01*
X165596008Y-96676745D01*
X165545472Y-96510149D01*
X165463405Y-96356613D01*
X165352962Y-96222038D01*
X165288892Y-96169457D01*
X165310000Y-96063339D01*
X165310000Y-95991107D01*
X165334974Y-95960676D01*
X165405546Y-95828647D01*
X165449003Y-95685386D01*
X165460000Y-95573733D01*
X165460000Y-95573725D01*
X165463676Y-95536400D01*
X165460000Y-95499075D01*
X165460000Y-95243250D01*
X165477000Y-95226250D01*
X165477000Y-95221033D01*
X165501185Y-95201185D01*
X165550000Y-95141704D01*
X165598815Y-95201185D01*
X165623000Y-95221033D01*
X165623000Y-95226250D01*
X165781750Y-95385000D01*
X165885911Y-95373429D01*
X165901278Y-95368459D01*
X165925518Y-95375812D01*
X166050000Y-95388072D01*
X166190000Y-95388072D01*
X166190000Y-95987677D01*
X166186324Y-96025000D01*
X166190000Y-96062322D01*
X166190000Y-96062332D01*
X166198937Y-96153070D01*
X166186928Y-96274999D01*
X166186928Y-96925001D01*
X166203992Y-97098255D01*
X166254528Y-97264851D01*
X166336595Y-97418387D01*
X166447038Y-97552962D01*
X166453594Y-97558342D01*
X166373815Y-97623815D01*
X166294463Y-97720506D01*
X166235498Y-97830820D01*
X166199188Y-97950518D01*
X166186928Y-98075000D01*
X166190000Y-98364250D01*
X166348750Y-98523000D01*
X167398000Y-98523000D01*
X167398000Y-98503000D01*
X167652000Y-98503000D01*
X167652000Y-98523000D01*
X168701250Y-98523000D01*
X168860000Y-98364250D01*
X168863072Y-98075000D01*
X168850812Y-97950518D01*
X168814502Y-97830820D01*
X168755537Y-97720506D01*
X168676185Y-97623815D01*
X168596406Y-97558342D01*
X168602962Y-97552962D01*
X168713405Y-97418387D01*
X168795472Y-97264851D01*
X168846008Y-97098255D01*
X168863072Y-96925001D01*
X168863072Y-96274999D01*
X168846008Y-96101745D01*
X168795472Y-95935149D01*
X168742101Y-95835300D01*
X170424603Y-95835300D01*
X170386595Y-95881613D01*
X170304528Y-96035149D01*
X170253992Y-96201745D01*
X170236928Y-96374999D01*
X170236928Y-97025001D01*
X170253992Y-97198255D01*
X170304528Y-97364851D01*
X170386595Y-97518387D01*
X170497038Y-97652962D01*
X170631613Y-97763405D01*
X170785149Y-97845472D01*
X170815001Y-97854527D01*
X170815000Y-101062377D01*
X170811324Y-101099700D01*
X170815000Y-101137022D01*
X170815000Y-101137032D01*
X170825997Y-101248685D01*
X170860074Y-101361023D01*
X170869454Y-101391946D01*
X170940026Y-101523976D01*
X170979871Y-101572526D01*
X171034999Y-101639701D01*
X171064002Y-101663503D01*
X171649089Y-102248590D01*
X171648815Y-102248815D01*
X171569463Y-102345506D01*
X171510498Y-102455820D01*
X171474188Y-102575518D01*
X171461928Y-102700000D01*
X171461928Y-106700000D01*
X171474188Y-106824482D01*
X171510498Y-106944180D01*
X171569463Y-107054494D01*
X171648815Y-107151185D01*
X171745506Y-107230537D01*
X171855820Y-107289502D01*
X171975518Y-107325812D01*
X172100000Y-107338072D01*
X176100000Y-107338072D01*
X176224482Y-107325812D01*
X176344180Y-107289502D01*
X176454494Y-107230537D01*
X176551185Y-107151185D01*
X176630537Y-107054494D01*
X176689502Y-106944180D01*
X176725812Y-106824482D01*
X176738072Y-106700000D01*
X176738072Y-102700000D01*
X176725812Y-102575518D01*
X176689502Y-102455820D01*
X176630537Y-102345506D01*
X176551185Y-102248815D01*
X176454494Y-102169463D01*
X176344180Y-102110498D01*
X176224482Y-102074188D01*
X176100000Y-102061928D01*
X173612031Y-102061928D01*
X172335000Y-100784899D01*
X172335000Y-97854527D01*
X172364851Y-97845472D01*
X172518387Y-97763405D01*
X172652962Y-97652962D01*
X172763405Y-97518387D01*
X172845472Y-97364851D01*
X172896008Y-97198255D01*
X172913072Y-97025001D01*
X172913072Y-96374999D01*
X172896008Y-96201745D01*
X172845472Y-96035149D01*
X172763405Y-95881613D01*
X172652962Y-95747038D01*
X172565184Y-95675000D01*
X172652962Y-95602962D01*
X172763405Y-95468387D01*
X172845472Y-95314851D01*
X172896008Y-95148255D01*
X172913072Y-94975001D01*
X172913072Y-94324999D01*
X172896008Y-94151745D01*
X172845472Y-93985149D01*
X172763405Y-93831613D01*
X172652962Y-93697038D01*
X172518387Y-93586595D01*
X172364851Y-93504528D01*
X172198255Y-93453992D01*
X172025001Y-93436928D01*
X171124999Y-93436928D01*
X170951745Y-93453992D01*
X170785149Y-93504528D01*
X170631613Y-93586595D01*
X170497038Y-93697038D01*
X170386595Y-93831613D01*
X170304528Y-93985149D01*
X170253992Y-94151745D01*
X170237883Y-94315300D01*
X168788072Y-94315300D01*
X168788072Y-93650000D01*
X168775812Y-93525518D01*
X168739502Y-93405820D01*
X168680537Y-93295506D01*
X168601185Y-93198815D01*
X168517015Y-93129739D01*
X168541037Y-93050547D01*
X168601185Y-93001185D01*
X168680537Y-92904494D01*
X168739502Y-92794180D01*
X168775812Y-92674482D01*
X168788072Y-92550000D01*
X168788072Y-91712652D01*
X168846501Y-91664701D01*
X168870303Y-91635698D01*
X169640908Y-90865095D01*
X169669901Y-90841301D01*
X169693695Y-90812308D01*
X169693699Y-90812304D01*
X169753611Y-90739300D01*
X169764874Y-90725576D01*
X169835446Y-90593547D01*
X169878903Y-90450286D01*
X169889900Y-90338633D01*
X169889900Y-90338624D01*
X169893576Y-90301301D01*
X169889900Y-90263978D01*
X169889900Y-89376300D01*
X176447750Y-89376300D01*
X176473750Y-89402300D01*
G37*
X176473750Y-89402300D02*
X177523000Y-89402300D01*
X177523000Y-89382300D01*
X177777000Y-89382300D01*
X177777000Y-89402300D01*
X177797000Y-89402300D01*
X177797000Y-89656300D01*
X177777000Y-89656300D01*
X177777000Y-89676300D01*
X177523000Y-89676300D01*
X177523000Y-89656300D01*
X176473750Y-89656300D01*
X176315000Y-89815050D01*
X176311928Y-90104300D01*
X176324188Y-90228782D01*
X176360498Y-90348480D01*
X176419463Y-90458794D01*
X176498815Y-90555485D01*
X176578594Y-90620958D01*
X176572038Y-90626338D01*
X176461595Y-90760913D01*
X176379528Y-90914449D01*
X176328992Y-91081045D01*
X176311928Y-91254299D01*
X176311928Y-91904301D01*
X176328992Y-92077555D01*
X176379528Y-92244151D01*
X176461595Y-92397687D01*
X176572038Y-92532262D01*
X176608772Y-92562408D01*
X176597038Y-92572038D01*
X176486595Y-92706613D01*
X176404528Y-92860149D01*
X176353992Y-93026745D01*
X176336928Y-93199999D01*
X176336928Y-93850001D01*
X176353992Y-94023255D01*
X176404528Y-94189851D01*
X176486595Y-94343387D01*
X176597038Y-94477962D01*
X176684816Y-94550000D01*
X176597038Y-94622038D01*
X176486595Y-94756613D01*
X176404528Y-94910149D01*
X176353992Y-95076745D01*
X176336928Y-95249999D01*
X176336928Y-95900001D01*
X176353992Y-96073255D01*
X176404528Y-96239851D01*
X176486595Y-96393387D01*
X176597038Y-96527962D01*
X176731613Y-96638405D01*
X176885149Y-96720472D01*
X177051745Y-96771008D01*
X177224999Y-96788072D01*
X177788271Y-96788072D01*
X181586206Y-100586009D01*
X181610000Y-100615002D01*
X181638993Y-100638796D01*
X181638997Y-100638800D01*
X181683624Y-100675424D01*
X181725725Y-100709975D01*
X181857754Y-100780547D01*
X182001015Y-100824004D01*
X182112668Y-100835001D01*
X182112677Y-100835001D01*
X182150000Y-100838677D01*
X182187323Y-100835001D01*
X185060200Y-100835001D01*
X188340000Y-104114802D01*
X188340000Y-104437379D01*
X188285077Y-104382456D01*
X188070518Y-104239093D01*
X187832113Y-104140342D01*
X187579024Y-104090000D01*
X187320976Y-104090000D01*
X187067887Y-104140342D01*
X186829482Y-104239093D01*
X186614923Y-104382456D01*
X186432456Y-104564923D01*
X186289093Y-104779482D01*
X186190342Y-105017887D01*
X186140000Y-105270976D01*
X186140000Y-105529024D01*
X186190342Y-105782113D01*
X186289093Y-106020518D01*
X186432456Y-106235077D01*
X186597379Y-106400000D01*
X186432456Y-106564923D01*
X186289093Y-106779482D01*
X186190342Y-107017887D01*
X186140000Y-107270976D01*
X186140000Y-107529024D01*
X186190342Y-107782113D01*
X186289093Y-108020518D01*
X186432456Y-108235077D01*
X186597379Y-108400000D01*
X186432456Y-108564923D01*
X186289093Y-108779482D01*
X186190342Y-109017887D01*
X186140000Y-109270976D01*
X186140000Y-109529024D01*
X186190342Y-109782113D01*
X186289093Y-110020518D01*
X186432456Y-110235077D01*
X186597379Y-110400000D01*
X186432456Y-110564923D01*
X186289093Y-110779482D01*
X186190342Y-111017887D01*
X186140000Y-111270976D01*
X186140000Y-111529024D01*
X186190342Y-111782113D01*
X186289093Y-112020518D01*
X186410697Y-112202513D01*
X186323815Y-112273815D01*
X186244463Y-112370506D01*
X186185498Y-112480820D01*
X186149188Y-112600518D01*
X186136928Y-112725000D01*
X186140000Y-113114250D01*
X186298750Y-113273000D01*
X187323000Y-113273000D01*
X187323000Y-113253000D01*
X187577000Y-113253000D01*
X187577000Y-113273000D01*
X187597000Y-113273000D01*
X187597000Y-113527000D01*
X187577000Y-113527000D01*
X187577000Y-114551250D01*
X187735750Y-114710000D01*
X188125000Y-114713072D01*
X188249482Y-114700812D01*
X188369180Y-114664502D01*
X188479494Y-114605537D01*
X188576185Y-114526185D01*
X188655537Y-114429494D01*
X188714502Y-114319180D01*
X188750812Y-114199482D01*
X188763072Y-114075000D01*
X188760788Y-113785590D01*
X190121202Y-115146004D01*
X190145000Y-115175002D01*
X190260725Y-115269975D01*
X190392754Y-115340547D01*
X190536015Y-115384004D01*
X190647668Y-115395001D01*
X190647677Y-115395001D01*
X190685000Y-115398677D01*
X190722323Y-115395001D01*
X192269677Y-115395001D01*
X192306999Y-115398677D01*
X192344321Y-115395001D01*
X192344332Y-115395001D01*
X192455985Y-115384004D01*
X192599246Y-115340547D01*
X192731275Y-115269975D01*
X192847000Y-115175002D01*
X192870802Y-115145999D01*
X193379311Y-114637491D01*
X193586589Y-114775990D01*
X193856842Y-114887932D01*
X194143740Y-114945000D01*
X194436260Y-114945000D01*
X194723158Y-114887932D01*
X194993411Y-114775990D01*
X195236632Y-114613475D01*
X195443475Y-114406632D01*
X195605990Y-114163411D01*
X195717932Y-113893158D01*
X195775000Y-113606260D01*
X195775000Y-113313740D01*
X195717932Y-113026842D01*
X195605990Y-112756589D01*
X195443475Y-112513368D01*
X195236632Y-112306525D01*
X195062240Y-112190000D01*
X195236632Y-112073475D01*
X195443475Y-111866632D01*
X195605990Y-111623411D01*
X195717932Y-111353158D01*
X195775000Y-111066260D01*
X195775000Y-110773740D01*
X195717932Y-110486842D01*
X195605990Y-110216589D01*
X195443475Y-109973368D01*
X195236632Y-109766525D01*
X195062240Y-109650000D01*
X195236632Y-109533475D01*
X195443475Y-109326632D01*
X195605990Y-109083411D01*
X195717932Y-108813158D01*
X195775000Y-108526260D01*
X195775000Y-108233740D01*
X195717932Y-107946842D01*
X195605990Y-107676589D01*
X195443475Y-107433368D01*
X195236632Y-107226525D01*
X195054466Y-107104805D01*
X195171355Y-107035178D01*
X195387588Y-106840269D01*
X195561641Y-106606920D01*
X195686825Y-106344099D01*
X195731476Y-106196890D01*
X195610155Y-105967000D01*
X194417000Y-105967000D01*
X194417000Y-105987000D01*
X194163000Y-105987000D01*
X194163000Y-105967000D01*
X194143000Y-105967000D01*
X194143000Y-105713000D01*
X194163000Y-105713000D01*
X194163000Y-105693000D01*
X194417000Y-105693000D01*
X194417000Y-105713000D01*
X195610155Y-105713000D01*
X195731476Y-105483110D01*
X195686825Y-105335901D01*
X195561641Y-105073080D01*
X195435729Y-104904272D01*
X195816280Y-104523722D01*
X195814990Y-120363139D01*
X195806079Y-120459005D01*
X195788791Y-120517331D01*
X195760504Y-120571185D01*
X195722292Y-120618523D01*
X195675611Y-120657540D01*
X195622242Y-120686746D01*
X195564222Y-120705028D01*
X195473740Y-120715000D01*
X161931774Y-120715000D01*
X161835944Y-120706092D01*
X161777618Y-120688804D01*
X161723764Y-120660517D01*
X161676426Y-120622305D01*
X161637409Y-120575624D01*
X161608203Y-120522255D01*
X161589921Y-120464235D01*
X161579951Y-120373770D01*
X161580167Y-117704495D01*
X191015000Y-117704495D01*
X191015000Y-118095505D01*
X191091282Y-118479003D01*
X191240915Y-118840250D01*
X191458149Y-119165364D01*
X191734636Y-119441851D01*
X192059750Y-119659085D01*
X192420997Y-119808718D01*
X192804495Y-119885000D01*
X193195505Y-119885000D01*
X193579003Y-119808718D01*
X193940250Y-119659085D01*
X194265364Y-119441851D01*
X194541851Y-119165364D01*
X194759085Y-118840250D01*
X194908718Y-118479003D01*
X194985000Y-118095505D01*
X194985000Y-117704495D01*
X194908718Y-117320997D01*
X194759085Y-116959750D01*
X194541851Y-116634636D01*
X194265364Y-116358149D01*
X193940250Y-116140915D01*
X193579003Y-115991282D01*
X193195505Y-115915000D01*
X192804495Y-115915000D01*
X192420997Y-115991282D01*
X192059750Y-116140915D01*
X191734636Y-116358149D01*
X191458149Y-116634636D01*
X191240915Y-116959750D01*
X191091282Y-117320997D01*
X191015000Y-117704495D01*
X161580167Y-117704495D01*
X161580261Y-116547499D01*
X172432106Y-116547499D01*
X172648228Y-116914258D01*
X173108105Y-117154938D01*
X173606098Y-117301275D01*
X174123071Y-117347648D01*
X174639159Y-117292273D01*
X175134526Y-117137279D01*
X175551772Y-116914258D01*
X175767894Y-116547499D01*
X174100000Y-114879605D01*
X172432106Y-116547499D01*
X161580261Y-116547499D01*
X161580409Y-114723071D01*
X171452352Y-114723071D01*
X171507727Y-115239159D01*
X171662721Y-115734526D01*
X171885742Y-116151772D01*
X172252501Y-116367894D01*
X173920395Y-114700000D01*
X174279605Y-114700000D01*
X175947499Y-116367894D01*
X176314258Y-116151772D01*
X176554938Y-115691895D01*
X176701275Y-115193902D01*
X176747648Y-114676929D01*
X176692273Y-114160841D01*
X176665415Y-114075000D01*
X186136928Y-114075000D01*
X186149188Y-114199482D01*
X186185498Y-114319180D01*
X186244463Y-114429494D01*
X186323815Y-114526185D01*
X186420506Y-114605537D01*
X186530820Y-114664502D01*
X186650518Y-114700812D01*
X186775000Y-114713072D01*
X187164250Y-114710000D01*
X187323000Y-114551250D01*
X187323000Y-113527000D01*
X186298750Y-113527000D01*
X186140000Y-113685750D01*
X186136928Y-114075000D01*
X176665415Y-114075000D01*
X176537279Y-113665474D01*
X176314258Y-113248228D01*
X175947499Y-113032106D01*
X174279605Y-114700000D01*
X173920395Y-114700000D01*
X172252501Y-113032106D01*
X171885742Y-113248228D01*
X171645062Y-113708105D01*
X171498725Y-114206098D01*
X171452352Y-114723071D01*
X161580409Y-114723071D01*
X161580560Y-112852501D01*
X172432106Y-112852501D01*
X174100000Y-114520395D01*
X175767894Y-112852501D01*
X175551772Y-112485742D01*
X175091895Y-112245062D01*
X174593902Y-112098725D01*
X174076929Y-112052352D01*
X173560841Y-112107727D01*
X173065474Y-112262721D01*
X172648228Y-112485742D01*
X172432106Y-112852501D01*
X161580560Y-112852501D01*
X161581988Y-95280420D01*
X161610149Y-95295472D01*
X161776745Y-95346008D01*
X161852700Y-95353489D01*
X161852701Y-97525368D01*
X161849024Y-97562700D01*
X161852701Y-97600033D01*
X161863698Y-97711686D01*
X161872242Y-97739851D01*
X161907154Y-97854946D01*
X161977726Y-97986976D01*
X162023176Y-98042356D01*
X162072700Y-98102701D01*
X162101698Y-98126499D01*
X162936928Y-98961730D01*
X162936928Y-99550001D01*
X162953992Y-99723255D01*
X163004528Y-99889851D01*
X163086595Y-100043387D01*
X163197038Y-100177962D01*
X163331613Y-100288405D01*
X163485149Y-100370472D01*
X163651745Y-100421008D01*
X163824999Y-100438072D01*
X164725001Y-100438072D01*
X164898255Y-100421008D01*
X165064851Y-100370472D01*
X165218387Y-100288405D01*
X165352962Y-100177962D01*
X165463405Y-100043387D01*
X165545472Y-99889851D01*
X165596008Y-99723255D01*
X165613072Y-99550001D01*
X165613072Y-99225000D01*
X166186928Y-99225000D01*
X166199188Y-99349482D01*
X166235498Y-99469180D01*
X166294463Y-99579494D01*
X166373815Y-99676185D01*
X166470506Y-99755537D01*
X166580820Y-99814502D01*
X166700518Y-99850812D01*
X166825000Y-99863072D01*
X167239250Y-99860000D01*
X167398000Y-99701250D01*
X167398000Y-98777000D01*
X167652000Y-98777000D01*
X167652000Y-99701250D01*
X167810750Y-99860000D01*
X168225000Y-99863072D01*
X168349482Y-99850812D01*
X168469180Y-99814502D01*
X168579494Y-99755537D01*
X168676185Y-99676185D01*
X168755537Y-99579494D01*
X168814502Y-99469180D01*
X168850812Y-99349482D01*
X168863072Y-99225000D01*
X168860000Y-98935750D01*
X168701250Y-98777000D01*
X167652000Y-98777000D01*
X167398000Y-98777000D01*
X166348750Y-98777000D01*
X166190000Y-98935750D01*
X166186928Y-99225000D01*
X165613072Y-99225000D01*
X165613072Y-98899999D01*
X165596008Y-98726745D01*
X165545472Y-98560149D01*
X165463405Y-98406613D01*
X165352962Y-98272038D01*
X165265184Y-98200000D01*
X165352962Y-98127962D01*
X165463405Y-97993387D01*
X165545472Y-97839851D01*
X165596008Y-97673255D01*
X165613072Y-97500001D01*
X165613072Y-96849999D01*
X165596008Y-96676745D01*
X165545472Y-96510149D01*
X165463405Y-96356613D01*
X165352962Y-96222038D01*
X165288892Y-96169457D01*
X165310000Y-96063339D01*
X165310000Y-95991107D01*
X165334974Y-95960676D01*
X165405546Y-95828647D01*
X165449003Y-95685386D01*
X165460000Y-95573733D01*
X165460000Y-95573725D01*
X165463676Y-95536400D01*
X165460000Y-95499075D01*
X165460000Y-95243250D01*
X165477000Y-95226250D01*
X165477000Y-95221033D01*
X165501185Y-95201185D01*
X165550000Y-95141704D01*
X165598815Y-95201185D01*
X165623000Y-95221033D01*
X165623000Y-95226250D01*
X165781750Y-95385000D01*
X165885911Y-95373429D01*
X165901278Y-95368459D01*
X165925518Y-95375812D01*
X166050000Y-95388072D01*
X166190000Y-95388072D01*
X166190000Y-95987677D01*
X166186324Y-96025000D01*
X166190000Y-96062322D01*
X166190000Y-96062332D01*
X166198937Y-96153070D01*
X166186928Y-96274999D01*
X166186928Y-96925001D01*
X166203992Y-97098255D01*
X166254528Y-97264851D01*
X166336595Y-97418387D01*
X166447038Y-97552962D01*
X166453594Y-97558342D01*
X166373815Y-97623815D01*
X166294463Y-97720506D01*
X166235498Y-97830820D01*
X166199188Y-97950518D01*
X166186928Y-98075000D01*
X166190000Y-98364250D01*
X166348750Y-98523000D01*
X167398000Y-98523000D01*
X167398000Y-98503000D01*
X167652000Y-98503000D01*
X167652000Y-98523000D01*
X168701250Y-98523000D01*
X168860000Y-98364250D01*
X168863072Y-98075000D01*
X168850812Y-97950518D01*
X168814502Y-97830820D01*
X168755537Y-97720506D01*
X168676185Y-97623815D01*
X168596406Y-97558342D01*
X168602962Y-97552962D01*
X168713405Y-97418387D01*
X168795472Y-97264851D01*
X168846008Y-97098255D01*
X168863072Y-96925001D01*
X168863072Y-96274999D01*
X168846008Y-96101745D01*
X168795472Y-95935149D01*
X168742101Y-95835300D01*
X170424603Y-95835300D01*
X170386595Y-95881613D01*
X170304528Y-96035149D01*
X170253992Y-96201745D01*
X170236928Y-96374999D01*
X170236928Y-97025001D01*
X170253992Y-97198255D01*
X170304528Y-97364851D01*
X170386595Y-97518387D01*
X170497038Y-97652962D01*
X170631613Y-97763405D01*
X170785149Y-97845472D01*
X170815001Y-97854527D01*
X170815000Y-101062377D01*
X170811324Y-101099700D01*
X170815000Y-101137022D01*
X170815000Y-101137032D01*
X170825997Y-101248685D01*
X170860074Y-101361023D01*
X170869454Y-101391946D01*
X170940026Y-101523976D01*
X170979871Y-101572526D01*
X171034999Y-101639701D01*
X171064002Y-101663503D01*
X171649089Y-102248590D01*
X171648815Y-102248815D01*
X171569463Y-102345506D01*
X171510498Y-102455820D01*
X171474188Y-102575518D01*
X171461928Y-102700000D01*
X171461928Y-106700000D01*
X171474188Y-106824482D01*
X171510498Y-106944180D01*
X171569463Y-107054494D01*
X171648815Y-107151185D01*
X171745506Y-107230537D01*
X171855820Y-107289502D01*
X171975518Y-107325812D01*
X172100000Y-107338072D01*
X176100000Y-107338072D01*
X176224482Y-107325812D01*
X176344180Y-107289502D01*
X176454494Y-107230537D01*
X176551185Y-107151185D01*
X176630537Y-107054494D01*
X176689502Y-106944180D01*
X176725812Y-106824482D01*
X176738072Y-106700000D01*
X176738072Y-102700000D01*
X176725812Y-102575518D01*
X176689502Y-102455820D01*
X176630537Y-102345506D01*
X176551185Y-102248815D01*
X176454494Y-102169463D01*
X176344180Y-102110498D01*
X176224482Y-102074188D01*
X176100000Y-102061928D01*
X173612031Y-102061928D01*
X172335000Y-100784899D01*
X172335000Y-97854527D01*
X172364851Y-97845472D01*
X172518387Y-97763405D01*
X172652962Y-97652962D01*
X172763405Y-97518387D01*
X172845472Y-97364851D01*
X172896008Y-97198255D01*
X172913072Y-97025001D01*
X172913072Y-96374999D01*
X172896008Y-96201745D01*
X172845472Y-96035149D01*
X172763405Y-95881613D01*
X172652962Y-95747038D01*
X172565184Y-95675000D01*
X172652962Y-95602962D01*
X172763405Y-95468387D01*
X172845472Y-95314851D01*
X172896008Y-95148255D01*
X172913072Y-94975001D01*
X172913072Y-94324999D01*
X172896008Y-94151745D01*
X172845472Y-93985149D01*
X172763405Y-93831613D01*
X172652962Y-93697038D01*
X172518387Y-93586595D01*
X172364851Y-93504528D01*
X172198255Y-93453992D01*
X172025001Y-93436928D01*
X171124999Y-93436928D01*
X170951745Y-93453992D01*
X170785149Y-93504528D01*
X170631613Y-93586595D01*
X170497038Y-93697038D01*
X170386595Y-93831613D01*
X170304528Y-93985149D01*
X170253992Y-94151745D01*
X170237883Y-94315300D01*
X168788072Y-94315300D01*
X168788072Y-93650000D01*
X168775812Y-93525518D01*
X168739502Y-93405820D01*
X168680537Y-93295506D01*
X168601185Y-93198815D01*
X168517015Y-93129739D01*
X168541037Y-93050547D01*
X168601185Y-93001185D01*
X168680537Y-92904494D01*
X168739502Y-92794180D01*
X168775812Y-92674482D01*
X168788072Y-92550000D01*
X168788072Y-91712652D01*
X168846501Y-91664701D01*
X168870303Y-91635698D01*
X169640908Y-90865095D01*
X169669901Y-90841301D01*
X169693695Y-90812308D01*
X169693699Y-90812304D01*
X169753611Y-90739300D01*
X169764874Y-90725576D01*
X169835446Y-90593547D01*
X169878903Y-90450286D01*
X169889900Y-90338633D01*
X169889900Y-90338624D01*
X169893576Y-90301301D01*
X169889900Y-90263978D01*
X169889900Y-89376300D01*
X176447750Y-89376300D01*
X176473750Y-89402300D01*
G36*
X191877000Y-113333000D02*
G01*
X191897000Y-113333000D01*
X191897000Y-113587000D01*
X191877000Y-113587000D01*
X191877000Y-113607000D01*
X191623000Y-113607000D01*
X191623000Y-113587000D01*
X191603000Y-113587000D01*
X191603000Y-113333000D01*
X191623000Y-113333000D01*
X191623000Y-113313000D01*
X191877000Y-113313000D01*
X191877000Y-113333000D01*
G37*
X191877000Y-113333000D02*
X191897000Y-113333000D01*
X191897000Y-113587000D01*
X191877000Y-113587000D01*
X191877000Y-113607000D01*
X191623000Y-113607000D01*
X191623000Y-113587000D01*
X191603000Y-113587000D01*
X191603000Y-113333000D01*
X191623000Y-113333000D01*
X191623000Y-113313000D01*
X191877000Y-113313000D01*
X191877000Y-113333000D01*
G36*
X194417000Y-100633000D02*
G01*
X194437000Y-100633000D01*
X194437000Y-100887000D01*
X194417000Y-100887000D01*
X194417000Y-100907000D01*
X194163000Y-100907000D01*
X194163000Y-100887000D01*
X194143000Y-100887000D01*
X194143000Y-100633000D01*
X194163000Y-100633000D01*
X194163000Y-100613000D01*
X194417000Y-100613000D01*
X194417000Y-100633000D01*
G37*
X194417000Y-100633000D02*
X194437000Y-100633000D01*
X194437000Y-100887000D01*
X194417000Y-100887000D01*
X194417000Y-100907000D01*
X194163000Y-100907000D01*
X194163000Y-100887000D01*
X194143000Y-100887000D01*
X194143000Y-100633000D01*
X194163000Y-100633000D01*
X194163000Y-100613000D01*
X194417000Y-100613000D01*
X194417000Y-100633000D01*
G36*
X179245201Y-94252868D02*
G01*
X179241524Y-94290200D01*
X179245201Y-94327533D01*
X179256198Y-94439186D01*
X179262876Y-94461201D01*
X179299654Y-94582446D01*
X179370226Y-94714476D01*
X179439583Y-94798987D01*
X179465200Y-94830201D01*
X179494198Y-94853999D01*
X182201200Y-97561002D01*
X182224999Y-97590001D01*
X182253997Y-97613799D01*
X182340724Y-97684974D01*
X182472753Y-97755546D01*
X182616014Y-97799003D01*
X182765000Y-97813677D01*
X182802333Y-97810000D01*
X182917024Y-97810000D01*
X182961595Y-97893387D01*
X183072038Y-98027962D01*
X183206613Y-98138405D01*
X183360149Y-98220472D01*
X183526745Y-98271008D01*
X183699999Y-98288072D01*
X184600001Y-98288072D01*
X184773255Y-98271008D01*
X184939851Y-98220472D01*
X185093387Y-98138405D01*
X185227962Y-98027962D01*
X185338405Y-97893387D01*
X185369614Y-97835000D01*
X186055386Y-97835000D01*
X186086595Y-97893387D01*
X186197038Y-98027962D01*
X186331613Y-98138405D01*
X186485149Y-98220472D01*
X186515001Y-98229527D01*
X186515000Y-100140199D01*
X185938805Y-99564004D01*
X185915002Y-99535000D01*
X185799277Y-99440027D01*
X185667248Y-99369455D01*
X185523987Y-99325998D01*
X185412334Y-99315001D01*
X185412323Y-99315001D01*
X185375001Y-99311325D01*
X185337679Y-99315001D01*
X182464804Y-99315001D01*
X179013072Y-95863271D01*
X179013072Y-95249999D01*
X178996008Y-95076745D01*
X178945472Y-94910149D01*
X178863405Y-94756613D01*
X178752962Y-94622038D01*
X178665184Y-94550000D01*
X178752962Y-94477962D01*
X178863405Y-94343387D01*
X178945472Y-94189851D01*
X178996008Y-94023255D01*
X179013072Y-93850001D01*
X179013072Y-93199999D01*
X178996008Y-93026745D01*
X178945472Y-92860149D01*
X178884939Y-92746900D01*
X179071139Y-92746900D01*
X179245201Y-92712277D01*
X179245201Y-94252868D01*
G37*
X179245201Y-94252868D02*
X179241524Y-94290200D01*
X179245201Y-94327533D01*
X179256198Y-94439186D01*
X179262876Y-94461201D01*
X179299654Y-94582446D01*
X179370226Y-94714476D01*
X179439583Y-94798987D01*
X179465200Y-94830201D01*
X179494198Y-94853999D01*
X182201200Y-97561002D01*
X182224999Y-97590001D01*
X182253997Y-97613799D01*
X182340724Y-97684974D01*
X182472753Y-97755546D01*
X182616014Y-97799003D01*
X182765000Y-97813677D01*
X182802333Y-97810000D01*
X182917024Y-97810000D01*
X182961595Y-97893387D01*
X183072038Y-98027962D01*
X183206613Y-98138405D01*
X183360149Y-98220472D01*
X183526745Y-98271008D01*
X183699999Y-98288072D01*
X184600001Y-98288072D01*
X184773255Y-98271008D01*
X184939851Y-98220472D01*
X185093387Y-98138405D01*
X185227962Y-98027962D01*
X185338405Y-97893387D01*
X185369614Y-97835000D01*
X186055386Y-97835000D01*
X186086595Y-97893387D01*
X186197038Y-98027962D01*
X186331613Y-98138405D01*
X186485149Y-98220472D01*
X186515001Y-98229527D01*
X186515000Y-100140199D01*
X185938805Y-99564004D01*
X185915002Y-99535000D01*
X185799277Y-99440027D01*
X185667248Y-99369455D01*
X185523987Y-99325998D01*
X185412334Y-99315001D01*
X185412323Y-99315001D01*
X185375001Y-99311325D01*
X185337679Y-99315001D01*
X182464804Y-99315001D01*
X179013072Y-95863271D01*
X179013072Y-95249999D01*
X178996008Y-95076745D01*
X178945472Y-94910149D01*
X178863405Y-94756613D01*
X178752962Y-94622038D01*
X178665184Y-94550000D01*
X178752962Y-94477962D01*
X178863405Y-94343387D01*
X178945472Y-94189851D01*
X178996008Y-94023255D01*
X179013072Y-93850001D01*
X179013072Y-93199999D01*
X178996008Y-93026745D01*
X178945472Y-92860149D01*
X178884939Y-92746900D01*
X179071139Y-92746900D01*
X179245201Y-92712277D01*
X179245201Y-94252868D01*
G36*
X182276459Y-77875960D02*
G01*
X182260498Y-77905820D01*
X182224188Y-78025518D01*
X182211928Y-78150000D01*
X182211928Y-78950000D01*
X182224188Y-79074482D01*
X182260498Y-79194180D01*
X182319463Y-79304494D01*
X182398815Y-79401185D01*
X182495506Y-79480537D01*
X182515000Y-79490957D01*
X182515001Y-82455386D01*
X182456613Y-82486595D01*
X182322038Y-82597038D01*
X182211595Y-82731613D01*
X182129528Y-82885149D01*
X182078992Y-83051745D01*
X182061928Y-83224999D01*
X182061928Y-84125001D01*
X182078992Y-84298255D01*
X182129528Y-84464851D01*
X182211595Y-84618387D01*
X182322038Y-84752962D01*
X182456613Y-84863405D01*
X182610149Y-84945472D01*
X182776745Y-84996008D01*
X182949999Y-85013072D01*
X183600001Y-85013072D01*
X183773255Y-84996008D01*
X183939851Y-84945472D01*
X184093387Y-84863405D01*
X184227962Y-84752962D01*
X184300000Y-84665184D01*
X184372038Y-84752962D01*
X184506613Y-84863405D01*
X184660149Y-84945472D01*
X184826745Y-84996008D01*
X184999999Y-85013072D01*
X185650001Y-85013072D01*
X185823255Y-84996008D01*
X185989851Y-84945472D01*
X186143387Y-84863405D01*
X186277962Y-84752962D01*
X186388405Y-84618387D01*
X186470472Y-84464851D01*
X186521008Y-84298255D01*
X186528633Y-84220835D01*
X189608805Y-87301008D01*
X189632599Y-87330001D01*
X189661592Y-87353795D01*
X189661596Y-87353799D01*
X189732285Y-87411811D01*
X189748324Y-87424974D01*
X189880353Y-87495546D01*
X190023614Y-87539003D01*
X190135267Y-87550000D01*
X190135276Y-87550000D01*
X190172599Y-87553676D01*
X190209922Y-87550000D01*
X190353897Y-87550000D01*
X190322068Y-87626842D01*
X190265000Y-87913740D01*
X190265000Y-88206260D01*
X190322068Y-88493158D01*
X190434010Y-88763411D01*
X190596525Y-89006632D01*
X190803368Y-89213475D01*
X190977760Y-89330000D01*
X190803368Y-89446525D01*
X190596525Y-89653368D01*
X190434010Y-89896589D01*
X190322068Y-90166842D01*
X190265000Y-90453740D01*
X190265000Y-90746260D01*
X190322068Y-91033158D01*
X190434010Y-91303411D01*
X190596525Y-91546632D01*
X190803368Y-91753475D01*
X190977760Y-91870000D01*
X190803368Y-91986525D01*
X190596525Y-92193368D01*
X190434010Y-92436589D01*
X190322068Y-92706842D01*
X190265000Y-92993740D01*
X190265000Y-93286260D01*
X190322068Y-93573158D01*
X190434010Y-93843411D01*
X190596525Y-94086632D01*
X190803368Y-94293475D01*
X190985534Y-94415195D01*
X190868645Y-94484822D01*
X190652412Y-94679731D01*
X190478359Y-94913080D01*
X190353175Y-95175901D01*
X190308524Y-95323110D01*
X190429845Y-95553000D01*
X191623000Y-95553000D01*
X191623000Y-95533000D01*
X191877000Y-95533000D01*
X191877000Y-95553000D01*
X191897000Y-95553000D01*
X191897000Y-95807000D01*
X191877000Y-95807000D01*
X191877000Y-95827000D01*
X191623000Y-95827000D01*
X191623000Y-95807000D01*
X190429845Y-95807000D01*
X190308524Y-96036890D01*
X190353175Y-96184099D01*
X190478359Y-96446920D01*
X190652412Y-96680269D01*
X190868645Y-96875178D01*
X190985534Y-96944805D01*
X190803368Y-97066525D01*
X190596525Y-97273368D01*
X190434010Y-97516589D01*
X190322068Y-97786842D01*
X190265000Y-98073740D01*
X190265000Y-98366260D01*
X190322068Y-98653158D01*
X190434010Y-98923411D01*
X190596525Y-99166632D01*
X190803368Y-99373475D01*
X190977760Y-99490000D01*
X190803368Y-99606525D01*
X190596525Y-99813368D01*
X190434010Y-100056589D01*
X190418890Y-100093091D01*
X189885000Y-99559201D01*
X189885000Y-96862322D01*
X189888676Y-96824999D01*
X189885000Y-96787676D01*
X189885000Y-96787667D01*
X189874003Y-96676014D01*
X189830546Y-96532753D01*
X189759974Y-96400724D01*
X189738862Y-96374999D01*
X189688799Y-96313996D01*
X189688795Y-96313992D01*
X189665001Y-96284999D01*
X189636008Y-96261205D01*
X188613072Y-95238270D01*
X188613072Y-94699999D01*
X188596008Y-94526745D01*
X188545472Y-94360149D01*
X188463405Y-94206613D01*
X188352962Y-94072038D01*
X188218387Y-93961595D01*
X188064851Y-93879528D01*
X188035000Y-93870473D01*
X188035000Y-92387022D01*
X188038676Y-92349699D01*
X188035000Y-92312376D01*
X188035000Y-92312367D01*
X188024003Y-92200714D01*
X187980546Y-92057453D01*
X187909974Y-91925424D01*
X187815001Y-91809699D01*
X187786002Y-91785901D01*
X187064103Y-91064002D01*
X187040301Y-91034999D01*
X186924576Y-90940026D01*
X186792547Y-90869454D01*
X186649286Y-90825997D01*
X186648423Y-90825912D01*
X186626185Y-90798815D01*
X186529494Y-90719463D01*
X186419180Y-90660498D01*
X186299482Y-90624188D01*
X186175000Y-90611928D01*
X185125000Y-90611928D01*
X185000518Y-90624188D01*
X184880820Y-90660498D01*
X184770506Y-90719463D01*
X184673815Y-90798815D01*
X184660532Y-90815000D01*
X182489468Y-90815000D01*
X182476185Y-90798815D01*
X182379494Y-90719463D01*
X182269180Y-90660498D01*
X182149482Y-90624188D01*
X182025000Y-90611928D01*
X180975000Y-90611928D01*
X180850518Y-90624188D01*
X180765200Y-90650069D01*
X180765200Y-90349931D01*
X180850518Y-90375812D01*
X180975000Y-90388072D01*
X181214250Y-90385000D01*
X181373000Y-90226250D01*
X181373000Y-89552000D01*
X181627000Y-89552000D01*
X181627000Y-90226250D01*
X181785750Y-90385000D01*
X182025000Y-90388072D01*
X182149482Y-90375812D01*
X182269180Y-90339502D01*
X182379494Y-90280537D01*
X182476185Y-90201185D01*
X182555537Y-90104494D01*
X182614502Y-89994180D01*
X182650812Y-89874482D01*
X182663072Y-89750000D01*
X184486928Y-89750000D01*
X184499188Y-89874482D01*
X184535498Y-89994180D01*
X184594463Y-90104494D01*
X184673815Y-90201185D01*
X184770506Y-90280537D01*
X184880820Y-90339502D01*
X185000518Y-90375812D01*
X185125000Y-90388072D01*
X185364250Y-90385000D01*
X185523000Y-90226250D01*
X185523000Y-89552000D01*
X185777000Y-89552000D01*
X185777000Y-90226250D01*
X185935750Y-90385000D01*
X186175000Y-90388072D01*
X186299482Y-90375812D01*
X186419180Y-90339502D01*
X186529494Y-90280537D01*
X186626185Y-90201185D01*
X186705537Y-90104494D01*
X186764502Y-89994180D01*
X186800812Y-89874482D01*
X186813072Y-89750000D01*
X186810000Y-89710750D01*
X186651250Y-89552000D01*
X185777000Y-89552000D01*
X185523000Y-89552000D01*
X184648750Y-89552000D01*
X184490000Y-89710750D01*
X184486928Y-89750000D01*
X182663072Y-89750000D01*
X182660000Y-89710750D01*
X182501250Y-89552000D01*
X181627000Y-89552000D01*
X181373000Y-89552000D01*
X180498750Y-89552000D01*
X180417221Y-89633529D01*
X179883692Y-89100000D01*
X180336928Y-89100000D01*
X180340000Y-89139250D01*
X180498750Y-89298000D01*
X181373000Y-89298000D01*
X181373000Y-88623750D01*
X181627000Y-88623750D01*
X181627000Y-89298000D01*
X182501250Y-89298000D01*
X182660000Y-89139250D01*
X182663072Y-89100000D01*
X184486928Y-89100000D01*
X184490000Y-89139250D01*
X184648750Y-89298000D01*
X185523000Y-89298000D01*
X185523000Y-88623750D01*
X185777000Y-88623750D01*
X185777000Y-89298000D01*
X186651250Y-89298000D01*
X186810000Y-89139250D01*
X186813072Y-89100000D01*
X186800812Y-88975518D01*
X186764502Y-88855820D01*
X186705537Y-88745506D01*
X186626185Y-88648815D01*
X186529494Y-88569463D01*
X186419180Y-88510498D01*
X186299482Y-88474188D01*
X186175000Y-88461928D01*
X185935750Y-88465000D01*
X185777000Y-88623750D01*
X185523000Y-88623750D01*
X185364250Y-88465000D01*
X185125000Y-88461928D01*
X185000518Y-88474188D01*
X184880820Y-88510498D01*
X184770506Y-88569463D01*
X184673815Y-88648815D01*
X184594463Y-88745506D01*
X184535498Y-88855820D01*
X184499188Y-88975518D01*
X184486928Y-89100000D01*
X182663072Y-89100000D01*
X182650812Y-88975518D01*
X182614502Y-88855820D01*
X182555537Y-88745506D01*
X182476185Y-88648815D01*
X182379494Y-88569463D01*
X182269180Y-88510498D01*
X182149482Y-88474188D01*
X182025000Y-88461928D01*
X181785750Y-88465000D01*
X181627000Y-88623750D01*
X181373000Y-88623750D01*
X181214250Y-88465000D01*
X180975000Y-88461928D01*
X180850518Y-88474188D01*
X180730820Y-88510498D01*
X180620506Y-88569463D01*
X180523815Y-88648815D01*
X180444463Y-88745506D01*
X180385498Y-88855820D01*
X180349188Y-88975518D01*
X180336928Y-89100000D01*
X179883692Y-89100000D01*
X178888994Y-88105303D01*
X178865191Y-88076299D01*
X178749466Y-87981326D01*
X178617437Y-87910754D01*
X178474176Y-87867297D01*
X178362523Y-87856300D01*
X178362512Y-87856300D01*
X178325190Y-87852624D01*
X178287868Y-87856300D01*
X169438072Y-87856300D01*
X169438072Y-87324999D01*
X169423933Y-87181447D01*
X169428963Y-87188974D01*
X169573126Y-87333137D01*
X169742644Y-87446405D01*
X169931002Y-87524426D01*
X170130961Y-87564200D01*
X170334839Y-87564200D01*
X170534798Y-87524426D01*
X170723156Y-87446405D01*
X170892674Y-87333137D01*
X171036837Y-87188974D01*
X171150105Y-87019456D01*
X171196209Y-86908151D01*
X171317998Y-86883926D01*
X171506356Y-86805905D01*
X171675874Y-86692637D01*
X171820037Y-86548474D01*
X171933305Y-86378956D01*
X172011326Y-86190598D01*
X172051100Y-85990639D01*
X172051100Y-85859072D01*
X172190000Y-85859072D01*
X172314482Y-85846812D01*
X172425000Y-85813287D01*
X172535518Y-85846812D01*
X172660000Y-85859072D01*
X173460000Y-85859072D01*
X173584482Y-85846812D01*
X173695000Y-85813287D01*
X173805518Y-85846812D01*
X173930000Y-85859072D01*
X174730000Y-85859072D01*
X174854482Y-85846812D01*
X174965000Y-85813287D01*
X175075518Y-85846812D01*
X175200000Y-85859072D01*
X175314250Y-85856000D01*
X175473000Y-85697250D01*
X175473000Y-84748000D01*
X175727000Y-84748000D01*
X175727000Y-85697250D01*
X175885750Y-85856000D01*
X176000000Y-85859072D01*
X176124482Y-85846812D01*
X176235000Y-85813287D01*
X176345518Y-85846812D01*
X176470000Y-85859072D01*
X176584250Y-85856000D01*
X176743000Y-85697250D01*
X176743000Y-84748000D01*
X176997000Y-84748000D01*
X176997000Y-85697250D01*
X177155750Y-85856000D01*
X177270000Y-85859072D01*
X177394482Y-85846812D01*
X177514180Y-85810502D01*
X177624494Y-85751537D01*
X177721185Y-85672185D01*
X177800537Y-85575494D01*
X177859502Y-85465180D01*
X177895812Y-85345482D01*
X177908072Y-85221000D01*
X177905000Y-84906750D01*
X177746250Y-84748000D01*
X176997000Y-84748000D01*
X176743000Y-84748000D01*
X175727000Y-84748000D01*
X175473000Y-84748000D01*
X175453000Y-84748000D01*
X175453000Y-84494000D01*
X175473000Y-84494000D01*
X175473000Y-84474000D01*
X175727000Y-84474000D01*
X175727000Y-84494000D01*
X176743000Y-84494000D01*
X176743000Y-84474000D01*
X176997000Y-84474000D01*
X176997000Y-84494000D01*
X177746250Y-84494000D01*
X177905000Y-84335250D01*
X177908072Y-84021000D01*
X177895812Y-83896518D01*
X177889891Y-83877000D01*
X178050000Y-83877000D01*
X178074776Y-83874560D01*
X178098601Y-83867333D01*
X178120557Y-83855597D01*
X178139803Y-83839803D01*
X178155597Y-83820557D01*
X178167333Y-83798601D01*
X178174560Y-83774776D01*
X178177000Y-83750000D01*
X178177000Y-82159410D01*
X178280518Y-82190812D01*
X178405000Y-82203072D01*
X179605000Y-82203072D01*
X179729482Y-82190812D01*
X179849180Y-82154502D01*
X179959494Y-82095537D01*
X180056185Y-82016185D01*
X180135537Y-81919494D01*
X180194502Y-81809180D01*
X180230812Y-81689482D01*
X180243072Y-81565000D01*
X180243072Y-80765000D01*
X180230812Y-80640518D01*
X180197287Y-80530000D01*
X180230812Y-80419482D01*
X180243072Y-80295000D01*
X180243072Y-79495000D01*
X180230812Y-79370518D01*
X180197287Y-79260000D01*
X180230812Y-79149482D01*
X180243072Y-79025000D01*
X180243072Y-78225000D01*
X180230812Y-78100518D01*
X180197287Y-77990000D01*
X180230812Y-77879482D01*
X180243072Y-77755000D01*
X180243072Y-76955000D01*
X180232238Y-76845000D01*
X181245499Y-76845000D01*
X182276459Y-77875960D01*
G37*
X182276459Y-77875960D02*
X182260498Y-77905820D01*
X182224188Y-78025518D01*
X182211928Y-78150000D01*
X182211928Y-78950000D01*
X182224188Y-79074482D01*
X182260498Y-79194180D01*
X182319463Y-79304494D01*
X182398815Y-79401185D01*
X182495506Y-79480537D01*
X182515000Y-79490957D01*
X182515001Y-82455386D01*
X182456613Y-82486595D01*
X182322038Y-82597038D01*
X182211595Y-82731613D01*
X182129528Y-82885149D01*
X182078992Y-83051745D01*
X182061928Y-83224999D01*
X182061928Y-84125001D01*
X182078992Y-84298255D01*
X182129528Y-84464851D01*
X182211595Y-84618387D01*
X182322038Y-84752962D01*
X182456613Y-84863405D01*
X182610149Y-84945472D01*
X182776745Y-84996008D01*
X182949999Y-85013072D01*
X183600001Y-85013072D01*
X183773255Y-84996008D01*
X183939851Y-84945472D01*
X184093387Y-84863405D01*
X184227962Y-84752962D01*
X184300000Y-84665184D01*
X184372038Y-84752962D01*
X184506613Y-84863405D01*
X184660149Y-84945472D01*
X184826745Y-84996008D01*
X184999999Y-85013072D01*
X185650001Y-85013072D01*
X185823255Y-84996008D01*
X185989851Y-84945472D01*
X186143387Y-84863405D01*
X186277962Y-84752962D01*
X186388405Y-84618387D01*
X186470472Y-84464851D01*
X186521008Y-84298255D01*
X186528633Y-84220835D01*
X189608805Y-87301008D01*
X189632599Y-87330001D01*
X189661592Y-87353795D01*
X189661596Y-87353799D01*
X189732285Y-87411811D01*
X189748324Y-87424974D01*
X189880353Y-87495546D01*
X190023614Y-87539003D01*
X190135267Y-87550000D01*
X190135276Y-87550000D01*
X190172599Y-87553676D01*
X190209922Y-87550000D01*
X190353897Y-87550000D01*
X190322068Y-87626842D01*
X190265000Y-87913740D01*
X190265000Y-88206260D01*
X190322068Y-88493158D01*
X190434010Y-88763411D01*
X190596525Y-89006632D01*
X190803368Y-89213475D01*
X190977760Y-89330000D01*
X190803368Y-89446525D01*
X190596525Y-89653368D01*
X190434010Y-89896589D01*
X190322068Y-90166842D01*
X190265000Y-90453740D01*
X190265000Y-90746260D01*
X190322068Y-91033158D01*
X190434010Y-91303411D01*
X190596525Y-91546632D01*
X190803368Y-91753475D01*
X190977760Y-91870000D01*
X190803368Y-91986525D01*
X190596525Y-92193368D01*
X190434010Y-92436589D01*
X190322068Y-92706842D01*
X190265000Y-92993740D01*
X190265000Y-93286260D01*
X190322068Y-93573158D01*
X190434010Y-93843411D01*
X190596525Y-94086632D01*
X190803368Y-94293475D01*
X190985534Y-94415195D01*
X190868645Y-94484822D01*
X190652412Y-94679731D01*
X190478359Y-94913080D01*
X190353175Y-95175901D01*
X190308524Y-95323110D01*
X190429845Y-95553000D01*
X191623000Y-95553000D01*
X191623000Y-95533000D01*
X191877000Y-95533000D01*
X191877000Y-95553000D01*
X191897000Y-95553000D01*
X191897000Y-95807000D01*
X191877000Y-95807000D01*
X191877000Y-95827000D01*
X191623000Y-95827000D01*
X191623000Y-95807000D01*
X190429845Y-95807000D01*
X190308524Y-96036890D01*
X190353175Y-96184099D01*
X190478359Y-96446920D01*
X190652412Y-96680269D01*
X190868645Y-96875178D01*
X190985534Y-96944805D01*
X190803368Y-97066525D01*
X190596525Y-97273368D01*
X190434010Y-97516589D01*
X190322068Y-97786842D01*
X190265000Y-98073740D01*
X190265000Y-98366260D01*
X190322068Y-98653158D01*
X190434010Y-98923411D01*
X190596525Y-99166632D01*
X190803368Y-99373475D01*
X190977760Y-99490000D01*
X190803368Y-99606525D01*
X190596525Y-99813368D01*
X190434010Y-100056589D01*
X190418890Y-100093091D01*
X189885000Y-99559201D01*
X189885000Y-96862322D01*
X189888676Y-96824999D01*
X189885000Y-96787676D01*
X189885000Y-96787667D01*
X189874003Y-96676014D01*
X189830546Y-96532753D01*
X189759974Y-96400724D01*
X189738862Y-96374999D01*
X189688799Y-96313996D01*
X189688795Y-96313992D01*
X189665001Y-96284999D01*
X189636008Y-96261205D01*
X188613072Y-95238270D01*
X188613072Y-94699999D01*
X188596008Y-94526745D01*
X188545472Y-94360149D01*
X188463405Y-94206613D01*
X188352962Y-94072038D01*
X188218387Y-93961595D01*
X188064851Y-93879528D01*
X188035000Y-93870473D01*
X188035000Y-92387022D01*
X188038676Y-92349699D01*
X188035000Y-92312376D01*
X188035000Y-92312367D01*
X188024003Y-92200714D01*
X187980546Y-92057453D01*
X187909974Y-91925424D01*
X187815001Y-91809699D01*
X187786002Y-91785901D01*
X187064103Y-91064002D01*
X187040301Y-91034999D01*
X186924576Y-90940026D01*
X186792547Y-90869454D01*
X186649286Y-90825997D01*
X186648423Y-90825912D01*
X186626185Y-90798815D01*
X186529494Y-90719463D01*
X186419180Y-90660498D01*
X186299482Y-90624188D01*
X186175000Y-90611928D01*
X185125000Y-90611928D01*
X185000518Y-90624188D01*
X184880820Y-90660498D01*
X184770506Y-90719463D01*
X184673815Y-90798815D01*
X184660532Y-90815000D01*
X182489468Y-90815000D01*
X182476185Y-90798815D01*
X182379494Y-90719463D01*
X182269180Y-90660498D01*
X182149482Y-90624188D01*
X182025000Y-90611928D01*
X180975000Y-90611928D01*
X180850518Y-90624188D01*
X180765200Y-90650069D01*
X180765200Y-90349931D01*
X180850518Y-90375812D01*
X180975000Y-90388072D01*
X181214250Y-90385000D01*
X181373000Y-90226250D01*
X181373000Y-89552000D01*
X181627000Y-89552000D01*
X181627000Y-90226250D01*
X181785750Y-90385000D01*
X182025000Y-90388072D01*
X182149482Y-90375812D01*
X182269180Y-90339502D01*
X182379494Y-90280537D01*
X182476185Y-90201185D01*
X182555537Y-90104494D01*
X182614502Y-89994180D01*
X182650812Y-89874482D01*
X182663072Y-89750000D01*
X184486928Y-89750000D01*
X184499188Y-89874482D01*
X184535498Y-89994180D01*
X184594463Y-90104494D01*
X184673815Y-90201185D01*
X184770506Y-90280537D01*
X184880820Y-90339502D01*
X185000518Y-90375812D01*
X185125000Y-90388072D01*
X185364250Y-90385000D01*
X185523000Y-90226250D01*
X185523000Y-89552000D01*
X185777000Y-89552000D01*
X185777000Y-90226250D01*
X185935750Y-90385000D01*
X186175000Y-90388072D01*
X186299482Y-90375812D01*
X186419180Y-90339502D01*
X186529494Y-90280537D01*
X186626185Y-90201185D01*
X186705537Y-90104494D01*
X186764502Y-89994180D01*
X186800812Y-89874482D01*
X186813072Y-89750000D01*
X186810000Y-89710750D01*
X186651250Y-89552000D01*
X185777000Y-89552000D01*
X185523000Y-89552000D01*
X184648750Y-89552000D01*
X184490000Y-89710750D01*
X184486928Y-89750000D01*
X182663072Y-89750000D01*
X182660000Y-89710750D01*
X182501250Y-89552000D01*
X181627000Y-89552000D01*
X181373000Y-89552000D01*
X180498750Y-89552000D01*
X180417221Y-89633529D01*
X179883692Y-89100000D01*
X180336928Y-89100000D01*
X180340000Y-89139250D01*
X180498750Y-89298000D01*
X181373000Y-89298000D01*
X181373000Y-88623750D01*
X181627000Y-88623750D01*
X181627000Y-89298000D01*
X182501250Y-89298000D01*
X182660000Y-89139250D01*
X182663072Y-89100000D01*
X184486928Y-89100000D01*
X184490000Y-89139250D01*
X184648750Y-89298000D01*
X185523000Y-89298000D01*
X185523000Y-88623750D01*
X185777000Y-88623750D01*
X185777000Y-89298000D01*
X186651250Y-89298000D01*
X186810000Y-89139250D01*
X186813072Y-89100000D01*
X186800812Y-88975518D01*
X186764502Y-88855820D01*
X186705537Y-88745506D01*
X186626185Y-88648815D01*
X186529494Y-88569463D01*
X186419180Y-88510498D01*
X186299482Y-88474188D01*
X186175000Y-88461928D01*
X185935750Y-88465000D01*
X185777000Y-88623750D01*
X185523000Y-88623750D01*
X185364250Y-88465000D01*
X185125000Y-88461928D01*
X185000518Y-88474188D01*
X184880820Y-88510498D01*
X184770506Y-88569463D01*
X184673815Y-88648815D01*
X184594463Y-88745506D01*
X184535498Y-88855820D01*
X184499188Y-88975518D01*
X184486928Y-89100000D01*
X182663072Y-89100000D01*
X182650812Y-88975518D01*
X182614502Y-88855820D01*
X182555537Y-88745506D01*
X182476185Y-88648815D01*
X182379494Y-88569463D01*
X182269180Y-88510498D01*
X182149482Y-88474188D01*
X182025000Y-88461928D01*
X181785750Y-88465000D01*
X181627000Y-88623750D01*
X181373000Y-88623750D01*
X181214250Y-88465000D01*
X180975000Y-88461928D01*
X180850518Y-88474188D01*
X180730820Y-88510498D01*
X180620506Y-88569463D01*
X180523815Y-88648815D01*
X180444463Y-88745506D01*
X180385498Y-88855820D01*
X180349188Y-88975518D01*
X180336928Y-89100000D01*
X179883692Y-89100000D01*
X178888994Y-88105303D01*
X178865191Y-88076299D01*
X178749466Y-87981326D01*
X178617437Y-87910754D01*
X178474176Y-87867297D01*
X178362523Y-87856300D01*
X178362512Y-87856300D01*
X178325190Y-87852624D01*
X178287868Y-87856300D01*
X169438072Y-87856300D01*
X169438072Y-87324999D01*
X169423933Y-87181447D01*
X169428963Y-87188974D01*
X169573126Y-87333137D01*
X169742644Y-87446405D01*
X169931002Y-87524426D01*
X170130961Y-87564200D01*
X170334839Y-87564200D01*
X170534798Y-87524426D01*
X170723156Y-87446405D01*
X170892674Y-87333137D01*
X171036837Y-87188974D01*
X171150105Y-87019456D01*
X171196209Y-86908151D01*
X171317998Y-86883926D01*
X171506356Y-86805905D01*
X171675874Y-86692637D01*
X171820037Y-86548474D01*
X171933305Y-86378956D01*
X172011326Y-86190598D01*
X172051100Y-85990639D01*
X172051100Y-85859072D01*
X172190000Y-85859072D01*
X172314482Y-85846812D01*
X172425000Y-85813287D01*
X172535518Y-85846812D01*
X172660000Y-85859072D01*
X173460000Y-85859072D01*
X173584482Y-85846812D01*
X173695000Y-85813287D01*
X173805518Y-85846812D01*
X173930000Y-85859072D01*
X174730000Y-85859072D01*
X174854482Y-85846812D01*
X174965000Y-85813287D01*
X175075518Y-85846812D01*
X175200000Y-85859072D01*
X175314250Y-85856000D01*
X175473000Y-85697250D01*
X175473000Y-84748000D01*
X175727000Y-84748000D01*
X175727000Y-85697250D01*
X175885750Y-85856000D01*
X176000000Y-85859072D01*
X176124482Y-85846812D01*
X176235000Y-85813287D01*
X176345518Y-85846812D01*
X176470000Y-85859072D01*
X176584250Y-85856000D01*
X176743000Y-85697250D01*
X176743000Y-84748000D01*
X176997000Y-84748000D01*
X176997000Y-85697250D01*
X177155750Y-85856000D01*
X177270000Y-85859072D01*
X177394482Y-85846812D01*
X177514180Y-85810502D01*
X177624494Y-85751537D01*
X177721185Y-85672185D01*
X177800537Y-85575494D01*
X177859502Y-85465180D01*
X177895812Y-85345482D01*
X177908072Y-85221000D01*
X177905000Y-84906750D01*
X177746250Y-84748000D01*
X176997000Y-84748000D01*
X176743000Y-84748000D01*
X175727000Y-84748000D01*
X175473000Y-84748000D01*
X175453000Y-84748000D01*
X175453000Y-84494000D01*
X175473000Y-84494000D01*
X175473000Y-84474000D01*
X175727000Y-84474000D01*
X175727000Y-84494000D01*
X176743000Y-84494000D01*
X176743000Y-84474000D01*
X176997000Y-84474000D01*
X176997000Y-84494000D01*
X177746250Y-84494000D01*
X177905000Y-84335250D01*
X177908072Y-84021000D01*
X177895812Y-83896518D01*
X177889891Y-83877000D01*
X178050000Y-83877000D01*
X178074776Y-83874560D01*
X178098601Y-83867333D01*
X178120557Y-83855597D01*
X178139803Y-83839803D01*
X178155597Y-83820557D01*
X178167333Y-83798601D01*
X178174560Y-83774776D01*
X178177000Y-83750000D01*
X178177000Y-82159410D01*
X178280518Y-82190812D01*
X178405000Y-82203072D01*
X179605000Y-82203072D01*
X179729482Y-82190812D01*
X179849180Y-82154502D01*
X179959494Y-82095537D01*
X180056185Y-82016185D01*
X180135537Y-81919494D01*
X180194502Y-81809180D01*
X180230812Y-81689482D01*
X180243072Y-81565000D01*
X180243072Y-80765000D01*
X180230812Y-80640518D01*
X180197287Y-80530000D01*
X180230812Y-80419482D01*
X180243072Y-80295000D01*
X180243072Y-79495000D01*
X180230812Y-79370518D01*
X180197287Y-79260000D01*
X180230812Y-79149482D01*
X180243072Y-79025000D01*
X180243072Y-78225000D01*
X180230812Y-78100518D01*
X180197287Y-77990000D01*
X180230812Y-77879482D01*
X180243072Y-77755000D01*
X180243072Y-76955000D01*
X180232238Y-76845000D01*
X181245499Y-76845000D01*
X182276459Y-77875960D01*
G36*
X184673815Y-92351185D02*
G01*
X184770506Y-92430537D01*
X184880820Y-92489502D01*
X185000518Y-92525812D01*
X185125000Y-92538072D01*
X186175000Y-92538072D01*
X186299482Y-92525812D01*
X186358429Y-92507931D01*
X186515001Y-92664503D01*
X186515000Y-93870473D01*
X186485149Y-93879528D01*
X186331613Y-93961595D01*
X186197038Y-94072038D01*
X186086595Y-94206613D01*
X186004528Y-94360149D01*
X185953992Y-94526745D01*
X185936928Y-94699999D01*
X185936928Y-95350001D01*
X185953992Y-95523255D01*
X186004528Y-95689851D01*
X186086595Y-95843387D01*
X186197038Y-95977962D01*
X186284816Y-96050000D01*
X186197038Y-96122038D01*
X186086595Y-96256613D01*
X186055386Y-96315000D01*
X185369614Y-96315000D01*
X185338405Y-96256613D01*
X185227962Y-96122038D01*
X185221406Y-96116658D01*
X185301185Y-96051185D01*
X185380537Y-95954494D01*
X185439502Y-95844180D01*
X185475812Y-95724482D01*
X185488072Y-95600000D01*
X185485000Y-95310750D01*
X185326250Y-95152000D01*
X184277000Y-95152000D01*
X184277000Y-95172000D01*
X184023000Y-95172000D01*
X184023000Y-95152000D01*
X182973750Y-95152000D01*
X182815000Y-95310750D01*
X182811928Y-95600000D01*
X182824188Y-95724482D01*
X182860498Y-95844180D01*
X182919463Y-95954494D01*
X182998815Y-96051185D01*
X183078594Y-96116658D01*
X183072038Y-96122038D01*
X182999828Y-96210026D01*
X181239802Y-94450000D01*
X182811928Y-94450000D01*
X182815000Y-94739250D01*
X182973750Y-94898000D01*
X184023000Y-94898000D01*
X184023000Y-93973750D01*
X184277000Y-93973750D01*
X184277000Y-94898000D01*
X185326250Y-94898000D01*
X185485000Y-94739250D01*
X185488072Y-94450000D01*
X185475812Y-94325518D01*
X185439502Y-94205820D01*
X185380537Y-94095506D01*
X185301185Y-93998815D01*
X185204494Y-93919463D01*
X185094180Y-93860498D01*
X184974482Y-93824188D01*
X184850000Y-93811928D01*
X184435750Y-93815000D01*
X184277000Y-93973750D01*
X184023000Y-93973750D01*
X183864250Y-93815000D01*
X183450000Y-93811928D01*
X183325518Y-93824188D01*
X183205820Y-93860498D01*
X183095506Y-93919463D01*
X182998815Y-93998815D01*
X182919463Y-94095506D01*
X182860498Y-94205820D01*
X182824188Y-94325518D01*
X182811928Y-94450000D01*
X181239802Y-94450000D01*
X180765200Y-93975399D01*
X180765200Y-92499931D01*
X180850518Y-92525812D01*
X180975000Y-92538072D01*
X182025000Y-92538072D01*
X182149482Y-92525812D01*
X182269180Y-92489502D01*
X182379494Y-92430537D01*
X182476185Y-92351185D01*
X182489468Y-92335000D01*
X184660532Y-92335000D01*
X184673815Y-92351185D01*
G37*
X184673815Y-92351185D02*
X184770506Y-92430537D01*
X184880820Y-92489502D01*
X185000518Y-92525812D01*
X185125000Y-92538072D01*
X186175000Y-92538072D01*
X186299482Y-92525812D01*
X186358429Y-92507931D01*
X186515001Y-92664503D01*
X186515000Y-93870473D01*
X186485149Y-93879528D01*
X186331613Y-93961595D01*
X186197038Y-94072038D01*
X186086595Y-94206613D01*
X186004528Y-94360149D01*
X185953992Y-94526745D01*
X185936928Y-94699999D01*
X185936928Y-95350001D01*
X185953992Y-95523255D01*
X186004528Y-95689851D01*
X186086595Y-95843387D01*
X186197038Y-95977962D01*
X186284816Y-96050000D01*
X186197038Y-96122038D01*
X186086595Y-96256613D01*
X186055386Y-96315000D01*
X185369614Y-96315000D01*
X185338405Y-96256613D01*
X185227962Y-96122038D01*
X185221406Y-96116658D01*
X185301185Y-96051185D01*
X185380537Y-95954494D01*
X185439502Y-95844180D01*
X185475812Y-95724482D01*
X185488072Y-95600000D01*
X185485000Y-95310750D01*
X185326250Y-95152000D01*
X184277000Y-95152000D01*
X184277000Y-95172000D01*
X184023000Y-95172000D01*
X184023000Y-95152000D01*
X182973750Y-95152000D01*
X182815000Y-95310750D01*
X182811928Y-95600000D01*
X182824188Y-95724482D01*
X182860498Y-95844180D01*
X182919463Y-95954494D01*
X182998815Y-96051185D01*
X183078594Y-96116658D01*
X183072038Y-96122038D01*
X182999828Y-96210026D01*
X181239802Y-94450000D01*
X182811928Y-94450000D01*
X182815000Y-94739250D01*
X182973750Y-94898000D01*
X184023000Y-94898000D01*
X184023000Y-93973750D01*
X184277000Y-93973750D01*
X184277000Y-94898000D01*
X185326250Y-94898000D01*
X185485000Y-94739250D01*
X185488072Y-94450000D01*
X185475812Y-94325518D01*
X185439502Y-94205820D01*
X185380537Y-94095506D01*
X185301185Y-93998815D01*
X185204494Y-93919463D01*
X185094180Y-93860498D01*
X184974482Y-93824188D01*
X184850000Y-93811928D01*
X184435750Y-93815000D01*
X184277000Y-93973750D01*
X184023000Y-93973750D01*
X183864250Y-93815000D01*
X183450000Y-93811928D01*
X183325518Y-93824188D01*
X183205820Y-93860498D01*
X183095506Y-93919463D01*
X182998815Y-93998815D01*
X182919463Y-94095506D01*
X182860498Y-94205820D01*
X182824188Y-94325518D01*
X182811928Y-94450000D01*
X181239802Y-94450000D01*
X180765200Y-93975399D01*
X180765200Y-92499931D01*
X180850518Y-92525812D01*
X180975000Y-92538072D01*
X182025000Y-92538072D01*
X182149482Y-92525812D01*
X182269180Y-92489502D01*
X182379494Y-92430537D01*
X182476185Y-92351185D01*
X182489468Y-92335000D01*
X184660532Y-92335000D01*
X184673815Y-92351185D01*
G36*
X168224188Y-83896518D02*
G01*
X168211928Y-84021000D01*
X168211928Y-85221000D01*
X168224188Y-85345482D01*
X168260498Y-85465180D01*
X168319463Y-85575494D01*
X168398815Y-85672185D01*
X168495506Y-85751537D01*
X168522426Y-85765926D01*
X168544454Y-85838546D01*
X168615026Y-85970576D01*
X168671135Y-86038944D01*
X168710000Y-86086301D01*
X168738998Y-86110099D01*
X169197900Y-86569001D01*
X169197900Y-86631139D01*
X169221580Y-86750186D01*
X169177962Y-86697038D01*
X169043387Y-86586595D01*
X168889851Y-86504528D01*
X168723255Y-86453992D01*
X168550001Y-86436928D01*
X167649999Y-86436928D01*
X167476745Y-86453992D01*
X167310149Y-86504528D01*
X167156613Y-86586595D01*
X167022038Y-86697038D01*
X166911595Y-86831613D01*
X166893749Y-86865000D01*
X165669614Y-86865000D01*
X165638405Y-86806613D01*
X165527962Y-86672038D01*
X165393387Y-86561595D01*
X165239851Y-86479528D01*
X165073255Y-86428992D01*
X164900001Y-86411928D01*
X163999999Y-86411928D01*
X163826745Y-86428992D01*
X163660149Y-86479528D01*
X163506613Y-86561595D01*
X163372038Y-86672038D01*
X163261595Y-86806613D01*
X163179528Y-86960149D01*
X163128992Y-87126745D01*
X163111928Y-87299999D01*
X163111928Y-87950001D01*
X163128992Y-88123255D01*
X163179528Y-88289851D01*
X163261595Y-88443387D01*
X163372038Y-88577962D01*
X163459816Y-88650000D01*
X163372038Y-88722038D01*
X163261595Y-88856613D01*
X163179528Y-89010149D01*
X163128992Y-89176745D01*
X163111928Y-89349999D01*
X163111928Y-90000001D01*
X163128992Y-90173255D01*
X163179528Y-90339851D01*
X163261595Y-90493387D01*
X163372038Y-90627962D01*
X163506613Y-90738405D01*
X163660149Y-90820472D01*
X163826745Y-90871008D01*
X163999999Y-90888072D01*
X164054233Y-90888072D01*
X163995506Y-90919463D01*
X163898815Y-90998815D01*
X163819463Y-91095506D01*
X163760498Y-91205820D01*
X163724188Y-91325518D01*
X163722762Y-91340000D01*
X163619614Y-91340000D01*
X163588405Y-91281613D01*
X163477962Y-91147038D01*
X163343387Y-91036595D01*
X163189851Y-90954528D01*
X163023255Y-90903992D01*
X162850001Y-90886928D01*
X161949999Y-90886928D01*
X161776745Y-90903992D01*
X161610149Y-90954528D01*
X161582338Y-90969393D01*
X161582914Y-83877000D01*
X168230109Y-83877000D01*
X168224188Y-83896518D01*
G37*
X168224188Y-83896518D02*
X168211928Y-84021000D01*
X168211928Y-85221000D01*
X168224188Y-85345482D01*
X168260498Y-85465180D01*
X168319463Y-85575494D01*
X168398815Y-85672185D01*
X168495506Y-85751537D01*
X168522426Y-85765926D01*
X168544454Y-85838546D01*
X168615026Y-85970576D01*
X168671135Y-86038944D01*
X168710000Y-86086301D01*
X168738998Y-86110099D01*
X169197900Y-86569001D01*
X169197900Y-86631139D01*
X169221580Y-86750186D01*
X169177962Y-86697038D01*
X169043387Y-86586595D01*
X168889851Y-86504528D01*
X168723255Y-86453992D01*
X168550001Y-86436928D01*
X167649999Y-86436928D01*
X167476745Y-86453992D01*
X167310149Y-86504528D01*
X167156613Y-86586595D01*
X167022038Y-86697038D01*
X166911595Y-86831613D01*
X166893749Y-86865000D01*
X165669614Y-86865000D01*
X165638405Y-86806613D01*
X165527962Y-86672038D01*
X165393387Y-86561595D01*
X165239851Y-86479528D01*
X165073255Y-86428992D01*
X164900001Y-86411928D01*
X163999999Y-86411928D01*
X163826745Y-86428992D01*
X163660149Y-86479528D01*
X163506613Y-86561595D01*
X163372038Y-86672038D01*
X163261595Y-86806613D01*
X163179528Y-86960149D01*
X163128992Y-87126745D01*
X163111928Y-87299999D01*
X163111928Y-87950001D01*
X163128992Y-88123255D01*
X163179528Y-88289851D01*
X163261595Y-88443387D01*
X163372038Y-88577962D01*
X163459816Y-88650000D01*
X163372038Y-88722038D01*
X163261595Y-88856613D01*
X163179528Y-89010149D01*
X163128992Y-89176745D01*
X163111928Y-89349999D01*
X163111928Y-90000001D01*
X163128992Y-90173255D01*
X163179528Y-90339851D01*
X163261595Y-90493387D01*
X163372038Y-90627962D01*
X163506613Y-90738405D01*
X163660149Y-90820472D01*
X163826745Y-90871008D01*
X163999999Y-90888072D01*
X164054233Y-90888072D01*
X163995506Y-90919463D01*
X163898815Y-90998815D01*
X163819463Y-91095506D01*
X163760498Y-91205820D01*
X163724188Y-91325518D01*
X163722762Y-91340000D01*
X163619614Y-91340000D01*
X163588405Y-91281613D01*
X163477962Y-91147038D01*
X163343387Y-91036595D01*
X163189851Y-90954528D01*
X163023255Y-90903992D01*
X162850001Y-90886928D01*
X161949999Y-90886928D01*
X161776745Y-90903992D01*
X161610149Y-90954528D01*
X161582338Y-90969393D01*
X161582914Y-83877000D01*
X168230109Y-83877000D01*
X168224188Y-83896518D01*
G36*
X194417000Y-87933000D02*
G01*
X194437000Y-87933000D01*
X194437000Y-88187000D01*
X194417000Y-88187000D01*
X194417000Y-88207000D01*
X194163000Y-88207000D01*
X194163000Y-88187000D01*
X194143000Y-88187000D01*
X194143000Y-87933000D01*
X194163000Y-87933000D01*
X194163000Y-87913000D01*
X194417000Y-87913000D01*
X194417000Y-87933000D01*
G37*
X194417000Y-87933000D02*
X194437000Y-87933000D01*
X194437000Y-88187000D01*
X194417000Y-88187000D01*
X194417000Y-88207000D01*
X194163000Y-88207000D01*
X194163000Y-88187000D01*
X194143000Y-88187000D01*
X194143000Y-87933000D01*
X194163000Y-87933000D01*
X194163000Y-87913000D01*
X194417000Y-87913000D01*
X194417000Y-87933000D01*
G36*
X195468174Y-57884995D02*
G01*
X195564056Y-57893908D01*
X195622382Y-57911196D01*
X195676236Y-57939483D01*
X195723574Y-57977695D01*
X195762590Y-58024375D01*
X195791797Y-58077746D01*
X195810079Y-58135765D01*
X195820049Y-58226231D01*
X195817720Y-86837418D01*
X195444860Y-86464559D01*
X195605990Y-86223411D01*
X195717932Y-85953158D01*
X195775000Y-85666260D01*
X195775000Y-85373740D01*
X195717932Y-85086842D01*
X195605990Y-84816589D01*
X195443475Y-84573368D01*
X195236632Y-84366525D01*
X195062240Y-84250000D01*
X195236632Y-84133475D01*
X195443475Y-83926632D01*
X195605990Y-83683411D01*
X195717932Y-83413158D01*
X195775000Y-83126260D01*
X195775000Y-82833740D01*
X195717932Y-82546842D01*
X195605990Y-82276589D01*
X195443475Y-82033368D01*
X195236632Y-81826525D01*
X195054466Y-81704805D01*
X195171355Y-81635178D01*
X195387588Y-81440269D01*
X195561641Y-81206920D01*
X195686825Y-80944099D01*
X195731476Y-80796890D01*
X195610155Y-80567000D01*
X194417000Y-80567000D01*
X194417000Y-80587000D01*
X194163000Y-80587000D01*
X194163000Y-80567000D01*
X194143000Y-80567000D01*
X194143000Y-80313000D01*
X194163000Y-80313000D01*
X194163000Y-80293000D01*
X194417000Y-80293000D01*
X194417000Y-80313000D01*
X195610155Y-80313000D01*
X195731476Y-80083110D01*
X195686825Y-79935901D01*
X195561641Y-79673080D01*
X195387588Y-79439731D01*
X195171355Y-79244822D01*
X195054466Y-79175195D01*
X195236632Y-79053475D01*
X195443475Y-78846632D01*
X195605990Y-78603411D01*
X195717932Y-78333158D01*
X195775000Y-78046260D01*
X195775000Y-77753740D01*
X195717932Y-77466842D01*
X195605990Y-77196589D01*
X195443475Y-76953368D01*
X195236632Y-76746525D01*
X195062240Y-76630000D01*
X195236632Y-76513475D01*
X195443475Y-76306632D01*
X195605990Y-76063411D01*
X195717932Y-75793158D01*
X195775000Y-75506260D01*
X195775000Y-75213740D01*
X195717932Y-74926842D01*
X195605990Y-74656589D01*
X195443475Y-74413368D01*
X195236632Y-74206525D01*
X195062240Y-74090000D01*
X195236632Y-73973475D01*
X195443475Y-73766632D01*
X195605990Y-73523411D01*
X195717932Y-73253158D01*
X195775000Y-72966260D01*
X195775000Y-72673740D01*
X195717932Y-72386842D01*
X195605990Y-72116589D01*
X195443475Y-71873368D01*
X195236632Y-71666525D01*
X195054466Y-71544805D01*
X195171355Y-71475178D01*
X195387588Y-71280269D01*
X195561641Y-71046920D01*
X195686825Y-70784099D01*
X195731476Y-70636890D01*
X195610155Y-70407000D01*
X194417000Y-70407000D01*
X194417000Y-70427000D01*
X194163000Y-70427000D01*
X194163000Y-70407000D01*
X194143000Y-70407000D01*
X194143000Y-70153000D01*
X194163000Y-70153000D01*
X194163000Y-70133000D01*
X194417000Y-70133000D01*
X194417000Y-70153000D01*
X195610155Y-70153000D01*
X195731476Y-69923110D01*
X195686825Y-69775901D01*
X195561641Y-69513080D01*
X195387588Y-69279731D01*
X195171355Y-69084822D01*
X195054466Y-69015195D01*
X195236632Y-68893475D01*
X195443475Y-68686632D01*
X195605990Y-68443411D01*
X195717932Y-68173158D01*
X195775000Y-67886260D01*
X195775000Y-67593740D01*
X195717932Y-67306842D01*
X195605990Y-67036589D01*
X195443475Y-66793368D01*
X195236632Y-66586525D01*
X195125000Y-66511935D01*
X195125000Y-66428065D01*
X195236632Y-66353475D01*
X195443475Y-66146632D01*
X195605990Y-65903411D01*
X195717932Y-65633158D01*
X195775000Y-65346260D01*
X195775000Y-65053740D01*
X195717932Y-64766842D01*
X195605990Y-64496589D01*
X195443475Y-64253368D01*
X195236632Y-64046525D01*
X194993411Y-63884010D01*
X194723158Y-63772068D01*
X194436260Y-63715000D01*
X194143740Y-63715000D01*
X194012060Y-63741193D01*
X193409446Y-63138579D01*
X193383291Y-63106709D01*
X193256146Y-63002364D01*
X193111087Y-62924828D01*
X192953689Y-62877082D01*
X192831019Y-62865000D01*
X192831018Y-62865000D01*
X192790000Y-62860960D01*
X192748982Y-62865000D01*
X191945868Y-62865000D01*
X189918042Y-60837175D01*
X189919900Y-60504495D01*
X191015000Y-60504495D01*
X191015000Y-60895505D01*
X191091282Y-61279003D01*
X191240915Y-61640250D01*
X191458149Y-61965364D01*
X191734636Y-62241851D01*
X192059750Y-62459085D01*
X192420997Y-62608718D01*
X192804495Y-62685000D01*
X193195505Y-62685000D01*
X193579003Y-62608718D01*
X193940250Y-62459085D01*
X194265364Y-62241851D01*
X194541851Y-61965364D01*
X194759085Y-61640250D01*
X194908718Y-61279003D01*
X194985000Y-60895505D01*
X194985000Y-60504495D01*
X194908718Y-60120997D01*
X194759085Y-59759750D01*
X194541851Y-59434636D01*
X194265364Y-59158149D01*
X193940250Y-58940915D01*
X193579003Y-58791282D01*
X193195505Y-58715000D01*
X192804495Y-58715000D01*
X192420997Y-58791282D01*
X192059750Y-58940915D01*
X191734636Y-59158149D01*
X191458149Y-59434636D01*
X191240915Y-59759750D01*
X191091282Y-60120997D01*
X191015000Y-60504495D01*
X189919900Y-60504495D01*
X189934540Y-57884163D01*
X195468174Y-57884995D01*
G37*
X195468174Y-57884995D02*
X195564056Y-57893908D01*
X195622382Y-57911196D01*
X195676236Y-57939483D01*
X195723574Y-57977695D01*
X195762590Y-58024375D01*
X195791797Y-58077746D01*
X195810079Y-58135765D01*
X195820049Y-58226231D01*
X195817720Y-86837418D01*
X195444860Y-86464559D01*
X195605990Y-86223411D01*
X195717932Y-85953158D01*
X195775000Y-85666260D01*
X195775000Y-85373740D01*
X195717932Y-85086842D01*
X195605990Y-84816589D01*
X195443475Y-84573368D01*
X195236632Y-84366525D01*
X195062240Y-84250000D01*
X195236632Y-84133475D01*
X195443475Y-83926632D01*
X195605990Y-83683411D01*
X195717932Y-83413158D01*
X195775000Y-83126260D01*
X195775000Y-82833740D01*
X195717932Y-82546842D01*
X195605990Y-82276589D01*
X195443475Y-82033368D01*
X195236632Y-81826525D01*
X195054466Y-81704805D01*
X195171355Y-81635178D01*
X195387588Y-81440269D01*
X195561641Y-81206920D01*
X195686825Y-80944099D01*
X195731476Y-80796890D01*
X195610155Y-80567000D01*
X194417000Y-80567000D01*
X194417000Y-80587000D01*
X194163000Y-80587000D01*
X194163000Y-80567000D01*
X194143000Y-80567000D01*
X194143000Y-80313000D01*
X194163000Y-80313000D01*
X194163000Y-80293000D01*
X194417000Y-80293000D01*
X194417000Y-80313000D01*
X195610155Y-80313000D01*
X195731476Y-80083110D01*
X195686825Y-79935901D01*
X195561641Y-79673080D01*
X195387588Y-79439731D01*
X195171355Y-79244822D01*
X195054466Y-79175195D01*
X195236632Y-79053475D01*
X195443475Y-78846632D01*
X195605990Y-78603411D01*
X195717932Y-78333158D01*
X195775000Y-78046260D01*
X195775000Y-77753740D01*
X195717932Y-77466842D01*
X195605990Y-77196589D01*
X195443475Y-76953368D01*
X195236632Y-76746525D01*
X195062240Y-76630000D01*
X195236632Y-76513475D01*
X195443475Y-76306632D01*
X195605990Y-76063411D01*
X195717932Y-75793158D01*
X195775000Y-75506260D01*
X195775000Y-75213740D01*
X195717932Y-74926842D01*
X195605990Y-74656589D01*
X195443475Y-74413368D01*
X195236632Y-74206525D01*
X195062240Y-74090000D01*
X195236632Y-73973475D01*
X195443475Y-73766632D01*
X195605990Y-73523411D01*
X195717932Y-73253158D01*
X195775000Y-72966260D01*
X195775000Y-72673740D01*
X195717932Y-72386842D01*
X195605990Y-72116589D01*
X195443475Y-71873368D01*
X195236632Y-71666525D01*
X195054466Y-71544805D01*
X195171355Y-71475178D01*
X195387588Y-71280269D01*
X195561641Y-71046920D01*
X195686825Y-70784099D01*
X195731476Y-70636890D01*
X195610155Y-70407000D01*
X194417000Y-70407000D01*
X194417000Y-70427000D01*
X194163000Y-70427000D01*
X194163000Y-70407000D01*
X194143000Y-70407000D01*
X194143000Y-70153000D01*
X194163000Y-70153000D01*
X194163000Y-70133000D01*
X194417000Y-70133000D01*
X194417000Y-70153000D01*
X195610155Y-70153000D01*
X195731476Y-69923110D01*
X195686825Y-69775901D01*
X195561641Y-69513080D01*
X195387588Y-69279731D01*
X195171355Y-69084822D01*
X195054466Y-69015195D01*
X195236632Y-68893475D01*
X195443475Y-68686632D01*
X195605990Y-68443411D01*
X195717932Y-68173158D01*
X195775000Y-67886260D01*
X195775000Y-67593740D01*
X195717932Y-67306842D01*
X195605990Y-67036589D01*
X195443475Y-66793368D01*
X195236632Y-66586525D01*
X195125000Y-66511935D01*
X195125000Y-66428065D01*
X195236632Y-66353475D01*
X195443475Y-66146632D01*
X195605990Y-65903411D01*
X195717932Y-65633158D01*
X195775000Y-65346260D01*
X195775000Y-65053740D01*
X195717932Y-64766842D01*
X195605990Y-64496589D01*
X195443475Y-64253368D01*
X195236632Y-64046525D01*
X194993411Y-63884010D01*
X194723158Y-63772068D01*
X194436260Y-63715000D01*
X194143740Y-63715000D01*
X194012060Y-63741193D01*
X193409446Y-63138579D01*
X193383291Y-63106709D01*
X193256146Y-63002364D01*
X193111087Y-62924828D01*
X192953689Y-62877082D01*
X192831019Y-62865000D01*
X192831018Y-62865000D01*
X192790000Y-62860960D01*
X192748982Y-62865000D01*
X191945868Y-62865000D01*
X189918042Y-60837175D01*
X189919900Y-60504495D01*
X191015000Y-60504495D01*
X191015000Y-60895505D01*
X191091282Y-61279003D01*
X191240915Y-61640250D01*
X191458149Y-61965364D01*
X191734636Y-62241851D01*
X192059750Y-62459085D01*
X192420997Y-62608718D01*
X192804495Y-62685000D01*
X193195505Y-62685000D01*
X193579003Y-62608718D01*
X193940250Y-62459085D01*
X194265364Y-62241851D01*
X194541851Y-61965364D01*
X194759085Y-61640250D01*
X194908718Y-61279003D01*
X194985000Y-60895505D01*
X194985000Y-60504495D01*
X194908718Y-60120997D01*
X194759085Y-59759750D01*
X194541851Y-59434636D01*
X194265364Y-59158149D01*
X193940250Y-58940915D01*
X193579003Y-58791282D01*
X193195505Y-58715000D01*
X192804495Y-58715000D01*
X192420997Y-58791282D01*
X192059750Y-58940915D01*
X191734636Y-59158149D01*
X191458149Y-59434636D01*
X191240915Y-59759750D01*
X191091282Y-60120997D01*
X191015000Y-60504495D01*
X189919900Y-60504495D01*
X189934540Y-57884163D01*
X195468174Y-57884995D01*
G36*
X190541710Y-63822578D02*
G01*
X190448815Y-63898815D01*
X190369463Y-63995506D01*
X190310498Y-64105820D01*
X190274188Y-64225518D01*
X190261928Y-64350000D01*
X190261928Y-66050000D01*
X190274188Y-66174482D01*
X190310498Y-66294180D01*
X190369463Y-66404494D01*
X190448815Y-66501185D01*
X190545506Y-66580537D01*
X190655820Y-66639502D01*
X190728380Y-66661513D01*
X190596525Y-66793368D01*
X190434010Y-67036589D01*
X190322068Y-67306842D01*
X190265000Y-67593740D01*
X190265000Y-67886260D01*
X190322068Y-68173158D01*
X190434010Y-68443411D01*
X190596525Y-68686632D01*
X190803368Y-68893475D01*
X190977760Y-69010000D01*
X190803368Y-69126525D01*
X190596525Y-69333368D01*
X190434010Y-69576589D01*
X190322068Y-69846842D01*
X190265000Y-70133740D01*
X190265000Y-70426260D01*
X190322068Y-70713158D01*
X190434010Y-70983411D01*
X190596525Y-71226632D01*
X190803368Y-71433475D01*
X190977760Y-71550000D01*
X190803368Y-71666525D01*
X190596525Y-71873368D01*
X190434010Y-72116589D01*
X190322068Y-72386842D01*
X190265000Y-72673740D01*
X190265000Y-72966260D01*
X190322068Y-73253158D01*
X190434010Y-73523411D01*
X190596525Y-73766632D01*
X190803368Y-73973475D01*
X190985534Y-74095195D01*
X190868645Y-74164822D01*
X190652412Y-74359731D01*
X190478359Y-74593080D01*
X190353175Y-74855901D01*
X190308524Y-75003110D01*
X190429845Y-75233000D01*
X191623000Y-75233000D01*
X191623000Y-75213000D01*
X191877000Y-75213000D01*
X191877000Y-75233000D01*
X191897000Y-75233000D01*
X191897000Y-75487000D01*
X191877000Y-75487000D01*
X191877000Y-75507000D01*
X191623000Y-75507000D01*
X191623000Y-75487000D01*
X190429845Y-75487000D01*
X190308524Y-75716890D01*
X190353175Y-75864099D01*
X190478359Y-76126920D01*
X190652412Y-76360269D01*
X190868645Y-76555178D01*
X190985534Y-76624805D01*
X190803368Y-76746525D01*
X190596525Y-76953368D01*
X190434010Y-77196589D01*
X190322068Y-77466842D01*
X190265000Y-77753740D01*
X190265000Y-78046260D01*
X190322068Y-78333158D01*
X190434010Y-78603411D01*
X190596525Y-78846632D01*
X190803368Y-79053475D01*
X190977760Y-79170000D01*
X190803368Y-79286525D01*
X190596525Y-79493368D01*
X190434010Y-79736589D01*
X190322068Y-80006842D01*
X190265000Y-80293740D01*
X190265000Y-80586260D01*
X190322068Y-80873158D01*
X190434010Y-81143411D01*
X190596525Y-81386632D01*
X190803368Y-81593475D01*
X190977760Y-81710000D01*
X190803368Y-81826525D01*
X190596525Y-82033368D01*
X190434010Y-82276589D01*
X190322068Y-82546842D01*
X190265000Y-82833740D01*
X190265000Y-83126260D01*
X190322068Y-83413158D01*
X190434010Y-83683411D01*
X190596525Y-83926632D01*
X190803368Y-84133475D01*
X190977760Y-84250000D01*
X190803368Y-84366525D01*
X190596525Y-84573368D01*
X190434010Y-84816589D01*
X190322068Y-85086842D01*
X190265000Y-85373740D01*
X190265000Y-85666260D01*
X190300095Y-85842692D01*
X186951300Y-82493899D01*
X186951300Y-73753623D01*
X186954976Y-73716300D01*
X186951300Y-73678977D01*
X186951300Y-73678967D01*
X186940303Y-73567314D01*
X186896846Y-73424053D01*
X186893611Y-73418000D01*
X186826274Y-73292023D01*
X186755099Y-73205297D01*
X186731301Y-73176299D01*
X186702303Y-73152501D01*
X186371192Y-72821390D01*
X186388072Y-72650001D01*
X186388072Y-71999999D01*
X186371008Y-71826745D01*
X186320472Y-71660149D01*
X186238405Y-71506613D01*
X186127962Y-71372038D01*
X185993387Y-71261595D01*
X185839851Y-71179528D01*
X185673255Y-71128992D01*
X185500001Y-71111928D01*
X184599999Y-71111928D01*
X184426745Y-71128992D01*
X184260149Y-71179528D01*
X184106613Y-71261595D01*
X183972038Y-71372038D01*
X183861595Y-71506613D01*
X183843749Y-71540000D01*
X183806251Y-71540000D01*
X183788405Y-71506613D01*
X183677962Y-71372038D01*
X183543387Y-71261595D01*
X183504700Y-71240916D01*
X183504700Y-63838072D01*
X184231258Y-63838072D01*
X184215010Y-66746453D01*
X184227201Y-66873882D01*
X184263336Y-66993004D01*
X184322017Y-67102787D01*
X184400987Y-67199013D01*
X184497213Y-67277983D01*
X184606996Y-67336664D01*
X184726118Y-67372799D01*
X184850000Y-67385000D01*
X189250000Y-67385000D01*
X189370401Y-67373481D01*
X189489723Y-67338012D01*
X189599832Y-67279946D01*
X189696497Y-67201514D01*
X189776004Y-67105731D01*
X189835297Y-66996278D01*
X189872097Y-66877360D01*
X189884990Y-66753547D01*
X189904922Y-63185789D01*
X190541710Y-63822578D01*
G37*
X190541710Y-63822578D02*
X190448815Y-63898815D01*
X190369463Y-63995506D01*
X190310498Y-64105820D01*
X190274188Y-64225518D01*
X190261928Y-64350000D01*
X190261928Y-66050000D01*
X190274188Y-66174482D01*
X190310498Y-66294180D01*
X190369463Y-66404494D01*
X190448815Y-66501185D01*
X190545506Y-66580537D01*
X190655820Y-66639502D01*
X190728380Y-66661513D01*
X190596525Y-66793368D01*
X190434010Y-67036589D01*
X190322068Y-67306842D01*
X190265000Y-67593740D01*
X190265000Y-67886260D01*
X190322068Y-68173158D01*
X190434010Y-68443411D01*
X190596525Y-68686632D01*
X190803368Y-68893475D01*
X190977760Y-69010000D01*
X190803368Y-69126525D01*
X190596525Y-69333368D01*
X190434010Y-69576589D01*
X190322068Y-69846842D01*
X190265000Y-70133740D01*
X190265000Y-70426260D01*
X190322068Y-70713158D01*
X190434010Y-70983411D01*
X190596525Y-71226632D01*
X190803368Y-71433475D01*
X190977760Y-71550000D01*
X190803368Y-71666525D01*
X190596525Y-71873368D01*
X190434010Y-72116589D01*
X190322068Y-72386842D01*
X190265000Y-72673740D01*
X190265000Y-72966260D01*
X190322068Y-73253158D01*
X190434010Y-73523411D01*
X190596525Y-73766632D01*
X190803368Y-73973475D01*
X190985534Y-74095195D01*
X190868645Y-74164822D01*
X190652412Y-74359731D01*
X190478359Y-74593080D01*
X190353175Y-74855901D01*
X190308524Y-75003110D01*
X190429845Y-75233000D01*
X191623000Y-75233000D01*
X191623000Y-75213000D01*
X191877000Y-75213000D01*
X191877000Y-75233000D01*
X191897000Y-75233000D01*
X191897000Y-75487000D01*
X191877000Y-75487000D01*
X191877000Y-75507000D01*
X191623000Y-75507000D01*
X191623000Y-75487000D01*
X190429845Y-75487000D01*
X190308524Y-75716890D01*
X190353175Y-75864099D01*
X190478359Y-76126920D01*
X190652412Y-76360269D01*
X190868645Y-76555178D01*
X190985534Y-76624805D01*
X190803368Y-76746525D01*
X190596525Y-76953368D01*
X190434010Y-77196589D01*
X190322068Y-77466842D01*
X190265000Y-77753740D01*
X190265000Y-78046260D01*
X190322068Y-78333158D01*
X190434010Y-78603411D01*
X190596525Y-78846632D01*
X190803368Y-79053475D01*
X190977760Y-79170000D01*
X190803368Y-79286525D01*
X190596525Y-79493368D01*
X190434010Y-79736589D01*
X190322068Y-80006842D01*
X190265000Y-80293740D01*
X190265000Y-80586260D01*
X190322068Y-80873158D01*
X190434010Y-81143411D01*
X190596525Y-81386632D01*
X190803368Y-81593475D01*
X190977760Y-81710000D01*
X190803368Y-81826525D01*
X190596525Y-82033368D01*
X190434010Y-82276589D01*
X190322068Y-82546842D01*
X190265000Y-82833740D01*
X190265000Y-83126260D01*
X190322068Y-83413158D01*
X190434010Y-83683411D01*
X190596525Y-83926632D01*
X190803368Y-84133475D01*
X190977760Y-84250000D01*
X190803368Y-84366525D01*
X190596525Y-84573368D01*
X190434010Y-84816589D01*
X190322068Y-85086842D01*
X190265000Y-85373740D01*
X190265000Y-85666260D01*
X190300095Y-85842692D01*
X186951300Y-82493899D01*
X186951300Y-73753623D01*
X186954976Y-73716300D01*
X186951300Y-73678977D01*
X186951300Y-73678967D01*
X186940303Y-73567314D01*
X186896846Y-73424053D01*
X186893611Y-73418000D01*
X186826274Y-73292023D01*
X186755099Y-73205297D01*
X186731301Y-73176299D01*
X186702303Y-73152501D01*
X186371192Y-72821390D01*
X186388072Y-72650001D01*
X186388072Y-71999999D01*
X186371008Y-71826745D01*
X186320472Y-71660149D01*
X186238405Y-71506613D01*
X186127962Y-71372038D01*
X185993387Y-71261595D01*
X185839851Y-71179528D01*
X185673255Y-71128992D01*
X185500001Y-71111928D01*
X184599999Y-71111928D01*
X184426745Y-71128992D01*
X184260149Y-71179528D01*
X184106613Y-71261595D01*
X183972038Y-71372038D01*
X183861595Y-71506613D01*
X183843749Y-71540000D01*
X183806251Y-71540000D01*
X183788405Y-71506613D01*
X183677962Y-71372038D01*
X183543387Y-71261595D01*
X183504700Y-71240916D01*
X183504700Y-63838072D01*
X184231258Y-63838072D01*
X184215010Y-66746453D01*
X184227201Y-66873882D01*
X184263336Y-66993004D01*
X184322017Y-67102787D01*
X184400987Y-67199013D01*
X184497213Y-67277983D01*
X184606996Y-67336664D01*
X184726118Y-67372799D01*
X184850000Y-67385000D01*
X189250000Y-67385000D01*
X189370401Y-67373481D01*
X189489723Y-67338012D01*
X189599832Y-67279946D01*
X189696497Y-67201514D01*
X189776004Y-67105731D01*
X189835297Y-66996278D01*
X189872097Y-66877360D01*
X189884990Y-66753547D01*
X189904922Y-63185789D01*
X190541710Y-63822578D01*
G36*
X181411595Y-73143387D02*
G01*
X181522038Y-73277962D01*
X181528594Y-73283342D01*
X181448815Y-73348815D01*
X181369463Y-73445506D01*
X181310498Y-73555820D01*
X181274188Y-73675518D01*
X181261928Y-73800000D01*
X181265000Y-74089250D01*
X181423750Y-74248000D01*
X182473000Y-74248000D01*
X182473000Y-74228000D01*
X182727000Y-74228000D01*
X182727000Y-74248000D01*
X183776250Y-74248000D01*
X183825000Y-74199250D01*
X183873750Y-74248000D01*
X184923000Y-74248000D01*
X184923000Y-74228000D01*
X185177000Y-74228000D01*
X185177000Y-74248000D01*
X185197000Y-74248000D01*
X185197000Y-74502000D01*
X185177000Y-74502000D01*
X185177000Y-75426250D01*
X185335750Y-75585000D01*
X185431301Y-75585709D01*
X185431301Y-76719449D01*
X185427000Y-76723750D01*
X185427000Y-77473000D01*
X185431301Y-77473000D01*
X185431301Y-77727000D01*
X185427000Y-77727000D01*
X185427000Y-77747000D01*
X185173000Y-77747000D01*
X185173000Y-77727000D01*
X184373750Y-77727000D01*
X184289143Y-77811607D01*
X184280537Y-77795506D01*
X184201185Y-77698815D01*
X184104494Y-77619463D01*
X184017899Y-77573176D01*
X184005546Y-77532453D01*
X183934974Y-77400424D01*
X183840001Y-77284699D01*
X183811003Y-77260901D01*
X183750102Y-77200000D01*
X184211928Y-77200000D01*
X184215000Y-77314250D01*
X184373750Y-77473000D01*
X185173000Y-77473000D01*
X185173000Y-76723750D01*
X185014250Y-76565000D01*
X184850000Y-76561928D01*
X184725518Y-76574188D01*
X184605820Y-76610498D01*
X184495506Y-76669463D01*
X184398815Y-76748815D01*
X184319463Y-76845506D01*
X184260498Y-76955820D01*
X184224188Y-77075518D01*
X184211928Y-77200000D01*
X183750102Y-77200000D01*
X182136420Y-75586319D01*
X182314250Y-75585000D01*
X182473000Y-75426250D01*
X182473000Y-74502000D01*
X182727000Y-74502000D01*
X182727000Y-75426250D01*
X182885750Y-75585000D01*
X183300000Y-75588072D01*
X183424482Y-75575812D01*
X183544180Y-75539502D01*
X183654494Y-75480537D01*
X183751185Y-75401185D01*
X183825000Y-75311241D01*
X183898815Y-75401185D01*
X183995506Y-75480537D01*
X184105820Y-75539502D01*
X184225518Y-75575812D01*
X184350000Y-75588072D01*
X184764250Y-75585000D01*
X184923000Y-75426250D01*
X184923000Y-74502000D01*
X183873750Y-74502000D01*
X183825000Y-74550750D01*
X183776250Y-74502000D01*
X182727000Y-74502000D01*
X182473000Y-74502000D01*
X181423750Y-74502000D01*
X181265000Y-74660750D01*
X181261928Y-74950000D01*
X181274188Y-75074482D01*
X181310498Y-75194180D01*
X181369463Y-75304494D01*
X181386292Y-75325000D01*
X180232238Y-75325000D01*
X180243072Y-75215000D01*
X180240000Y-75100750D01*
X180081250Y-74942000D01*
X179132000Y-74942000D01*
X179132000Y-74962000D01*
X178878000Y-74962000D01*
X178878000Y-74942000D01*
X178858000Y-74942000D01*
X178858000Y-74688000D01*
X178878000Y-74688000D01*
X178878000Y-73672000D01*
X179132000Y-73672000D01*
X179132000Y-74688000D01*
X180081250Y-74688000D01*
X180240000Y-74529250D01*
X180243072Y-74415000D01*
X180230812Y-74290518D01*
X180197287Y-74180000D01*
X180230812Y-74069482D01*
X180243072Y-73945000D01*
X180240000Y-73830750D01*
X180081250Y-73672000D01*
X179132000Y-73672000D01*
X178878000Y-73672000D01*
X178858000Y-73672000D01*
X178858000Y-73418000D01*
X178878000Y-73418000D01*
X178878000Y-73398000D01*
X179132000Y-73398000D01*
X179132000Y-73418000D01*
X180081250Y-73418000D01*
X180240000Y-73259250D01*
X180243072Y-73145000D01*
X180232238Y-73035000D01*
X181353661Y-73035000D01*
X181411595Y-73143387D01*
G37*
X181411595Y-73143387D02*
X181522038Y-73277962D01*
X181528594Y-73283342D01*
X181448815Y-73348815D01*
X181369463Y-73445506D01*
X181310498Y-73555820D01*
X181274188Y-73675518D01*
X181261928Y-73800000D01*
X181265000Y-74089250D01*
X181423750Y-74248000D01*
X182473000Y-74248000D01*
X182473000Y-74228000D01*
X182727000Y-74228000D01*
X182727000Y-74248000D01*
X183776250Y-74248000D01*
X183825000Y-74199250D01*
X183873750Y-74248000D01*
X184923000Y-74248000D01*
X184923000Y-74228000D01*
X185177000Y-74228000D01*
X185177000Y-74248000D01*
X185197000Y-74248000D01*
X185197000Y-74502000D01*
X185177000Y-74502000D01*
X185177000Y-75426250D01*
X185335750Y-75585000D01*
X185431301Y-75585709D01*
X185431301Y-76719449D01*
X185427000Y-76723750D01*
X185427000Y-77473000D01*
X185431301Y-77473000D01*
X185431301Y-77727000D01*
X185427000Y-77727000D01*
X185427000Y-77747000D01*
X185173000Y-77747000D01*
X185173000Y-77727000D01*
X184373750Y-77727000D01*
X184289143Y-77811607D01*
X184280537Y-77795506D01*
X184201185Y-77698815D01*
X184104494Y-77619463D01*
X184017899Y-77573176D01*
X184005546Y-77532453D01*
X183934974Y-77400424D01*
X183840001Y-77284699D01*
X183811003Y-77260901D01*
X183750102Y-77200000D01*
X184211928Y-77200000D01*
X184215000Y-77314250D01*
X184373750Y-77473000D01*
X185173000Y-77473000D01*
X185173000Y-76723750D01*
X185014250Y-76565000D01*
X184850000Y-76561928D01*
X184725518Y-76574188D01*
X184605820Y-76610498D01*
X184495506Y-76669463D01*
X184398815Y-76748815D01*
X184319463Y-76845506D01*
X184260498Y-76955820D01*
X184224188Y-77075518D01*
X184211928Y-77200000D01*
X183750102Y-77200000D01*
X182136420Y-75586319D01*
X182314250Y-75585000D01*
X182473000Y-75426250D01*
X182473000Y-74502000D01*
X182727000Y-74502000D01*
X182727000Y-75426250D01*
X182885750Y-75585000D01*
X183300000Y-75588072D01*
X183424482Y-75575812D01*
X183544180Y-75539502D01*
X183654494Y-75480537D01*
X183751185Y-75401185D01*
X183825000Y-75311241D01*
X183898815Y-75401185D01*
X183995506Y-75480537D01*
X184105820Y-75539502D01*
X184225518Y-75575812D01*
X184350000Y-75588072D01*
X184764250Y-75585000D01*
X184923000Y-75426250D01*
X184923000Y-74502000D01*
X183873750Y-74502000D01*
X183825000Y-74550750D01*
X183776250Y-74502000D01*
X182727000Y-74502000D01*
X182473000Y-74502000D01*
X181423750Y-74502000D01*
X181265000Y-74660750D01*
X181261928Y-74950000D01*
X181274188Y-75074482D01*
X181310498Y-75194180D01*
X181369463Y-75304494D01*
X181386292Y-75325000D01*
X180232238Y-75325000D01*
X180243072Y-75215000D01*
X180240000Y-75100750D01*
X180081250Y-74942000D01*
X179132000Y-74942000D01*
X179132000Y-74962000D01*
X178878000Y-74962000D01*
X178878000Y-74942000D01*
X178858000Y-74942000D01*
X178858000Y-74688000D01*
X178878000Y-74688000D01*
X178878000Y-73672000D01*
X179132000Y-73672000D01*
X179132000Y-74688000D01*
X180081250Y-74688000D01*
X180240000Y-74529250D01*
X180243072Y-74415000D01*
X180230812Y-74290518D01*
X180197287Y-74180000D01*
X180230812Y-74069482D01*
X180243072Y-73945000D01*
X180240000Y-73830750D01*
X180081250Y-73672000D01*
X179132000Y-73672000D01*
X178878000Y-73672000D01*
X178858000Y-73672000D01*
X178858000Y-73418000D01*
X178878000Y-73418000D01*
X178878000Y-73398000D01*
X179132000Y-73398000D01*
X179132000Y-73418000D01*
X180081250Y-73418000D01*
X180240000Y-73259250D01*
X180243072Y-73145000D01*
X180232238Y-73035000D01*
X181353661Y-73035000D01*
X181411595Y-73143387D01*
G36*
X184264525Y-57883311D02*
G01*
X184260722Y-58563975D01*
X184105750Y-58565000D01*
X183947000Y-58723750D01*
X183947000Y-59573000D01*
X183967000Y-59573000D01*
X183967000Y-59827000D01*
X183947000Y-59827000D01*
X183947000Y-59847000D01*
X183693000Y-59847000D01*
X183693000Y-59827000D01*
X182593750Y-59827000D01*
X182435000Y-59985750D01*
X182431928Y-60200000D01*
X182444188Y-60324482D01*
X182456479Y-60365000D01*
X181304254Y-60365000D01*
X181227962Y-60272038D01*
X181221406Y-60266658D01*
X181301185Y-60201185D01*
X181380537Y-60104494D01*
X181439502Y-59994180D01*
X181475812Y-59874482D01*
X181488072Y-59750000D01*
X181485000Y-59460750D01*
X181326250Y-59302000D01*
X180277000Y-59302000D01*
X180277000Y-59322000D01*
X180023000Y-59322000D01*
X180023000Y-59302000D01*
X178973750Y-59302000D01*
X178815000Y-59460750D01*
X178811928Y-59750000D01*
X178824188Y-59874482D01*
X178860498Y-59994180D01*
X178919463Y-60104494D01*
X178998815Y-60201185D01*
X179078594Y-60266658D01*
X179072038Y-60272038D01*
X178995746Y-60365000D01*
X178834625Y-60365000D01*
X178825812Y-60275518D01*
X178789502Y-60155820D01*
X178730537Y-60045506D01*
X178651185Y-59948815D01*
X178554494Y-59869463D01*
X178444180Y-59810498D01*
X178324482Y-59774188D01*
X178200000Y-59761928D01*
X174700000Y-59761928D01*
X174575518Y-59774188D01*
X174455820Y-59810498D01*
X174345506Y-59869463D01*
X174248815Y-59948815D01*
X174169463Y-60045506D01*
X174110498Y-60155820D01*
X174074188Y-60275518D01*
X174061928Y-60400000D01*
X174061928Y-62000000D01*
X174074188Y-62124482D01*
X174110498Y-62244180D01*
X174169463Y-62354494D01*
X174248815Y-62451185D01*
X174345506Y-62530537D01*
X174455820Y-62589502D01*
X174575518Y-62625812D01*
X174700000Y-62638072D01*
X178200000Y-62638072D01*
X178324482Y-62625812D01*
X178444180Y-62589502D01*
X178554494Y-62530537D01*
X178651185Y-62451185D01*
X178730537Y-62354494D01*
X178789502Y-62244180D01*
X178825812Y-62124482D01*
X178834625Y-62035000D01*
X178957112Y-62035000D01*
X178961595Y-62043387D01*
X179072038Y-62177962D01*
X179206613Y-62288405D01*
X179360149Y-62370472D01*
X179526745Y-62421008D01*
X179699999Y-62438072D01*
X180600001Y-62438072D01*
X180773255Y-62421008D01*
X180939851Y-62370472D01*
X181093387Y-62288405D01*
X181227962Y-62177962D01*
X181338405Y-62043387D01*
X181342888Y-62035000D01*
X182376598Y-62035000D01*
X182320424Y-62065026D01*
X182204699Y-62159999D01*
X182109726Y-62275724D01*
X182039154Y-62407753D01*
X181995697Y-62551014D01*
X181981023Y-62700000D01*
X181984700Y-62737333D01*
X181984701Y-71128208D01*
X181976745Y-71128992D01*
X181810149Y-71179528D01*
X181656613Y-71261595D01*
X181522038Y-71372038D01*
X181411595Y-71506613D01*
X181407112Y-71515000D01*
X180232238Y-71515000D01*
X180243072Y-71405000D01*
X180243072Y-70605000D01*
X180230812Y-70480518D01*
X180197287Y-70370000D01*
X180230812Y-70259482D01*
X180243072Y-70135000D01*
X180243072Y-69335000D01*
X180230812Y-69210518D01*
X180194502Y-69090820D01*
X180135537Y-68980506D01*
X180056185Y-68883815D01*
X179959494Y-68804463D01*
X179849180Y-68745498D01*
X179729482Y-68709188D01*
X179605000Y-68696928D01*
X178405000Y-68696928D01*
X178280518Y-68709188D01*
X178177000Y-68740590D01*
X178177000Y-67075000D01*
X178174560Y-67050224D01*
X178167333Y-67026399D01*
X178155597Y-67004443D01*
X178139803Y-66985197D01*
X178120557Y-66969403D01*
X178098601Y-66957667D01*
X178074776Y-66950440D01*
X178050000Y-66948000D01*
X178000186Y-66948000D01*
X177885241Y-66947831D01*
X177895812Y-66912982D01*
X177908072Y-66788500D01*
X177905000Y-66474250D01*
X177746250Y-66315500D01*
X176997000Y-66315500D01*
X176997000Y-66335500D01*
X176743000Y-66335500D01*
X176743000Y-66315500D01*
X176723000Y-66315500D01*
X176723000Y-66061500D01*
X176743000Y-66061500D01*
X176743000Y-65112250D01*
X176997000Y-65112250D01*
X176997000Y-66061500D01*
X177746250Y-66061500D01*
X177905000Y-65902750D01*
X177908072Y-65588500D01*
X177895812Y-65464018D01*
X177859502Y-65344320D01*
X177800537Y-65234006D01*
X177721185Y-65137315D01*
X177624494Y-65057963D01*
X177514180Y-64998998D01*
X177394482Y-64962688D01*
X177270000Y-64950428D01*
X177155750Y-64953500D01*
X176997000Y-65112250D01*
X176743000Y-65112250D01*
X176584250Y-64953500D01*
X176470000Y-64950428D01*
X176345518Y-64962688D01*
X176241099Y-64994363D01*
X176124482Y-64958988D01*
X176000000Y-64946728D01*
X175200000Y-64946728D01*
X175075518Y-64958988D01*
X174965000Y-64992513D01*
X174854482Y-64958988D01*
X174730000Y-64946728D01*
X173930000Y-64946728D01*
X173805518Y-64958988D01*
X173695000Y-64992513D01*
X173584482Y-64958988D01*
X173460000Y-64946728D01*
X172660000Y-64946728D01*
X172535518Y-64958988D01*
X172425000Y-64992513D01*
X172314482Y-64958988D01*
X172190000Y-64946728D01*
X171390000Y-64946728D01*
X171265518Y-64958988D01*
X171155000Y-64992513D01*
X171044482Y-64958988D01*
X170920000Y-64946728D01*
X170120000Y-64946728D01*
X169995518Y-64958988D01*
X169885000Y-64992513D01*
X169774482Y-64958988D01*
X169650000Y-64946728D01*
X168850000Y-64946728D01*
X168725518Y-64958988D01*
X168605820Y-64995298D01*
X168495506Y-65054263D01*
X168398815Y-65133615D01*
X168319463Y-65230306D01*
X168260498Y-65340620D01*
X168224188Y-65460318D01*
X168211928Y-65584800D01*
X168211928Y-66784800D01*
X168224188Y-66909282D01*
X168231582Y-66933656D01*
X161584291Y-66923894D01*
X161584690Y-62000000D01*
X168461928Y-62000000D01*
X168474188Y-62124482D01*
X168510498Y-62244180D01*
X168569463Y-62354494D01*
X168648815Y-62451185D01*
X168745506Y-62530537D01*
X168855820Y-62589502D01*
X168975518Y-62625812D01*
X169100000Y-62638072D01*
X170564250Y-62635000D01*
X170723000Y-62476250D01*
X170723000Y-61327000D01*
X170977000Y-61327000D01*
X170977000Y-62476250D01*
X171135750Y-62635000D01*
X172600000Y-62638072D01*
X172724482Y-62625812D01*
X172844180Y-62589502D01*
X172954494Y-62530537D01*
X173051185Y-62451185D01*
X173130537Y-62354494D01*
X173189502Y-62244180D01*
X173225812Y-62124482D01*
X173238072Y-62000000D01*
X173235000Y-61485750D01*
X173076250Y-61327000D01*
X170977000Y-61327000D01*
X170723000Y-61327000D01*
X168623750Y-61327000D01*
X168465000Y-61485750D01*
X168461928Y-62000000D01*
X161584690Y-62000000D01*
X161584820Y-60400000D01*
X168461928Y-60400000D01*
X168465000Y-60914250D01*
X168623750Y-61073000D01*
X170723000Y-61073000D01*
X170723000Y-59923750D01*
X170977000Y-59923750D01*
X170977000Y-61073000D01*
X173076250Y-61073000D01*
X173235000Y-60914250D01*
X173238072Y-60400000D01*
X173225812Y-60275518D01*
X173189502Y-60155820D01*
X173130537Y-60045506D01*
X173051185Y-59948815D01*
X172954494Y-59869463D01*
X172844180Y-59810498D01*
X172724482Y-59774188D01*
X172600000Y-59761928D01*
X171135750Y-59765000D01*
X170977000Y-59923750D01*
X170723000Y-59923750D01*
X170564250Y-59765000D01*
X169100000Y-59761928D01*
X168975518Y-59774188D01*
X168855820Y-59810498D01*
X168745506Y-59869463D01*
X168648815Y-59948815D01*
X168569463Y-60045506D01*
X168510498Y-60155820D01*
X168474188Y-60275518D01*
X168461928Y-60400000D01*
X161584820Y-60400000D01*
X161584917Y-59200000D01*
X182431928Y-59200000D01*
X182435000Y-59414250D01*
X182593750Y-59573000D01*
X183693000Y-59573000D01*
X183693000Y-58723750D01*
X183534250Y-58565000D01*
X183070000Y-58561928D01*
X182945518Y-58574188D01*
X182825820Y-58610498D01*
X182715506Y-58669463D01*
X182618815Y-58748815D01*
X182539463Y-58845506D01*
X182480498Y-58955820D01*
X182444188Y-59075518D01*
X182431928Y-59200000D01*
X161584917Y-59200000D01*
X161584966Y-58600000D01*
X178811928Y-58600000D01*
X178815000Y-58889250D01*
X178973750Y-59048000D01*
X180023000Y-59048000D01*
X180023000Y-58123750D01*
X180277000Y-58123750D01*
X180277000Y-59048000D01*
X181326250Y-59048000D01*
X181485000Y-58889250D01*
X181488072Y-58600000D01*
X181475812Y-58475518D01*
X181439502Y-58355820D01*
X181380537Y-58245506D01*
X181301185Y-58148815D01*
X181204494Y-58069463D01*
X181094180Y-58010498D01*
X180974482Y-57974188D01*
X180850000Y-57961928D01*
X180435750Y-57965000D01*
X180277000Y-58123750D01*
X180023000Y-58123750D01*
X179864250Y-57965000D01*
X179450000Y-57961928D01*
X179325518Y-57974188D01*
X179205820Y-58010498D01*
X179095506Y-58069463D01*
X178998815Y-58148815D01*
X178919463Y-58245506D01*
X178860498Y-58355820D01*
X178824188Y-58475518D01*
X178811928Y-58600000D01*
X161584966Y-58600000D01*
X161584997Y-58231810D01*
X161593908Y-58135944D01*
X161611196Y-58077618D01*
X161639483Y-58023764D01*
X161677695Y-57976426D01*
X161724375Y-57937410D01*
X161777746Y-57908203D01*
X161835765Y-57889921D01*
X161926221Y-57879952D01*
X184264525Y-57883311D01*
G37*
X184264525Y-57883311D02*
X184260722Y-58563975D01*
X184105750Y-58565000D01*
X183947000Y-58723750D01*
X183947000Y-59573000D01*
X183967000Y-59573000D01*
X183967000Y-59827000D01*
X183947000Y-59827000D01*
X183947000Y-59847000D01*
X183693000Y-59847000D01*
X183693000Y-59827000D01*
X182593750Y-59827000D01*
X182435000Y-59985750D01*
X182431928Y-60200000D01*
X182444188Y-60324482D01*
X182456479Y-60365000D01*
X181304254Y-60365000D01*
X181227962Y-60272038D01*
X181221406Y-60266658D01*
X181301185Y-60201185D01*
X181380537Y-60104494D01*
X181439502Y-59994180D01*
X181475812Y-59874482D01*
X181488072Y-59750000D01*
X181485000Y-59460750D01*
X181326250Y-59302000D01*
X180277000Y-59302000D01*
X180277000Y-59322000D01*
X180023000Y-59322000D01*
X180023000Y-59302000D01*
X178973750Y-59302000D01*
X178815000Y-59460750D01*
X178811928Y-59750000D01*
X178824188Y-59874482D01*
X178860498Y-59994180D01*
X178919463Y-60104494D01*
X178998815Y-60201185D01*
X179078594Y-60266658D01*
X179072038Y-60272038D01*
X178995746Y-60365000D01*
X178834625Y-60365000D01*
X178825812Y-60275518D01*
X178789502Y-60155820D01*
X178730537Y-60045506D01*
X178651185Y-59948815D01*
X178554494Y-59869463D01*
X178444180Y-59810498D01*
X178324482Y-59774188D01*
X178200000Y-59761928D01*
X174700000Y-59761928D01*
X174575518Y-59774188D01*
X174455820Y-59810498D01*
X174345506Y-59869463D01*
X174248815Y-59948815D01*
X174169463Y-60045506D01*
X174110498Y-60155820D01*
X174074188Y-60275518D01*
X174061928Y-60400000D01*
X174061928Y-62000000D01*
X174074188Y-62124482D01*
X174110498Y-62244180D01*
X174169463Y-62354494D01*
X174248815Y-62451185D01*
X174345506Y-62530537D01*
X174455820Y-62589502D01*
X174575518Y-62625812D01*
X174700000Y-62638072D01*
X178200000Y-62638072D01*
X178324482Y-62625812D01*
X178444180Y-62589502D01*
X178554494Y-62530537D01*
X178651185Y-62451185D01*
X178730537Y-62354494D01*
X178789502Y-62244180D01*
X178825812Y-62124482D01*
X178834625Y-62035000D01*
X178957112Y-62035000D01*
X178961595Y-62043387D01*
X179072038Y-62177962D01*
X179206613Y-62288405D01*
X179360149Y-62370472D01*
X179526745Y-62421008D01*
X179699999Y-62438072D01*
X180600001Y-62438072D01*
X180773255Y-62421008D01*
X180939851Y-62370472D01*
X181093387Y-62288405D01*
X181227962Y-62177962D01*
X181338405Y-62043387D01*
X181342888Y-62035000D01*
X182376598Y-62035000D01*
X182320424Y-62065026D01*
X182204699Y-62159999D01*
X182109726Y-62275724D01*
X182039154Y-62407753D01*
X181995697Y-62551014D01*
X181981023Y-62700000D01*
X181984700Y-62737333D01*
X181984701Y-71128208D01*
X181976745Y-71128992D01*
X181810149Y-71179528D01*
X181656613Y-71261595D01*
X181522038Y-71372038D01*
X181411595Y-71506613D01*
X181407112Y-71515000D01*
X180232238Y-71515000D01*
X180243072Y-71405000D01*
X180243072Y-70605000D01*
X180230812Y-70480518D01*
X180197287Y-70370000D01*
X180230812Y-70259482D01*
X180243072Y-70135000D01*
X180243072Y-69335000D01*
X180230812Y-69210518D01*
X180194502Y-69090820D01*
X180135537Y-68980506D01*
X180056185Y-68883815D01*
X179959494Y-68804463D01*
X179849180Y-68745498D01*
X179729482Y-68709188D01*
X179605000Y-68696928D01*
X178405000Y-68696928D01*
X178280518Y-68709188D01*
X178177000Y-68740590D01*
X178177000Y-67075000D01*
X178174560Y-67050224D01*
X178167333Y-67026399D01*
X178155597Y-67004443D01*
X178139803Y-66985197D01*
X178120557Y-66969403D01*
X178098601Y-66957667D01*
X178074776Y-66950440D01*
X178050000Y-66948000D01*
X178000186Y-66948000D01*
X177885241Y-66947831D01*
X177895812Y-66912982D01*
X177908072Y-66788500D01*
X177905000Y-66474250D01*
X177746250Y-66315500D01*
X176997000Y-66315500D01*
X176997000Y-66335500D01*
X176743000Y-66335500D01*
X176743000Y-66315500D01*
X176723000Y-66315500D01*
X176723000Y-66061500D01*
X176743000Y-66061500D01*
X176743000Y-65112250D01*
X176997000Y-65112250D01*
X176997000Y-66061500D01*
X177746250Y-66061500D01*
X177905000Y-65902750D01*
X177908072Y-65588500D01*
X177895812Y-65464018D01*
X177859502Y-65344320D01*
X177800537Y-65234006D01*
X177721185Y-65137315D01*
X177624494Y-65057963D01*
X177514180Y-64998998D01*
X177394482Y-64962688D01*
X177270000Y-64950428D01*
X177155750Y-64953500D01*
X176997000Y-65112250D01*
X176743000Y-65112250D01*
X176584250Y-64953500D01*
X176470000Y-64950428D01*
X176345518Y-64962688D01*
X176241099Y-64994363D01*
X176124482Y-64958988D01*
X176000000Y-64946728D01*
X175200000Y-64946728D01*
X175075518Y-64958988D01*
X174965000Y-64992513D01*
X174854482Y-64958988D01*
X174730000Y-64946728D01*
X173930000Y-64946728D01*
X173805518Y-64958988D01*
X173695000Y-64992513D01*
X173584482Y-64958988D01*
X173460000Y-64946728D01*
X172660000Y-64946728D01*
X172535518Y-64958988D01*
X172425000Y-64992513D01*
X172314482Y-64958988D01*
X172190000Y-64946728D01*
X171390000Y-64946728D01*
X171265518Y-64958988D01*
X171155000Y-64992513D01*
X171044482Y-64958988D01*
X170920000Y-64946728D01*
X170120000Y-64946728D01*
X169995518Y-64958988D01*
X169885000Y-64992513D01*
X169774482Y-64958988D01*
X169650000Y-64946728D01*
X168850000Y-64946728D01*
X168725518Y-64958988D01*
X168605820Y-64995298D01*
X168495506Y-65054263D01*
X168398815Y-65133615D01*
X168319463Y-65230306D01*
X168260498Y-65340620D01*
X168224188Y-65460318D01*
X168211928Y-65584800D01*
X168211928Y-66784800D01*
X168224188Y-66909282D01*
X168231582Y-66933656D01*
X161584291Y-66923894D01*
X161584690Y-62000000D01*
X168461928Y-62000000D01*
X168474188Y-62124482D01*
X168510498Y-62244180D01*
X168569463Y-62354494D01*
X168648815Y-62451185D01*
X168745506Y-62530537D01*
X168855820Y-62589502D01*
X168975518Y-62625812D01*
X169100000Y-62638072D01*
X170564250Y-62635000D01*
X170723000Y-62476250D01*
X170723000Y-61327000D01*
X170977000Y-61327000D01*
X170977000Y-62476250D01*
X171135750Y-62635000D01*
X172600000Y-62638072D01*
X172724482Y-62625812D01*
X172844180Y-62589502D01*
X172954494Y-62530537D01*
X173051185Y-62451185D01*
X173130537Y-62354494D01*
X173189502Y-62244180D01*
X173225812Y-62124482D01*
X173238072Y-62000000D01*
X173235000Y-61485750D01*
X173076250Y-61327000D01*
X170977000Y-61327000D01*
X170723000Y-61327000D01*
X168623750Y-61327000D01*
X168465000Y-61485750D01*
X168461928Y-62000000D01*
X161584690Y-62000000D01*
X161584820Y-60400000D01*
X168461928Y-60400000D01*
X168465000Y-60914250D01*
X168623750Y-61073000D01*
X170723000Y-61073000D01*
X170723000Y-59923750D01*
X170977000Y-59923750D01*
X170977000Y-61073000D01*
X173076250Y-61073000D01*
X173235000Y-60914250D01*
X173238072Y-60400000D01*
X173225812Y-60275518D01*
X173189502Y-60155820D01*
X173130537Y-60045506D01*
X173051185Y-59948815D01*
X172954494Y-59869463D01*
X172844180Y-59810498D01*
X172724482Y-59774188D01*
X172600000Y-59761928D01*
X171135750Y-59765000D01*
X170977000Y-59923750D01*
X170723000Y-59923750D01*
X170564250Y-59765000D01*
X169100000Y-59761928D01*
X168975518Y-59774188D01*
X168855820Y-59810498D01*
X168745506Y-59869463D01*
X168648815Y-59948815D01*
X168569463Y-60045506D01*
X168510498Y-60155820D01*
X168474188Y-60275518D01*
X168461928Y-60400000D01*
X161584820Y-60400000D01*
X161584917Y-59200000D01*
X182431928Y-59200000D01*
X182435000Y-59414250D01*
X182593750Y-59573000D01*
X183693000Y-59573000D01*
X183693000Y-58723750D01*
X183534250Y-58565000D01*
X183070000Y-58561928D01*
X182945518Y-58574188D01*
X182825820Y-58610498D01*
X182715506Y-58669463D01*
X182618815Y-58748815D01*
X182539463Y-58845506D01*
X182480498Y-58955820D01*
X182444188Y-59075518D01*
X182431928Y-59200000D01*
X161584917Y-59200000D01*
X161584966Y-58600000D01*
X178811928Y-58600000D01*
X178815000Y-58889250D01*
X178973750Y-59048000D01*
X180023000Y-59048000D01*
X180023000Y-58123750D01*
X180277000Y-58123750D01*
X180277000Y-59048000D01*
X181326250Y-59048000D01*
X181485000Y-58889250D01*
X181488072Y-58600000D01*
X181475812Y-58475518D01*
X181439502Y-58355820D01*
X181380537Y-58245506D01*
X181301185Y-58148815D01*
X181204494Y-58069463D01*
X181094180Y-58010498D01*
X180974482Y-57974188D01*
X180850000Y-57961928D01*
X180435750Y-57965000D01*
X180277000Y-58123750D01*
X180023000Y-58123750D01*
X179864250Y-57965000D01*
X179450000Y-57961928D01*
X179325518Y-57974188D01*
X179205820Y-58010498D01*
X179095506Y-58069463D01*
X178998815Y-58148815D01*
X178919463Y-58245506D01*
X178860498Y-58355820D01*
X178824188Y-58475518D01*
X178811928Y-58600000D01*
X161584966Y-58600000D01*
X161584997Y-58231810D01*
X161593908Y-58135944D01*
X161611196Y-58077618D01*
X161639483Y-58023764D01*
X161677695Y-57976426D01*
X161724375Y-57937410D01*
X161777746Y-57908203D01*
X161835765Y-57889921D01*
X161926221Y-57879952D01*
X184264525Y-57883311D01*
G36*
X189123708Y-66623000D02*
G01*
X184977711Y-66623000D01*
X184994190Y-63673340D01*
X185021185Y-63651185D01*
X185100537Y-63554494D01*
X185159502Y-63444180D01*
X185195812Y-63324482D01*
X185208072Y-63200000D01*
X185208072Y-62200000D01*
X185195812Y-62075518D01*
X185159502Y-61955820D01*
X185100537Y-61845506D01*
X185021185Y-61748815D01*
X185005015Y-61735545D01*
X185011027Y-60659522D01*
X185021185Y-60651185D01*
X185100537Y-60554494D01*
X185159502Y-60444180D01*
X185195812Y-60324482D01*
X185208072Y-60200000D01*
X185208072Y-59200000D01*
X185195812Y-59075518D01*
X185159502Y-58955820D01*
X185100537Y-58845506D01*
X185021697Y-58749439D01*
X185026292Y-57927000D01*
X189172289Y-57927000D01*
X189123708Y-66623000D01*
G37*
X189123708Y-66623000D02*
X184977711Y-66623000D01*
X184994190Y-63673340D01*
X185021185Y-63651185D01*
X185100537Y-63554494D01*
X185159502Y-63444180D01*
X185195812Y-63324482D01*
X185208072Y-63200000D01*
X185208072Y-62200000D01*
X185195812Y-62075518D01*
X185159502Y-61955820D01*
X185100537Y-61845506D01*
X185021185Y-61748815D01*
X185005015Y-61735545D01*
X185011027Y-60659522D01*
X185021185Y-60651185D01*
X185100537Y-60554494D01*
X185159502Y-60444180D01*
X185195812Y-60324482D01*
X185208072Y-60200000D01*
X185208072Y-59200000D01*
X185195812Y-59075518D01*
X185159502Y-58955820D01*
X185100537Y-58845506D01*
X185021697Y-58749439D01*
X185026292Y-57927000D01*
X189172289Y-57927000D01*
X189123708Y-66623000D01*
M02*
